<?xml version="1.0" standalone="no"?>
<!DOCTYPE svg PUBLIC "-//W3C//DTD SVG 20010904//EN"
 "http://www.w3.org/TR/2001/REC-SVG-20010904/DTD/svg10.dtd">
<svg version="1.0" xmlns="http://www.w3.org/2000/svg"
 width="2048.000000pt" height="2048.000000pt" viewBox="0 0 2048.000000 2048.000000"
 preserveAspectRatio="xMidYMid meet">
<metadata>
Created by potrace 1.14, written by Peter Selinger 2001-2017
</metadata>
<g transform="translate(0.000000,2048.000000) scale(0.100000,-0.100000)"
fill="#000000" stroke="none">
<path d="M4020 12701 c0 -3 -30 -8 -68 -9 -37 -2 -82 -4 -99 -5 -18 -1 -33 -4
-33 -7 0 -4 -10 -6 -22 -7 -24 -1 -93 -11 -93 -13 0 -3 -39 -9 -67 -12 -16 -1
-28 -5 -28 -8 0 -3 -8 -6 -17 -7 -10 -1 -31 -5 -48 -8 -16 -4 -38 -7 -47 -8
-10 -1 -18 -5 -18 -10 0 -4 -4 -5 -10 -2 -5 3 -10 2 -10 -3 0 -5 -13 -8 -30
-7 -16 1 -27 -2 -24 -7 5 -8 -10 -12 -35 -9 -7 2 -10 -2 -6 -9 5 -7 0 -11 -11
-9 -27 3 -75 -12 -69 -22 3 -4 -4 -6 -15 -4 -11 2 -20 -1 -20 -7 0 -6 -3 -8
-7 -5 -3 4 -12 2 -20 -4 -7 -6 -13 -8 -13 -4 0 4 -7 2 -15 -5 -8 -6 -20 -8
-26 -4 -7 4 -9 3 -6 -3 4 -6 -4 -14 -18 -17 -14 -4 -25 -10 -25 -15 0 -4 -11
-7 -25 -6 -14 2 -23 -1 -20 -5 5 -8 -20 -20 -38 -19 -5 0 -15 -7 -21 -17 -8
-11 -20 -15 -30 -11 -10 4 -15 3 -11 -3 3 -6 2 -10 -3 -10 -5 0 -26 -11 -46
-25 -21 -14 -34 -20 -31 -13 4 7 -1 4 -9 -6 -9 -11 -16 -16 -16 -10 0 5 -7 0
-15 -10 -8 -11 -15 -16 -15 -11 0 5 -12 -2 -27 -16 -14 -13 -23 -17 -19 -9 5
9 2 8 -7 -2 -8 -10 -17 -15 -20 -11 -4 3 -7 -1 -7 -10 0 -9 -3 -16 -7 -16 -20
3 -34 -2 -28 -11 3 -5 -1 -10 -9 -10 -9 0 -16 -5 -16 -11 0 -5 -4 -8 -9 -5 -5
3 -14 -1 -21 -9 -7 -8 -19 -15 -27 -15 -8 0 -12 -4 -8 -9 3 -5 -4 -12 -15 -16
-11 -3 -20 -10 -20 -15 0 -5 -9 -12 -20 -15 -11 -4 -18 -11 -15 -16 4 -5 -1
-9 -9 -9 -9 0 -16 -4 -16 -10 0 -5 -5 -10 -11 -10 -6 0 -20 -11 -31 -25 -11
-14 -24 -23 -29 -20 -5 4 -9 1 -9 -5 0 -12 -60 -70 -73 -70 -4 0 -5 -4 -2 -10
3 -5 -1 -10 -9 -10 -8 0 -18 -9 -21 -20 -4 -11 -9 -18 -13 -16 -4 2 -13 -2
-20 -10 -7 -8 -10 -14 -7 -14 3 0 -3 -8 -12 -18 -10 -11 -21 -17 -25 -15 -5 2
-8 -1 -8 -8 0 -7 -12 -25 -26 -40 -14 -15 -36 -39 -49 -53 -13 -14 -21 -26
-18 -26 3 0 -4 -9 -17 -20 -13 -11 -19 -20 -15 -20 4 0 -1 -8 -11 -18 -26 -23
-64 -79 -64 -92 0 -6 -4 -9 -9 -6 -8 5 -24 -34 -18 -42 1 -2 -6 -8 -16 -13 -9
-6 -17 -17 -17 -24 0 -8 -5 -15 -12 -15 -6 0 -9 -3 -5 -6 3 -3 -3 -15 -13 -27
-11 -11 -17 -24 -14 -29 3 -4 -1 -11 -10 -14 -8 -3 -18 -19 -21 -35 -4 -16
-10 -29 -15 -29 -5 0 -11 -13 -15 -30 -4 -16 -11 -30 -16 -30 -5 0 -9 -9 -9
-20 0 -11 -5 -20 -10 -20 -6 0 -9 -3 -8 -7 0 -5 -6 -24 -14 -43 -26 -61 -31
-75 -30 -82 1 -5 -3 -8 -9 -8 -5 0 -8 -4 -4 -9 3 -5 1 -12 -5 -16 -6 -4 -8
-11 -5 -16 4 -5 2 -9 -3 -9 -5 0 -9 -6 -10 -12 -3 -32 -10 -50 -23 -59 -11 -7
-11 -9 0 -9 11 0 11 -3 1 -15 -7 -8 -9 -15 -5 -15 4 0 2 -7 -5 -15 -7 -8 -9
-15 -4 -15 4 0 3 -5 -4 -12 -7 -7 -12 -25 -12 -40 0 -15 -4 -28 -10 -28 -5 0
-7 -7 -4 -15 4 -8 2 -15 -2 -15 -5 0 -10 -10 -11 -22 -2 -24 -10 -69 -13 -78
-1 -3 -2 -9 -1 -14 1 -4 -2 -13 -7 -20 -4 -6 -7 -21 -6 -33 0 -13 -1 -23 -5
-23 -3 0 -6 -24 -6 -53 0 -28 -3 -54 -7 -57 -4 -3 -8 -33 -10 -68 -1 -34 -7
-62 -13 -62 -5 0 -3 -5 5 -10 12 -8 12 -10 1 -10 -9 0 -10 -4 -4 -12 8 -11 10
-33 3 -40 -6 -8 -5 -196 1 -214 4 -12 5 -25 1 -28 -8 -8 -10 -46 -3 -46 3 0 7
-17 7 -38 2 -76 8 -133 13 -137 3 -2 6 -24 6 -49 0 -25 3 -46 8 -46 4 0 5 -5
2 -10 -4 -6 -1 -18 7 -27 11 -14 11 -16 -2 -8 -12 7 -13 6 -4 -6 6 -8 11 -23
11 -34 2 -32 7 -49 18 -57 6 -5 5 -8 -3 -8 -10 0 -10 -3 1 -15 9 -8 13 -24 10
-35 -3 -11 -1 -20 4 -20 7 0 13 -22 16 -67 0 -7 4 -13 9 -13 5 0 6 -4 3 -10
-3 -5 -2 -10 3 -10 6 0 8 -9 5 -20 -3 -12 0 -20 6 -20 7 0 10 -4 7 -9 -3 -4 1
-17 8 -27 11 -15 12 -22 3 -33 -9 -11 -9 -13 -1 -8 8 4 17 -9 25 -38 7 -25 18
-45 23 -45 5 0 7 -3 3 -6 -3 -3 3 -22 13 -42 10 -21 20 -44 22 -52 2 -8 10
-21 18 -28 8 -8 10 -11 3 -8 -8 5 -8 0 0 -18 7 -13 15 -22 19 -20 5 3 8 -1 8
-8 0 -21 51 -118 61 -118 6 0 8 -4 5 -9 -3 -5 1 -14 10 -21 8 -7 13 -19 10
-26 -3 -7 4 -16 15 -19 10 -4 19 -13 19 -22 0 -8 10 -24 22 -35 13 -11 17 -17
11 -13 -21 10 -15 -9 7 -25 11 -8 20 -20 20 -27 0 -7 9 -17 20 -23 11 -6 20
-16 20 -23 0 -7 14 -27 30 -45 17 -18 30 -35 30 -38 0 -3 16 -21 35 -40 20
-20 33 -40 29 -47 -4 -7 -4 -9 0 -5 4 3 31 -18 59 -48 29 -30 59 -54 67 -54
13 0 13 -1 0 -10 -8 -5 -10 -10 -3 -10 6 0 32 -20 56 -44 25 -24 48 -42 50
-39 3 2 8 -5 12 -16 3 -12 13 -21 21 -21 9 0 12 -5 8 -12 -5 -8 -2 -9 9 -5 11
4 17 1 17 -8 0 -8 5 -15 12 -15 6 0 18 -7 27 -15 9 -8 28 -26 44 -40 15 -14
32 -23 39 -19 7 4 8 3 4 -4 -4 -7 -3 -12 3 -12 6 0 22 -11 36 -25 14 -14 25
-21 25 -15 0 6 11 -1 25 -15 14 -14 30 -25 34 -25 4 0 18 -9 31 -20 12 -11 27
-17 31 -14 5 3 9 0 9 -5 0 -6 7 -11 15 -11 8 0 15 -4 15 -8 0 -5 16 -14 35
-22 19 -8 35 -17 35 -22 0 -4 9 -8 20 -8 11 0 20 -4 20 -10 0 -5 9 -10 20 -10
11 0 20 -4 20 -10 0 -5 9 -10 20 -10 11 0 20 -4 20 -10 0 -5 9 -10 19 -10 11
0 26 -7 35 -15 8 -9 19 -15 23 -14 20 3 34 -2 28 -11 -3 -6 1 -7 10 -4 8 4 23
0 31 -7 9 -8 22 -14 28 -14 6 -1 19 -4 29 -8 29 -12 52 -20 60 -22 4 -2 10 -4
15 -5 4 -1 10 -2 15 -1 4 0 7 -4 7 -10 0 -5 5 -7 10 -4 6 3 16 3 23 -2 6 -4
17 -8 22 -10 6 -1 21 -5 35 -8 14 -4 31 -7 38 -7 6 -1 12 -4 12 -8 0 -3 17 -7
37 -8 20 -2 42 -7 48 -11 10 -9 17 -10 73 -14 17 -1 32 -5 32 -8 0 -3 10 -5
23 -4 12 1 27 0 32 -4 6 -3 19 -6 30 -6 11 0 26 -4 33 -8 7 -5 12 -3 12 5 0 8
3 9 8 3 4 -6 14 -10 22 -10 8 1 27 -2 41 -6 16 -4 32 -2 38 4 6 6 11 7 11 1 0
-5 19 -9 43 -9 23 0 52 -3 65 -7 13 -5 22 -3 22 3 0 6 5 7 11 3 28 -17 379 0
391 18 6 10 8 10 8 0 0 -8 9 -11 28 -7 15 3 40 7 56 10 15 3 34 0 42 -6 12 -9
13 -9 9 3 -4 11 2 14 27 13 18 0 35 3 38 7 3 3 27 9 53 12 26 3 55 9 65 14 9
5 24 8 32 7 8 -1 26 4 40 10 14 7 31 10 38 8 6 -3 12 1 12 7 0 7 7 10 15 7 8
-4 17 -2 21 4 3 5 15 7 26 3 14 -4 18 -2 14 5 -4 7 1 11 13 11 12 0 21 4 21 8
0 5 10 8 23 7 12 -1 25 2 28 7 3 5 19 11 35 14 16 3 31 10 35 15 3 6 10 10 15
9 14 -2 138 53 146 64 4 6 8 7 8 2 0 -5 7 -3 15 4 8 7 15 9 15 4 0 -5 5 -1 11
9 6 9 14 15 20 12 5 -4 9 -1 9 4 0 6 3 10 8 10 21 -4 32 2 26 13 -5 8 -2 9 10
5 10 -4 19 -1 22 8 4 8 10 12 15 9 5 -3 12 2 15 11 5 13 9 13 23 3 9 -7 13 -9
9 -4 -8 9 33 46 51 46 7 0 14 7 17 15 4 8 10 12 15 9 5 -3 12 2 15 10 3 9 10
14 14 11 4 -2 15 4 25 15 10 11 23 20 29 20 6 0 28 16 49 35 21 19 42 35 47
35 5 0 26 17 48 38 73 70 134 122 144 122 5 0 7 4 3 9 -3 5 4 12 14 16 11 3
23 15 26 26 4 10 9 18 13 15 4 -2 21 14 37 35 17 21 36 38 43 39 6 0 12 7 12
15 0 8 4 15 9 15 5 0 13 9 16 20 4 11 11 18 16 15 5 -4 9 0 9 8 0 8 7 18 16
21 9 4 14 9 11 12 -9 9 25 44 36 37 6 -3 7 -1 3 5 -3 6 0 17 8 25 8 8 13 17
10 20 -3 3 4 8 15 12 12 3 19 10 16 15 -3 4 2 13 10 20 8 7 15 19 15 26 0 9 6
11 18 7 15 -6 15 -4 4 9 -11 14 -10 18 8 28 11 6 18 15 15 20 -3 5 3 15 13 22
11 7 20 18 21 23 5 24 34 75 43 75 5 0 6 5 3 10 -3 6 -1 10 5 10 6 0 8 5 5 10
-3 6 -1 10 5 10 7 0 10 7 6 15 -3 10 1 15 12 15 15 0 15 2 2 10 -13 8 -12 10
3 10 10 0 16 4 12 9 -3 5 1 15 8 23 8 7 12 19 9 26 -2 6 4 15 13 18 13 5 14 8
3 15 -10 7 -10 9 0 9 6 0 12 6 12 14 0 8 6 21 13 28 6 7 14 22 15 33 2 11 9
23 15 27 8 5 7 8 -3 8 -13 1 -13 2 0 13 15 12 22 30 23 55 0 6 5 12 10 12 6 0
7 3 4 7 -4 3 -3 11 2 17 5 6 14 35 21 64 6 28 16 52 21 52 4 0 6 6 3 14 -3 8
2 16 13 19 10 3 2816 4 6236 3 3419 0 6218 1 6218 4 1 3 3 26 4 53 2 46 2 47
-29 47 -17 0 -2815 1 -6218 1 -3810 0 -6190 4 -6193 10 -4 5 0 9 7 9 9 0 9 3
-2 10 -8 5 -10 10 -4 10 6 0 11 6 12 13 0 6 3 32 7 57 4 25 7 55 8 68 0 12 4
22 8 22 3 0 5 11 4 25 -2 14 0 27 4 29 4 3 7 30 6 61 -1 30 1 55 4 55 9 0 6
364 -3 378 -4 7 -2 12 4 12 6 0 8 5 4 12 -5 7 -9 28 -10 48 -5 82 -16 145 -27
159 -9 12 -9 13 1 7 12 -7 17 6 5 17 -3 4 -8 19 -10 34 -5 43 -8 57 -14 68 -4
6 -5 20 -4 33 1 12 -2 22 -6 22 -4 0 -6 9 -4 20 2 11 0 20 -6 20 -5 0 -9 14
-9 30 0 17 -5 30 -11 30 -6 0 -9 7 -6 15 4 8 2 17 -4 20 -5 4 -7 11 -3 16 3 5
-2 21 -11 36 -9 14 -12 22 -6 19 6 -4 11 -2 11 3 0 6 -5 11 -11 11 -6 0 -8 7
-5 15 3 9 -1 18 -9 21 -8 4 -12 10 -9 15 3 6 0 16 -6 24 -6 8 -9 19 -5 25 3 5
-1 13 -9 16 -9 3 -14 10 -11 14 3 5 -1 14 -8 22 -8 7 -13 21 -11 30 1 10 -4
22 -12 29 -8 6 -14 20 -14 30 0 11 -5 19 -11 19 -5 0 -7 5 -4 10 3 6 1 10 -5
10 -6 0 -8 5 -5 10 3 6 1 10 -4 10 -6 0 -11 8 -11 19 0 10 -7 24 -15 31 -8 7
-13 16 -10 20 3 4 -2 13 -10 20 -8 7 -12 16 -9 21 3 5 0 9 -5 9 -6 0 -11 7
-11 15 0 8 -5 15 -12 15 -6 0 -8 3 -5 7 4 3 -1 12 -11 20 -9 8 -11 11 -4 8 11
-6 11 -3 0 14 -7 12 -16 21 -20 21 -5 0 -8 7 -8 15 0 8 -4 15 -10 15 -5 0 -10
7 -10 15 0 8 -4 15 -10 15 -5 0 -10 6 -10 13 0 6 -11 25 -25 41 -13 16 -22 33
-18 39 3 6 1 7 -5 3 -7 -4 -17 3 -24 18 -6 14 -15 26 -20 26 -4 0 -8 6 -8 13
0 7 -13 23 -30 37 -17 14 -30 29 -30 35 0 6 -9 17 -20 25 -11 8 -20 20 -20 28
0 7 -4 11 -9 7 -5 -3 -12 3 -15 12 -4 10 -33 42 -66 72 -33 29 -57 58 -53 64
3 6 1 7 -6 3 -6 -4 -14 0 -17 8 -3 9 -10 16 -15 16 -6 0 -28 18 -49 40 -22 23
-40 38 -40 35 0 -3 -14 8 -31 25 -17 16 -36 27 -42 23 -5 -3 -7 -2 -4 3 3 6
-17 25 -44 43 -27 19 -49 38 -49 43 0 4 -6 8 -13 8 -7 0 -23 9 -34 19 -12 11
-24 17 -27 14 -3 -4 -6 -1 -6 6 0 7 -4 10 -9 6 -5 -3 -13 4 -16 16 -6 17 -9
19 -16 8 -6 -10 -9 -11 -9 -1 0 6 -7 12 -15 12 -8 0 -15 5 -15 10 0 6 -7 10
-15 10 -8 0 -24 9 -35 20 -11 11 -23 20 -27 20 -16 1 -63 25 -63 33 0 5 -4 6
-9 2 -5 -3 -16 2 -24 10 -9 8 -23 15 -31 15 -9 0 -16 5 -16 11 0 5 -4 8 -9 4
-5 -3 -12 -1 -16 5 -4 6 -11 8 -16 5 -5 -4 -9 -2 -9 3 0 8 -11 13 -62 27 -5 2
-13 3 -19 4 -5 0 -8 5 -5 9 2 4 -7 9 -22 10 -15 1 -29 7 -30 12 -2 6 -8 7 -13
4 -6 -3 -18 1 -27 9 -9 8 -24 15 -32 15 -20 1 -39 6 -73 20 -16 7 -32 12 -37
12 -5 0 -21 5 -37 11 -15 6 -39 13 -53 15 -28 4 -65 12 -65 14 0 3 -42 10 -77
12 -21 2 -38 7 -38 12 0 4 -9 6 -20 3 -11 -3 -20 -2 -20 1 0 4 -12 8 -27 9
-84 4 -160 16 -172 26 -12 9 -13 9 -7 0 5 -9 0 -13 -14 -13 -13 0 -19 4 -14
11 4 8 0 8 -15 0 -11 -7 -21 -8 -21 -4 0 10 -301 10 -318 0 -6 -5 -12 -4 -12
1 0 5 -7 9 -15 9 -8 0 -15 -3 -15 -6z m93 -84 c14 9 167 12 182 4 16 -9 44 -8
39 1 -3 4 0 8 5 8 6 0 11 -3 11 -8 0 -4 32 -8 72 -10 39 -1 77 -7 85 -13 10
-9 13 -8 13 0 0 9 5 9 20 1 11 -6 20 -8 20 -4 0 3 7 1 15 -6 12 -10 15 -10 15
1 0 10 3 10 11 2 6 -6 18 -9 25 -6 8 3 20 1 27 -4 6 -5 28 -10 47 -12 19 -1
38 -7 42 -14 6 -9 8 -9 8 1 0 8 5 10 13 5 6 -4 15 -8 20 -9 4 -1 10 -3 15 -4
4 -1 15 -1 26 0 10 1 15 -3 12 -9 -4 -6 2 -8 14 -6 11 2 22 0 25 -5 3 -5 12
-7 19 -4 8 3 17 1 21 -5 3 -6 16 -11 29 -11 12 0 26 -3 30 -7 3 -4 16 -8 28
-10 12 -2 25 -8 29 -14 3 -6 9 -10 13 -9 15 4 66 -12 66 -20 0 -5 7 -7 15 -4
8 4 15 2 15 -3 0 -5 10 -9 22 -10 11 -1 25 -8 29 -15 5 -7 9 -9 9 -4 0 5 6 3
13 -3 8 -6 17 -8 20 -4 4 3 7 1 7 -5 0 -7 9 -12 20 -12 11 0 20 -4 20 -10 0
-5 3 -9 8 -9 20 3 32 -2 26 -13 -4 -7 -3 -8 4 -4 6 4 23 -1 37 -10 14 -9 25
-12 25 -8 0 5 5 2 10 -6 5 -8 14 -15 20 -15 6 0 14 -6 19 -13 5 -8 12 -14 17
-14 24 -2 44 -11 44 -20 0 -5 6 -8 13 -5 6 2 24 -8 39 -24 14 -15 29 -25 32
-22 4 5 15 -3 51 -35 8 -7 15 -10 15 -6 0 4 8 -3 19 -14 10 -12 21 -19 25 -15
3 3 6 1 6 -5 0 -7 4 -12 9 -12 6 0 24 -13 42 -30 18 -16 36 -27 41 -24 4 3 8
-2 8 -10 0 -9 7 -16 15 -16 8 0 15 -4 15 -10 0 -5 4 -10 9 -10 15 0 66 -51 63
-62 -1 -5 2 -7 8 -3 5 3 10 1 10 -5 0 -6 5 -8 10 -5 6 3 10 1 10 -5 0 -6 14
-23 30 -37 17 -13 27 -30 23 -35 -3 -7 -1 -8 5 -4 7 4 12 2 12 -4 0 -6 4 -9 9
-5 5 3 12 -4 16 -15 3 -11 13 -20 21 -20 8 0 13 -4 9 -9 -3 -6 3 -15 14 -20
11 -6 23 -20 26 -31 3 -11 13 -20 21 -20 8 0 12 -4 9 -10 -3 -5 -1 -10 6 -10
7 0 9 -3 6 -6 -3 -4 8 -20 24 -35 17 -16 28 -29 25 -29 -4 0 5 -12 19 -27 14
-15 25 -34 25 -41 0 -7 7 -15 15 -18 8 -4 12 -10 9 -15 -3 -5 2 -9 11 -9 9 0
14 -4 10 -9 -3 -5 2 -16 11 -25 8 -9 12 -20 9 -26 -4 -6 -3 -9 2 -8 4 2 9 0
10 -5 2 -4 12 -17 23 -29 19 -20 24 -33 21 -50 0 -5 3 -8 7 -8 8 0 36 -51 32
-59 -1 -2 4 -7 11 -12 7 -4 14 -15 15 -25 2 -9 9 -21 16 -25 7 -5 9 -9 5 -9
-11 0 13 -43 29 -53 7 -4 10 -15 7 -23 -3 -9 0 -19 7 -24 6 -4 13 -19 13 -33
1 -14 7 -25 12 -24 6 1 9 -6 7 -15 -2 -10 3 -18 9 -18 7 0 9 -3 6 -7 -4 -3 -2
-12 4 -20 6 -7 8 -13 4 -13 -4 0 -2 -7 5 -15 7 -8 9 -15 6 -15 -4 0 -1 -10 6
-22 7 -13 13 -26 14 -30 1 -5 3 -11 4 -15 1 -5 2 -12 1 -17 -1 -4 3 -14 9 -21
6 -7 12 -29 14 -49 2 -19 8 -41 14 -49 6 -7 10 -22 8 -32 -2 -11 0 -22 4 -25
5 -3 9 -18 11 -35 2 -16 7 -35 11 -41 5 -7 8 -16 7 -20 -1 -5 0 -11 1 -14 1
-3 4 -18 6 -35 2 -16 6 -50 10 -75 3 -25 6 -55 7 -67 0 -13 3 -23 7 -23 7 0 5
-59 -3 -67 -4 -3 -2 -11 3 -18 13 -16 19 -232 6 -245 -7 -7 -6 -10 1 -10 8 0
9 -9 4 -27 -4 -16 -7 -49 -7 -76 1 -26 -2 -47 -5 -47 -3 0 -5 -27 -5 -59 1
-33 -2 -57 -6 -54 -5 2 -8 1 -9 -4 -5 -57 -15 -118 -19 -118 -1 0 -3 -15 -5
-33 -2 -18 -9 -40 -15 -48 -10 -11 -10 -14 1 -14 10 0 11 -3 3 -8 -7 -4 -13
-20 -15 -37 -2 -16 -7 -35 -12 -42 -5 -7 -6 -16 -3 -22 3 -5 1 -11 -4 -13 -6
-2 -12 -13 -13 -26 0 -12 -5 -22 -10 -22 -4 0 -5 -5 -2 -10 4 -6 1 -17 -5 -25
-7 -8 -10 -15 -6 -15 4 0 0 -13 -8 -29 -9 -16 -12 -31 -9 -35 4 -3 1 -6 -6 -6
-7 0 -10 -4 -6 -9 3 -5 1 -12 -5 -16 -5 -3 -10 -15 -10 -26 0 -10 -5 -19 -12
-19 -6 0 -8 -3 -5 -6 3 -4 1 -16 -5 -28 -7 -11 -11 -24 -10 -28 1 -5 -3 -8
-10 -8 -6 0 -8 -3 -5 -7 4 -3 2 -12 -4 -20 -6 -7 -8 -13 -5 -13 4 0 0 -7 -8
-16 -9 -8 -16 -24 -16 -35 0 -11 -7 -22 -15 -25 -8 -4 -13 -10 -10 -14 3 -5
-5 -19 -17 -31 -13 -12 -17 -19 -11 -15 7 4 1 -13 -15 -37 -15 -25 -30 -43
-34 -40 -4 2 -5 -2 -2 -10 3 -8 0 -18 -5 -22 -6 -3 -8 -11 -5 -17 4 -6 2 -8
-4 -4 -6 3 -13 -3 -17 -14 -3 -11 -11 -20 -16 -20 -6 0 -7 -4 -4 -10 3 -5 1
-10 -4 -10 -6 0 -11 -6 -11 -14 0 -8 -7 -17 -16 -20 -9 -4 -14 -9 -11 -12 3
-4 1 -12 -6 -19 -27 -29 -52 -60 -52 -67 0 -4 -9 -14 -20 -22 -11 -9 -17 -16
-12 -16 11 0 -32 -40 -44 -40 -6 0 -9 -6 -7 -12 5 -14 -27 -50 -36 -40 -3 3
-6 -1 -6 -8 0 -7 -35 -47 -77 -88 -43 -42 -77 -80 -75 -85 1 -5 -2 -6 -6 -3
-5 3 -23 -7 -39 -22 -52 -48 -83 -72 -83 -64 0 4 -11 -5 -24 -20 -13 -16 -26
-28 -30 -28 -4 0 -16 -9 -28 -20 -12 -11 -28 -20 -35 -20 -7 0 -13 -4 -13 -10
0 -5 -6 -10 -14 -10 -8 0 -17 -7 -20 -16 -3 -8 -10 -12 -16 -9 -5 3 -10 2 -10
-4 0 -5 -12 -16 -27 -23 -41 -21 -77 -42 -83 -49 -7 -8 -44 -22 -52 -21 -5 1
-8 -3 -8 -8 0 -6 -5 -10 -11 -10 -7 0 -18 -8 -26 -17 -8 -10 -12 -13 -9 -7 3
6 -9 4 -28 -5 -19 -9 -31 -20 -29 -24 3 -5 -1 -7 -8 -6 -8 1 -27 -4 -44 -11
-16 -7 -33 -13 -37 -12 -5 1 -8 -3 -8 -10 0 -6 -3 -8 -7 -5 -3 4 -11 3 -17 -1
-11 -9 -106 -46 -118 -47 -3 0 -10 -3 -14 -7 -4 -5 -18 -8 -31 -8 -16 0 -22
-4 -17 -12 5 -8 0 -9 -14 -6 -12 4 -25 2 -28 -4 -3 -5 -12 -7 -20 -4 -8 3 -14
0 -14 -5 0 -7 -9 -9 -21 -6 -12 3 -22 0 -25 -8 -3 -8 -12 -11 -20 -8 -8 3 -20
1 -27 -5 -6 -5 -20 -8 -29 -7 -10 2 -18 -1 -18 -5 0 -5 -9 -7 -20 -5 -11 2
-22 0 -25 -5 -3 -5 -12 -7 -20 -3 -8 3 -15 1 -15 -5 0 -5 -11 -8 -25 -7 -14 2
-25 -2 -25 -8 0 -8 -3 -7 -9 2 -5 8 -11 9 -15 3 -4 -6 -15 -9 -26 -7 -11 2
-22 0 -25 -5 -3 -4 -16 -7 -30 -5 -14 1 -25 -2 -25 -8 0 -5 -7 -4 -15 3 -9 7
-15 8 -15 2 0 -6 -8 -9 -17 -8 -9 2 -33 0 -54 -4 -23 -4 -42 -3 -48 3 -8 8
-11 8 -11 0 0 -6 -15 -11 -32 -11 -18 -1 -70 -2 -116 -4 -45 -2 -82 0 -82 4 0
4 -11 3 -25 -2 -14 -5 -25 -6 -25 -1 0 4 -15 8 -32 8 -92 1 -148 7 -148 17 0
6 -4 5 -9 -3 -5 -8 -11 -9 -15 -3 -4 6 -15 9 -26 7 -11 -2 -22 0 -25 6 -4 5
-11 9 -16 9 -6 0 -7 -5 -3 -12 5 -7 3 -8 -7 -2 -8 5 -25 10 -39 12 -13 2 -28
9 -32 15 -6 9 -8 9 -8 0 0 -6 -8 -10 -17 -8 -10 1 -17 8 -15 16 2 9 0 10 -11
1 -8 -7 -17 -9 -21 -5 -3 4 -14 8 -24 10 -9 2 -26 5 -37 8 -11 2 -31 6 -45 10
-14 3 -29 7 -35 8 -5 2 -16 6 -22 10 -7 5 -17 5 -23 2 -5 -3 -10 -1 -10 5 0 6
-6 10 -12 8 -7 -1 -22 3 -33 9 -11 6 -28 9 -37 8 -10 -2 -18 1 -18 6 0 5 -9 9
-20 9 -11 0 -20 4 -20 8 0 4 -12 9 -27 10 -16 1 -29 7 -31 12 -2 6 -12 10 -23
10 -10 0 -19 5 -19 12 0 6 -3 9 -6 5 -4 -3 -19 0 -34 8 -15 8 -30 11 -34 8 -3
-4 -6 -1 -6 6 0 7 -4 9 -10 6 -5 -3 -10 -2 -10 2 0 5 -9 14 -21 21 -17 11 -20
11 -13 0 4 -7 -2 -5 -13 5 -11 9 -23 14 -26 10 -4 -3 -7 -2 -7 3 0 6 -16 16
-35 24 -19 8 -35 17 -35 22 0 4 -6 8 -14 8 -8 0 -22 7 -30 16 -9 8 -16 13 -16
9 0 -4 -12 3 -26 14 -15 12 -33 21 -40 21 -7 0 -18 8 -23 18 -6 9 -11 13 -11
9 0 -4 -6 -3 -12 3 -47 39 -62 50 -70 50 -5 0 -6 5 -2 12 4 7 3 8 -5 4 -6 -4
-17 -1 -25 6 -7 7 -23 19 -34 27 -12 8 -18 19 -15 24 3 6 1 7 -5 3 -6 -4 -27
9 -46 27 -19 19 -37 32 -40 29 -3 -3 -8 3 -12 12 -3 9 -13 16 -21 16 -8 0 -11
5 -8 10 3 6 1 10 -5 10 -15 0 -41 26 -33 34 4 3 -1 6 -11 6 -9 0 -14 5 -11 10
3 6 1 10 -6 10 -12 0 -109 94 -109 105 0 3 -15 21 -34 40 -19 19 -37 43 -41
55 -3 11 -13 20 -21 20 -13 0 -18 12 -15 32 0 5 -2 7 -7 5 -4 -1 -8 3 -10 8
-2 6 -10 14 -18 18 -8 4 -14 15 -14 23 0 8 -4 13 -9 10 -5 -3 -12 5 -15 19 -4
14 -11 25 -17 25 -6 0 -7 5 -4 10 3 6 0 10 -8 10 -8 0 -18 11 -21 25 -4 14
-11 25 -17 25 -6 0 -8 4 -4 9 3 6 -5 19 -17 30 -12 12 -18 21 -14 21 4 0 -2
13 -13 29 -11 15 -18 31 -14 35 3 3 1 6 -5 6 -11 0 -28 38 -24 53 1 5 -2 6 -8
2 -5 -3 -10 1 -10 9 0 9 -4 16 -10 16 -5 0 -9 3 -9 8 4 24 -2 42 -13 36 -7 -5
-9 0 -6 14 4 13 0 23 -8 26 -8 3 -14 14 -14 24 0 10 -3 22 -7 26 -5 4 -8 11
-9 14 0 4 -6 20 -12 35 -7 16 -12 33 -12 38 0 5 -4 9 -8 9 -4 0 -8 8 -9 18 -2
29 -8 47 -16 53 -4 3 -10 19 -13 34 -3 16 -10 35 -16 42 -6 8 -8 16 -5 20 4 3
2 13 -3 23 -9 16 -21 62 -22 88 -1 6 -5 12 -9 12 -5 0 -6 7 -3 15 4 8 1 15 -6
15 -10 0 -10 3 0 15 7 8 8 15 2 15 -5 0 -10 11 -11 25 -3 47 -4 55 -11 55 -3
0 -7 12 -8 28 0 15 -4 47 -7 72 -4 25 -7 52 -7 60 0 8 -5 20 -10 27 -5 7 -5
14 2 18 6 3 7 11 4 17 -4 6 -8 38 -9 73 -1 34 -6 68 -10 75 -6 9 -4 11 4 5 10
-6 11 -3 2 13 -10 19 -8 52 4 72 3 6 2 10 -4 10 -5 0 -7 10 -5 23 5 19 11 88
16 182 1 17 7 33 13 37 6 5 5 8 -3 8 -7 0 -10 5 -7 10 4 6 9 27 11 47 3 21 10
41 17 45 7 4 7 8 2 8 -6 0 -11 9 -11 20 0 11 3 20 6 20 3 0 7 14 8 32 2 18 6
35 10 38 4 3 8 23 10 44 1 22 6 42 11 45 4 4 7 18 7 33 -1 15 4 30 10 32 7 3
10 14 7 25 -3 13 -1 21 6 21 7 0 9 5 6 10 -3 6 -3 10 2 10 4 0 9 14 10 31 1
17 10 38 20 46 10 8 12 12 6 8 -7 -3 -13 -1 -13 4 0 6 5 11 11 11 5 0 8 4 4 9
-3 5 1 16 9 24 8 8 13 17 10 20 -3 3 3 20 13 39 10 18 18 40 18 48 1 8 6 14
12 13 6 -1 9 6 6 17 -3 12 0 20 6 20 7 0 10 4 6 9 -3 5 -1 12 5 16 5 3 10 15
10 26 0 11 5 17 10 14 6 -3 10 3 10 14 0 12 5 21 11 21 5 0 8 4 5 9 -3 5 1 14
9 21 8 7 12 16 9 21 -3 5 0 9 6 9 6 0 8 5 5 10 -3 6 -1 10 4 10 6 0 11 7 11
15 0 8 5 15 11 15 5 0 8 4 5 9 -3 5 1 12 10 15 9 4 14 9 11 13 -4 3 1 12 11
20 9 8 11 11 3 7 -9 -5 -8 2 5 19 10 15 23 27 27 27 5 0 6 4 3 9 -3 4 3 16 14
26 11 10 20 24 20 32 0 8 4 12 9 9 5 -3 12 6 15 19 4 14 11 23 16 20 6 -3 10
1 10 9 0 8 9 21 20 29 11 8 17 17 13 20 -3 4 0 7 7 7 7 0 11 3 7 6 -3 3 14 27
39 52 24 26 44 50 44 55 0 4 5 5 10 2 6 -3 10 0 10 8 0 8 18 29 39 48 22 18
37 37 35 41 -3 4 1 8 8 8 7 0 19 9 26 20 7 12 17 18 22 15 6 -3 10 0 10 8 0 7
11 20 25 27 13 7 22 17 19 21 -3 5 6 11 20 15 14 3 28 15 31 25 4 11 10 17 15
14 4 -3 11 2 14 11 4 9 9 14 12 11 3 -3 17 6 30 20 13 14 27 24 30 21 3 -3 21
10 41 28 20 19 38 32 41 30 2 -3 13 4 25 15 11 10 27 19 34 19 8 0 11 5 7 12
-5 7 -2 9 9 5 9 -3 18 0 21 9 3 9 10 12 16 9 5 -3 10 -2 10 3 0 5 12 15 28 22
15 8 39 23 55 33 15 10 27 15 27 11 0 -4 7 1 16 12 8 10 12 13 9 6 -6 -11 -3
-11 16 0 13 7 26 15 29 18 15 15 52 30 60 25 6 -4 10 -1 10 5 0 6 4 9 9 6 5
-4 11 -1 13 4 2 6 12 12 21 14 10 1 22 7 25 12 4 5 18 10 32 12 13 1 28 8 32
15 4 6 8 8 8 4 0 -5 6 -5 13 0 6 4 17 8 22 9 27 5 40 10 45 16 3 4 17 9 30 11
14 3 42 12 63 21 25 10 35 11 30 3 -5 -9 -4 -9 8 0 8 6 28 14 44 17 17 3 32
11 34 17 2 8 6 7 12 -2 7 -11 9 -11 9 -1 0 7 5 10 10 7 6 -3 15 -3 22 1 7 4
21 9 33 10 11 1 34 5 50 9 49 10 98 17 133 19 17 0 32 3 32 7 0 3 10 6 23 6
12 1 55 4 95 6 40 2 76 7 80 11 3 4 8 2 10 -3 2 -6 9 -8 15 -4z"/>
<path d="M4039 12455 c-3 -2 -31 -7 -63 -10 -31 -2 -61 -7 -67 -10 -5 -4 -9 0
-9 7 0 10 -2 10 -8 1 -5 -7 -27 -14 -50 -15 -23 -1 -42 -6 -42 -12 0 -6 -5 -4
-10 4 -5 8 -10 10 -10 5 0 -9 -26 -15 -77 -18 -7 0 -13 -4 -13 -9 0 -5 -6 -8
-12 -7 -31 4 -69 -2 -64 -10 3 -4 -6 -7 -19 -5 -14 1 -25 -3 -25 -9 0 -5 -3
-7 -7 -4 -3 4 -12 2 -20 -4 -10 -9 -13 -8 -13 2 0 11 -2 11 -8 2 -5 -7 -20
-14 -34 -15 -15 -1 -25 -5 -22 -9 3 -6 -36 -17 -78 -22 -9 -1 -14 -6 -11 -11
4 -5 -1 -7 -10 -3 -9 3 -17 1 -19 -4 -2 -5 -13 -11 -25 -12 -12 0 -20 -4 -17
-8 3 -6 -25 -17 -66 -25 -8 -2 -16 -8 -18 -14 -2 -5 -8 -8 -13 -4 -5 3 -9 0
-9 -5 0 -6 -3 -11 -7 -10 -16 2 -53 -14 -53 -23 0 -5 -4 -7 -9 -4 -5 3 -14 -1
-21 -9 -7 -8 -16 -13 -20 -10 -5 3 -11 1 -15 -5 -4 -6 -11 -7 -17 -4 -6 4 -8
2 -4 -4 3 -6 -3 -14 -16 -18 -12 -3 -28 -13 -36 -20 -7 -8 -23 -14 -34 -14
-12 0 -18 -3 -15 -6 7 -7 -36 -44 -51 -44 -5 0 -18 -8 -30 -17 -54 -46 -62
-52 -62 -46 0 3 -9 -4 -20 -17 -11 -13 -20 -20 -20 -16 0 4 -7 1 -15 -8 -8 -8
-15 -19 -15 -24 0 -5 -8 -9 -17 -8 -10 0 -17 -5 -16 -11 2 -7 -1 -13 -7 -13
-5 0 -23 -13 -40 -30 -16 -16 -30 -27 -30 -25 0 2 -11 -6 -25 -19 -14 -13 -25
-28 -25 -35 0 -6 -6 -10 -12 -8 -7 1 -12 -4 -11 -10 2 -7 -4 -13 -13 -13 -8 0
-13 -3 -11 -7 5 -10 -30 -43 -37 -36 -3 4 -6 0 -6 -7 0 -7 -11 -23 -26 -36
-14 -13 -22 -24 -18 -24 4 0 -6 -12 -22 -27 -16 -15 -29 -30 -29 -33 0 -4 -8
-14 -17 -24 -10 -10 -18 -22 -18 -27 0 -6 -4 -7 -10 -4 -9 6 -14 -8 -11 -27 0
-5 -4 -8 -9 -8 -6 0 -15 -11 -20 -25 -5 -14 -14 -25 -20 -25 -5 0 -10 -6 -10
-14 0 -8 -6 -21 -12 -28 -7 -7 -20 -26 -28 -43 -8 -16 -23 -38 -35 -48 -11
-10 -13 -15 -5 -11 11 5 10 2 -3 -13 -9 -11 -14 -23 -10 -26 3 -4 1 -7 -5 -7
-7 0 -12 -7 -12 -15 0 -8 -4 -15 -9 -15 -8 0 -22 -32 -25 -55 -1 -5 -7 -16
-14 -23 -7 -8 -9 -19 -5 -25 4 -6 1 -8 -9 -5 -11 5 -14 0 -10 -19 3 -17 1 -24
-6 -19 -7 4 -10 -1 -7 -13 2 -11 -3 -22 -11 -25 -9 -3 -13 -10 -10 -15 5 -8
-8 -42 -39 -104 -8 -15 -10 -25 -5 -22 6 3 7 -1 4 -9 -3 -9 -9 -14 -14 -11 -4
2 -6 -7 -4 -20 1 -14 -1 -25 -5 -25 -4 0 -7 -10 -8 -22 -1 -11 -8 -25 -15 -29
-10 -7 -10 -9 2 -9 11 0 11 -3 2 -12 -7 -7 -12 -22 -12 -34 0 -13 -5 -26 -11
-30 -8 -4 -7 -9 2 -15 8 -5 9 -9 3 -9 -6 0 -11 -6 -12 -12 -2 -24 -8 -47 -14
-53 -3 -3 -4 -19 -2 -35 2 -17 0 -30 -4 -30 -4 0 -7 -15 -7 -32 1 -18 -3 -39
-8 -45 -6 -9 -5 -13 4 -13 9 0 10 -3 4 -8 -11 -7 -14 -31 -18 -124 -1 -32 -5
-58 -9 -58 -3 0 -3 -13 2 -30 5 -18 5 -32 -1 -35 -5 -4 -5 -13 0 -23 5 -9 5
-26 1 -37 -4 -11 -4 -30 1 -42 5 -13 4 -25 -2 -29 -7 -4 -6 -10 1 -19 6 -7 8
-25 4 -41 -6 -21 -4 -25 7 -19 11 7 12 6 2 -6 -10 -12 -10 -18 -1 -27 9 -9 9
-12 -1 -12 -7 0 -9 -5 -5 -12 4 -7 8 -24 8 -38 1 -14 5 -31 9 -37 5 -8 3 -13
-5 -13 -8 0 -9 -3 -3 -8 6 -4 11 -11 12 -17 0 -5 3 -24 6 -42 3 -17 8 -37 13
-44 5 -8 3 -10 -5 -4 -10 6 -11 3 -3 -12 6 -11 12 -31 14 -46 2 -14 7 -29 10
-32 4 -4 4 -19 2 -33 -3 -20 -2 -23 5 -12 8 13 44 15 233 14 179 0 225 2 226
13 1 7 2 24 3 38 1 14 5 25 10 25 4 0 8 8 8 18 1 40 4 58 11 67 4 6 6 20 5 33
-1 12 2 22 7 22 5 0 6 4 3 10 -3 5 -1 18 4 28 6 11 12 34 15 53 2 19 8 48 11
64 4 17 8 37 9 45 1 8 6 22 10 31 4 9 6 20 5 25 -1 5 0 11 1 14 1 3 4 18 6 35
3 16 11 33 17 37 9 5 8 8 -3 8 -12 0 -12 2 -2 9 8 4 13 12 13 16 -1 4 21 8 49
9 38 1 50 -3 52 -14 0 -8 2 -26 4 -40 4 -37 12 -95 14 -95 1 0 3 -12 4 -26 2
-14 6 -31 10 -37 4 -7 2 -12 -5 -12 -8 0 -8 -4 -2 -12 6 -7 11 -20 11 -28 0
-14 10 -96 15 -130 2 -8 7 -21 11 -29 7 -11 6 -12 -5 -6 -11 7 -12 6 -3 -6 6
-8 11 -26 10 -41 -1 -16 2 -28 7 -28 5 0 3 -8 -4 -17 -9 -11 -10 -14 -2 -9 9
5 13 0 12 -16 0 -13 2 -45 6 -73 4 -27 8 -57 9 -65 1 -9 6 -22 11 -29 6 -10 4
-12 -6 -6 -11 7 -12 6 -3 -6 6 -8 11 -26 10 -40 -1 -15 4 -26 11 -26 14 0 14
0 18 42 1 17 3 30 5 30 3 0 10 52 12 88 1 15 4 27 8 27 3 0 7 10 8 23 4 64 7
87 12 87 3 0 6 10 7 23 1 12 4 38 8 57 4 19 7 45 8 57 0 12 6 24 12 26 5 2 65
3 133 3 127 -1 127 -2 121 40 0 4 5 11 13 15 10 7 10 9 1 9 -7 0 -13 5 -13 11
0 5 3 8 8 6 6 -5 10 28 15 155 1 27 4 48 7 48 3 0 7 26 8 58 2 51 8 97 12 97
1 0 2 23 3 50 1 28 6 56 10 63 5 7 3 12 -5 12 -8 0 -9 3 -3 8 6 4 10 22 10 40
-1 17 3 32 7 32 5 0 4 9 -2 20 -6 11 -7 20 -2 20 4 0 8 15 7 33 -1 17 1 36 3
41 3 5 6 27 8 50 2 23 6 68 9 101 3 33 7 76 9 97 2 20 7 41 10 47 4 6 2 11 -4
11 -6 0 -8 5 -3 12 4 7 8 24 9 38 2 14 5 48 8 75 7 57 16 153 20 206 2 20 6
41 10 47 4 7 2 12 -4 12 -6 0 -8 5 -4 12 4 7 9 26 10 43 1 16 3 32 4 35 1 3 1
18 0 34 -1 19 2 26 10 21 9 -6 9 -2 0 14 -17 34 3 51 59 51 l47 0 -1 -42 c0
-24 4 -49 9 -55 5 -9 4 -13 -5 -13 -9 0 -10 -3 -4 -8 6 -4 11 -52 12 -107 1
-55 4 -115 6 -132 2 -19 -1 -33 -7 -33 -8 0 -8 -3 -1 -8 6 -4 10 -20 9 -37 0
-16 4 -36 10 -44 8 -11 8 -13 -1 -7 -9 5 -13 0 -13 -14 0 -14 4 -19 13 -14 8
5 8 2 -2 -9 -11 -14 -11 -17 0 -17 9 0 10 -3 3 -10 -6 -6 -8 -33 -4 -63 3 -29
5 -77 5 -105 -1 -31 3 -52 9 -52 7 0 7 -3 1 -8 -14 -10 -17 -32 -5 -32 7 0 7
-6 0 -19 -7 -14 -7 -22 0 -26 8 -5 8 -11 1 -19 -6 -7 -8 -16 -4 -20 12 -12 12
-36 0 -36 -9 0 -9 -2 -1 -8 6 -4 11 -36 12 -72 3 -172 10 -352 16 -357 3 -3 1
-14 -5 -24 -5 -11 -6 -19 -2 -19 7 0 14 -134 16 -310 0 -30 6 -58 11 -62 7 -5
7 -8 -2 -8 -10 0 -10 -5 -1 -21 7 -13 7 -19 1 -15 -14 8 -11 -46 2 -56 6 -4 5
-12 -2 -21 -10 -11 -7 -18 10 -33 14 -11 18 -13 11 -3 -8 9 -9 19 -4 25 5 5
11 18 13 29 1 11 6 22 10 25 4 3 9 15 11 25 9 47 20 75 29 75 5 0 8 6 5 13 -2
6 4 33 14 60 10 26 16 47 13 47 -4 0 -1 6 5 13 6 8 8 17 4 20 -3 4 0 7 7 7 7
0 10 3 7 7 -4 3 -2 12 4 19 6 7 12 25 14 41 1 15 7 29 13 31 6 2 8 10 5 18 -3
8 -1 20 5 27 6 7 13 26 16 42 3 17 10 31 15 33 6 2 7 10 4 18 -3 8 0 14 6 14
6 0 8 7 5 15 -4 8 -1 15 7 15 7 0 10 3 6 6 -3 3 -1 18 5 33 5 14 11 34 14 45
5 26 6 27 55 29 29 1 44 -2 45 -10 1 -7 2 -14 4 -15 8 -11 6 -38 -3 -38 -8 0
-8 -3 -2 -8 6 -4 11 -20 12 -37 1 -16 4 -75 7 -130 2 -55 8 -109 12 -119 5
-14 4 -17 -5 -11 -10 6 -11 3 -4 -11 6 -11 9 -32 9 -49 -1 -16 4 -33 9 -37 6
-5 5 -8 -3 -8 -7 0 -11 -4 -7 -10 3 -5 7 -39 10 -75 2 -36 6 -69 10 -74 3 -5
1 -12 -5 -16 -6 -4 -7 -12 -3 -18 4 -7 9 -39 10 -72 7 -151 9 -175 16 -181 4
-4 2 -13 -4 -21 -6 -7 -8 -13 -3 -13 5 0 10 -33 11 -73 3 -99 10 -157 19 -165
4 -4 4 1 1 11 -4 9 -3 17 2 17 4 0 8 6 9 13 1 14 10 51 12 55 2 1 3 5 4 10 1
4 6 22 10 40 4 17 12 32 17 32 6 0 8 4 5 9 -3 5 1 27 8 49 8 22 12 43 9 46 -4
3 -1 6 6 6 7 0 10 4 7 9 -3 5 1 25 9 45 9 20 13 41 10 46 -4 6 -1 10 4 10 6 0
10 3 9 8 -1 4 2 18 6 32 l7 25 1162 -1 c640 0 1168 -3 1175 -8 8 -5 10 -2 6 8
-3 9 -2 16 3 16 5 0 9 10 10 23 1 12 4 36 8 52 4 17 8 37 10 45 2 8 4 15 5 15
2 0 10 66 11 90 0 10 4 25 10 31 7 8 6 14 -1 19 -6 3 -7 11 -3 18 3 6 8 35 9
65 2 30 5 57 8 60 3 3 1 11 -5 19 -6 7 -8 13 -3 13 5 0 8 51 7 112 -1 62 -2
113 -3 113 -1 0 -3 26 -5 57 -2 31 -9 67 -15 79 -10 17 -9 20 0 14 10 -6 11
-1 5 21 -4 16 -9 43 -10 59 -2 17 -8 42 -14 56 -5 15 -7 29 -4 33 3 3 2 13 -2
23 -5 10 -9 30 -9 44 -1 15 -8 35 -16 45 -8 10 -10 15 -3 11 8 -5 8 1 -2 19
-8 15 -12 31 -9 36 3 4 0 8 -6 8 -6 0 -8 5 -5 10 4 6 2 16 -3 23 -5 7 -8 20
-7 30 2 9 -1 17 -6 17 -6 0 -7 5 -4 10 3 6 1 10 -4 10 -6 0 -10 3 -9 8 2 12
-14 67 -23 72 -4 3 -9 16 -10 30 -2 14 -10 31 -17 38 -7 8 -10 17 -7 22 3 5 0
10 -5 12 -6 2 -12 13 -13 26 0 12 -4 22 -7 22 -4 0 -12 16 -20 35 -8 19 -18
35 -22 35 -5 0 -6 5 -3 10 3 6 1 10 -4 10 -6 0 -10 3 -9 8 1 8 -13 45 -21 52
-4 3 -15 22 -26 43 -11 20 -23 37 -28 37 -4 0 -5 5 -2 10 3 6 1 10 -4 10 -6 0
-11 6 -11 13 0 7 -9 23 -20 35 -11 12 -20 25 -20 30 0 5 -9 17 -20 27 -11 10
-20 22 -20 27 0 5 -13 23 -30 40 -16 16 -30 36 -30 44 0 8 -6 13 -12 12 -7 -2
-12 5 -12 14 1 10 -1 16 -5 15 -3 -1 -7 3 -9 8 -2 6 -12 13 -23 17 -10 4 -19
15 -19 23 0 9 -4 13 -10 10 -5 -3 -10 -1 -10 5 0 7 -11 21 -25 32 -14 11 -22
25 -18 31 3 7 3 9 -2 5 -4 -4 -23 9 -41 29 -19 20 -34 33 -34 29 0 -5 -10 4
-22 20 -28 36 -39 44 -53 37 -5 -4 -7 -3 -3 2 7 7 -14 35 -28 35 -4 0 -17 10
-29 23 -37 36 -75 62 -85 60 -6 -2 -10 4 -10 13 0 8 -4 12 -10 9 -5 -3 -10 -1
-10 4 0 6 -5 11 -11 11 -6 0 -17 6 -24 13 -37 32 -47 39 -52 33 -3 -3 -17 6
-30 20 -12 14 -23 22 -23 19 0 -4 -14 4 -32 16 -18 14 -28 17 -24 8 4 -7 0 -5
-8 5 -9 11 -16 16 -16 10 0 -5 -3 -5 -8 1 -4 6 -16 17 -26 25 -18 13 -19 13
-11 0 6 -11 4 -11 -11 2 -10 9 -26 18 -34 20 -8 2 -21 10 -28 18 -12 13 -13
13 -6 0 6 -11 2 -10 -13 3 -11 9 -23 14 -26 10 -4 -3 -7 -1 -7 5 0 7 -9 12
-19 12 -11 0 -36 9 -55 21 -20 12 -36 18 -36 14 0 -4 -6 -2 -13 4 -8 6 -17 8
-20 4 -4 -3 -7 -2 -7 3 0 5 -10 10 -22 11 -11 1 -24 6 -27 11 -3 5 -14 8 -23
6 -10 -1 -22 5 -28 14 -7 13 -9 14 -10 3 0 -12 -3 -12 -12 -3 -7 7 -22 12 -35
12 -13 0 -23 4 -23 8 0 4 -10 8 -22 9 -54 1 -69 3 -64 11 4 7 -14 10 -86 15
-16 1 -28 4 -28 7 0 3 -8 6 -17 7 -85 5 -102 7 -99 12 4 6 -55 10 -262 14 -74
1 -136 -2 -139 -6 -3 -5 -9 -4 -12 2 -4 6 -10 9 -12 6z"/>
<path d="M3315 10721 c-3 -5 -1 -12 5 -16 5 -3 10 1 10 9 0 18 -6 21 -15 7z"/>
<path d="M3313 10676 c1 -6 7 -14 12 -18 6 -5 5 -8 -3 -8 -8 0 -13 -10 -12
-22 1 -13 1 -25 0 -28 -3 -7 -7 -43 -13 -115 -3 -33 -7 -62 -8 -65 -1 -3 -1
-22 -1 -43 1 -21 -2 -36 -6 -33 -4 2 -7 -18 -6 -45 0 -27 -2 -49 -5 -49 -3 0
-7 -21 -7 -48 -1 -26 -4 -72 -8 -102 -4 -30 -8 -73 -9 -95 -2 -22 -7 -46 -11
-54 -7 -10 -5 -12 4 -6 9 6 11 4 4 -6 -4 -8 -10 -32 -11 -54 -2 -22 -5 -53 -6
-70 l-3 -30 -114 -2 c-63 0 -123 -1 -132 -2 -16 -1 -36 -58 -30 -88 2 -7 -1
-13 -6 -13 -5 0 -8 -10 -7 -22 1 -13 -2 -29 -8 -35 -6 -9 -5 -13 4 -13 9 0 10
-3 4 -8 -10 -6 -13 -21 -17 -69 -1 -7 -4 -13 -8 -13 -4 0 -5 -11 -2 -25 2 -14
0 -25 -4 -25 -5 0 -10 -20 -11 -45 -1 -25 -7 -54 -13 -65 -7 -13 -7 -21 1 -26
8 -5 8 -9 -1 -14 -7 -4 -14 -23 -15 -41 -5 -44 -9 -61 -18 -76 -5 -8 -3 -13 5
-13 8 0 9 -3 3 -8 -6 -4 -11 -14 -11 -22 0 -8 -4 -33 -9 -55 -5 -22 -9 -49 -9
-60 -1 -11 -5 -22 -9 -24 -15 -9 -98 -18 -102 -11 -6 10 -17 103 -19 157 0 24
-4 43 -8 43 -3 0 -5 8 -3 18 1 9 -2 25 -7 36 -7 13 -7 16 1 12 6 -4 11 -2 11
3 0 6 -3 11 -7 11 -7 0 -14 49 -17 127 0 18 -3 33 -6 33 -3 0 -6 17 -7 38 -4
57 -13 125 -19 134 -3 4 0 8 7 8 8 0 8 4 -1 15 -7 8 -10 24 -7 35 3 11 1 20
-4 20 -5 0 -9 7 -9 16 0 8 5 12 11 8 8 -4 8 -1 1 13 -10 18 -19 58 -21 91 -1
6 -5 12 -9 12 -7 0 -13 -29 -15 -77 -1 -13 -6 -23 -11 -23 -6 0 -4 -5 4 -10
12 -8 12 -10 1 -10 -8 0 -11 -7 -8 -20 3 -11 1 -20 -3 -20 -5 0 -7 -8 -5 -17
1 -10 0 -22 -4 -28 -3 -5 -6 -14 -7 -20 -1 -5 -5 -26 -9 -45 -7 -40 -13 -72
-14 -82 -1 -5 -19 -7 -41 -5 -22 2 -40 1 -40 -2 0 -6 -49 -5 -85 2 -11 2 -29
1 -41 -4 -11 -4 -26 -4 -33 0 -7 5 -29 5 -50 1 -21 -4 -47 -3 -59 1 -14 5 -22
4 -22 -2 0 -6 -5 -7 -12 -3 -13 8 -136 9 -144 1 -3 -2 1 -11 8 -18 7 -8 14
-27 16 -44 2 -16 7 -32 12 -35 5 -3 11 -17 14 -32 2 -14 9 -35 15 -46 6 -11 7
-22 4 -26 -3 -3 -1 -6 5 -6 7 0 12 -9 12 -20 0 -11 5 -20 10 -20 6 0 10 -6 10
-13 0 -19 24 -67 33 -67 5 0 6 -4 3 -9 -3 -5 4 -20 15 -35 11 -14 18 -30 14
-35 -3 -6 3 -14 12 -20 10 -6 14 -11 8 -11 -5 0 -5 -4 1 -8 7 -4 23 -28 37
-54 14 -26 28 -44 31 -41 3 4 6 -2 6 -13 0 -11 9 -27 20 -37 12 -10 18 -22 15
-27 -3 -6 -1 -10 5 -10 6 0 8 -4 5 -10 -4 -6 1 -7 11 -3 11 4 15 3 10 -5 -3
-6 2 -15 11 -21 10 -6 14 -11 10 -11 -4 0 -2 -6 5 -14 7 -8 16 -12 20 -9 4 2
5 -2 3 -9 -3 -8 5 -23 17 -35 13 -12 34 -36 48 -53 14 -17 35 -41 47 -52 12
-12 19 -26 16 -32 -3 -6 -3 -8 1 -5 9 8 62 -40 58 -52 -1 -5 4 -9 12 -9 8 0
17 -7 20 -16 3 -8 10 -13 15 -9 5 3 12 -4 16 -15 3 -11 13 -20 21 -20 8 0 14
-7 14 -15 0 -8 9 -15 21 -15 12 0 17 -4 14 -11 -4 -6 2 -13 14 -16 11 -3 18
-9 15 -14 -3 -5 2 -9 10 -9 9 0 16 -4 16 -10 0 -5 7 -10 16 -10 8 0 12 -4 9
-10 -3 -5 -1 -10 4 -10 18 0 24 -4 55 -32 17 -16 36 -28 44 -28 7 0 10 -4 7
-10 -3 -5 -1 -10 6 -10 7 0 27 -11 44 -25 18 -13 35 -21 39 -18 3 4 6 2 6 -3
0 -6 16 -16 35 -24 19 -7 32 -17 29 -22 -3 -4 4 -8 14 -8 11 0 25 -7 32 -15 6
-8 15 -14 18 -13 12 2 60 -20 67 -32 3 -5 11 -8 16 -5 5 4 9 1 9 -4 0 -6 6
-11 13 -11 7 0 32 -9 55 -20 22 -11 46 -20 52 -20 5 0 10 -4 10 -10 0 -5 6 -7
14 -4 7 3 20 -1 27 -9 8 -8 22 -13 32 -11 9 1 17 -3 17 -9 0 -5 3 -7 7 -4 3 4
15 -1 26 -10 11 -10 17 -12 13 -5 -4 6 -2 12 3 12 6 0 11 -4 11 -8 0 -5 6 -9
13 -10 6 0 23 -3 37 -7 14 -4 31 -7 38 -7 6 -1 12 -6 12 -11 0 -5 9 -7 20 -4
11 3 20 1 20 -3 0 -5 9 -7 20 -5 11 2 20 1 20 -3 0 -4 12 -9 28 -10 15 -1 37
-4 50 -7 12 -3 31 -7 43 -10 22 -5 87 -14 154 -21 22 -3 74 -6 116 -8 41 -1
81 -6 87 -10 7 -4 18 -4 24 0 19 12 128 11 128 -1 0 -6 3 -6 8 1 7 10 46 15
139 18 24 0 43 3 43 6 0 5 24 8 88 12 12 1 22 4 22 8 0 3 10 6 23 6 39 3 92
12 109 19 9 3 23 8 32 9 8 1 19 5 22 9 4 4 18 7 31 7 13 0 23 6 23 13 0 8 4 7
10 -3 8 -12 10 -12 10 -1 0 8 3 12 6 8 4 -3 19 0 35 9 16 8 31 14 34 14 3 0 7
1 10 1 3 1 10 3 15 4 6 1 15 3 21 4 5 0 7 5 4 11 -3 6 1 7 10 4 8 -4 22 -1 30
6 8 7 15 9 15 4 0 -4 7 1 15 12 8 11 14 14 15 6 0 -8 14 -3 40 13 22 14 40 22
40 19 0 -4 6 -1 13 5 8 6 17 8 20 4 4 -3 7 -1 7 5 0 10 24 22 43 22 4 -1 15 6
23 15 9 8 20 13 25 10 5 -4 9 2 10 12 0 10 3 13 6 6 3 -10 7 -10 18 0 7 7 11
14 10 17 -2 3 5 7 16 7 10 1 26 8 34 15 25 23 40 33 54 36 7 1 22 11 34 22 12
11 27 18 34 16 8 -3 10 1 6 11 -4 11 -2 14 5 9 7 -4 12 -2 12 4 0 6 5 8 10 5
6 -3 10 1 10 9 0 9 4 15 9 13 5 -1 17 7 26 18 9 11 13 13 9 5 -4 -8 4 -4 18
10 34 34 78 70 78 64 0 -3 6 1 14 8 8 7 12 16 9 21 -2 4 1 7 8 7 7 0 32 20 55
44 23 25 45 42 48 39 3 -4 6 -1 6 5 0 5 18 29 40 52 22 23 40 47 40 52 0 6 3
8 7 5 6 -7 29 20 32 38 1 6 11 15 21 20 10 6 20 15 21 20 3 17 26 45 31 39 4
-3 9 5 13 17 8 24 20 41 47 66 9 9 15 20 12 25 -3 4 0 8 5 8 6 0 11 7 11 15 0
8 5 15 11 15 6 0 8 7 5 17 -4 10 -4 14 0 11 9 -9 32 14 27 28 -2 6 3 17 12 24
8 7 15 18 15 26 0 7 8 18 18 23 9 6 13 11 8 11 -5 0 -3 7 4 15 7 8 9 15 6 15
-4 0 -1 7 6 15 30 33 38 45 37 52 -2 15 34 93 43 93 5 0 7 4 3 10 -6 10 13 50
30 62 6 5 5 8 -3 8 -9 0 -8 7 4 25 9 14 14 25 10 25 -3 0 3 16 14 36 11 19 15
32 8 28 -10 -6 -10 -4 -2 7 36 47 98 44 -1075 44 -622 0 -1102 -4 -1110 -9
-10 -7 -12 -5 -7 5 4 8 0 5 -8 -5 -9 -11 -16 -27 -16 -35 0 -9 -6 -27 -13 -42
-8 -14 -13 -33 -11 -42 1 -9 -3 -17 -9 -17 -5 0 -8 -3 -4 -6 3 -3 1 -18 -5
-33 -11 -29 -19 -60 -20 -78 -1 -7 -4 -13 -8 -13 -4 0 -7 -6 -8 -12 -1 -15
-10 -53 -12 -53 -1 0 -3 -10 -6 -22 -8 -44 -9 -48 -16 -53 -4 -3 -10 -21 -13
-39 -3 -19 -9 -39 -13 -45 -3 -6 -8 -17 -9 -23 -2 -7 -5 -19 -7 -25 -2 -7 -7
-28 -11 -45 -4 -18 -11 -33 -16 -33 -5 0 -6 -6 -3 -14 3 -8 1 -24 -6 -35 -8
-16 -19 -20 -51 -19 -23 1 -43 6 -45 12 -2 6 -6 47 -8 91 -3 44 -5 81 -6 83
-8 8 -4 49 4 61 9 12 8 13 -3 6 -11 -6 -13 -4 -8 7 3 9 0 21 -6 27 -8 8 -8 11
2 11 7 0 9 5 5 12 -4 6 -8 33 -9 58 -1 26 -5 52 -9 58 -4 7 -2 12 4 12 7 0 8
6 2 18 -4 9 -8 49 -8 89 1 39 -2 69 -6 67 -3 -2 -5 16 -3 41 1 25 -1 45 -4 45
-11 0 -7 64 4 72 6 5 6 8 -1 8 -7 0 -11 15 -10 36 1 20 -1 37 -4 39 -4 2 -5
27 -4 54 1 28 -2 51 -7 51 -6 0 -5 9 1 20 6 11 7 20 3 20 -5 0 -9 19 -9 43 -4
124 -9 167 -22 172 -10 4 -11 -1 -6 -18 3 -12 3 -19 -2 -14 -4 4 -14 -16 -21
-45 -8 -29 -18 -54 -23 -56 -5 -2 -6 -10 -3 -18 3 -8 -1 -14 -8 -14 -11 0 -11
-3 1 -10 10 -6 11 -10 3 -10 -7 0 -13 -8 -13 -18 0 -10 -5 -23 -12 -30 -7 -7
-9 -12 -6 -12 4 0 1 -15 -7 -34 -8 -18 -11 -36 -8 -39 3 -4 -1 -9 -9 -12 -10
-4 -14 -14 -11 -26 3 -10 1 -19 -5 -19 -6 0 -9 -8 -8 -17 2 -10 0 -20 -5 -23
-4 -3 -10 -18 -13 -34 -3 -15 -9 -33 -14 -39 -5 -7 -9 -23 -10 -36 0 -13 -7
-28 -14 -32 -7 -5 -9 -9 -4 -9 5 0 3 -7 -4 -15 -10 -12 -10 -15 1 -15 11 0 11
-2 0 -9 -8 -5 -16 -17 -18 -25 -7 -35 -9 -42 -17 -54 -4 -7 -6 -16 -2 -19 14
-14 -31 -38 -75 -39 l-47 0 0 35 c-2 65 -11 306 -12 306 -2 0 -10 183 -13 295
-2 47 -6 91 -10 98 -5 7 -3 12 3 12 7 0 8 6 1 17 -5 10 -5 26 -1 39 5 12 6 25
2 29 -3 3 -7 47 -9 98 -1 51 -3 92 -3 92 -1 0 -3 36 -5 80 -2 44 -4 80 -4 80
-1 0 -3 26 -4 58 -1 32 2 57 8 57 6 0 3 5 -5 10 -12 7 -13 13 -4 28 8 12 9 24
2 35 -5 10 -7 21 -4 25 3 5 -1 9 -9 9 -8 0 -13 -5 -12 -11z"/>
<path d="M1977 9575 c-4 -8 -3 -16 1 -19 4 -3 9 4 9 15 2 23 -3 25 -10 4z"/>
<path d="M16075 10929 c1 -566 4 -1032 8 -1036 4 -3 57 -7 118 -8 85 0 113 3
122 14 10 12 9 13 -2 6 -11 -6 -12 -5 -5 6 12 20 14 39 3 39 -6 0 -7 6 -2 13
11 18 12 36 2 43 -5 3 -7 10 -4 15 11 17 14 49 4 49 -6 0 -6 6 0 18 14 26 14
34 -1 43 -9 6 -9 9 -1 9 11 0 11 7 3 45 -1 6 -1 12 0 15 7 17 5 70 -3 70 -6 0
-6 5 0 13 11 14 11 47 0 65 -5 6 -4 12 2 12 10 0 7 31 -4 50 -3 6 -2 10 4 10
10 0 8 31 -4 49 -3 5 -1 12 4 15 10 7 9 25 -2 44 -5 6 -4 12 0 12 5 0 9 11 9
25 0 14 -4 25 -9 25 -4 0 -5 6 0 13 11 18 12 36 2 43 -5 3 -7 10 -4 15 11 17
14 49 4 49 -6 0 -6 6 0 18 14 26 14 34 -1 43 -9 6 -9 9 -1 9 11 0 11 7 3 45
-1 6 -1 12 0 15 7 17 5 70 -3 70 -6 0 -6 5 0 13 11 14 11 47 0 65 -5 6 -4 12
2 12 10 0 7 31 -4 50 -3 6 -2 10 4 10 10 0 8 31 -4 49 -3 5 -1 12 4 15 10 7 9
25 -2 44 -5 6 -4 12 0 12 5 0 9 11 9 25 0 14 -4 25 -9 25 -4 0 -5 6 0 13 11
18 12 36 2 43 -5 3 -7 10 -4 15 11 17 14 49 4 49 -6 0 -6 6 0 18 14 26 14 34
-1 43 -9 6 -9 9 -1 9 11 0 11 7 3 45 -1 6 -1 12 0 15 6 17 4 110 -3 110 -4 0
-5 6 0 13 11 18 12 36 2 43 -5 3 -7 10 -4 15 12 18 14 49 4 49 -6 0 -7 6 -2
13 11 18 12 36 2 43 -5 3 -4 14 3 27 14 26 14 27 -4 38 -7 5 -8 9 -2 9 11 0
12 55 1 66 -3 4 -2 15 4 25 12 23 20 21 -126 24 l-120 2 0 -1028z"/>
<path d="M17776 11936 c-3 -11 -1 -25 4 -31 6 -7 7 -15 3 -19 -10 -10 -11 -89
-1 -103 5 -6 5 -13 1 -16 -9 -6 -9 -329 0 -344 4 -6 3 -13 0 -17 -10 -10 -10
-89 -1 -103 5 -6 5 -13 1 -16 -9 -6 -9 -329 0 -344 4 -6 3 -13 0 -17 -10 -10
-10 -89 -1 -103 5 -6 5 -13 1 -16 -9 -6 -9 -329 0 -344 4 -6 4 -13 0 -17 -10
-9 -11 -96 -1 -102 5 -3 5 -10 1 -17 -9 -15 -10 -178 0 -184 4 -2 4 -9 0 -16
-10 -16 -11 -97 -1 -103 5 -3 5 -11 1 -17 -12 -19 -9 -111 4 -125 13 -14 34
-12 46 3 4 6 10 5 16 -3 9 -15 20 -15 37 -1 6 5 14 6 18 2 11 -11 46 -10 46 1
0 7 3 7 8 1 9 -12 72 -14 72 -2 0 4 5 5 10 2 6 -3 10 -3 11 2 4 52 2 83 -6 83
-5 0 -3 5 5 10 11 7 11 10 2 10 -7 0 -10 5 -6 12 9 14 9 103 -1 117 -3 6 0 11
7 11 10 0 10 2 -1 9 -9 6 -10 10 -2 12 9 3 9 12 2 32 -6 15 -7 27 -2 27 9 0 5
55 -4 71 -4 5 0 9 7 9 10 0 10 2 -1 9 -9 6 -10 10 -2 12 9 3 9 12 2 32 -6 15
-7 27 -1 27 5 0 5 12 0 30 -5 17 -6 30 -2 30 4 0 7 14 7 30 0 17 -4 30 -10 30
-5 0 -3 5 5 10 11 7 11 10 2 10 -7 0 -10 5 -7 11 11 17 11 89 0 89 -5 0 -3 5
5 10 11 7 11 10 2 10 -9 0 -10 5 -4 16 5 9 6 32 2 50 -5 23 -4 34 4 34 6 0 4
5 -4 10 -8 5 -10 10 -3 10 7 0 10 14 8 37 -2 20 1 45 7 56 7 15 7 18 -2 12 -9
-6 -9 -3 -1 12 10 19 21 64 23 91 1 6 5 12 9 12 4 0 12 12 19 28 22 53 35 72
48 72 9 0 12 6 8 15 -3 8 -1 15 5 15 5 0 22 11 37 25 25 24 101 66 119 67 4 0
15 4 24 9 25 13 69 21 126 22 29 1 53 6 53 11 0 5 6 4 13 -1 6 -5 33 -9 60 -8
26 0 47 -4 47 -8 0 -5 9 -7 20 -4 11 3 17 1 14 -4 -3 -5 9 -12 26 -15 27 -6
136 -94 115 -94 -4 0 -1 -8 8 -18 9 -10 19 -29 21 -43 2 -13 5 -24 6 -24 12 0
19 -183 8 -213 -4 -13 -4 -21 1 -18 10 6 5 -99 -5 -116 -4 -6 -3 -8 2 -5 11 7
10 -176 -2 -194 -4 -7 -3 -10 3 -6 6 4 14 0 17 -9 3 -8 2 -13 -2 -10 -5 3 -9
-22 -9 -55 0 -37 4 -59 11 -59 8 0 8 -2 0 -8 -7 -4 -11 -32 -10 -72 1 -36 -2
-75 -6 -88 -4 -13 -4 -21 1 -18 10 6 5 -99 -5 -116 -4 -6 -3 -8 3 -5 6 4 8
-23 7 -69 -1 -43 1 -72 7 -69 5 4 9 1 9 -5 0 -7 6 -8 19 -1 10 6 21 8 24 4 10
-10 51 -10 65 0 7 6 12 6 12 -1 0 -11 31 -9 49 3 5 3 12 1 15 -4 6 -9 50 -6
66 4 9 5 6 1098 -3 1113 -5 7 -3 12 4 12 9 0 9 3 0 14 -6 7 -12 30 -13 50 -1
20 -5 36 -9 36 -4 0 -6 9 -4 20 2 11 -1 20 -7 20 -5 0 -8 6 -5 14 3 8 1 16 -4
18 -5 2 -11 13 -12 26 0 12 -8 22 -16 22 -8 0 -12 3 -8 6 3 4 1 12 -6 19 -7 6
-23 26 -36 43 -13 18 -30 32 -38 32 -8 0 -11 5 -8 10 3 6 -1 10 -9 10 -9 0
-16 4 -16 8 0 5 -16 14 -35 22 -19 8 -35 18 -35 22 0 5 -4 7 -9 3 -5 -3 -13 0
-16 6 -4 5 -13 8 -21 5 -7 -3 -16 -1 -19 4 -4 6 -16 10 -29 10 -12 0 -28 6
-35 13 -11 10 -12 9 -6 -2 6 -10 4 -12 -6 -5 -8 5 -23 9 -34 9 -11 0 -26 4
-32 8 -8 5 -13 3 -13 -5 0 -8 -3 -9 -8 -3 -10 14 -122 15 -122 1 0 -6 -5 -4
-10 4 -5 8 -10 10 -10 4 0 -6 -16 -10 -35 -9 -19 1 -35 -2 -35 -8 0 -5 -7 -4
-15 3 -12 10 -15 10 -15 0 0 -7 -8 -10 -20 -7 -11 3 -20 1 -20 -4 0 -5 -9 -9
-20 -9 -11 0 -20 -5 -20 -12 0 -6 -3 -8 -7 -5 -3 4 -13 1 -21 -6 -12 -9 -14
-9 -8 0 6 12 -52 -14 -64 -28 -3 -3 -20 -14 -39 -25 -19 -10 -49 -34 -65 -53
-17 -19 -36 -40 -43 -47 -7 -6 -9 -14 -6 -18 4 -3 1 -6 -6 -6 -7 0 -9 -6 -6
-12 4 -7 -1 -4 -9 6 -12 14 -13 23 -5 33 9 10 8 13 -2 13 -11 0 -11 2 -1 8 9
7 10 15 3 35 -6 15 -7 27 -3 27 4 0 8 9 8 20 0 11 -4 20 -9 20 -5 0 -4 7 3 15
10 12 10 15 -1 15 -9 0 -10 3 -4 8 6 4 10 42 10 85 0 44 -4 77 -10 77 -5 0 -3
5 5 10 11 7 11 10 2 10 -7 0 -10 5 -6 12 9 14 9 103 -1 117 -3 6 0 11 7 11 10
0 10 2 -1 9 -9 6 -10 10 -2 12 9 3 9 12 2 32 -6 15 -7 27 -1 27 5 0 5 12 0 30
-5 17 -6 30 -2 30 4 0 7 14 7 30 0 17 -4 30 -10 30 -5 0 -3 5 5 10 19 13 19
13 -142 15 -119 1 -127 0 -132 -19z"/>
<path d="M7539 11845 c-1 -6 -1 -14 0 -19 1 -5 -4 -13 -11 -17 -7 -5 -8 -9 -3
-9 7 0 10 -326 9 -960 -1 -873 0 -960 15 -964 9 -2 218 -3 466 -3 l450 2 0
118 0 117 -333 0 c-263 0 -333 3 -329 13 2 6 0 20 -5 31 -6 11 -6 16 -1 13 14
-9 11 76 -2 85 -7 5 -7 8 0 8 13 0 13 109 1 129 -6 10 -5 12 2 7 7 -4 12 -1
12 8 0 9 -6 16 -12 16 -8 0 -9 3 -3 8 14 10 14 65 1 74 -7 5 -7 8 -1 8 12 0
13 99 2 118 -5 6 -5 18 0 25 12 18 11 71 -1 79 -7 5 -7 8 -1 8 13 0 13 109 1
129 -6 10 -5 12 2 7 7 -4 12 -1 12 8 0 9 -6 16 -12 16 -8 0 -9 3 -3 8 14 10
14 65 1 74 -7 5 -7 8 -1 8 12 0 13 99 2 118 -5 6 -5 18 0 25 12 18 11 71 -1
79 -7 5 -7 8 -1 8 13 0 13 109 1 129 -6 10 -5 12 2 7 7 -4 12 -1 12 8 0 9 -6
16 -12 16 -8 0 -9 3 -3 8 14 10 14 65 1 74 -7 5 -7 8 -1 8 12 0 13 99 2 118
-5 6 -5 18 0 25 12 19 12 77 -1 77 -7 0 -7 3 -1 8 10 7 16 131 6 133 -3 1 -16
3 -27 4 -12 1 -26 5 -33 9 -6 4 -11 4 -11 -1 0 -4 -25 -8 -55 -8 -30 0 -55 3
-55 7 0 4 -13 3 -29 -2 -19 -5 -33 -4 -40 3 -6 6 -12 7 -12 2z"/>
<path d="M10482 11817 c-6 -7 -10 -80 -9 -180 1 -106 -2 -167 -8 -167 -7 0 -7
-3 0 -8 6 -4 10 -82 10 -197 0 -115 -4 -193 -10 -197 -6 -5 -6 -8 1 -8 6 0 11
-7 11 -15 0 -8 -5 -15 -11 -15 -7 0 -7 -3 -1 -8 6 -4 10 -16 10 -27 0 -11 -4
-23 -10 -27 -7 -5 -7 -8 0 -8 6 0 10 -11 10 -25 0 -14 -4 -25 -10 -25 -7 0 -7
-3 0 -8 6 -4 10 -82 10 -197 0 -115 -4 -193 -10 -197 -7 -5 -7 -8 0 -8 6 0 9
-110 9 -314 l-2 -314 29 -4 c16 -3 33 0 39 6 6 6 10 6 10 0 0 -9 169 -9 178 1
3 3 5 202 5 444 0 418 1 440 19 444 10 3 18 1 18 -4 0 -5 11 -4 25 1 17 6 25
6 25 -1 0 -6 4 -7 10 -4 18 11 80 11 84 1 3 -7 7 -8 13 -1 9 11 33 13 49 3 6
-4 14 -4 18 -1 11 11 36 12 36 2 0 -6 7 -6 18 0 10 5 24 6 31 1 8 -4 26 -4 41
0 15 4 33 4 40 0 7 -5 24 -4 36 0 15 6 26 5 30 -1 4 -8 9 -7 15 2 6 10 9 10 9
2 0 -9 7 -10 25 -3 17 6 25 6 25 -1 0 -6 4 -7 10 -4 18 11 80 11 84 1 3 -7 7
-8 13 -1 9 11 33 13 49 3 6 -4 14 -4 18 -1 11 11 36 12 36 1 0 -6 6 -5 15 2
11 9 15 9 15 1 0 -7 4 -9 10 -6 18 11 80 11 84 1 3 -8 7 -8 13 0 4 7 17 8 28
4 11 -4 32 -4 48 1 28 8 29 7 30 -38 1 -16 6 -31 12 -35 7 -5 6 -8 -1 -8 -10
0 -12 -32 -4 -65 1 -5 1 -12 0 -15 -7 -20 -4 -110 5 -110 6 0 6 -3 -1 -8 -9
-6 -11 -38 -4 -67 1 -5 1 -12 0 -15 -7 -16 -4 -66 5 -72 7 -5 6 -8 -1 -8 -10
0 -12 -32 -4 -65 1 -5 1 -12 0 -15 -7 -16 -4 -66 5 -72 7 -5 6 -8 -1 -8 -10 0
-12 -32 -4 -65 1 -5 1 -12 0 -15 -7 -16 -4 -66 5 -72 7 -5 6 -8 -1 -8 -10 0
-12 -32 -4 -65 1 -5 1 -12 0 -15 -9 -25 -5 -40 13 -46 33 -11 111 -10 119 1 5
7 8 7 8 0 0 -5 15 -9 32 -8 18 1 46 2 61 2 21 1 28 5 25 19 -1 9 1 23 5 30 5
6 4 12 0 12 -10 0 -10 61 0 77 4 6 4 14 -1 17 -10 6 -9 93 1 103 4 3 2 12 -4
20 -9 10 -8 17 1 28 7 8 8 15 3 15 -5 0 -9 9 -10 20 -1 11 2 18 6 16 4 -3 8 1
8 9 0 8 -3 15 -6 15 -9 0 -7 63 2 77 4 6 4 14 -1 17 -10 6 -9 93 1 103 4 3 2
12 -4 20 -9 10 -8 17 1 28 7 8 8 15 3 15 -5 0 -9 9 -10 20 -1 11 2 18 8 15 5
-4 6 3 1 17 -9 29 -8 140 2 156 4 7 3 12 -1 12 -10 0 -10 61 0 77 4 6 4 14 -1
17 -10 6 -9 93 1 103 4 3 2 12 -4 20 -9 10 -8 17 1 28 7 8 8 15 3 15 -5 0 -9
9 -10 20 -1 11 2 18 8 15 5 -4 6 3 1 17 -9 29 -8 140 2 156 4 7 3 12 -1 12
-10 0 -10 61 0 77 4 6 4 14 -1 17 -10 6 -9 93 1 103 4 3 2 12 -4 20 -9 10 -8
17 1 28 7 8 8 15 3 15 -5 0 -9 9 -10 20 -1 11 2 18 6 16 4 -3 8 1 8 9 0 8 -3
15 -6 15 -9 0 -7 63 2 77 4 6 4 14 -1 17 -10 6 -9 93 1 103 4 3 2 12 -4 19 -7
9 -7 19 0 32 11 20 7 27 -28 47 -9 5 -12 4 -7 -3 4 -7 3 -12 -3 -12 -5 0 -13
5 -16 10 -4 6 -13 7 -23 1 -21 -11 -31 -11 -60 0 -15 6 -21 5 -17 -1 3 -6 2
-10 -4 -10 -5 0 -13 5 -16 10 -4 6 -13 7 -23 2 -20 -10 -33 -10 -50 1 -7 5
-12 5 -11 0 1 -4 0 -11 -1 -15 -6 -20 -5 -34 5 -40 7 -5 6 -8 -1 -8 -10 0 -12
-32 -4 -65 1 -5 1 -12 0 -15 -7 -16 -4 -66 5 -72 7 -5 6 -8 -1 -8 -10 0 -12
-32 -4 -65 1 -5 1 -12 0 -15 -7 -16 -4 -66 5 -72 7 -5 6 -8 -1 -8 -10 0 -12
-32 -4 -65 1 -5 1 -12 0 -15 -7 -16 -4 -66 5 -72 7 -5 6 -8 -1 -8 -13 0 -12
-50 1 -70 6 -9 4 -11 -4 -6 -15 10 -11 -25 4 -36 6 -5 6 -8 -1 -8 -12 0 -12
-49 0 -68 3 -6 2 -13 -4 -17 -7 -4 -7 -12 0 -26 8 -13 7 -19 0 -19 -6 0 -9 -3
-7 -7 11 -19 -11 -46 -36 -47 -15 -1 -27 2 -27 7 0 4 -9 3 -20 -3 -12 -6 -20
-7 -20 -1 0 10 -19 9 -37 -2 -8 -5 -13 -3 -13 3 0 6 -5 8 -11 5 -16 -10 -59
-13 -59 -5 0 9 -26 7 -36 -3 -4 -3 -14 -2 -24 3 -10 5 -20 6 -24 3 -12 -12
-36 -12 -36 0 0 7 -5 5 -10 -3 -6 -9 -10 -10 -10 -3 0 12 -30 10 -50 -2 -6 -3
-10 -1 -10 5 0 8 -6 8 -20 0 -14 -8 -20 -8 -20 0 0 8 -6 8 -20 0 -12 -6 -20
-7 -20 -1 0 10 -19 9 -37 -2 -8 -5 -13 -3 -13 3 0 6 -5 8 -11 5 -18 -12 -59
-13 -59 -1 0 6 -5 4 -10 -4 -7 -11 -10 -11 -10 -2 0 10 -5 10 -20 2 -11 -6
-20 -7 -20 -3 0 10 -47 10 -56 0 -4 -3 -14 -2 -24 3 -10 5 -20 6 -24 3 -12
-12 -36 -12 -36 0 0 7 -5 5 -10 -3 -5 -8 -10 -10 -10 -4 0 12 -44 13 -56 1 -4
-3 -14 -2 -24 3 -10 5 -21 6 -25 2 -10 -10 -29 -9 -37 3 -5 6 -8 5 -8 -3 0
-11 -3 -11 -14 0 -11 11 -13 91 -13 419 0 223 -3 411 -7 418 -5 8 -13 8 -29
-1 -12 -6 -22 -11 -22 -10 0 0 -13 5 -28 11 -18 7 -26 7 -22 1 3 -6 2 -10 -4
-10 -5 0 -13 5 -16 10 -4 7 -13 7 -24 0 -12 -6 -22 -5 -31 3 -10 9 -11 9 -6 0
9 -15 5 -16 -28 -4 -17 7 -27 6 -34 -2z"/>
<path d="M16822 11801 c-9 -5 -11 -63 -9 -199 2 -153 -1 -192 -11 -192 -7 0
-10 -5 -6 -11 4 -8 0 -8 -15 0 -16 9 -21 9 -21 -1 0 -9 -3 -9 -8 -2 -9 13 -55
13 -63 1 -4 -5 -13 -6 -20 -1 -16 10 -49 13 -50 5 -1 -3 -2 -54 -3 -113 -1
-78 2 -108 10 -108 7 0 20 -3 30 -7 12 -4 15 -3 10 5 -5 9 -1 10 16 3 13 -5
25 -10 28 -11 3 -2 15 2 27 8 14 8 24 9 28 2 3 -5 11 -10 16 -10 6 0 7 4 4 10
-3 6 1 7 9 4 11 -4 16 -20 16 -48 0 -22 1 -267 1 -544 1 -276 4 -504 9 -507 4
-2 6 -16 5 -30 -2 -14 1 -25 6 -25 5 0 8 -3 7 -7 -4 -14 13 -53 23 -53 5 0 9
-5 9 -11 0 -17 50 -60 61 -54 5 4 9 1 9 -4 0 -6 9 -11 20 -11 11 0 20 -5 20
-11 0 -5 4 -8 9 -4 5 3 12 2 15 -3 3 -5 23 -7 45 -5 23 2 41 0 41 -5 0 -9 363
-8 377 1 6 4 13 22 15 41 2 19 0 32 -4 30 -4 -3 -4 5 0 18 5 13 7 34 5 48 -2
14 -5 38 -6 55 l-2 30 -145 0 c-80 0 -151 4 -159 9 -11 7 -12 6 -6 -5 8 -12 6
-12 -8 0 -10 8 -20 11 -24 8 -12 -13 -48 40 -44 66 0 4 -4 7 -10 7 -8 0 -9 4
0 13 6 8 8 17 4 21 -12 11 -11 56 1 56 8 0 8 2 0 8 -11 8 -13 60 -1 78 3 6 3
14 0 18 -12 12 -10 126 1 119 6 -4 6 0 -1 8 -7 9 -8 20 -3 29 5 8 6 19 2 24
-12 20 -11 67 1 59 9 -5 9 -3 0 8 -7 9 -8 20 -3 29 5 8 6 19 2 25 -11 17 -9
75 2 75 8 0 8 2 0 8 -11 8 -13 60 -1 78 3 6 3 14 0 18 -12 12 -11 56 1 56 8 0
8 2 0 8 -11 8 -13 60 -1 78 3 6 3 14 0 18 -12 12 -10 126 1 119 6 -4 6 0 -1 8
-28 35 -3 40 190 37 103 -2 188 -1 188 2 4 15 6 207 3 221 -4 14 -26 17 -167
17 -238 0 -224 -2 -223 25 1 12 5 27 9 33 3 6 3 14 0 18 -12 12 -10 126 1 119
6 -4 6 0 -1 8 -7 9 -8 20 -3 29 5 8 6 19 2 24 -12 20 -11 67 1 60 9 -5 9 -3 0
6 -9 9 -9 19 -2 33 8 14 8 18 0 13 -6 -4 -11 0 -11 8 0 20 -24 24 -86 13 -17
-3 -37 -1 -44 3 -7 4 -24 4 -39 0 -14 -4 -36 -4 -47 0 -11 5 -26 5 -32 1z"/>
<path d="M14776 11461 c-2 -3 -29 -6 -60 -6 -31 0 -56 -3 -56 -7 0 -4 -9 -5
-20 -3 -11 2 -22 -1 -25 -6 -4 -5 -11 -7 -16 -4 -5 4 -9 2 -9 -2 0 -5 -9 -10
-20 -11 -43 -4 -50 -6 -50 -13 0 -4 -13 -10 -30 -14 -16 -4 -30 -10 -30 -15 0
-7 -38 -23 -52 -21 -4 0 -12 -8 -18 -19 -6 -11 -15 -18 -20 -15 -5 3 -13 -3
-19 -12 -6 -10 -11 -14 -11 -10 0 4 -15 -8 -34 -27 -19 -19 -37 -31 -40 -28
-3 3 -6 0 -6 -6 0 -6 -18 -29 -40 -52 -21 -22 -37 -40 -34 -40 3 0 -6 -14 -20
-31 -14 -17 -23 -36 -20 -41 4 -6 2 -8 -4 -4 -6 3 -17 -12 -27 -39 -10 -25
-22 -42 -28 -38 -6 3 -7 1 -3 -6 4 -6 2 -18 -4 -26 -7 -8 -10 -22 -6 -30 3 -8
1 -15 -4 -15 -5 0 -12 -17 -17 -37 -9 -49 -10 -53 -12 -55 -5 -6 -12 -67 -14
-113 -1 -27 -6 -53 -12 -57 -6 -5 -7 -8 0 -8 6 0 11 -26 13 -58 1 -31 4 -64 6
-72 1 -8 6 -33 10 -55 4 -22 14 -57 22 -77 7 -21 11 -38 8 -38 -3 0 2 -7 10
-16 9 -8 16 -22 16 -30 0 -22 2 -28 17 -42 7 -7 13 -20 13 -28 0 -8 5 -12 10
-9 6 3 10 -1 10 -9 0 -9 4 -16 8 -16 4 0 13 -14 19 -31 7 -17 17 -28 22 -24 6
3 11 0 11 -7 1 -17 65 -88 80 -88 6 0 8 -4 5 -10 -3 -5 1 -10 10 -10 9 0 13
-4 10 -10 -3 -5 0 -10 7 -10 8 0 20 -9 28 -19 7 -11 17 -18 21 -16 4 3 12 -2
19 -10 7 -8 19 -15 26 -15 8 0 14 -3 14 -8 0 -8 55 -34 66 -32 4 1 10 -2 13
-7 8 -10 72 -33 94 -33 9 0 17 -5 17 -10 0 -7 7 -7 21 1 15 8 19 8 15 0 -5 -7
2 -11 16 -12 13 -1 35 -2 50 -3 14 0 29 -4 33 -8 4 -3 20 -2 36 2 20 6 29 5
29 -3 0 -8 3 -9 8 -1 4 6 26 10 50 10 23 -1 42 2 42 6 0 5 3 7 8 6 11 -3 83
12 101 22 24 13 55 23 64 22 4 -1 7 3 7 9 0 5 4 8 9 5 5 -3 14 1 21 9 7 8 16
12 21 9 5 -3 9 2 9 10 0 8 6 13 13 10 7 -2 27 10 45 27 18 17 32 28 32 24 0
-4 20 14 44 40 28 29 49 44 57 39 7 -4 10 -3 5 4 -3 6 -3 13 2 16 4 2 8 -20 9
-50 1 -35 -3 -52 -10 -47 -6 4 -7 1 -1 -8 13 -22 14 -42 1 -58 -10 -12 -9 -13
1 -7 9 5 13 3 11 -5 -4 -35 1 -37 116 -36 114 0 147 10 130 37 -3 5 -2 10 4
10 6 0 6 11 1 30 -5 18 -5 32 1 36 5 3 7 9 4 14 -9 15 -12 80 -4 80 4 0 4 13
-1 30 -5 18 -5 32 1 36 5 3 7 9 4 14 -9 15 -12 80 -4 80 4 0 4 13 -1 30 -5 18
-5 32 1 36 5 3 7 9 4 14 -9 15 -12 80 -4 80 4 0 4 13 -1 30 -5 17 -5 32 0 35
5 3 7 12 4 20 -8 21 -10 715 -2 715 4 0 3 13 -2 30 -5 17 -5 32 0 35 5 3 5 16
1 28 -5 12 -5 31 -1 42 10 27 -5 65 -27 66 -10 0 -60 2 -112 2 -103 2 -120 -5
-116 -47 2 -15 -2 -26 -8 -26 -8 0 -9 -3 -1 -8 12 -8 15 -142 2 -142 -4 0 -8
7 -8 15 0 8 -4 14 -9 13 -11 -3 -51 41 -51 55 0 6 -3 7 -6 4 -4 -4 -15 3 -25
15 -11 11 -19 18 -19 15 0 -7 -29 14 -62 46 -10 9 -18 15 -18 12 0 -3 -10 0
-22 7 -13 7 -26 11 -30 10 -5 -1 -8 3 -8 8 0 6 -9 10 -19 10 -11 0 -23 5 -26
10 -4 6 -10 8 -15 5 -5 -3 -16 2 -24 11 -12 11 -16 12 -16 2 0 -8 -3 -9 -8 -3
-8 11 -10 12 -69 18 -23 3 -47 8 -52 12 -6 3 -11 1 -11 -5 0 -6 -4 -9 -9 -5
-14 8 -71 13 -75 6z m104 -231 c3 -1 17 -1 33 0 15 1 27 -3 27 -8 0 -5 11 -8
25 -7 14 2 27 -1 31 -6 3 -5 10 -7 15 -4 5 4 9 2 9 -3 0 -5 18 -15 40 -22 22
-7 54 -26 70 -42 16 -15 33 -28 36 -28 11 0 84 -78 84 -89 0 -6 5 -11 12 -11
6 0 8 -3 5 -7 -4 -3 2 -13 13 -20 11 -8 18 -18 15 -23 -3 -4 3 -11 12 -14 15
-6 15 -8 3 -16 -12 -8 -11 -10 5 -10 15 0 17 -3 7 -9 -11 -7 -10 -9 3 -15 9
-3 14 -10 10 -15 -3 -5 0 -13 6 -16 5 -4 8 -13 5 -21 -3 -8 0 -14 6 -14 6 0 8
-3 5 -7 -4 -3 -1 -13 6 -21 10 -13 9 -14 -3 -7 -13 8 -13 6 -1 -8 18 -22 19
-266 1 -284 -1 -2 -4 -12 -5 -23 -1 -11 -4 -22 -5 -25 -1 -3 -3 -8 -4 -12 -1
-5 -7 -18 -14 -29 -6 -12 -8 -24 -5 -28 3 -3 2 -6 -4 -6 -6 0 -14 -11 -17 -25
-4 -14 -11 -25 -16 -25 -6 0 -10 -7 -10 -15 0 -9 -7 -18 -15 -21 -8 -4 -12
-10 -9 -15 3 -5 0 -9 -5 -9 -6 0 -11 -7 -11 -16 0 -8 -4 -12 -10 -9 -5 3 -10
-1 -10 -9 0 -9 -4 -15 -8 -13 -4 1 -22 -13 -39 -30 -18 -18 -37 -33 -43 -33
-5 0 -10 -5 -10 -11 0 -5 -4 -8 -9 -4 -6 3 -14 -2 -19 -11 -5 -9 -12 -15 -16
-15 -3 1 -19 -5 -35 -13 -16 -9 -31 -12 -35 -9 -3 4 -6 1 -6 -5 0 -6 -7 -9
-15 -6 -8 4 -15 1 -15 -4 0 -6 -8 -11 -17 -11 -42 -1 -90 -8 -101 -15 -7 -4
-12 -2 -12 4 0 6 -5 8 -12 4 -16 -10 -48 -13 -48 -4 0 4 -12 6 -27 4 -15 -1
-31 3 -35 9 -6 9 -8 9 -8 0 0 -6 -9 -9 -20 -6 -11 3 -20 10 -20 15 0 6 -7 8
-15 5 -8 -4 -17 -2 -21 4 -3 6 -12 8 -20 5 -8 -3 -14 -1 -14 4 0 6 -7 10 -16
10 -8 0 -12 4 -9 10 3 6 -1 7 -9 4 -9 -3 -16 -1 -16 6 0 6 -4 9 -9 6 -5 -4
-11 -3 -13 2 -1 4 -18 18 -36 31 -18 12 -29 27 -26 33 4 6 2 8 -4 4 -6 -3 -13
-2 -17 4 -4 6 -11 8 -16 5 -5 -4 -9 3 -9 14 0 12 -6 21 -13 21 -8 0 -20 12
-28 28 -8 15 -22 36 -31 46 -10 11 -18 26 -18 33 0 7 -5 13 -11 13 -5 0 -7 5
-4 10 3 6 1 10 -4 10 -6 0 -10 3 -9 8 1 8 -8 35 -24 69 -6 12 -11 38 -12 57 0
20 -4 36 -7 36 -8 0 -4 163 5 178 4 7 2 12 -5 12 -8 0 -8 4 1 15 7 8 9 15 5
15 -4 0 -2 7 5 15 7 8 9 15 4 15 -4 0 -3 5 4 12 16 16 15 31 0 23 -7 -4 -4 1
6 9 11 9 16 16 10 16 -5 0 -1 5 8 11 9 5 15 16 12 23 -3 7 2 20 10 29 8 8 12
17 9 21 -3 3 5 14 18 25 13 11 21 20 17 21 -4 0 6 14 22 30 17 17 30 35 30 41
0 6 4 8 9 4 5 -3 13 4 16 16 4 11 9 18 12 16 2 -3 13 2 22 11 27 25 58 45 65
41 3 -2 12 5 20 16 8 11 18 17 22 13 4 -4 13 0 20 10 11 14 13 14 14 2 0 -10
3 -11 8 -4 14 21 97 39 172 38 41 -1 77 -3 80 -4z"/>
<path d="M9337 11434 c-1 -1 -24 -4 -52 -8 -47 -5 -70 -10 -112 -20 -10 -3
-43 -14 -73 -26 -30 -11 -63 -23 -72 -27 -10 -3 -18 -9 -18 -13 0 -4 -8 -10
-17 -14 -25 -8 -55 -28 -70 -46 -7 -8 -13 -12 -13 -8 0 12 -124 -115 -126
-130 -2 -8 -9 -19 -16 -23 -7 -5 -8 -9 -3 -9 6 0 3 -6 -5 -13 -14 -11 -40 -58
-46 -82 -1 -5 -9 -26 -18 -46 -8 -20 -12 -39 -9 -43 4 -3 2 -6 -4 -6 -5 0 -10
-6 -11 -12 -2 -15 -7 -55 -17 -123 -14 -88 -8 -251 11 -345 3 -14 5 -33 5 -42
0 -10 5 -18 11 -18 6 0 9 -2 6 -6 -3 -3 3 -27 13 -53 10 -27 15 -52 11 -56 -4
-5 -2 -6 3 -2 10 5 38 -43 35 -58 -1 -4 8 -15 19 -24 12 -10 21 -22 21 -25 0
-11 98 -106 110 -106 5 0 10 -7 10 -15 0 -8 3 -14 8 -13 10 2 72 -36 72 -45 0
-5 4 -6 9 -2 5 3 17 -2 25 -11 9 -8 16 -13 16 -9 0 3 10 0 23 -7 22 -12 42
-18 65 -20 6 -1 12 -4 12 -8 0 -4 6 -7 13 -8 20 -1 72 -10 72 -12 0 -3 58 -10
120 -14 33 -2 60 -5 60 -6 0 -1 10 -3 23 -4 12 -2 22 0 22 3 0 4 21 7 48 7 75
2 148 14 227 38 28 8 74 29 108 47 20 11 37 17 37 14 0 -4 9 3 20 16 10 13 19
20 20 16 0 -4 11 3 23 17 13 14 27 23 30 19 4 -3 7 0 7 8 0 8 16 27 35 44 19
16 35 35 35 42 0 7 5 13 10 13 6 0 10 5 10 11 0 7 8 18 18 26 10 9 11 11 2 7
-11 -6 -10 -2 3 13 9 11 17 25 17 31 0 7 4 12 10 12 5 0 9 3 8 8 -1 4 4 20 10
35 22 52 16 67 -25 68 -21 1 -44 1 -52 0 -8 -2 -10 2 -5 11 6 10 5 11 -8 1 -8
-7 -17 -10 -20 -7 -3 3 -30 7 -59 10 -30 3 -64 7 -77 9 -15 2 -25 -2 -29 -13
-4 -9 -15 -29 -25 -44 -11 -16 -16 -28 -12 -28 4 0 -1 -9 -11 -20 -10 -11 -14
-20 -9 -20 5 -1 -1 -6 -13 -13 -12 -7 -22 -16 -22 -20 0 -5 -16 -24 -35 -42
-20 -19 -36 -31 -36 -29 0 3 -13 -4 -29 -15 -15 -11 -31 -18 -35 -14 -3 3 -6
1 -6 -6 0 -7 -4 -10 -9 -6 -5 3 -12 1 -15 -4 -12 -19 -246 -38 -246 -19 0 4
-6 5 -13 2 -23 -8 -146 36 -175 64 -8 7 -27 19 -43 28 -16 8 -27 19 -24 24 4
6 1 10 -5 10 -13 0 -40 24 -40 36 0 3 -8 14 -17 23 -10 9 -20 25 -21 36 -2 11
-7 22 -12 25 -13 9 -31 50 -25 60 3 5 1 11 -5 15 -6 4 -8 11 -5 16 4 5 2 9 -3
9 -9 0 -10 2 -13 58 -1 17 -6 32 -12 32 -5 0 -5 6 2 13 8 10 7 17 -1 25 -15
15 -70 14 612 13 311 0 574 2 585 4 20 4 21 11 18 97 -3 115 -8 166 -16 175
-4 3 -7 19 -7 34 0 15 -5 31 -10 34 -6 4 -8 10 -5 15 3 5 1 17 -4 27 -21 40
-62 133 -61 138 0 3 -13 19 -31 36 -17 16 -28 29 -25 29 7 0 -53 60 -101 102
-17 14 -34 24 -37 21 -3 -4 -6 -2 -6 4 0 6 -13 16 -30 23 -16 7 -30 17 -30 22
0 5 -4 7 -9 3 -5 -3 -16 1 -24 9 -8 8 -17 13 -20 10 -3 -3 -17 2 -31 11 -14
10 -26 14 -26 10 0 -4 -6 -3 -12 2 -19 15 -151 34 -246 36 -46 2 -84 2 -85 1z
m173 -219 c24 -4 49 -9 55 -13 5 -4 12 -7 15 -7 14 -1 90 -40 90 -46 0 -3 14
-12 30 -19 17 -7 30 -19 30 -26 0 -8 8 -14 17 -14 9 0 13 -3 10 -6 -4 -4 1
-14 11 -23 19 -16 36 -50 34 -63 -1 -5 6 -8 15 -8 15 0 16 -2 3 -10 -10 -6
-11 -10 -2 -10 6 0 12 -8 12 -18 0 -10 3 -22 7 -25 4 -4 8 -24 10 -45 2 -20 5
-46 6 -57 2 -20 -4 -20 -440 -20 -244 -1 -443 3 -443 8 0 4 -4 5 -10 2 -13 -8
-13 1 1 27 7 12 7 18 1 14 -6 -4 -8 2 -5 14 3 11 9 20 13 20 5 0 6 9 3 20 -3
11 -1 20 4 20 5 0 10 7 11 15 1 8 3 22 4 30 1 8 8 17 15 19 8 3 12 10 9 14 -3
5 6 21 20 37 13 15 24 33 24 38 0 6 3 8 6 5 3 -4 14 1 23 10 41 39 70 60 75
55 3 -4 6 -1 6 5 0 7 7 12 15 12 8 0 15 5 15 11 0 5 4 8 8 5 5 -3 20 1 35 9
15 8 27 12 27 9 0 -3 6 -2 13 3 6 4 22 6 35 4 12 -1 22 1 22 6 0 9 98 8 170
-2z"/>
<path d="M12990 11429 c0 -4 -15 -7 -32 -7 -58 -2 -112 -13 -120 -25 -4 -7 -8
-9 -8 -4 0 4 -16 1 -35 -7 -19 -8 -35 -12 -35 -8 0 4 -4 1 -9 -6 -4 -7 -17
-14 -29 -15 -11 0 -18 -5 -16 -9 5 -7 -3 -10 -22 -7 -4 0 -10 -5 -15 -13 -5
-7 -12 -13 -17 -13 -5 0 -16 -8 -26 -17 -10 -10 -24 -18 -32 -18 -8 0 -12 -5
-9 -10 3 -6 -6 -15 -21 -20 -15 -6 -24 -13 -21 -16 3 -3 -12 -24 -34 -47 -59
-64 -70 -77 -62 -77 3 0 -2 -9 -11 -19 -10 -11 -18 -26 -20 -34 -1 -8 -8 -22
-15 -31 -7 -8 -10 -20 -6 -26 3 -5 1 -10 -5 -10 -7 0 -10 -7 -6 -15 3 -8 1
-15 -5 -15 -6 0 -7 -4 -4 -10 3 -5 2 -10 -4 -10 -6 0 -8 -7 -5 -15 4 -8 2 -15
-3 -15 -5 0 -8 -13 -7 -30 1 -16 -3 -30 -8 -30 -6 0 -8 -11 -6 -25 3 -14 1
-25 -4 -25 -5 0 -4 -10 3 -21 7 -15 8 -19 0 -15 -15 10 -11 -243 5 -314 7 -30
10 -58 8 -62 -3 -5 0 -8 6 -8 6 0 9 -4 5 -9 -3 -5 -1 -12 5 -16 15 -9 12 -28
-2 -19 -7 4 -2 -5 12 -21 14 -16 19 -25 13 -21 -9 5 -11 2 -7 -8 3 -9 10 -16
15 -16 5 0 9 -8 9 -19 0 -10 7 -24 15 -31 8 -7 13 -16 10 -20 -3 -4 2 -11 11
-14 8 -3 13 -10 10 -14 -3 -5 4 -15 15 -22 10 -8 19 -20 19 -28 0 -7 10 -17
23 -22 12 -5 16 -9 7 -9 -8 -1 0 -10 18 -21 17 -11 32 -24 32 -30 0 -5 6 -10
13 -10 7 0 19 -9 27 -19 7 -11 17 -18 21 -16 4 3 12 -2 19 -10 7 -8 19 -15 27
-15 8 0 11 -5 7 -12 -4 -7 -4 -10 0 -6 10 9 66 -11 66 -24 0 -5 5 -6 10 -3 6
4 16 3 23 -3 15 -11 92 -32 130 -34 15 -1 27 -5 27 -9 0 -3 64 -5 143 -3 175
3 227 7 227 15 0 4 17 9 38 13 21 3 52 13 70 21 17 9 37 13 43 9 7 -4 9 -3 6
2 -3 5 19 22 49 38 30 16 54 33 54 38 0 5 3 7 8 5 4 -3 31 19 60 49 29 30 50
54 47 54 -3 0 6 12 20 27 14 15 25 33 25 40 0 6 7 19 16 27 8 9 13 16 10 16
-3 0 3 16 14 35 11 19 17 42 13 51 -4 12 -3 15 5 10 7 -4 12 -4 12 1 0 16 -19
37 -34 39 -9 1 -13 -2 -10 -8 4 -7 0 -7 -12 -1 -11 5 -26 9 -34 8 -8 -1 -25 2
-37 7 -15 5 -23 4 -23 -3 0 -8 -4 -8 -12 -2 -7 6 -21 9 -30 8 -10 -2 -21 1
-24 6 -3 6 -11 5 -20 -2 -10 -8 -14 -8 -14 0 0 6 -6 10 -12 8 -17 -3 -38 -30
-32 -39 3 -5 1 -8 -5 -8 -6 0 -7 -7 -4 -17 4 -11 3 -14 -5 -9 -7 4 -12 1 -12
-9 0 -9 -4 -13 -10 -10 -6 3 -7 -1 -4 -9 4 -9 -1 -18 -10 -22 -9 -3 -13 -10
-10 -15 3 -5 -2 -12 -10 -15 -9 -3 -15 -9 -13 -13 2 -3 -10 -18 -25 -33 -15
-15 -28 -24 -28 -20 0 4 -6 0 -13 -8 -7 -8 -28 -22 -47 -31 -19 -9 -46 -22
-61 -28 -14 -7 -32 -11 -40 -9 -7 2 -13 -3 -11 -10 2 -9 -2 -11 -10 -5 -19 11
-82 10 -90 -2 -5 -6 -8 -5 -8 3 0 9 -5 10 -19 3 -10 -6 -21 -8 -24 -5 -3 3
-20 8 -39 11 -18 3 -41 9 -50 14 -23 12 -31 11 -22 -3 4 -7 -7 -2 -24 11 -18
12 -32 19 -32 15 0 -4 -6 0 -13 11 -8 10 -19 15 -25 11 -7 -4 -12 0 -12 10 0
10 -3 15 -6 11 -6 -6 -47 26 -73 57 -9 10 -24 26 -33 34 -9 9 -15 19 -12 24 3
4 0 8 -5 8 -6 0 -11 7 -11 15 0 8 -4 15 -10 15 -5 0 -10 9 -10 21 0 11 -7 27
-15 35 -8 8 -12 21 -9 29 4 8 1 15 -4 15 -6 0 -10 8 -10 18 1 25 -5 46 -17 54
-6 5 -5 8 4 8 9 0 10 4 5 13 -5 6 -9 26 -9 42 l0 30 227 0 c136 0 224 3 221 9
-4 5 -1 6 6 2 18 -12 181 -15 181 -4 0 5 6 6 12 2 18 -12 148 -13 148 -2 0 5
6 6 12 2 18 -11 328 -12 321 -1 -3 5 2 5 12 0 10 -6 27 -8 37 -5 19 5 20 12
15 126 -2 67 -9 133 -15 147 -6 15 -9 35 -8 45 2 11 -1 22 -6 25 -5 3 -10 16
-11 27 -1 12 -5 22 -10 22 -4 0 -6 4 -2 9 3 5 1 12 -5 16 -6 4 -8 10 -5 15 3
5 -1 15 -9 23 -8 8 -12 17 -9 21 4 3 1 6 -6 6 -7 0 -9 5 -6 10 3 6 1 10 -5 10
-7 0 -10 6 -7 13 3 8 -3 20 -14 28 -10 7 -19 18 -19 24 0 6 -9 17 -20 25 -11
8 -20 21 -20 29 0 8 -2 12 -5 9 -3 -2 -28 17 -56 44 -28 26 -57 48 -65 48 -8
0 -14 5 -14 10 0 6 -7 10 -15 10 -8 0 -15 4 -15 9 0 5 -10 12 -22 16 -13 4
-25 8 -28 9 -3 1 -15 7 -26 14 -12 6 -24 8 -28 5 -3 -3 -6 0 -6 7 0 7 -3 11
-6 7 -3 -3 -23 1 -45 8 -21 8 -39 11 -39 7 0 -4 -5 0 -10 8 -7 11 -10 11 -10
2 0 -9 -5 -10 -17 -4 -28 13 -233 23 -233 11z m184 -213 c22 -3 42 -9 45 -13
3 -5 11 -8 16 -8 22 -1 85 -27 85 -36 0 -5 7 -9 15 -9 8 0 15 -5 15 -12 0 -6
3 -8 7 -5 3 4 15 -5 25 -20 10 -16 18 -24 18 -20 0 5 7 2 15 -7 8 -8 15 -18
15 -23 0 -5 9 -15 20 -23 22 -16 28 -36 8 -24 -7 4 -4 -3 6 -15 11 -12 21 -32
23 -44 2 -12 8 -24 14 -25 6 -3 5 -10 -3 -20 -9 -10 -9 -13 -1 -9 7 5 12 1 12
-10 0 -23 5 -45 14 -60 17 -27 -37 -51 -70 -30 -7 5 -19 5 -25 0 -18 -11 -31
-11 -47 1 -11 8 -13 8 -7 -1 5 -9 1 -13 -13 -13 -11 0 -23 5 -26 10 -4 6 -12
7 -18 3 -19 -12 -67 -11 -67 1 0 8 -2 8 -8 0 -9 -13 -64 -13 -74 1 -5 7 -8 6
-8 -1 0 -13 -79 -13 -99 0 -9 6 -12 5 -8 -1 4 -6 -8 -10 -28 -10 -22 0 -32 4
-28 11 4 6 0 5 -9 -2 -12 -9 -18 -10 -23 -2 -4 6 -12 7 -18 2 -15 -10 -27 -10
-46 2 -10 6 -12 5 -7 -2 5 -8 0 -12 -13 -12 -11 0 -23 5 -26 10 -4 6 -12 7
-18 3 -20 -13 -41 -12 -49 0 -6 9 -8 9 -8 0 0 -14 -26 -13 -49 1 -9 6 -12 5
-7 -2 9 -14 -46 -11 -56 3 -5 6 -8 5 -8 -2 0 -21 -27 -15 -33 7 -3 11 -2 20 2
20 7 0 8 12 13 82 1 15 6 24 10 22 7 -5 12 10 9 29 0 4 4 7 10 7 5 0 8 4 5 9
-7 11 50 91 65 91 5 0 8 4 5 8 -3 5 7 17 22 28 14 10 34 27 44 37 10 9 18 14
18 10 0 -5 4 -3 8 2 7 10 58 37 77 40 6 1 13 3 18 5 4 1 12 4 17 5 6 1 11 4
13 5 1 1 14 3 30 4 15 2 29 5 32 8 5 5 93 1 149 -6z"/>
<path d="M13795 9220 c-3 -6 -9 -8 -13 -6 -4 2 -7 -26 -7 -62 0 -37 -3 -77 -7
-90 -6 -17 -5 -21 5 -15 6 4 4 -6 -7 -21 -10 -16 -13 -25 -7 -22 14 9 14 0 1
-24 -6 -12 -7 -21 0 -25 5 -3 7 -12 3 -20 -4 -11 -1 -13 11 -9 23 9 27 34 28
161 1 37 5 54 16 58 12 4 12 3 3 -8 -9 -11 -8 -17 3 -26 8 -7 13 -21 11 -32
-2 -11 -1 -18 3 -15 4 2 12 -7 19 -20 6 -13 7 -22 2 -18 -15 9 -10 -13 6 -29
8 -8 12 -17 9 -20 -8 -7 19 -47 32 -47 6 0 17 19 24 43 7 23 20 53 28 66 8 13
9 21 4 17 -6 -3 -2 11 8 31 10 21 16 41 13 45 -2 5 1 8 7 8 6 0 9 4 5 9 -3 5
-2 12 2 14 5 3 9 -10 10 -29 1 -24 -2 -32 -10 -27 -9 5 -9 3 -1 -8 6 -8 11
-31 10 -52 0 -20 1 -37 4 -37 3 0 4 -18 4 -40 -2 -36 0 -39 21 -38 12 1 21 7
18 13 -2 7 -5 30 -7 54 -2 23 -6 44 -9 48 -4 3 -2 14 4 24 7 14 6 19 -2 19 -8
0 -9 4 0 13 8 10 7 17 -2 27 -10 10 -9 11 3 5 12 -7 13 -6 4 6 -6 8 -10 29 -9
47 1 29 -2 32 -25 30 -21 -3 -29 -14 -52 -73 -16 -38 -28 -78 -28 -87 0 -9 -5
-20 -11 -24 -6 -3 -9 -14 -6 -23 2 -10 -1 -18 -7 -18 -7 0 -13 7 -14 16 -2 17
-9 53 -12 61 -1 3 -2 8 -1 13 0 4 -3 7 -7 7 -5 0 -9 6 -10 13 -1 6 -4 26 -8
43 -7 37 -49 90 -59 74z"/>
<path d="M17188 9220 c-15 -5 -29 -5 -32 -2 -3 3 -6 0 -6 -7 0 -7 -4 -10 -8
-7 -5 3 -15 -3 -23 -12 -17 -20 -24 -82 -9 -82 6 0 8 -4 5 -10 -3 -5 0 -10 9
-10 8 0 16 -3 18 -7 2 -5 21 -17 43 -28 49 -24 57 -65 19 -90 -14 -9 -24 -11
-24 -5 0 8 -6 8 -17 1 -13 -7 -22 -6 -33 4 -14 12 -17 11 -29 -6 -7 -12 -8
-18 -2 -14 6 3 11 2 11 -4 0 -16 116 -7 134 11 8 9 12 18 9 22 -4 3 -2 6 3 6
5 0 10 13 10 30 1 18 -2 27 -9 23 -7 -4 -8 0 -4 11 5 13 1 19 -13 23 -11 3
-17 9 -14 14 3 5 2 9 -3 8 -33 -6 -88 32 -88 61 0 19 25 39 42 33 7 -3 13 0
13 7 0 6 5 8 13 3 23 -14 45 -13 52 4 3 10 3 14 -1 10 -4 -4 -14 -1 -23 7 -11
9 -25 11 -43 6z"/>
<path d="M7689 9210 c-7 -5 -17 -6 -21 -4 -4 3 -8 0 -8 -6 0 -6 -4 -8 -10 -5
-5 3 -10 -1 -10 -10 0 -9 -4 -14 -9 -10 -9 5 -27 -32 -23 -47 1 -5 -3 -8 -9
-8 -5 0 -7 -4 -4 -10 3 -5 1 -10 -6 -10 -8 0 -9 -4 0 -13 8 -10 7 -17 -1 -25
-9 -9 -9 -12 0 -12 6 0 9 -6 6 -14 -3 -8 -1 -17 5 -21 6 -3 11 -15 11 -26 0
-10 7 -19 15 -19 8 0 15 -4 15 -10 0 -5 7 -10 15 -10 8 0 15 -4 15 -9 0 -13
113 -9 122 4 4 5 8 13 8 16 0 9 -34 7 -47 -3 -7 -6 -14 -5 -18 3 -6 8 -10 7
-16 -2 -6 -10 -9 -11 -9 -1 0 6 -8 12 -19 12 -22 0 -44 23 -33 35 4 5 2 5 -5
2 -15 -9 -31 39 -26 77 9 64 65 119 93 93 10 -9 11 -9 6 1 -6 10 1 12 31 10
28 -2 38 1 38 12 0 16 -83 24 -106 10z"/>
<path d="M8104 9206 c-3 -9 -4 -23 0 -31 3 -8 1 -15 -4 -15 -6 0 -6 -9 -1 -23
5 -13 5 -30 1 -37 -5 -8 -6 -18 -3 -23 3 -5 5 -38 4 -73 -1 -38 3 -65 10 -69
17 -11 142 -6 153 5 7 7 2 10 -12 10 -12 0 -22 5 -22 11 0 8 -5 8 -15 -1 -10
-8 -15 -9 -15 -1 0 7 -8 8 -23 2 -13 -5 -28 -6 -33 -3 -5 4 -9 63 -9 131 0 91
-3 125 -12 128 -7 3 -16 -2 -19 -11z"/>
<path d="M8561 9202 c-7 -13 -7 -22 1 -30 9 -9 9 -12 0 -12 -10 0 -10 -5 -1
-21 6 -12 7 -19 2 -16 -5 4 -10 0 -10 -8 0 -8 5 -12 10 -8 5 3 4 -4 -2 -16 -7
-11 -8 -21 -3 -21 4 0 8 -9 8 -20 0 -11 -4 -20 -9 -20 -4 0 -4 -8 2 -17 6 -11
6 -24 0 -35 -12 -22 0 -50 20 -46 14 3 16 22 16 142 0 98 -3 140 -12 143 -6 2
-16 -4 -22 -15z"/>
<path d="M8912 9180 c0 -25 4 -37 11 -33 6 4 7 1 1 -8 -5 -8 -9 -58 -10 -111
-1 -90 0 -98 18 -98 18 0 19 7 18 88 -2 124 -1 132 11 132 5 0 7 -4 4 -10 -3
-5 -1 -10 6 -10 7 0 10 -3 6 -6 -3 -4 1 -13 9 -21 8 -8 12 -19 9 -24 -4 -5 1
-9 10 -9 11 0 15 -5 12 -14 -3 -8 -2 -16 2 -18 14 -6 70 -95 64 -102 -4 -3 6
-6 20 -6 31 0 28 -14 30 169 2 108 0 119 -15 118 -10 -1 -18 -6 -19 -12 0 -5
-2 -20 -5 -32 -2 -14 1 -23 9 -23 7 0 8 -3 2 -8 -15 -11 -17 -32 -5 -47 6 -7
7 -16 3 -18 -10 -6 -10 -48 0 -64 4 -7 2 -15 -4 -19 -7 -4 -9 -3 -6 3 4 6 0
13 -8 17 -8 3 -15 12 -15 21 0 8 -5 15 -11 15 -5 0 -8 4 -5 8 3 5 -6 20 -20
35 -14 15 -22 27 -18 27 3 0 1 6 -5 13 -6 8 -7 18 -3 22 4 5 3 6 -3 3 -9 -5
-44 23 -37 30 10 8 -6 23 -30 27 -25 5 -27 3 -26 -35z"/>
<path d="M9439 9210 c-1 -5 -2 -16 -3 -22 -1 -7 2 -18 6 -25 5 -6 5 -14 0 -17
-8 -5 -9 -40 -2 -71 1 -5 1 -12 0 -15 -7 -17 -5 -60 3 -60 6 0 6 -5 1 -12 -15
-21 -10 -53 9 -56 13 -3 17 4 18 25 1 34 1 233 0 251 -1 14 -30 17 -32 2z"/>
<path d="M9845 9196 c-29 -17 -47 -40 -55 -71 -1 -5 -6 -18 -11 -28 -6 -9 -6
-23 -2 -30 12 -20 12 -37 0 -37 -8 0 -8 -3 -2 -8 6 -4 15 -16 21 -26 15 -28
55 -56 89 -62 16 -3 32 -7 36 -10 4 -2 10 0 14 5 3 5 15 8 26 6 11 -2 22 2 26
11 8 22 -4 29 -24 13 -9 -8 -14 -9 -10 -3 7 12 -21 12 -41 0 -6 -4 -12 -2 -12
3 0 6 -8 11 -17 11 -25 1 -49 21 -57 47 -15 46 -16 75 -6 89 7 7 9 18 5 24 -3
5 -1 10 6 10 7 0 9 3 6 7 -9 9 31 36 42 28 6 -3 14 3 20 12 6 10 11 14 11 8 0
-5 17 -11 38 -12 28 -2 39 2 39 12 0 8 -7 16 -16 17 -58 5 -97 1 -126 -16z"/>
<path d="M10665 9210 c3 -5 0 -10 -7 -10 -9 0 -9 -3 2 -10 8 -5 10 -10 4 -10
-6 0 -11 -28 -13 -67 -3 -97 -3 -97 -15 -105 -8 -6 -8 -8 1 -8 7 0 10 -11 7
-28 -3 -18 1 -34 9 -41 18 -14 24 -2 23 51 -1 21 2 38 5 38 3 0 5 25 4 55 -2
44 1 55 13 55 8 0 12 -3 9 -7 -4 -3 1 -15 10 -26 10 -11 12 -17 6 -13 -7 4
-13 3 -13 -3 0 -5 4 -11 10 -13 5 -1 11 -13 13 -25 2 -12 6 -26 10 -29 4 -4 7
-18 7 -31 0 -12 5 -23 11 -23 5 0 8 -4 4 -9 -9 -16 16 -24 29 -10 7 8 21 40
31 72 11 31 23 57 27 57 4 0 5 6 2 14 -5 13 21 76 31 76 8 0 1 -25 -10 -32 -6
-5 -4 -8 5 -8 13 0 13 -1 0 -10 -9 -6 -10 -10 -3 -10 8 0 12 -22 13 -67 1
-102 2 -103 22 -103 16 0 18 7 16 40 -1 22 -7 40 -12 40 -7 0 -8 3 -1 8 12 8
15 82 4 82 -8 0 -4 33 6 49 3 5 1 12 -4 16 -5 3 -8 14 -6 25 2 11 1 21 -3 21
-40 8 -52 5 -52 -12 0 -11 -5 -19 -11 -19 -5 0 -7 -4 -4 -10 3 -5 -1 -21 -10
-34 -9 -14 -14 -30 -11 -35 4 -5 2 -12 -3 -15 -7 -5 -25 -62 -23 -77 1 -3 -5
-6 -12 -6 -6 0 -13 14 -14 31 -2 16 -6 34 -11 40 -4 6 -18 41 -31 79 -20 57
-27 67 -47 67 -14 0 -21 -4 -18 -10z"/>
<path d="M11310 9205 c0 -8 -4 -15 -9 -15 -5 0 -8 -8 -7 -17 2 -10 -1 -21 -6
-24 -5 -3 -10 -16 -11 -27 -1 -12 -6 -22 -11 -22 -5 0 -6 -3 -3 -7 4 -3 1 -13
-6 -21 -10 -13 -9 -14 2 -7 9 5 6 -5 -7 -22 -12 -17 -19 -33 -16 -36 3 -3 2
-12 -2 -19 -5 -7 -10 -23 -12 -36 -5 -36 29 -24 42 15 11 33 46 76 46 57 0 -5
9 -10 20 -11 11 -1 20 4 20 10 0 7 4 6 10 -3 9 -13 10 -13 10 0 0 11 3 11 11
-3 6 -11 12 -26 14 -35 2 -10 4 -18 5 -19 2 -2 3 -9 4 -15 0 -7 10 -14 22 -16
15 -2 20 3 20 22 0 14 -4 22 -8 20 -4 -3 -9 2 -9 10 -2 25 -4 30 -12 44 -5 6
-6 16 -2 21 3 5 -2 17 -11 25 -8 9 -13 16 -10 16 4 0 0 15 -8 34 -8 19 -12 37
-8 40 3 3 -1 6 -8 6 -7 0 -10 3 -7 6 3 4 2 15 -4 25 -12 23 -49 25 -49 4z m40
-78 c0 -12 7 -32 15 -44 17 -24 12 -30 -25 -33 -47 -4 -54 3 -40 40 1 3 2 8 1
13 0 4 4 7 9 7 6 0 10 9 10 20 0 11 7 20 15 20 9 0 15 -9 15 -23z"/>
<path d="M11745 9118 c0 -57 -3 -109 -8 -115 -6 -8 -5 -13 2 -13 6 0 11 -7 11
-15 0 -8 -5 -15 -11 -15 -6 0 -4 -7 5 -15 8 -8 19 -15 24 -15 13 0 20 61 11
94 -4 14 -3 28 1 31 5 3 5 18 1 33 -10 38 -8 55 8 60 8 3 11 0 7 -6 -4 -6 2
-20 14 -32 11 -11 20 -27 20 -35 0 -8 5 -15 10 -15 6 0 10 -5 10 -11 0 -6 7
-17 15 -26 8 -8 13 -19 10 -24 -4 -5 0 -9 8 -9 8 0 20 -14 26 -31 8 -23 16
-30 33 -27 22 3 22 6 23 141 0 77 -3 141 -7 143 -3 2 -12 2 -20 -1 -15 -6 -17
-62 -3 -84 5 -9 4 -12 -2 -8 -6 4 -9 -17 -7 -58 4 -67 -8 -87 -22 -37 -4 15
-6 31 -5 35 1 5 -3 5 -9 2 -7 -4 -14 2 -17 14 -3 12 -9 21 -14 21 -5 0 -9 7
-9 15 0 8 -5 15 -11 15 -5 0 -7 5 -4 10 3 6 2 10 -2 10 -5 0 -17 16 -27 35
-13 23 -26 35 -41 35 -20 0 -21 -4 -20 -102z"/>
<path d="M12336 9204 c-4 -10 -2 -13 7 -8 6 4 3 -2 -7 -14 -11 -12 -16 -22
-12 -22 3 0 0 -13 -9 -30 -8 -16 -15 -32 -15 -35 -1 -20 -14 -64 -19 -61 -3 2
-7 -10 -8 -27 -1 -17 -6 -33 -10 -36 -5 -3 -9 -14 -11 -23 -2 -13 4 -18 20
-18 15 0 24 6 25 18 4 49 29 82 52 67 5 -3 12 1 14 7 4 9 6 10 6 1 1 -7 11
-10 24 -7 20 3 26 -2 37 -37 14 -41 43 -68 55 -49 3 5 1 10 -5 10 -6 0 -8 4
-5 10 3 5 -1 23 -10 39 -18 36 -19 44 -2 36 6 -4 5 -1 -4 7 -9 7 -14 19 -12
26 3 6 1 12 -4 12 -9 0 -11 6 -15 50 -1 11 -6 20 -10 20 -4 0 -8 7 -8 15 0 8
-6 15 -12 15 -10 0 -10 2 -1 8 18 11 -1 34 -30 37 -15 2 -28 -3 -31 -11z m39
-54 c-3 -5 -1 -11 5 -15 6 -4 8 -11 5 -16 -4 -5 -1 -9 5 -9 6 0 8 -5 5 -10 -4
-6 -1 -17 5 -25 18 -22 5 -31 -40 -27 l-41 4 17 25 c11 18 12 23 3 17 -10 -6
-10 -3 1 10 8 10 15 24 16 30 0 6 2 17 2 24 1 7 7 10 12 7 6 -4 8 -10 5 -15z"/>
<path d="M12870 9208 c0 -5 -4 -7 -8 -4 -5 3 -21 -4 -38 -15 -16 -10 -25 -19
-21 -19 4 0 2 -6 -5 -14 -7 -8 -17 -12 -22 -9 -4 3 -5 -4 -1 -16 3 -11 3 -21
-2 -21 -13 0 -7 -94 6 -98 6 -2 9 -8 6 -12 -7 -12 44 -62 56 -55 5 4 9 2 9 -3
0 -5 27 -10 61 -11 37 -1 59 2 55 8 -3 5 2 7 13 4 17 -4 19 1 19 61 0 41 -5
69 -13 76 -10 8 -15 8 -20 0 -5 -8 -10 -8 -20 0 -9 8 -17 6 -29 -5 -22 -22
-12 -34 22 -29 23 4 28 1 27 -13 0 -10 -4 -24 -9 -31 -4 -6 -3 -12 3 -12 6 0
8 -7 5 -15 -4 -8 -10 -12 -15 -9 -5 3 -9 0 -9 -7 0 -10 -3 -10 -12 -1 -8 8
-15 9 -25 1 -9 -8 -13 -8 -13 0 0 6 -3 10 -7 9 -21 -5 -52 16 -66 43 -13 28
-15 63 -5 111 4 19 45 57 62 59 6 1 24 3 40 5 16 2 38 -2 48 -7 17 -9 19 -7
16 12 -3 21 -9 24 -55 25 -29 1 -53 -2 -53 -8z"/>
<path d="M13306 9209 c3 -5 0 -16 -6 -24 -7 -8 -8 -15 -3 -15 5 0 9 -9 10 -20
1 -11 -2 -20 -7 -20 -6 0 -6 -10 0 -25 7 -18 6 -25 -3 -25 -8 0 -8 -3 -2 -8
11 -7 12 -102 1 -120 -9 -14 10 -19 91 -21 74 -2 95 7 62 27 -14 9 -19 9 -19
1 0 -8 -5 -8 -15 1 -12 10 -15 10 -15 0 0 -10 -3 -10 -15 0 -12 10 -15 10 -15
-1 0 -29 -28 16 -33 53 -5 42 3 48 61 48 43 0 77 16 52 24 -35 11 -60 14 -60
7 0 -4 -10 -7 -22 -6 -20 1 -23 8 -26 53 l-3 50 55 0 c31 -1 59 1 62 5 16 15
-12 24 -81 25 -48 1 -73 -3 -69 -9z"/>
<path d="M14364 9076 l1 -141 73 -5 c75 -5 99 3 79 25 -8 9 -16 10 -24 3 -9
-7 -13 -7 -13 2 0 10 -3 10 -15 0 -11 -9 -15 -9 -15 -1 0 8 -5 9 -18 2 -14 -7
-21 -5 -30 10 -7 11 -8 19 -2 19 6 0 6 9 0 24 -10 27 11 69 24 48 4 -6 14 -8
22 -5 9 3 25 7 37 8 12 1 26 3 32 4 5 0 4 6 -2 12 -7 7 -35 11 -63 10 -31 0
-49 3 -45 9 3 6 1 10 -5 10 -7 0 -8 5 -1 17 6 11 6 24 0 35 -12 22 -4 25 64
24 46 -1 57 2 55 14 -3 12 -20 15 -79 16 l-75 1 0 -141z"/>
<path d="M14824 9203 c-4 -10 -6 -22 -4 -28 7 -25 4 -91 -5 -97 -7 -5 -6 -8 0
-8 7 0 10 -27 9 -70 -2 -62 0 -70 16 -70 14 0 18 7 18 30 -1 17 2 33 5 36 4 4
2 15 -4 25 -6 13 -6 25 1 39 6 11 7 20 3 20 -9 0 -9 67 1 77 3 3 6 -1 6 -10 0
-8 11 -29 25 -45 13 -16 22 -32 18 -36 -3 -3 -1 -6 5 -6 7 0 12 -5 12 -11 0
-6 7 -17 15 -26 8 -8 12 -19 9 -25 -4 -7 -2 -8 4 -4 7 4 12 2 12 -4 0 -6 7
-18 15 -27 8 -8 13 -18 10 -22 -2 -5 8 -8 22 -7 l27 1 0 128 c1 70 -2 127 -6
127 -4 0 -5 6 -2 14 4 10 0 14 -13 12 -20 -3 -25 -47 -10 -80 6 -12 5 -16 -1
-12 -11 6 -8 -79 4 -117 7 -24 10 -26 -45 39 -5 7 -7 15 -4 18 4 3 1 6 -5 6
-7 0 -12 7 -12 15 0 8 -4 15 -10 15 -5 0 -10 9 -10 21 0 11 -4 18 -9 15 -5 -3
-14 8 -21 24 -7 17 -16 30 -21 30 -5 0 -9 7 -9 15 0 21 -36 19 -46 -2z"/>
<path d="M15334 9209 c-3 -6 -4 -12 -1 -15 9 -10 47 -12 52 -4 4 6 14 5 25 -2
14 -9 16 -17 9 -35 -5 -13 -5 -23 -1 -23 4 0 6 -45 5 -100 -1 -92 0 -100 17
-100 16 0 19 6 16 35 -1 19 2 37 8 39 7 3 7 5 1 5 -11 1 -11 74 0 91 3 6 1 10
-4 10 -13 0 -10 22 4 32 6 5 5 8 -3 8 -9 0 -10 5 -3 18 6 11 22 17 48 17 27 0
38 4 38 15 0 12 -19 15 -102 17 -61 1 -105 -2 -109 -8z"/>
<path d="M16210 9208 c0 -6 -3 -9 -6 -5 -10 9 -48 -31 -49 -53 -1 -11 2 -20 7
-20 4 0 8 -7 8 -16 0 -18 25 -46 34 -37 3 4 6 1 6 -5 0 -7 3 -11 8 -11 30 5
68 -27 68 -56 -1 -11 -10 -28 -22 -37 -25 -20 -39 -23 -28 -7 5 8 1 8 -14 0
-14 -7 -23 -8 -27 -1 -9 14 -45 12 -42 -2 3 -18 26 -26 74 -27 24 -1 48 5 57
14 8 8 20 15 26 15 6 0 8 5 5 10 -3 6 -3 16 2 23 11 18 12 37 2 37 -6 0 -8 3
-6 8 7 11 -49 59 -66 56 -18 -2 -58 40 -54 59 4 23 33 36 75 32 48 -4 61 20
15 28 -47 8 -73 6 -73 -5z"/>
<path d="M16613 9208 c1 -7 5 -15 9 -18 3 -3 8 -12 10 -20 2 -8 6 -19 11 -25
35 -48 52 -84 50 -107 -1 -15 2 -30 8 -33 5 -4 5 -14 1 -23 -14 -28 -8 -47 13
-47 18 0 20 7 19 68 0 37 3 67 8 67 4 0 8 7 8 15 0 8 4 15 9 15 10 0 27 39 23
53 -1 4 3 7 8 7 6 0 10 5 10 11 0 6 7 17 15 26 9 8 14 18 11 20 -7 8 -56 -6
-54 -15 1 -4 -6 -22 -15 -39 -10 -18 -15 -33 -12 -33 2 0 -3 -9 -12 -20 -10
-11 -21 -20 -25 -20 -4 0 -5 9 -3 20 2 11 0 20 -4 20 -5 0 -17 17 -26 38 -10
20 -23 40 -29 44 -17 12 -36 9 -33 -4z"/>
<path d="M17535 9201 c1 -9 10 -18 20 -19 12 -3 15 0 10 9 -6 8 -4 10 6 3 8
-5 19 -9 24 -10 6 0 15 -2 20 -2 6 -1 10 -51 9 -127 0 -116 1 -125 19 -125 13
0 18 6 16 23 -2 12 0 28 4 35 5 7 3 12 -4 12 -9 0 -9 3 0 14 8 10 9 16 1 21
-7 4 -7 12 0 26 8 14 7 19 -1 19 -8 0 -8 4 -1 13 7 8 7 18 2 27 -5 9 -5 20 2
28 9 10 8 16 -3 23 -16 10 -13 11 51 13 24 1 35 6 35 16 0 12 -19 15 -106 16
-93 1 -107 -1 -104 -15z"/>
<path d="M18042 9212 c-6 -5 -10 -57 -9 -145 l1 -137 77 0 c79 0 94 6 80 29
-6 10 -10 10 -16 2 -5 -9 -10 -9 -21 0 -11 9 -14 9 -14 0 0 -8 -5 -9 -19 -1
-12 6 -21 6 -23 0 -6 -19 -26 6 -28 35 -5 65 -4 65 55 65 40 0 55 4 55 14 0
15 -24 28 -34 19 -3 -3 -21 -6 -39 -7 -29 -1 -33 2 -35 27 -1 16 -3 31 -3 35
-5 34 2 40 56 40 58 0 71 4 61 20 -6 11 -127 14 -144 4z"/>
<path d="M18510 9210 c-13 -9 -13 -10 0 -10 9 0 11 -3 4 -8 -6 -4 -11 -18 -11
-32 -3 -99 -12 -210 -17 -219 -5 -7 2 -11 16 -11 20 0 24 5 25 38 4 129 9 172
18 168 5 -1 9 -11 7 -21 -2 -11 1 -14 9 -9 7 4 10 3 6 -3 -3 -5 0 -21 8 -36
10 -19 10 -27 2 -31 -9 -3 -8 -5 1 -5 6 -1 12 -9 12 -19 0 -10 3 -22 8 -26 4
-4 7 -11 8 -14 3 -21 18 -42 31 -42 8 0 11 5 8 10 -3 6 -1 10 6 10 7 0 9 3 6
7 -4 3 -2 12 4 20 6 7 8 13 4 13 -5 0 0 10 11 22 12 13 13 18 4 13 -12 -7 -13
-6 -3 7 7 8 10 18 6 21 -3 4 -2 7 4 7 6 0 14 16 17 35 9 44 36 49 30 5 -3 -17
-1 -30 5 -30 7 0 7 -8 2 -22 -5 -13 -5 -33 0 -45 5 -14 4 -25 -3 -29 -7 -4 -6
-9 3 -15 12 -8 11 -11 -1 -19 -12 -8 -9 -10 12 -10 15 0 30 5 33 10 3 6 2 10
-3 10 -5 0 -8 24 -7 53 1 28 -2 58 -8 65 -6 8 -6 12 2 12 7 0 9 5 5 12 -4 7
-8 37 -8 67 -1 52 -2 55 -28 58 -23 3 -35 -6 -26 -19 1 -2 -5 -14 -12 -28 -8
-14 -15 -29 -16 -35 -6 -29 -10 -41 -17 -46 -4 -3 -9 -16 -10 -27 -1 -12 -5
-22 -9 -22 -4 0 -5 -6 -2 -13 3 -8 -2 -20 -11 -27 -13 -11 -15 -10 -10 3 4 8
2 18 -4 21 -6 4 -8 13 -4 21 3 8 0 15 -7 15 -6 0 -8 5 -5 10 4 6 2 16 -3 23
-5 7 -15 33 -23 59 -7 26 -17 44 -21 42 -4 -3 -8 2 -8 10 0 18 -18 20 -40 6z
m223 -53 c3 -8 -1 -14 -8 -14 -7 0 -11 6 -8 14 3 7 6 13 8 13 2 0 5 -6 8 -13z"/>
<path d="M19098 9186 c-15 -16 -24 -34 -20 -40 3 -6 7 -15 8 -21 0 -5 2 -16 2
-22 1 -7 8 -13 16 -13 8 0 16 -3 18 -7 2 -5 21 -17 43 -28 25 -13 41 -28 43
-42 4 -27 -35 -65 -57 -55 -23 11 -71 9 -68 -3 1 -5 8 -9 14 -9 7 1 10 -2 7
-7 -10 -18 84 -10 102 9 10 9 20 16 23 14 16 -9 17 74 0 94 -17 20 -85 55 -93
47 -6 -6 -10 12 -7 30 0 4 -3 7 -9 7 -11 0 -1 32 13 42 6 3 30 5 54 3 31 -2
43 1 43 11 0 16 0 16 -60 19 -38 1 -49 -3 -72 -29z"/>
<path d="M11362 8729 c-9 -3 -18 -11 -18 -18 -1 -6 -2 -16 -3 -22 0 -5 -7 -7
-13 -3 -7 4 -10 4 -6 -1 4 -4 2 -15 -5 -23 -10 -13 -9 -15 3 -8 11 6 11 4 -1
-6 -17 -14 -19 -19 -19 -44 0 -8 -4 -13 -9 -10 -5 3 -12 -1 -15 -10 -4 -10 -2
-13 7 -8 8 5 7 2 -2 -9 -7 -9 -10 -17 -5 -17 4 0 -1 -6 -12 -14 -10 -8 -16
-18 -12 -22 4 -4 0 -12 -9 -19 -9 -7 -17 -25 -19 -41 -2 -16 -11 -34 -20 -41
-9 -6 -13 -16 -9 -22 3 -6 1 -11 -4 -11 -6 0 -10 -6 -8 -12 1 -7 -3 -12 -9
-11 -6 1 -11 -4 -11 -12 0 -8 5 -11 11 -8 6 4 5 -1 -3 -10 -26 -32 -61 -109
-54 -120 3 -6 1 -7 -5 -3 -11 7 -17 -6 -13 -28 1 -5 -5 -6 -14 -2 -9 3 -14 2
-11 -3 7 -11 -14 -74 -28 -83 -6 -4 -7 -8 -2 -8 6 0 1 -7 -10 -16 -10 -8 -13
-13 -6 -9 6 3 12 1 12 -4 0 -6 -6 -11 -13 -11 -7 0 -14 -10 -14 -22 -1 -13 -7
-24 -13 -26 -5 -2 -10 -13 -10 -24 0 -14 -5 -18 -16 -14 -9 3 -12 2 -9 -5 4
-5 1 -16 -5 -24 -6 -8 -9 -19 -5 -25 3 -5 -1 -10 -9 -10 -9 0 -13 -6 -10 -13
3 -8 -2 -20 -11 -27 -8 -7 -15 -9 -15 -4 0 5 -4 3 -9 -5 -5 -8 -17 -16 -25
-17 -9 -1 -14 1 -11 5 2 4 -2 8 -10 8 -8 0 -12 -5 -8 -10 3 -5 -4 -6 -17 -2
-15 5 -20 4 -16 -4 4 -6 0 -11 -8 -11 -14 0 -14 -3 2 -18 13 -14 22 -16 37 -9
13 7 20 6 23 -1 3 -9 9 -9 23 -2 14 8 19 7 19 -2 0 -9 3 -9 8 -2 4 6 23 10 42
8 19 -1 40 2 47 7 7 7 14 6 19 -2 5 -8 3 -9 -6 -4 -9 5 -11 4 -6 -4 4 -6 13
-8 19 -4 18 11 77 10 77 -2 0 -7 3 -7 8 0 9 13 32 17 32 6 0 -22 34 -2 37 22
3 24 0 27 -26 27 -17 0 -31 6 -35 16 -3 8 -2 12 4 9 9 -6 12 -2 14 28 1 6 8
18 16 25 8 8 9 11 3 7 -9 -4 -11 -1 -7 9 3 9 9 14 14 11 4 -2 12 7 18 20 7 14
16 25 22 25 5 0 9 3 8 8 -4 11 47 62 62 62 7 0 10 7 6 16 -3 8 -2 12 4 9 6 -3
10 -1 10 6 0 7 3 10 6 6 4 -3 15 4 26 16 11 12 16 15 12 7 -4 -9 2 -7 13 5 11
11 18 25 15 30 -3 6 3 3 14 -5 10 -8 16 -11 12 -6 -4 4 -1 14 5 21 9 10 15 10
26 1 12 -8 13 -8 7 2 -5 8 -1 12 13 12 11 0 23 5 27 12 5 7 3 8 -6 3 -9 -5
-11 -4 -6 4 6 9 11 9 22 0 11 -9 14 -9 14 0 0 7 5 9 10 6 6 -3 10 -1 10 6 0 6
8 9 20 6 12 -3 23 1 28 10 7 12 11 12 23 -3 12 -16 12 -17 -1 -10 -9 4 -8 1 3
-7 9 -8 17 -21 17 -28 0 -8 7 -24 15 -35 8 -12 11 -25 7 -29 -4 -5 -1 -5 6 -1
12 7 16 -5 12 -33 -1 -8 4 -12 14 -8 10 4 13 1 10 -8 -3 -7 2 -24 10 -37 9
-14 13 -28 9 -31 -3 -4 -1 -7 5 -7 7 0 12 -9 12 -21 0 -13 4 -18 13 -13 7 5 6
0 -3 -11 -9 -11 -10 -16 -2 -11 11 6 14 0 11 -20 0 -4 5 -11 13 -15 10 -7 10
-9 0 -9 -7 0 -10 -4 -7 -10 3 -6 -1 -7 -10 -4 -12 5 -16 2 -13 -11 2 -13 -4
-19 -19 -20 -13 -1 -23 3 -23 9 0 7 -3 7 -8 1 -11 -15 -55 -18 -47 -2 4 6 0 4
-8 -5 -8 -10 -16 -16 -19 -13 -2 3 -4 -4 -3 -15 1 -11 4 -23 8 -27 9 -8 446
-10 441 -1 -2 3 2 9 8 12 11 5 11 7 0 12 -6 3 -10 10 -6 15 4 7 -50 14 -58 7
-7 -5 -48 38 -48 49 0 7 -6 13 -12 13 -9 0 -8 4 2 10 13 8 12 10 -3 10 -10 0
-15 5 -12 10 3 6 1 10 -6 10 -7 0 -9 3 -6 7 4 3 0 14 -9 24 -9 10 -14 25 -10
34 3 9 2 13 -4 10 -10 -6 -14 7 -11 34 2 7 -2 10 -8 7 -5 -4 -12 -2 -16 4 -3
5 -1 10 5 10 7 0 6 5 -2 14 -7 8 -15 12 -18 11 -3 -2 -7 5 -8 16 -4 43 -6 49
-14 49 -5 0 -6 5 -3 10 3 6 2 10 -3 10 -9 0 -34 45 -37 65 -3 20 17 35 34 26
11 -6 23 -4 36 5 23 17 39 18 29 2 -5 -8 -1 -8 10 1 15 13 19 13 27 0 5 -8 9
-9 9 -3 0 10 6 12 50 16 11 1 20 6 20 10 0 4 5 8 11 8 5 0 7 -5 3 -11 -4 -8 0
-8 15 0 16 9 21 9 21 -1 0 -9 3 -9 9 2 6 8 8 17 6 20 -2 3 -73 4 -159 3 -91 0
-154 3 -150 8 3 5 -2 9 -10 9 -9 0 -15 3 -14 8 3 15 -15 62 -24 62 -6 0 -8 9
-5 20 3 11 0 18 -7 17 -6 -1 -10 6 -8 16 2 9 -2 17 -9 17 -6 0 -9 7 -5 15 3 8
1 15 -4 15 -6 0 -10 7 -10 16 0 8 -4 12 -10 9 -6 -3 -7 1 -4 9 3 9 2 16 -4 16
-5 0 -8 12 -6 26 1 15 -3 28 -12 31 -8 3 -19 14 -25 25 -8 15 -8 19 0 14 6 -4
0 9 -14 29 -13 21 -22 41 -19 46 6 10 7 10 -89 12 -37 1 -75 -1 -85 -4z m68
-185 c0 -8 6 -14 14 -14 8 0 17 -7 20 -16 6 -15 4 -15 -11 -3 -14 12 -14 10 2
-18 11 -18 24 -33 29 -33 6 0 5 -5 -1 -11 -8 -8 -6 -16 9 -31 11 -11 17 -26
14 -34 -3 -8 1 -14 11 -14 13 0 14 -2 2 -17 -12 -15 -12 -16 6 -9 11 4 16 4
12 0 -4 -4 0 -18 9 -32 13 -19 13 -27 3 -36 -9 -8 -11 -7 -5 9 5 17 4 18 -6 5
-7 -8 -22 -22 -32 -30 -18 -13 -19 -13 -11 0 8 13 7 13 -8 1 -14 -11 -17 -11
-18 0 0 8 -4 4 -9 -9 -8 -18 -14 -21 -36 -16 -22 6 -25 4 -19 -7 7 -12 6 -12
-7 -1 -13 10 -18 10 -24 1 -5 -8 -3 -9 6 -4 8 5 11 4 7 -3 -4 -5 -17 -8 -29
-4 -13 3 -19 1 -15 -5 5 -7 0 -9 -13 -6 -12 3 -22 -1 -26 -10 -3 -9 -14 -14
-25 -12 -10 2 -18 -1 -16 -8 1 -6 -4 -12 -10 -13 -7 -1 -14 -2 -15 -4 -10 -7
-37 -6 -32 1 3 5 10 7 15 4 5 -4 9 -1 9 4 0 6 -6 11 -12 11 -9 0 -8 3 2 10 8
5 15 14 15 20 0 6 7 15 15 20 13 8 13 10 1 10 -11 0 -11 3 3 13 9 7 18 22 19
35 1 20 9 26 30 23 4 -1 3 8 -3 19 -6 11 -7 20 -3 20 11 0 34 51 27 62 -3 5 0
7 8 6 7 -2 12 3 11 10 -2 6 5 12 15 12 15 0 15 2 2 11 -11 8 -12 12 -2 16 6 2
12 14 12 25 0 13 5 18 14 15 10 -4 12 0 9 14 -6 21 14 52 28 43 5 -3 9 -12 9
-20z"/>
<path d="M11435 8250 c-3 -5 -1 -10 4 -10 6 0 11 5 11 10 0 6 -2 10 -4 10 -3
0 -8 -4 -11 -10z"/>
<path d="M13773 8485 c-7 -7 -9 -15 -6 -19 3 -3 -2 -8 -11 -12 -9 -3 -14 -10
-11 -14 3 -4 -2 -11 -11 -14 -9 -3 -12 -11 -8 -18 5 -8 2 -9 -10 -5 -14 6 -17
3 -12 -9 5 -12 2 -15 -9 -10 -9 3 -14 2 -11 -3 8 -12 -19 -33 -29 -23 -5 4 -5
-1 -2 -10 4 -13 1 -16 -14 -13 -11 2 -17 0 -14 -4 3 -5 -2 -12 -10 -15 -13 -5
-14 -10 -4 -27 9 -17 13 -19 20 -8 7 12 9 11 9 -1 0 -13 1 -13 10 0 6 10 10
11 10 3 0 -7 7 -13 15 -13 18 0 19 -11 3 -29 -10 -11 -10 -13 0 -7 14 8 17
-10 3 -18 -10 -7 -9 -31 2 -42 12 -12 8 -26 -5 -18 -10 6 -10 4 0 -8 10 -13
10 -17 0 -20 -10 -4 -10 -8 1 -21 11 -14 11 -17 0 -17 -11 0 -11 -2 1 -10 12
-8 12 -10 1 -10 -11 0 -11 -3 -1 -15 10 -12 10 -19 2 -27 -8 -8 -8 -17 -1 -31
8 -14 8 -18 0 -13 -14 9 -14 0 -1 -24 7 -13 7 -21 0 -25 -8 -5 -7 -11 1 -21 9
-11 9 -14 0 -14 -8 0 -7 -5 3 -15 8 -9 13 -22 10 -30 -7 -18 42 -70 49 -52 4
8 6 7 6 -3 1 -8 10 -21 22 -28 17 -11 20 -11 14 0 -3 7 1 4 9 -6 9 -11 16 -14
16 -8 0 7 5 12 11 12 5 0 7 -6 3 -12 -5 -9 -2 -9 9 1 12 9 17 10 17 2 0 -7 5
-9 10 -6 6 4 8 9 6 13 -2 4 12 7 32 6 23 -1 42 5 50 15 8 9 11 10 7 4 -10 -21
4 -15 33 15 15 15 27 34 26 42 -2 35 -5 41 -14 35 -6 -4 -8 -10 -5 -15 3 -4
-2 -11 -11 -14 -9 -3 -12 -2 -8 5 3 6 -3 5 -14 -2 -12 -7 -19 -16 -16 -20 2
-4 -4 -6 -13 -4 -10 1 -23 -2 -30 -7 -7 -5 -14 -5 -17 1 -4 6 -13 8 -20 5 -7
-3 -19 2 -26 10 -7 9 -16 13 -21 10 -5 -3 -6 2 -3 11 4 9 -1 24 -10 34 -9 10
-13 20 -10 23 9 10 12 58 3 52 -11 -6 -7 26 5 45 7 11 6 12 -5 6 -12 -8 -12
-6 0 8 10 13 10 17 1 17 -9 0 -9 4 1 17 10 11 10 14 2 9 -7 -4 -13 -2 -13 3 0
6 5 11 12 11 9 0 9 3 0 12 -16 16 -15 31 1 22 9 -6 9 -4 -1 8 -10 13 -10 17 0
22 11 5 11 7 0 12 -10 5 -10 9 0 22 10 12 10 14 1 8 -7 -4 -13 -2 -13 3 0 6 5
11 10 11 6 0 3 11 -6 25 -16 24 -16 25 1 18 13 -4 16 -3 11 5 -4 7 -2 12 4 12
6 0 8 5 4 13 -6 9 -4 9 7 1 16 -12 29 -12 48 0 9 6 12 5 8 -1 -4 -7 6 -10 27
-10 19 1 33 4 30 8 -2 4 2 10 8 12 10 4 10 7 0 15 -7 5 -10 16 -6 26 6 16 4
17 -14 7 -15 -8 -23 -8 -28 1 -5 7 -3 8 6 3 8 -5 11 -4 6 3 -9 15 -38 3 -29
-12 3 -6 -4 -2 -17 9 -13 11 -20 14 -16 8 5 -9 -1 -12 -19 -11 -16 2 -24 7
-21 15 3 7 1 15 -4 18 -6 4 -7 14 -2 23 10 21 10 33 -2 51 -6 10 -5 12 2 7 15
-9 15 5 -1 25 -10 13 -15 14 -24 4z"/>
<path d="M13354 8388 c-3 -5 -9 -6 -14 -3 -5 3 -11 1 -15 -5 -4 -6 -11 -8 -16
-5 -5 4 -9 1 -9 -5 0 -6 -4 -9 -9 -6 -5 3 -21 -8 -37 -24 -40 -40 -56 -60 -48
-60 3 0 2 -6 -3 -12 -23 -30 1 -144 36 -178 16 -16 107 -63 126 -66 6 -1 13
-3 18 -4 4 -1 10 -3 15 -4 14 -3 67 -35 58 -36 -5 0 0 -8 11 -17 31 -28 25
-71 -16 -109 -19 -19 -44 -35 -55 -35 -12 -1 -28 -2 -36 -3 -51 -5 -136 60
-127 96 3 10 2 16 -3 13 -4 -2 -10 9 -14 25 -5 29 -6 30 -25 13 -11 -9 -18
-20 -15 -25 5 -7 12 -80 13 -137 1 -13 4 -22 7 -18 4 3 13 -1 21 -9 8 -8 19
-12 24 -8 6 3 15 1 22 -4 16 -13 139 -13 155 0 6 6 12 7 12 3 0 -4 11 0 25 9
14 9 25 13 25 10 0 -4 14 11 31 32 17 21 34 41 37 44 19 14 26 160 9 160 -6 0
-8 3 -4 6 9 9 -49 64 -67 64 -9 0 -16 4 -16 9 0 5 -15 12 -32 16 -18 4 -39 9
-45 10 -26 6 -73 30 -73 37 0 5 -6 8 -14 8 -7 0 -17 10 -21 23 -14 43 -16 67
-5 67 6 0 8 5 5 10 -3 6 1 13 9 16 9 3 14 10 11 14 -5 8 24 18 78 27 18 3 27
0 27 -9 0 -9 3 -9 10 2 6 10 10 11 10 3 0 -7 6 -13 14 -13 16 0 45 -40 49 -70
2 -11 14 -28 27 -37 13 -9 20 -11 16 -5 -4 7 -3 12 1 12 5 0 9 9 9 20 0 11 -4
20 -8 20 -4 0 -5 16 -3 35 3 24 1 35 -8 35 -9 0 -9 2 1 8 19 13 4 39 -26 47
-61 17 -142 24 -148 13z"/>
<path d="M12261 8376 c-6 -7 -8 -16 -4 -19 6 -7 -12 -11 -30 -8 -5 1 -6 -3 -3
-8 4 -5 -4 -17 -16 -25 -12 -9 -16 -16 -9 -16 10 0 11 -3 2 -14 -9 -11 -9 -16
0 -21 8 -6 8 -10 -2 -15 -9 -6 -10 -13 -3 -22 12 -15 12 -28 1 -45 -5 -8 -4
-13 3 -13 8 0 8 -6 0 -20 -8 -14 -8 -20 0 -20 8 0 8 -6 0 -20 -8 -15 -8 -20 2
-20 10 0 10 -2 -1 -9 -9 -6 -10 -10 -2 -16 9 -5 9 -10 0 -21 -9 -11 -9 -14 1
-14 10 0 10 -3 1 -14 -7 -8 -8 -17 -4 -19 10 -6 10 -48 0 -64 -4 -6 -4 -18 -1
-27 3 -9 1 -16 -5 -16 -6 0 -11 -5 -11 -11 0 -5 5 -7 10 -4 6 4 5 -4 -1 -19
-7 -14 -15 -23 -19 -21 -5 3 -11 -2 -14 -11 -3 -9 -13 -14 -20 -11 -20 8 -37
-15 -26 -33 5 -8 6 -19 4 -25 -3 -5 0 -3 8 5 15 17 40 20 50 5 5 -7 8 -6 8 0
0 6 9 11 20 12 12 1 18 -3 14 -9 -4 -7 0 -7 12 -1 22 11 75 10 92 -1 7 -4 12
-3 12 2 0 5 11 8 24 7 15 -2 27 3 31 13 3 9 3 13 -1 10 -3 -4 -14 0 -22 9 -10
10 -17 12 -20 5 -2 -6 -14 0 -28 15 -26 29 -31 38 -11 27 9 -6 9 -4 1 7 -7 8
-11 35 -10 62 1 26 -3 47 -9 47 -5 0 -1 7 9 15 11 8 14 15 8 15 -7 0 -12 9
-12 21 0 11 4 17 10 14 6 -3 7 1 4 9 -3 9 -10 14 -14 11 -10 -6 0 36 12 52 6
7 4 14 -3 19 -8 5 -9 3 -4 -6 6 -9 4 -11 -5 -5 -10 6 -9 11 5 22 11 7 13 13 7
13 -10 0 -10 5 -1 22 10 18 9 20 -6 14 -15 -5 -16 -4 -6 8 6 8 11 18 10 22 -4
16 13 44 22 38 5 -3 9 -1 9 3 0 5 9 14 21 21 17 11 20 11 14 0 -3 -7 0 -5 9 6
8 10 22 16 30 13 9 -4 18 -2 21 3 4 6 11 10 16 10 6 0 7 -6 3 -12 -5 -9 -2 -9
9 1 9 7 17 10 17 5 0 -5 5 -2 10 6 8 13 10 13 10 -2 0 -11 6 -16 19 -13 14 2
24 -6 34 -28 9 -17 13 -35 11 -39 -3 -4 0 -8 5 -8 6 0 11 -5 11 -11 0 -5 -4
-7 -10 -4 -6 3 -7 -1 -4 -9 3 -9 11 -13 17 -9 5 3 7 2 4 -4 -7 -12 -9 -65 -5
-109 3 -24 1 -31 -10 -26 -12 4 -12 2 0 -17 11 -18 11 -23 -2 -31 -12 -8 -12
-10 5 -11 11 0 14 -3 8 -6 -10 -3 -10 -10 -1 -26 9 -19 9 -20 -3 -10 -12 9
-14 5 -14 -23 0 -23 5 -34 15 -35 10 0 8 -3 -5 -9 -11 -5 -14 -9 -6 -9 11 -1
11 -4 1 -16 -6 -8 -8 -20 -4 -26 4 -8 3 -9 -4 -5 -7 4 -12 3 -12 -1 0 -5 -10
-9 -22 -10 -12 -1 -28 -10 -37 -20 -9 -10 -12 -14 -7 -10 5 4 20 0 33 -8 15
-10 23 -12 23 -4 0 8 6 7 17 -2 12 -10 14 -10 9 -1 -5 9 2 11 31 6 21 -3 42
-8 47 -12 5 -3 6 0 2 6 -4 7 -3 12 3 12 5 0 12 -6 14 -12 3 -7 6 -8 6 -3 1 6
18 9 38 9 21 -1 41 4 45 10 10 16 -10 35 -32 29 -12 -3 -20 0 -20 6 0 7 -4 10
-9 7 -11 -7 -23 22 -15 35 3 5 0 9 -7 9 -8 0 -7 5 2 17 11 13 11 17 2 20 -7 3
-13 9 -13 14 0 6 4 8 8 5 9 -6 8 97 -2 113 -4 6 -3 11 1 11 11 0 9 142 -2 161
-8 12 -6 12 8 0 16 -13 17 -12 7 13 -5 15 -6 25 -1 22 5 -3 12 1 15 10 4 9 13
14 21 10 8 -3 15 -1 15 4 0 6 6 9 13 8 6 -2 11 2 10 8 -1 7 6 10 16 7 10 -3
22 0 25 6 4 6 12 11 17 11 6 0 7 -6 3 -12 -6 -10 -4 -10 7 -2 19 14 61 16 53
2 -5 -7 -1 -9 9 -5 18 7 41 -24 29 -39 -4 -5 0 -3 8 3 13 10 16 8 18 -14 1
-15 8 -30 15 -35 9 -6 9 -8 -2 -8 -10 0 -11 -3 -3 -13 7 -8 7 -18 2 -27 -5 -9
-5 -19 1 -27 7 -8 7 -19 -1 -34 -10 -17 -9 -23 1 -30 11 -7 11 -9 -1 -9 -12 0
-12 -2 -1 -9 9 -6 10 -10 2 -16 -9 -5 -9 -11 1 -23 10 -12 10 -14 1 -8 -7 4
-13 3 -13 -3 0 -5 5 -13 10 -16 8 -5 7 -11 -1 -21 -9 -11 -9 -14 0 -14 7 0 9
-5 6 -10 -4 -6 -11 -8 -16 -5 -5 3 -6 -1 -3 -9 3 -9 11 -13 18 -9 7 5 7 2 -1
-8 -7 -8 -13 -31 -15 -51 -2 -31 -5 -35 -25 -33 -17 2 -20 -1 -14 -9 7 -8 4
-12 -9 -12 -10 0 -16 5 -13 11 4 6 1 6 -6 -1 -8 -7 -9 -18 -2 -35 5 -13 10
-19 10 -14 1 12 202 12 221 0 9 -5 11 -4 6 4 -4 6 0 14 9 17 14 6 14 8 -2 19
-9 7 -23 11 -30 8 -7 -3 -13 0 -13 6 0 6 -7 11 -15 11 -8 0 -15 5 -15 11 0 5
5 7 11 3 6 -3 3 5 -6 20 -10 14 -13 26 -9 26 5 0 8 37 7 82 -1 54 3 86 10 90
9 6 8 8 -1 8 -7 0 -10 5 -6 11 3 6 0 15 -7 20 -8 5 -9 9 -3 9 7 0 10 13 8 31
-3 22 0 28 9 23 8 -5 7 -2 -2 9 -7 9 -11 23 -8 32 4 8 1 17 -5 21 -7 4 -6 9 3
15 11 7 10 9 -3 9 -20 0 -24 15 -8 25 6 4 4 12 -5 22 -9 9 -14 22 -11 29 3 9
0 11 -11 7 -12 -5 -15 -2 -10 10 3 9 3 16 -1 15 -15 -4 -52 14 -52 25 0 7 -4
6 -10 -3 -5 -8 -10 -10 -10 -5 0 6 -18 10 -40 10 -22 0 -40 -3 -40 -7 0 -5
-12 -8 -26 -8 -14 0 -22 -4 -19 -10 3 -6 -1 -7 -9 -4 -9 3 -16 1 -16 -4 0 -6
-9 -9 -20 -7 -11 2 -18 1 -16 -4 3 -4 1 -13 -5 -21 -6 -11 -9 -12 -9 -2 0 7
-5 10 -10 7 -6 -4 -8 -11 -5 -16 3 -5 -2 -6 -11 -2 -10 4 -15 2 -11 -4 3 -5
-1 -10 -10 -10 -9 0 -18 9 -21 20 -4 15 -7 16 -14 5 -7 -9 -8 -7 -5 10 3 12 1
20 -3 17 -14 -9 -41 7 -36 20 3 8 -2 11 -15 8 -10 -3 -19 -1 -19 5 0 12 -49
10 -69 -2 -11 -7 -12 -6 -6 5 8 12 6 12 -8 0 -14 -11 -17 -11 -17 0 -1 9 -5 8
-15 -5 -8 -11 -15 -16 -15 -12 0 5 -6 3 -13 -3 -8 -6 -18 -7 -22 -3 -5 4 -5
-1 -2 -11 4 -11 3 -16 -3 -12 -10 6 -69 -22 -83 -40 -10 -14 -4 27 7 44 7 11
5 13 -7 8 -11 -4 -14 -2 -10 8 3 8 8 13 12 10 4 -2 8 2 8 8 0 17 -33 19 -46 3z"/>
<path d="M14783 8367 c-3 -5 -11 -6 -19 -3 -8 3 -17 -1 -20 -9 -4 -8 -10 -15
-15 -15 -5 0 -18 -9 -29 -20 -15 -15 -16 -20 -6 -20 8 0 18 -5 22 -12 5 -7 2
-9 -7 -4 -8 4 -5 0 5 -8 11 -9 15 -16 10 -16 -5 0 -10 -9 -10 -20 0 -11 4 -20
8 -20 11 0 6 -23 -7 -32 -6 -5 -5 -8 4 -8 10 0 11 -3 2 -14 -9 -10 -9 -16 -1
-21 8 -5 8 -10 0 -20 -8 -10 -8 -15 0 -20 8 -5 8 -10 0 -20 -8 -10 -8 -15 0
-20 8 -5 8 -10 0 -20 -8 -10 -8 -15 1 -20 8 -6 8 -10 -2 -15 -10 -7 -10 -12 0
-23 8 -11 9 -17 1 -22 -8 -5 -8 -11 1 -21 9 -11 8 -14 -2 -14 -12 0 -12 -2 0
-9 9 -6 10 -10 2 -16 -9 -5 -9 -10 0 -21 8 -10 8 -14 0 -14 -6 0 -11 -6 -11
-14 0 -8 -7 -17 -16 -20 -10 -4 -13 -2 -8 7 5 8 2 7 -9 -2 -9 -7 -17 -10 -17
-5 0 4 -6 -1 -14 -11 -8 -11 -12 -23 -10 -27 2 -3 60 -5 129 -4 79 1 126 -2
129 -9 3 -7 5 -7 5 1 1 5 14 9 30 8 24 -2 28 1 23 18 -3 13 -11 18 -23 15 -11
-3 -23 2 -29 11 -5 10 -10 12 -10 6 0 -6 -6 -11 -14 -11 -8 0 -14 5 -13 11 1
6 -4 10 -10 9 -7 -2 -15 9 -19 25 -3 15 -7 33 -10 40 -2 6 0 12 4 12 11 0 8
74 -3 82 -6 5 -4 8 5 8 13 0 13 1 0 10 -13 9 -13 10 0 10 13 0 13 1 0 10 -12
8 -12 10 -1 10 11 0 11 3 1 15 -7 8 -9 15 -4 15 5 0 8 25 7 55 -1 32 2 55 8
55 6 0 7 5 4 10 -3 6 1 13 10 16 13 6 14 8 3 15 -10 7 -9 9 5 9 9 0 17 5 17
10 0 6 7 10 15 10 8 0 15 4 15 8 0 5 7 9 15 9 8 0 15 -4 15 -9 0 -5 4 -7 9 -3
5 3 12 1 16 -5 3 -5 1 -10 -6 -10 -7 0 -2 -9 11 -20 27 -23 34 -25 25 -7 -4 6
0 4 9 -7 8 -10 21 -16 29 -13 8 3 20 0 27 -6 7 -7 10 -7 8 -2 -6 11 17 37 25
29 5 -5 2 51 -4 76 -2 8 -9 20 -16 27 -6 7 -13 17 -15 23 -5 15 -60 20 -77 6
-11 -8 -13 -8 -7 2 9 15 -6 16 -22 0 -7 -7 -12 -9 -12 -4 0 4 -7 0 -16 -8 -8
-9 -20 -13 -26 -10 -6 4 -9 3 -6 -2 2 -5 -10 -23 -27 -41 l-32 -31 -1 36 c-1
21 -3 44 -3 52 -1 16 -37 22 -46 7z"/>
<path d="M14264 8351 c-3 -4 -10 -7 -15 -7 -5 -1 -11 -3 -14 -4 -3 -1 -9 -4
-15 -5 -5 -1 -12 -4 -15 -5 -3 -1 -10 -3 -15 -4 -6 0 -15 -8 -20 -16 -5 -8
-10 -12 -10 -8 0 4 -12 -5 -27 -20 -31 -30 -67 -82 -58 -82 4 0 -1 -7 -9 -16
-9 -8 -16 -22 -16 -30 0 -22 -1 -28 -11 -46 -7 -13 -6 -18 3 -18 9 0 9 -3 -2
-10 -13 -9 -13 -10 0 -10 9 0 11 -3 5 -8 -12 -8 -17 -72 -7 -72 4 0 9 -8 10
-17 4 -42 23 -93 33 -93 5 0 9 -5 9 -11 0 -15 70 -79 87 -79 7 0 13 -4 13 -9
0 -5 12 -12 28 -16 43 -11 172 -15 172 -5 0 5 9 7 20 5 11 -2 20 1 20 7 0 6 3
8 6 5 9 -8 60 28 102 72 34 36 40 46 20 36 -7 -4 -5 0 5 8 9 8 17 22 17 31 0
9 4 16 8 16 5 0 8 18 8 41 -1 22 1 42 5 45 5 3 5 79 -1 79 -1 0 -3 9 -5 20 -7
40 -28 95 -37 95 -4 0 -8 6 -8 13 0 7 -11 21 -25 31 -13 10 -22 23 -18 29 3 6
1 7 -5 3 -7 -4 -12 -3 -12 1 0 5 -9 14 -21 21 -17 11 -20 11 -13 0 4 -7 -2 -5
-13 5 -11 9 -23 14 -26 10 -4 -3 -7 -2 -7 4 0 6 -10 11 -22 12 -13 0 -45 2
-71 4 -26 2 -50 1 -53 -2z m104 -45 c12 -4 22 -11 22 -16 0 -5 9 -12 20 -15
11 -4 18 -11 15 -16 -4 -5 -2 -9 3 -9 11 0 38 -60 34 -74 -1 -4 1 -13 6 -20 4
-6 8 -18 7 -26 -1 -8 2 -25 7 -37 4 -14 4 -23 -3 -23 -6 0 -6 -7 1 -20 6 -11
7 -20 3 -20 -5 0 -9 -12 -9 -27 -3 -82 -5 -94 -14 -88 -5 3 -7 0 -4 -8 3 -8 0
-18 -5 -22 -6 -3 -9 -11 -6 -16 4 -5 -1 -12 -9 -15 -9 -3 -16 -13 -16 -21 0
-8 -4 -11 -10 -8 -5 3 -10 2 -10 -3 0 -13 -48 -30 -91 -31 -30 -1 -44 6 -79
39 -23 22 -38 40 -35 40 4 0 2 7 -5 15 -7 8 -10 22 -6 30 3 9 0 18 -7 21 -7 2
-12 19 -12 37 1 17 -3 38 -8 45 -6 8 -5 12 3 12 9 0 10 3 1 13 -6 8 -8 16 -5
20 3 3 7 22 9 44 7 71 31 143 48 143 5 0 5 5 2 10 -3 6 -2 10 3 10 5 0 19 9
32 20 12 11 27 17 31 14 5 -3 9 -1 9 4 0 10 44 9 78 -2z"/>
<path d="M10005 8080 c-11 -4 -30 -6 -42 -5 -13 1 -24 -1 -24 -4 -5 -25 -3
-264 2 -273 4 -6 23 -9 43 -6 20 2 36 0 36 -5 0 -5 6 -4 14 2 8 6 18 11 22 10
19 -3 37 1 31 8 -4 3 0 11 8 17 30 23 23 85 -13 112 -12 9 -10 15 12 37 21 21
25 31 17 46 -6 10 -7 21 -4 25 3 3 -1 6 -11 6 -9 0 -14 5 -11 10 3 6 -4 10
-17 10 -13 0 -28 4 -33 9 -6 5 -19 6 -30 1z m56 -46 c16 -19 21 -44 8 -44 -5
0 -9 -6 -9 -12 0 -7 -13 -14 -28 -15 -16 -1 -35 -3 -42 -5 -10 -2 -15 11 -18
43 l-3 46 39 1 c26 1 44 -4 53 -14z m4 -124 c10 -11 15 -20 10 -20 -4 0 -3 -6
3 -13 11 -13 -9 -52 -21 -40 -4 3 -7 1 -7 -6 0 -8 -7 -10 -21 -6 -13 5 -19 3
-15 -3 8 -13 -27 -10 -36 3 -4 6 -8 31 -8 56 l0 46 39 1 c27 1 43 -4 56 -18z"/>
<path d="M10231 7984 c5 -6 6 -14 3 -17 -4 -3 1 -13 10 -22 9 -9 14 -21 11
-26 -4 -5 -1 -9 6 -9 7 0 9 -3 6 -7 -4 -3 -2 -12 4 -20 6 -7 9 -13 6 -13 -3 0
3 -17 13 -37 16 -33 17 -40 5 -49 -8 -6 -12 -14 -9 -17 3 -3 -9 -13 -26 -22
-30 -15 -31 -18 -17 -33 15 -14 18 -14 37 8 11 13 20 19 20 15 0 -5 6 0 14 10
8 11 12 23 10 27 -3 5 0 8 5 8 6 0 11 9 11 21 0 11 4 18 8 15 4 -2 9 3 10 12
5 49 10 64 23 73 8 5 10 9 5 9 -5 0 -3 7 4 15 7 8 9 15 5 15 -4 0 -2 7 5 15 7
8 9 15 5 15 -4 0 -2 7 5 15 9 11 9 15 1 15 -26 0 -50 -21 -46 -40 2 -11 0 -20
-5 -20 -7 0 -23 -47 -24 -74 -1 -5 -7 -11 -15 -14 -8 -3 -11 0 -7 7 4 6 2 11
-4 11 -6 0 -8 5 -5 10 4 6 3 16 -2 23 -5 7 -15 31 -22 53 -11 34 -18 41 -36
40 -16 -1 -20 -5 -14 -12z"/>
<path d="M14024 7896 c-3 -8 -1 -22 4 -32 8 -14 10 -13 14 10 6 29 -9 47 -18
22z"/>
</g>
</svg>
