<svg width="33" height="32" viewBox="0 0 33 32" fill="none" xmlns="http://www.w3.org/2000/svg">
<path fill-rule="evenodd" clip-rule="evenodd" d="M30.5 20.005H29.5V2.005H27.5V20.005H26.5C25.3961 20.0067 24.5017 20.9011 24.5 22.005V24.005C24.5017 25.1089 25.3961 26.0034 26.5 26.005H27.5V30.005H29.5V26.005H30.5C31.6039 26.0034 32.4983 25.1089 32.5 24.005V22.005C32.4983 20.9011 31.6039 20.0067 30.5 20.005ZM30.5 24.005H26.5V22.005H30.5V24.005ZM22.5 14.005H21.5V2.005H19.5V14.005H18.5C17.3959 14.0061 16.5011 14.9009 16.5 16.005V18.005C16.5011 19.1091 17.3959 20.0039 18.5 20.005H19.5V30.005H21.5V20.005H22.5C23.6039 20.0034 24.4983 19.1089 24.5 18.005V16.005C24.4989 14.9009 23.6041 14.0061 22.5 14.005ZM22.5 18.005H18.5V16.005H22.5V18.005ZM14.5 7.005H13.5V2.005H11.5V7.005H10.5C9.39589 7.00611 8.5011 7.90089 8.5 9.005V11.005C8.5011 12.1091 9.39589 13.0039 10.5 13.005H11.5V30.005H13.5V13.005H14.5C15.6041 13.0039 16.4989 12.1091 16.5 11.005V9.005C16.4989 7.90089 15.6041 7.00611 14.5 7.005ZM14.5 11.005H10.5V9.005H14.5V11.005ZM6.5 21.005H5.5V2.005H3.5V21.005H2.5C1.39589 21.0061 0.501102 21.9009 0.5 23.005V25.005C0.501102 26.1091 1.39589 27.0039 2.5 27.005H3.5V30.005H5.5V27.005H6.5C7.60411 27.0039 8.4989 26.1091 8.5 25.005V23.005C8.4989 21.9009 7.60411 21.0061 6.5 21.005ZM6.5 25.005H2.5V23.005L6.5 23.004V25.005Z" fill="url(#paint0_linear_1359_12)"/>
<path fill-rule="evenodd" clip-rule="evenodd" d="M30.5 20.005H29.5V2.005H27.5V20.005H26.5C25.3961 20.0067 24.5017 20.9011 24.5 22.005V24.005C24.5017 25.1089 25.3961 26.0034 26.5 26.005H27.5V30.005H29.5V26.005H30.5C31.6039 26.0034 32.4983 25.1089 32.5 24.005V22.005C32.4983 20.9011 31.6039 20.0067 30.5 20.005ZM30.5 24.005H26.5V22.005H30.5V24.005ZM22.5 14.005H21.5V2.005H19.5V14.005H18.5C17.3959 14.0061 16.5011 14.9009 16.5 16.005V18.005C16.5011 19.1091 17.3959 20.0039 18.5 20.005H19.5V30.005H21.5V20.005H22.5C23.6039 20.0034 24.4983 19.1089 24.5 18.005V16.005C24.4989 14.9009 23.6041 14.0061 22.5 14.005ZM22.5 18.005H18.5V16.005H22.5V18.005ZM14.5 7.005H13.5V2.005H11.5V7.005H10.5C9.39589 7.00611 8.5011 7.90089 8.5 9.005V11.005C8.5011 12.1091 9.39589 13.0039 10.5 13.005H11.5V30.005H13.5V13.005H14.5C15.6041 13.0039 16.4989 12.1091 16.5 11.005V9.005C16.4989 7.90089 15.6041 7.00611 14.5 7.005ZM14.5 11.005H10.5V9.005H14.5V11.005ZM6.5 21.005H5.5V2.005H3.5V21.005H2.5C1.39589 21.0061 0.501102 21.9009 0.5 23.005V25.005C0.501102 26.1091 1.39589 27.0039 2.5 27.005H3.5V30.005H5.5V27.005H6.5C7.60411 27.0039 8.4989 26.1091 8.5 25.005V23.005C8.4989 21.9009 7.60411 21.0061 6.5 21.005ZM6.5 25.005H2.5V23.005L6.5 23.004V25.005Z" fill="url(#paint1_linear_1359_12)"/>
<defs>
<linearGradient id="paint0_linear_1359_12" x1="0.658729" y1="1.72002" x2="35.3069" y2="26.5939" gradientUnits="userSpaceOnUse">
<stop stop-color="#7A1215"/>
<stop offset="0.11374" stop-color="#C81719"/>
<stop offset="0.492103" stop-color="#FF2A3C"/>
<stop offset="0.831537" stop-color="#FD7042"/>
<stop offset="1" stop-color="#FC9D49"/>
</linearGradient>
<linearGradient id="paint1_linear_1359_12" x1="0.658729" y1="1.72002" x2="35.3069" y2="26.5939" gradientUnits="userSpaceOnUse">
<stop stop-color="#4200FF"/>
<stop offset="0.11374" stop-color="#820FE7"/>
<stop offset="0.308115" stop-color="#9C29BE"/>
<stop offset="0.831537" stop-color="#FD7042"/>
<stop offset="1" stop-color="#FC9D49"/>
</linearGradient>
</defs>
</svg>
