<svg width="322" height="75" viewBox="0 0 322 75" fill="none" xmlns="http://www.w3.org/2000/svg">
<path d="M65.5 34.6998C65.5 32.9998 68.7 32.2998 79.5 31.8998C91.6 31.4998 91 32.0997 78 33.2997C73.1 33.7997 68.2 34.4998 67.3 34.9998C66.2 35.3998 65.5 35.2998 65.5 34.6998Z" fill="#F6690E"/>
<path d="M46.5 37.9003C46.5 37.2003 48.1 36.3003 50 35.9003C52.4 35.5003 53.5 34.7003 53.5 33.5003C53.5 30.4003 62.8 29.2002 63.9 32.1002C64.3 33.1002 65.3 33.5003 66.5 33.2003C69.2 32.5003 70.1 34.2003 67.4 35.0003C66.3 35.4003 65.6 36.3003 65.9 37.0003C66.7 39.2003 58 40.6002 56 38.6002C55.4 38.0002 53.2 38.0003 50.8 38.4003C47.5 39.0003 46.5 38.9003 46.5 37.9003Z" fill="#F85B12"/>
<path d="M75.8 32.8004C76.7 32.6004 78.3 32.6004 79.3 32.8004C80.2 33.1004 79.4 33.3004 77.5 33.3004C75.6 33.3004 74.8 33.1004 75.8 32.8004Z" fill="#F85B12"/>
<path d="M40.5 40.4999C40.5 39.1999 41.2 38.4999 42.4 38.4999C43.5 38.4999 44.6 38.0999 44.9 37.5999C45.3 37.0999 47.3 36.3999 49.4 35.9999C52.5 35.4999 53.5 34.7999 53.7 33.1999C53.9 31.4999 54.8 30.8999 57.8 30.6999C60.2 30.4999 62.1 30.8999 63.1 31.8999C64.5 33.3999 64.4 33.4999 62.3 33.5999C61 33.5999 57.5 34.3999 54.5 35.3999C49.9 36.9999 49.4 37.2999 51.5 37.6999C54 38.1999 54 38.1999 51.3 38.3999C49.8 38.3999 47 39.3999 45 40.4999C43 41.5999 41.2 42.4999 41 42.4999C40.7 42.4999 40.5 41.5999 40.5 40.4999Z" fill="#FA4D17"/>
<path d="M56.0001 38.5002C54.3001 36.6002 54.3001 36.5002 56.1001 36.5002C57.1001 36.5002 59.7001 36.2003 61.8001 35.9003C65.0001 35.3003 65.5001 35.5003 65.5001 37.2003C65.5001 38.7003 64.6001 39.4003 62.4001 39.9003C58.0001 40.7003 58.0001 40.7002 56.0001 38.5002Z" fill="#FA4D17"/>
<path d="M32.8 43.9C32.1 42.1 34 40.5 37.1 40.5C38.2 40.5 39.6 40 40.2 39.4C40.7 38.9 42.4 38.7 43.9 39.1C46.6 39.7 46.6 39.8 42.3 41.9C39.9 43 37.9 44.3 37.7 44.8C37 46.1 33.4 45.5 32.8 43.9Z" fill="#FB411B"/>
<path d="M56.6 39.1001C55.7 38.0001 55.9 37.6001 57.7 37.1001C61.5 36.1001 62.5 36.4001 62.5 38.5001C62.5 40.9001 58.4 41.3001 56.6 39.1001Z" fill="#FB411B"/>
<path d="M21.8 53.5997C19 51.2997 18.6 45.7997 21.1 44.7997C22 44.4997 23.1 44.7997 23.5 45.4997C24.3 46.7997 26.9 45.8997 32.5 42.2997C34.6 40.8997 35.3 40.7997 36.8 41.9997C38.6 43.2997 38.6 43.3997 36.4 45.1997C35.2 46.1997 32 48.8997 29.5 51.2997C26.9 53.5997 24.6 55.4997 24.4 55.4997C24.2 55.3997 23 54.5997 21.8 53.5997Z" fill="#FE2B22"/>
<path d="M15.2 62.5C14.3 61.4 12.8 60.5 12 60.5C9.80002 60.5 10.2 58 13.1 52.7C15.8 47.9 20.1 43.5 22.1 43.5C23.6 43.5 24.6 47.3 23.4 48.1C22.9 48.4 23.5 49.5 24.7 50.5C26.9 52.2 27.1 52.2 29 50.7C30.1 49.8 29 51.3 26.7 54C21.3 60.2 21.1 60.6 20.2 62.8C19.3 65.1 17.3 65 15.2 62.5Z" fill="#ED231F"/>
<path d="M10.7 68.1C8.89999 66.8 7.2 65.5 6.9 65.3C6.7 65 7.99998 62 9.99998 58.5C11.9 55.1 13.5 52 13.5 51.7C13.6 49.5 17.7 46.5 20.5 46.5H23.6L18.3 51.7C13.1 56.8 13.1 56.9 15.5 57.7C19.5 59 20.7 61.8 18.9 65.4C18.1 67.1 17.6 68.9 18 69.5C19.2 71.4 14 70.4 10.7 68.1Z" fill="#E01F1D"/>
<path d="M59.5 38.1C59.5 36.9 64.4 34.8 64.9 35.7C65 35.9 65.7 36.8 66.4 37.8C67.6 39.4 67.4 39.5 63.6 39.5C60.8 39.5 59.5 39.1 59.5 38.1Z" fill="#E01F1D"/>
<path d="M53.1999 32.5C52.7999 30.7 53.1999 30.5 56.5999 30.5C58.6999 30.5 60.4999 31 60.4999 31.5C60.4999 32.1 61.4999 32.5 62.6999 32.5C66.1999 32.5 64.2999 33.2 58.8999 33.9C54.2999 34.5 53.6999 34.3 53.1999 32.5Z" fill="#E01F1D"/>
<path d="M5.0001 69.6C4.7001 69 5.30009 67.1 6.30009 65.3C7.30009 63.5 9.9001 58.7 12.0001 54.8C15.5001 48.1 16.1001 47.5 18.9001 47.5H22.0001L18.5001 50.8C14.2001 54.7 9.5001 60.3 9.5001 61.5C9.5001 62.4 16.6001 67.1 17.5001 66.8C17.8001 66.7 18.1001 67.5 18.1001 68.6C18.1001 70.3 17.3001 70.5 11.8001 70.5C8.40009 70.5 5.4001 70.1 5.0001 69.6Z" fill="#D41B1B"/>
<path d="M57 39.4004C56.1 38.0004 56.6 37.6004 60.3 36.9004C63.1 36.3004 63.5 36.5004 63.5 38.4004C63.5 40.1004 62.9 40.5003 60.6 40.5003C58.9 40.5003 57.3 40.0004 57 39.4004Z" fill="#D41B1B"/>
<path d="M3.5 69.6002C3.5 69.1002 4.2 68.2002 5 67.5002C5.8 66.8002 6.5 65.7002 6.5 64.9002C6.5 64.2002 6.89999 63.4002 7.29999 63.1002C7.79999 62.8002 8.09998 63.6002 8.09998 64.7002C7.99998 66.3002 8.79999 67.1002 11.3 67.8002C16.2 69.3002 15.1 70.5002 9 70.5002C6 70.5002 3.5 70.1002 3.5 69.6002Z" fill="#C81719"/>
<path d="M15.5 49.5C15.5 47.6 16 46.5 16.9 46.5C17.7 46.5 18.5 45.8 18.9 45C19.2 44.2 20.4 43.5 21.5 43.5C24.9 43.5 23.8 47 19.5 49.9L15.5 52.5V49.5Z" fill="#C81719"/>
<path d="M53.2001 32.6C52.8001 30.8 53.2 30.5 55.6 30.5C57.5 30.5 58.5001 31 58.5001 32C58.5001 32.8 58.1 33.5 57.6 33.5C57.1 33.5 56.0001 33.8 55.2001 34.1C54.3001 34.4 53.6001 33.8 53.2001 32.6Z" fill="#C81719"/>
<path d="M4.5 69.1003C4.5 68.3003 5 67.3003 5.5 67.0003C6.1 66.7003 6.5 66.9003 6.5 67.4003C6.5 68.1003 8.80002 68.5003 11.9 68.5003C14.9 68.5003 17.7 69.0003 18 69.5003C18.4 70.1003 16 70.5003 11.6 70.5003C6.09998 70.5003 4.5 70.2003 4.5 69.1003Z" fill="#BC1317"/>
<path d="M10.7 57C11.3 55.6 12.2 54.5 12.7 54.5C13.2 54.5 12.8 55.6 11.9 57C11 58.4 10.1 59.5 9.90005 59.5C9.70005 59.5 10.1 58.4 10.7 57Z" fill="#BC1317"/>
<path d="M60.5 31.5C60.5 30.4 60.9 29.5 61.5 29.5C62 29.5 62.9 30.4 63.5 31.5C64.4 33.2 64.3 33.5 62.5 33.5C61.2 33.5 60.5 32.8 60.5 31.5Z" fill="#BC1317"/>
<path d="M3.5 69.6001C3.5 69.1001 4.10002 68.2001 4.90002 67.6001C5.90002 66.7001 6.39999 66.8002 6.79999 68.0002C7.19999 68.8002 7.99999 69.2002 8.79999 68.9002C9.49999 68.7002 11.2 68.9002 12.6 69.4002C14.6 70.2002 14 70.4002 9.29999 70.4002C6.09999 70.5002 3.5 70.1001 3.5 69.6001Z" fill="#AA0D13"/>
<path d="M12.9 53.4C14.3 51 15.8999 48 16.4999 46.8C17.1999 45.1 18.2999 44.5 20.4999 44.5C22.0999 44.5 23.4999 44.8 23.4999 45.3C23.4999 45.7 20.5 48.7 16.9 51.9L10.2 57.9L12.9 53.4Z" fill="#AA0D13"/>
<path d="M57.5 39.1C57.5 37.8 60.3 36.5 63.3 36.5C63.9 36.5 64.5 37.4 64.5 38.5C64.5 40.1 63.8 40.5 61 40.5C58.7 40.5 57.5 40 57.5 39.1Z" fill="#AA0D13"/>
<path d="M53.1999 32.2999C52.7999 31.0999 53.6999 30.4999 57.0999 29.9999C61.7999 29.2999 63.4999 29.7999 63.4999 31.9999C63.4999 32.8999 61.8999 33.3999 58.5999 33.6999C54.5999 33.8999 53.4999 33.6999 53.1999 32.2999Z" fill="#AA0D13"/>
<path d="M13.5 52.3C13.6 50 16.1 47.5 18.4 47.5C21 47.5 20.5 48.7 16.5 51.5C14.4 53 13.5 53.2 13.5 52.3Z" fill="#91040E"/>
<path d="M56.7001 39.4997C55.6001 37.7997 55.7001 37.4997 57.4001 37.4997C58.4001 37.4997 60.7001 37.1998 62.4001 36.8998C65.0001 36.2998 65.5001 36.4997 65.5001 38.2997C65.5001 39.6997 64.6001 40.3998 62.4001 40.8998C58.1001 41.6998 58.1001 41.6997 56.7001 39.4997Z" fill="#91040E"/>
<path d="M55.5 31.6C55.5 29.9 56.1 29.5 58.9 29.5C62.1 29.5 64.4 30.9 63.2 32.1C63 32.4 61.1 32.9 59.1 33.2C55.9 33.7 55.5 33.5 55.5 31.6Z" fill="#91040E"/>
<path d="M14.7 49.7C17.9 43.5 18.9 42.5 22.2 42.5C25.7 42.5 23.8999 45.5 17.2999 50.8L11.7 55.4L14.7 49.7Z" fill="#7A1215"/>
<path d="M57.2 40.0999C56.3 37.6999 64.2 35.6999 66.3 37.8999C68.4 39.8999 67.5 40.5999 62.2 41.1999C58.8 41.5999 57.7 41.3999 57.2 40.0999Z" fill="#7A1215"/>
<path d="M53.0999 31.9C52.1999 29.5 52.1999 29.5 56.9999 29.5C60.1999 29.5 61.4999 29.9 61.4999 30.9C61.4999 33.5 54.0999 34.4 53.0999 31.9Z" fill="#7A1215"/>
<path d="M182 73.1998L178 71.8998L177.3 65.4998C176.9 61.9998 176.8 58.8998 177 58.6998C177.8 57.7998 179.5 59.6998 179.5 61.5998C179.5 62.6998 180.8 64.9998 182.4 66.5998C184.8 68.9998 186.2 69.4998 190 69.4998C193.8 69.4998 195.2 68.9998 197.6 66.5998C203 61.1998 200.8 56.8998 190.5 52.9998C179.6 48.7998 175.8 42.7998 179.1 34.6998C181.7 27.9998 189.3 24.4998 197.4 26.3998C199.7 26.8998 201.8 27.4998 202 27.6998C203 28.6998 203.6 39.4998 202.7 39.4998C202.1 39.4998 201.3 38.4998 201 37.2998C199.6 32.8998 196.4 30.4998 192 30.4998C186.1 30.4998 183.5 32.6998 183.5 37.5998C183.5 40.9998 184 41.7998 186.8 43.4998C188.5 44.5998 192.3 46.1998 195.2 46.9998C202 48.9998 205.5 53.0998 205.5 58.8998C205.5 69.5998 193.6 76.7998 182 73.1998Z" fill="#020002"/>
<path d="M257.2 73.1999C244.5 69.1999 238.7 54.1999 244.9 40.8999C251.9 25.7999 272.6 24.5999 281 38.8999C288.7 52.0999 282.6 69.9999 269.3 73.2999C263.7 74.6999 262.2 74.6999 257.2 73.1999ZM270.4 68.9999C274.4 65.5999 275.9 60.5999 275.9 50.9999C275.7 38.2999 271.3 31.4999 263.2 31.4999C255 31.4999 249.5 42.1999 250.8 55.2999C251.5 61.7999 254.8 68.7999 257.8 70.2999C261.8 72.2999 267.1 71.6999 270.4 68.9999Z" fill="#020002"/>
<path d="M57.3999 72.3002C56.3999 69.0002 56.7999 68.5002 60.6999 68.5002C67.4999 68.5002 69.0999 64.9002 65.5999 57.8002C64.4999 55.7002 62.7999 52.2002 61.8999 50.0002C60.8999 47.8002 59.7999 45.8002 59.4999 45.5002C59.0999 45.2002 58.2999 43.6002 57.7999 41.9002C56.6999 38.8002 56.6999 38.7002 60.2999 38.1002C66.1999 37.2002 66.2999 37.3002 68.4999 42.3002C69.6999 44.9002 71.6999 49.1002 72.9999 51.7002C74.3999 54.4002 75.4999 56.9002 75.4999 57.5002C75.4999 59.1002 80.5999 66.8002 82.8999 68.7002C84.0999 69.7002 85.9999 70.5002 87.2999 70.5002C88.5999 70.5002 89.2999 70.9002 88.9999 71.5002C88.4999 72.3002 57.6999 73.1002 57.3999 72.3002Z" fill="#020002"/>
<path d="M95.5 71.3C95.5 70.8 96.4 70.5 97.6 70.5C98.8 70.5 99.9 69.7 100.2 68.5C100.5 67.4 101.1 66.5 101.6 66.5C102.1 66.5 102.5 59 102.5 49.8C102.6 33.5 102.6 32.9 105 30L107.5 27V30.3C107.5 34.1 108.3 34.2 113.8 31.2C121.3 27.2 124.9 26.3 128.1 27.7C131.4 29.2 134.5 32 134.5 33.6C134.5 34.9 137.9 33.9 142.5 31.1C148.7 27.3 152.9 26.3 156.1 27.7C160.6 29.7 162.5 31.7 162.5 34.5C162.5 35.9 162.9 37.5 163.5 38.1C164 38.6 164.6 46 164.7 54.5C165 69.7 165 70 167.3 70.3C172.4 71.1 168.9 72 161 72C156.3 72 152.5 71.7 152.5 71.3C152.5 70.8 153.5 70.5 154.6 70.5C158.8 70.5 159.4 68 159.5 52.3C159.5 43.1 159.1 37.5 158.5 37.5C158 37.5 157.5 36.7 157.5 35.7C157.5 33.6 152.6 30.5 149.3 30.5C148.1 30.6 144.5 31.8 141.5 33.4L136 36.1L135.7 51.1C135.4 68.8 135.7 70.5 139 70.5C140.4 70.5 141.5 70.8 141.5 71.3C141.5 71.7 137.7 72 133 72C128.3 72 124.5 71.7 124.5 71.3C124.5 70.8 125.3 70.5 126.3 70.5C130.1 70.5 130.5 68.6 130.5 52.2V36.3L127.4 33.4C123.5 29.8 121.1 29.8 113.5 33.2L107.5 36V52C107.5 69 107.9 70.5 112.2 70.5C113.5 70.5 114.5 70.8 114.5 71.3C114.5 71.7 110.2 72 105 72C99.8 72 95.5 71.7 95.5 71.3Z" fill="#020002"/>
<path d="M219.6 69.6003L216.5 66.7003V50.1002V33.5003L214 32.9003C210.7 32.1003 210.9 31.6003 215.5 28.0003C217.6 26.4003 219.9 24.0003 220.6 22.8003C222.4 19.4003 223 20.0003 223 25.2003V30.0003L228.3 30.3003C231.9 30.5003 233.5 31.0003 233.5 32.0003C233.5 33.0003 231.9 33.5003 227.8 33.7003L222 34.0003L221.7 46.5003C221.4 61.4003 222.6 66.0003 227.4 68.7003C229.2 69.7003 231.2 70.2003 231.8 69.8003C232.5 69.4003 234.5 68.5003 236.3 67.9003C239.5 66.7003 239.6 66.7002 237.9 68.6003C237 69.6003 235.4 70.5003 234.4 70.5003C233.4 70.5003 232.3 71.0003 232 71.5003C231.7 72.1003 229.4 72.5003 227 72.5003C223.6 72.5003 222 71.9002 219.6 69.6003Z" fill="#020002"/>
<path d="M3 68.7001C5.3 67.3001 6.09999 67.1001 6.29999 68.1001C6.49999 68.9001 8.79999 69.5001 12.8 69.8001C17.5 70.0001 16.8 70.2001 9.5 70.3001L0 70.5001L3 68.7001Z" fill="#020002"/>
<path d="M289.5 69.5C290.3 69 291.8 68.5 292.8 68.5C294.5 68.5 294.6 67.3 294.3 49.5C294.1 34.8 294.3 30.5 295.3 30.5C295.9 30.5 296.5 30.1 296.5 29.5C296.5 29 297.7 28.5 299.1 28.5C301.3 28.5 301.6 28.9 301.3 31.5C301.1 33.4 301.6 34.9 302.5 35.5C303.7 36.2 303.7 36.7 302.7 37.7C301 39.4 301 66.1 302.8 67.2C303.4 67.6 305.6 68.5 307.5 69.1C310.6 70.1 309.6 70.3 299.5 70.4C291.7 70.4 288.5 70.2 289.5 69.5Z" fill="#020002"/>
<path d="M13.6 51.9C13.8 51.4 16.5001 45.8 19.7001 39.5C22.8001 33.2 27.0001 24.4 29.0001 20C31.1001 15.6 34 9.3 35.6 6L38.5001 0L43.7001 0.0999756C50.0001 0.299976 48.1001 -2.49999 61.4001 26.7C62.5001 29.3 63.5001 31.6 63.5001 31.9C63.5001 32.3 61.3 32.5 58.6 32.5H53.6L48.5001 22C45.0001 14.7 42.9001 11.5 41.7001 11.5C40.5001 11.5 37.7 16.3 31.8 28.3C24.2 43.7 23.2001 45.3 18.4001 48.9C15.6001 51 13.4 52.3 13.6 51.9Z" fill="#020002"/>
<path d="M315.8 37.5C314.6 37 313.1 35.7 312.5 34.6C311.2 32.1 308.3 31.9 306.1 34.1C305.2 34.9 304.5 35.2 304.5 34.7C304.5 34.2 305.8 32.6 307.5 31.2C309.7 29.2 311.5 28.5 314.8 28.5C318.7 28.5 319.2 28.8 320.7 32C322.1 35.2 322.1 35.6 320.5 37C318.6 38.7 318.8 38.7 315.8 37.5Z" fill="#020002"/>
</svg>
