<svg width="255" height="74" viewBox="0 0 255 74" fill="none" xmlns="http://www.w3.org/2000/svg">
<path d="M36.2917 69.695C36.1017 69.657 35.9497 69.486 35.9497 69.334C35.9497 69.144 36.1967 69.068 36.8047 69.068C37.4128 69.068 37.6598 69.144 37.6598 69.334C37.6598 69.543 37.0328 69.866 36.7097 69.809C36.6527 69.79 36.4627 69.752 36.2917 69.695Z" fill="white"/>
<path d="M33.0997 69.5429C32.9477 69.5049 32.4917 69.4289 32.1117 69.3529C31.6177 69.2769 31.3896 69.1439 31.3896 68.9349C31.3896 68.6879 31.5607 68.6499 32.5487 68.7639C33.1947 68.8209 33.8788 68.8779 34.0688 68.8779C34.2968 68.8779 34.4298 69.0109 34.4298 69.2579C34.4298 69.638 33.9928 69.714 33.0997 69.5429Z" fill="white"/>
<path d="M39.3701 69.2769C39.3701 68.9919 39.4841 68.8779 39.8071 68.8779C40.0351 68.8779 40.6812 68.8209 41.2322 68.7639C42.0492 68.6499 42.2202 68.6879 42.2202 68.9349C42.2202 69.2389 41.9162 69.3339 40.2822 69.5619C39.4461 69.6759 39.3701 69.6569 39.3701 69.2769Z" fill="white"/>
<path d="M28.8817 68.7449C28.2546 68.5929 28.5016 68.1179 29.2047 68.1179C29.7367 68.1179 29.8697 68.1939 29.8697 68.4979C29.8697 68.878 29.6037 68.935 28.8817 68.7449Z" fill="white"/>
<path d="M27.3616 68.3649C26.7346 68.2129 26.9816 67.7379 27.6846 67.7379C28.2167 67.7379 28.3497 67.8139 28.3497 68.1179C28.3497 68.4979 28.0837 68.5549 27.3616 68.3649Z" fill="white"/>
<path d="M25.8794 49.8772C25.8794 49.5922 26.0124 49.4972 26.4304 49.4972C26.7344 49.4972 27.0384 49.3831 27.0764 49.2691C27.1334 49.1361 27.1905 49.3071 27.1905 49.6492C27.2095 50.2192 27.1715 50.2572 26.5444 50.2572C26.0124 50.2572 25.8794 50.1812 25.8794 49.8772Z" fill="white"/>
<path d="M72.5833 46.533C72.2223 46.191 72.6783 44.3669 73.1153 44.3669C73.2673 44.3669 73.3433 44.4619 73.2863 44.557C73.2103 44.69 74.6164 44.747 77.3525 44.747C81.4187 44.747 81.5517 44.766 81.5517 45.127C81.5517 45.488 81.6847 45.507 84.2118 45.507C86.7579 45.507 86.8719 45.526 86.8719 45.887C86.8719 46.267 86.7959 46.267 79.8416 46.229C74.1034 46.172 72.8113 46.21 72.7733 46.419C72.7353 46.571 72.6593 46.609 72.5833 46.533Z" fill="white"/>
<path d="M39.1802 69.2582C39.1802 68.9542 39.3132 68.8782 39.8452 68.8782C40.6052 68.8782 40.7762 69.3342 40.0922 69.5242C39.3702 69.7142 39.1802 69.6572 39.1802 69.2582Z" fill="white"/>
<path d="M30.1168 69.0301C29.2427 68.8401 28.9577 68.3081 29.7367 68.3081C30.8388 68.3081 31.5798 68.5551 31.5798 68.8971C31.5798 69.2961 31.3518 69.3151 30.1168 69.0301Z" fill="white"/>
<path d="M28.1214 68.5551C27.4944 68.4031 27.7414 67.9281 28.4444 67.9281C28.9764 67.9281 29.1094 68.0041 29.1094 68.3081C29.1094 68.6881 28.8434 68.7451 28.1214 68.5551Z" fill="white"/>
<path d="M19.381 64.736C18.678 64.3179 18.716 64.1279 19.514 64.1279C20.1031 64.1279 20.1791 64.1849 20.1791 64.603C20.1791 65.154 20.0651 65.173 19.381 64.736Z" fill="white"/>
<path d="M25.6895 49.8773C25.6895 49.5733 25.8035 49.5163 26.3545 49.5353C26.8675 49.5543 27.0195 49.6493 27.0195 49.9153C27.0195 50.1813 26.8675 50.2573 26.3545 50.2573C25.8225 50.2573 25.6895 50.1813 25.6895 49.8773Z" fill="white"/>
<path d="M83.6991 46.1341L80.9819 46.0581V45.4121V44.7471H84.5921C88.0693 44.7471 88.2023 44.7661 88.2023 45.1271C88.2023 45.4881 88.3353 45.5071 92.4775 45.5071C96.6196 45.5071 96.7526 45.5261 96.7526 45.8871C96.7526 46.2671 96.6386 46.2671 91.5844 46.2291C88.7343 46.2101 85.1811 46.1531 83.6991 46.1341Z" fill="white"/>
<path d="M80.6588 45.4121C80.6588 44.9941 80.6968 44.842 80.7348 45.0891C80.7728 45.3171 80.7728 45.6591 80.7348 45.8491C80.6778 46.0201 80.6398 45.8301 80.6588 45.4121Z" fill="white"/>
<path d="M33.6313 69.5052C32.9473 69.3342 33.2513 68.8782 34.0494 68.8782C34.6764 68.8782 34.8094 68.9352 34.8094 69.2582C34.8094 69.6382 34.4294 69.7142 33.6313 69.5052Z" fill="white"/>
<path d="M32.1116 69.3151C31.4846 69.1631 31.7316 68.6881 32.4346 68.6881C32.9667 68.6881 33.0997 68.7641 33.0997 69.0681C33.0997 69.4481 32.8337 69.5051 32.1116 69.3151Z" fill="white"/>
<path d="M18.3359 64.071C17.5378 63.5389 17.5568 63.3679 18.3739 63.3679C18.9819 63.3679 19.0389 63.4059 19.0389 63.9379C19.0389 64.261 19.0199 64.508 19.0009 64.489C18.9629 64.489 18.6589 64.299 18.3359 64.071Z" fill="white"/>
<path d="M95.9543 46.1341C95.7643 46.0961 95.6123 45.9251 95.6123 45.7731C95.6123 45.5451 96.3343 45.5071 100.078 45.5071C104.41 45.5071 104.543 45.5261 104.543 45.8871C104.543 46.2481 104.429 46.2671 100.42 46.2481C98.1394 46.2291 96.1253 46.1911 95.9543 46.1341Z" fill="white"/>
<path d="M87.6318 45.4121V44.7471H90.862C93.9591 44.7471 94.0921 44.7661 94.0921 45.1271C94.0921 45.3361 93.9591 45.5071 93.8071 45.5071C93.6551 45.5071 93.5221 45.6401 93.5221 45.7921C93.5221 46.0391 93.0661 46.0771 90.577 46.0771H87.6318V45.4121Z" fill="white"/>
<path d="M30.7811 69.1251C30.154 68.9731 30.401 68.498 31.1041 68.498C31.6361 68.498 31.7691 68.5741 31.7691 68.8781C31.7691 69.2581 31.5031 69.3151 30.7811 69.1251Z" fill="white"/>
<path d="M25.5178 67.6811C23.6367 66.9591 23.2377 66.484 24.6627 66.6551C25.1758 66.7121 25.6128 66.8451 25.6508 66.9591C25.6888 67.0731 25.8598 67.1681 26.0118 67.1681C26.7718 67.1681 27.7789 67.6241 27.7789 67.9661C27.7789 68.4411 27.3799 68.3841 25.5178 67.6811Z" fill="white"/>
<path d="M18.5256 64.1279C17.5756 63.5009 16.7015 62.8549 16.5685 62.7029C16.3595 62.4558 16.4355 62.4178 17.0246 62.4178C17.4996 62.4178 17.7086 62.4939 17.7086 62.7029C17.7086 62.8549 17.8796 62.9879 18.0886 62.9879C18.3356 62.9879 18.4686 63.1209 18.4686 63.3679C18.4686 63.6719 18.6016 63.7479 19.0386 63.7479C19.4187 63.7479 19.6087 63.8429 19.6087 64.0329C19.6087 64.2039 19.7797 64.3179 20.0837 64.3179C20.4637 64.3179 20.5587 64.4129 20.5587 64.793C20.5587 65.059 20.4827 65.268 20.4067 65.268C20.3307 65.268 19.4757 64.755 18.5256 64.1279Z" fill="white"/>
<path d="M25.499 49.8773C25.499 49.5542 25.613 49.4972 26.1641 49.5542C26.6581 49.5732 26.8291 49.6872 26.8291 49.9343C26.8291 50.1813 26.6771 50.2573 26.1641 50.2573C25.632 50.2573 25.499 50.1813 25.499 49.8773Z" fill="white"/>
<path d="M103.744 46.1341C103.554 46.0961 103.402 45.9251 103.402 45.7731C103.402 45.5451 104.162 45.5071 108.153 45.5071C112.77 45.5071 112.903 45.5261 112.903 45.8871C112.903 46.2481 112.789 46.2671 108.495 46.2481C106.062 46.2291 103.915 46.1911 103.744 46.1341Z" fill="white"/>
<path d="M92.9521 45.5261C92.9521 44.8041 93.1802 44.7471 96.8093 44.7471C99.9635 44.7471 99.9255 44.7281 99.6785 45.6591C99.5645 46.0772 99.5265 46.0772 96.2583 46.0772H92.9521V45.5261Z" fill="white"/>
<path d="M22.3262 66.2941C21.5091 65.8951 21.5281 65.6481 22.3642 65.6481C22.9532 65.6481 23.0292 65.7051 23.0292 66.1231C23.0292 66.3891 23.0102 66.5981 22.9912 66.5981C22.9532 66.5981 22.6492 66.4461 22.3262 66.2941Z" fill="white"/>
<path d="M19.1911 64.546C18.4881 64.128 18.5261 63.938 19.3241 63.938C19.9131 63.938 19.9891 63.995 19.9891 64.413C19.9891 64.964 19.8751 64.983 19.1911 64.546Z" fill="white"/>
<path d="M14.8589 61.2779L14.1938 60.7269L14.9159 60.7079C15.5809 60.7079 15.6189 60.7459 15.6189 61.2779C15.6189 61.6009 15.5999 61.8479 15.5619 61.8479C15.5429 61.8479 15.2199 61.6009 14.8589 61.2779Z" fill="white"/>
<path d="M9.88066 55.7676L9.34863 55.1026L9.84266 55.0456C10.4697 54.9696 10.5267 55.0266 10.4507 55.7866L10.3937 56.4327L9.88066 55.7676Z" fill="white"/>
<path d="M112.105 46.1342C111.915 46.0962 111.763 45.9252 111.763 45.7732C111.763 45.5452 112.637 45.5072 117.368 45.5072C122.841 45.5072 122.974 45.5072 122.974 45.8872C122.974 46.2672 122.86 46.2672 117.71 46.2482C114.803 46.2292 112.276 46.1912 112.105 46.1342Z" fill="white"/>
<path d="M98.6909 45.5071C98.6909 45.1461 98.7289 44.9941 98.7859 45.1841C98.8239 45.3551 98.8239 45.6591 98.7859 45.8491C98.7289 46.0201 98.6909 45.8681 98.6909 45.5071Z" fill="white"/>
<path d="M99.0707 45.4691L99.1277 44.8421L102.89 44.7851C106.576 44.7471 106.633 44.7471 106.633 45.1461C106.633 46.0011 106.329 46.0772 102.548 46.0772H99.0137L99.0707 45.4691Z" fill="white"/>
<path d="M33.9925 72.8493C26.5062 72.2983 18.9439 69.2391 13.1676 64.4129C6.99232 59.2447 3.13514 53.1264 1.08305 45.222C0.22801 41.9349 0 40.1108 0 36.4817C0 32.8525 0.22801 31.0284 1.08305 27.7413C3.13514 19.8369 6.99232 13.7186 13.1676 8.55039C26.7912 -2.85013 47.3881 -2.85013 61.0118 8.55039C67.054 13.6046 70.9872 19.7609 73.0013 27.3422C73.7803 30.2494 73.9324 31.1614 74.1414 34.0115C74.3314 36.8047 74.1224 40.7188 73.6473 42.9989C73.4763 43.797 73.3053 44.804 73.2673 45.203C73.2293 45.6211 73.1343 46.0011 73.0393 46.0581C72.9633 46.1151 72.6023 47.0651 72.2413 48.1672C70.6262 53.0694 67.9091 57.5536 64.2609 61.3538C57.6486 68.2511 49.2882 72.1843 39.7498 72.8683C38.2297 72.9633 36.8237 73.0393 36.6147 73.0203C36.4056 73.0203 35.2276 72.9253 33.9925 72.8493ZM41.2509 71.8043C48.1672 71.0062 54.9885 68.1371 60.2897 63.8239C62.1138 62.3418 65.325 58.9407 66.56 57.1926C69.8282 52.5754 72.1083 46.8751 72.9063 41.3079C73.2673 38.7808 73.2673 34.1825 72.9063 31.6554C72.1083 26.0882 69.8282 20.3879 66.56 15.7707C65.325 14.0226 62.1138 10.6215 60.2897 9.13941C53.9624 3.99018 45.203 0.855039 37.0897 0.855039C28.9763 0.855039 20.2169 3.99018 13.8896 9.13941C12.0655 10.6215 8.8544 14.0226 7.61934 15.7707C4.3512 20.3879 2.07109 26.0882 1.27306 31.6554C0.912041 34.1825 0.912041 38.7808 1.27306 41.3079C2.07109 46.8751 4.3512 52.5754 7.61934 57.1926C8.8544 58.9407 12.0655 62.3418 13.8896 63.8239C20.1789 68.9541 28.6153 71.9943 36.8047 72.0893C37.8497 72.0893 39.8448 71.9753 41.2509 71.8043Z" fill="white"/>
<path d="M17.519 63.3681L16.854 62.8171L17.576 62.7981C18.2411 62.7981 18.2791 62.8361 18.2791 63.3681C18.2791 63.6911 18.2601 63.9381 18.2221 63.9381C18.2031 63.9381 17.8801 63.6911 17.519 63.3681Z" fill="white"/>
<path d="M15.2391 61.6201C13.9091 60.48 13.8711 60.423 14.3651 60.366C15.1631 60.271 15.4292 60.442 15.4292 61.0881C15.4292 61.6201 15.4862 61.6581 16.0942 61.6581C16.7022 61.6581 16.7592 61.6961 16.7592 62.2281C16.7592 62.5511 16.7402 62.7982 16.7022 62.7982C16.6642 62.7982 16.0182 62.2661 15.2391 61.6201Z" fill="white"/>
<path d="M12.1609 58.6178L11.6289 57.9528L12.1229 57.8958C12.75 57.8198 12.807 57.8768 12.731 58.6368L12.674 59.2829L12.1609 58.6178Z" fill="white"/>
<path d="M10.4505 56.5278L9.91846 55.8627L10.4125 55.8057C11.0395 55.7297 11.0965 55.7867 11.0205 56.5467L10.9635 57.1928L10.4505 56.5278Z" fill="white"/>
<path d="M9.1014 54.6467C8.68338 53.9247 8.68338 53.8677 9.25341 53.8677C9.67143 53.8677 9.72843 53.9437 9.72843 54.5327C9.72843 55.3497 9.53842 55.3687 9.1014 54.6467Z" fill="white"/>
<path d="M122.176 46.1344C121.986 46.0963 121.833 45.9253 121.833 45.7733C121.833 45.5453 122.822 45.5073 128.199 45.5073C134.431 45.5073 134.564 45.5073 134.564 45.8873C134.564 46.2674 134.45 46.2674 128.541 46.2484C125.216 46.2294 122.347 46.1914 122.176 46.1344Z" fill="white"/>
<path d="M105.683 45.6784C105.683 44.8043 105.949 44.7473 110.509 44.7473H114.804V45.4123V46.0774H110.243C105.759 46.0774 105.683 46.0774 105.683 45.6784Z" fill="white"/>
<path d="M4.3324 42.7141C4.1994 42.0681 3.83838 39.769 3.83838 39.579C3.83838 39.484 3.99039 39.427 4.18039 39.427C4.46541 39.427 4.56041 39.693 4.75042 41.0041C4.88343 41.8781 4.97843 42.7331 4.97843 42.9042C4.97843 43.4362 4.44641 43.2652 4.3324 42.7141Z" fill="white"/>
<path d="M3.78126 37.1087C3.62925 36.5197 3.81926 35.8167 4.14228 35.8167C4.33229 35.8167 4.40829 36.0637 4.40829 36.6717C4.40829 37.6027 3.97127 37.8877 3.78126 37.1087Z" fill="white"/>
<path d="M16.3408 62.4938C15.7328 62.0188 15.2388 61.5818 15.2388 61.5438C15.2388 61.5058 15.5428 61.4678 15.9038 61.4678C16.4358 61.4678 16.5688 61.5438 16.5688 61.8478C16.5688 62.1328 16.7018 62.2278 17.0439 62.2278C17.4429 62.2278 17.5189 62.3228 17.5189 62.7978C17.5189 63.1208 17.4999 63.3679 17.4809 63.3679C17.4429 63.3679 16.9298 62.9688 16.3408 62.4938Z" fill="white"/>
<path d="M12.1987 58.5986C10.4886 56.6225 10.5456 56.7175 11.2296 56.7175C11.7806 56.7175 11.8186 56.7555 11.8186 57.3826C11.8186 57.9906 11.8756 58.0476 12.3697 58.0476C13.0727 58.0476 13.3767 58.4276 13.3007 59.2066L13.2437 59.8147L12.1987 58.5986Z" fill="white"/>
<path d="M9.82369 55.6536C9.02565 54.5895 9.00665 54.4375 9.63368 54.4375C9.9757 54.4375 10.1087 54.5325 10.1087 54.8175C10.1087 55.0265 10.2417 55.1975 10.3937 55.1975C10.5837 55.1975 10.6787 55.4065 10.6787 55.8626C10.6787 56.2236 10.6407 56.5276 10.5837 56.5276C10.5457 56.5276 10.2037 56.1286 9.82369 55.6536Z" fill="white"/>
<path d="M8.53158 53.6964C8.11356 52.9744 8.11356 52.9174 8.68358 52.9174C9.1016 52.9174 9.15861 52.9934 9.15861 53.5824C9.15861 54.3994 8.9686 54.4184 8.53158 53.6964Z" fill="white"/>
<path d="M5.54841 47.4261C5.54841 47.3311 5.49141 47.1221 5.43441 46.9511C5.3584 46.7231 5.43441 46.6471 5.71942 46.6471C6.02343 46.6471 6.11844 46.7611 6.11844 47.1221C6.11844 47.4261 6.00443 47.5971 5.83343 47.5971C5.68142 47.5971 5.54841 47.5211 5.54841 47.4261Z" fill="white"/>
<path d="M133.386 46.1341C133.196 46.0771 133.044 45.9251 133.044 45.7731C133.044 45.5451 134.146 45.5071 140.36 45.5071C147.58 45.5071 147.675 45.5071 147.675 45.8871C147.675 46.2671 147.58 46.2671 140.702 46.2481C136.845 46.2291 133.557 46.1721 133.386 46.1341Z" fill="white"/>
<path d="M113.91 45.4121C113.91 44.9941 113.948 44.842 113.986 45.0891C114.024 45.3171 114.024 45.6591 113.986 45.8491C113.929 46.0201 113.891 45.8301 113.91 45.4121Z" fill="white"/>
<path d="M114.233 45.4121V44.7471H119.06C124.247 44.7471 124.114 44.7281 124.114 45.7161C124.114 46.0582 123.924 46.0772 119.174 46.0772H114.233V45.4121Z" fill="white"/>
<path d="M4.52241 43.664C4.38941 43.018 3.83838 39.5788 3.83838 39.3888C3.83838 39.2938 3.99039 39.2368 4.18039 39.2368C4.44641 39.2368 4.56041 39.5788 4.84543 41.3839C5.01643 42.543 5.16844 43.664 5.16844 43.854C5.16844 44.386 4.63642 44.234 4.52241 43.664Z" fill="white"/>
<path d="M3.83838 33.6885C3.83838 33.1184 4.08539 32.5864 4.3324 32.5864C4.50341 32.5864 4.59841 32.8144 4.59841 33.2515C4.59841 33.7835 4.52241 33.9165 4.2184 33.9165C4.00939 33.9165 3.83838 33.8025 3.83838 33.6885Z" fill="white"/>
<path d="M14.2891 60.7075L13.624 60.1564L14.3461 60.1375C15.0111 60.1375 15.0491 60.1755 15.0491 60.7075C15.0491 61.0305 15.0301 61.2775 14.9921 61.2775C14.9731 61.2775 14.6501 61.0305 14.2891 60.7075Z" fill="white"/>
<path d="M12.9207 59.3774L12.3887 58.7123L12.8827 58.6553C13.5097 58.5793 13.5667 58.6363 13.4907 59.3964L13.4337 60.0424L12.9207 59.3774Z" fill="white"/>
<path d="M8.62658 53.7912C8.30357 53.2211 8.01855 52.7081 8.01855 52.6511C8.01855 52.5941 8.22756 52.5371 8.49358 52.5371C8.87359 52.5371 8.9686 52.6321 8.9686 53.0121C8.9686 53.3161 9.0826 53.4872 9.25361 53.4872C9.44362 53.4872 9.53862 53.6962 9.53862 54.1522C9.53862 54.5132 9.48162 54.8172 9.38662 54.8172C9.31061 54.8172 8.9686 54.3612 8.62658 53.7912Z" fill="white"/>
<path d="M6.38441 49.402C6.25141 49.041 5.9854 48.433 5.83339 48.053C5.45337 47.1219 5.47237 46.8369 5.92839 46.8369C6.21341 46.8369 6.30841 46.9699 6.30841 47.3119C6.30841 47.5779 6.40341 47.787 6.49842 47.787C6.61242 47.787 6.68843 47.996 6.68843 48.262C6.68843 48.528 6.78343 48.737 6.87844 48.737C6.99244 48.737 7.06844 49.041 7.06844 49.402C7.06844 49.763 6.97344 50.0671 6.85943 50.0671C6.76443 50.0671 6.53642 49.763 6.38441 49.402Z" fill="white"/>
<path d="M146.877 46.1339C146.687 46.0959 146.535 45.9249 146.535 45.7729C146.535 45.5448 147.39 45.5068 151.95 45.5068C157.232 45.5068 157.365 45.5068 157.365 45.8869C157.365 46.2669 157.251 46.2669 152.292 46.2479C149.48 46.2289 147.048 46.1909 146.877 46.1339Z" fill="white"/>
<path d="M122.974 45.6779C122.974 44.7658 123.107 44.7468 129.51 44.7468C135.381 44.7468 135.514 44.7468 135.514 45.1268C135.514 45.4119 135.381 45.5069 135.039 45.5069C134.735 45.5069 134.564 45.6209 134.564 45.7919C134.564 46.0389 133.785 46.0769 128.769 46.0769C123.031 46.0769 122.974 46.0769 122.974 45.6779Z" fill="white"/>
<path d="M4.69342 44.3287C4.59841 44.0817 3.83838 39.4645 3.83838 39.1985C3.83838 39.1035 3.99039 39.0465 4.18039 39.0465C4.44641 39.0465 4.56041 39.4075 4.86442 41.2886C5.05443 42.5047 5.26344 43.7397 5.32045 44.0437C5.37745 44.4237 5.32045 44.5568 5.09244 44.5568C4.92143 44.5568 4.73142 44.4428 4.69342 44.3287Z" fill="white"/>
<path d="M3.83838 33.8783C3.83838 33.3083 4.08539 32.7762 4.3324 32.7762C4.50341 32.7762 4.59841 33.0043 4.59841 33.4413C4.59841 33.9733 4.52241 34.1063 4.2184 34.1063C4.00939 34.1063 3.83838 33.9923 3.83838 33.8783Z" fill="white"/>
<path d="M4.10418 31.8833C4.4842 29.6982 4.63621 29.1661 4.90222 29.1661C5.22524 29.1661 5.24424 29.5272 4.94022 31.2562C4.75021 32.3583 4.65521 32.5863 4.35119 32.5863C4.02818 32.5863 4.00918 32.4913 4.10418 31.8833Z" fill="white"/>
<path d="M32.3584 69.3341C29.1473 68.8971 25.3281 67.757 22.877 66.522C20.7679 65.4579 22.307 65.3629 24.7391 66.408C28.2732 67.909 31.7124 68.6691 35.8926 68.8211C39.2747 68.9541 42.2389 68.5931 45.317 67.719C46.3811 67.415 47.3881 67.168 47.5781 67.168C47.7491 67.168 47.9201 67.073 47.9581 66.959C47.9961 66.845 48.4332 66.712 48.9462 66.655C51.1883 66.389 48.8322 67.624 45.165 68.6121C41.4788 69.6001 36.4626 69.8851 32.3584 69.3341Z" fill="white"/>
<path d="M50.5801 66.1418C50.5801 65.7048 50.6561 65.6478 51.2451 65.6478C52.2522 65.6478 52.1191 65.8948 50.7321 66.5599C50.6371 66.5979 50.5801 66.4079 50.5801 66.1418Z" fill="white"/>
<path d="M20.5208 65.3248C19.4758 64.7548 19.3808 64.5078 20.1788 64.5078C21.0528 64.5078 21.6989 64.8878 21.6989 65.4009C21.6989 65.9519 21.6229 65.9519 20.5208 65.3248Z" fill="white"/>
<path d="M53.4302 64.6028C53.4302 64.1848 53.5062 64.1278 54.0952 64.1278C54.9122 64.1278 54.9312 64.3178 54.2092 64.7548C53.4872 65.1729 53.4302 65.1729 53.4302 64.6028Z" fill="white"/>
<path d="M32.1494 56.7174C32.1494 56.4134 32.2824 56.3374 32.8144 56.3374C33.1755 56.3374 33.4795 56.2614 33.4795 56.1474C33.4795 56.0524 33.5745 55.9574 33.6695 55.9574C33.7835 55.9574 33.8595 56.2234 33.8595 56.5274C33.8595 57.0784 33.8215 57.0974 33.0045 57.0974C32.2824 57.0974 32.1494 57.0404 32.1494 56.7174Z" fill="white"/>
<path d="M31.0092 55.6344C31.0092 55.2354 30.9522 53.9434 30.8762 52.7843C30.7812 50.9222 30.8002 50.6372 31.0472 50.6372C31.4462 50.6372 31.5223 51.0742 31.6933 53.9244C31.8263 56.2995 31.8073 56.3375 31.4082 56.3375C31.0662 56.3375 31.0092 56.2235 31.0092 55.6344Z" fill="white"/>
<path d="M32.8335 49.0222C32.7765 47.8631 32.6624 46.362 32.5864 45.659C32.4914 44.4619 32.5104 44.3669 32.8525 44.3669C33.1945 44.3669 33.2515 44.5379 33.3465 45.944C33.5365 48.2621 33.4985 49.3072 33.2135 50.2572L32.9665 51.0933L32.8335 49.0222Z" fill="white"/>
<path d="M25.3091 50.2761C24.7011 50.1811 24.6441 50.1051 24.5871 49.4591C24.5491 48.9081 24.5871 48.7371 24.8151 48.7371C24.9861 48.7371 25.1191 48.8511 25.1191 49.0031C25.1191 49.5541 26.4491 49.8581 26.8862 49.4211C27.3232 48.9841 27.4372 49.0411 27.3612 49.7441C27.3042 50.2951 27.2472 50.3521 26.6392 50.3711C26.2781 50.3901 25.6701 50.3521 25.3091 50.2761Z" fill="white"/>
<path d="M30.5722 48.6991C30.1732 42.9228 30.1732 42.8468 30.4962 42.8468C30.8762 42.8468 30.9332 43.2268 31.1992 46.856C31.4463 50.5231 31.4463 50.4471 31.0282 50.4471C30.7242 50.4471 30.6672 50.2381 30.5722 48.6991Z" fill="white"/>
<path d="M171.996 45.887C171.996 45.507 172.129 45.507 207.052 45.507C241.976 45.507 242.109 45.507 242.109 45.887C242.109 46.267 241.976 46.267 207.052 46.267C172.129 46.267 171.996 46.267 171.996 45.887Z" fill="white"/>
<path d="M24.3589 45.3169C24.3589 44.4619 24.7959 44.2339 25.0049 44.9939C25.2139 45.7729 25.1379 46.077 24.7389 46.077C24.4159 46.077 24.3589 45.9439 24.3589 45.3169Z" fill="white"/>
<path d="M34.0493 45.3739C34.0493 44.2718 34.2393 43.9868 34.9234 43.9868C35.6264 43.9868 35.8354 44.4428 35.2084 44.6138C34.9994 44.6708 34.7903 44.9369 34.7143 45.2979C34.5623 46.0389 34.0493 46.0959 34.0493 45.3739Z" fill="white"/>
<path d="M32.4534 42.9988C32.3964 42.7518 32.3394 42.2388 32.3394 41.8587C32.3394 41.2697 32.4154 41.1367 32.7194 41.1367C33.0614 41.1367 33.0994 41.2697 33.0994 42.2768C33.0994 43.1128 33.0234 43.4168 32.8334 43.4168C32.7004 43.4168 32.5294 43.2268 32.4534 42.9988Z" fill="white"/>
<path d="M19.6089 42.6568C19.6089 42.2957 19.7419 42.2767 21.319 42.2767C22.326 42.2767 23.029 42.2007 23.029 42.0867C23.029 41.9917 23.124 41.8967 23.2191 41.8967C23.3331 41.8967 23.4091 42.1627 23.4091 42.4668V43.0368H21.509C19.7419 43.0368 19.6089 43.0178 19.6089 42.6568Z" fill="white"/>
<path d="M27.209 41.3838C27.209 40.7568 28.7101 36.1396 28.9381 36.0446C29.0331 36.0066 29.1091 35.7785 29.1091 35.5505C29.1091 35.3225 29.2421 34.7335 29.4131 34.2395L29.7171 33.3464H30.7431C31.6362 33.3464 31.7692 33.3844 31.7692 33.7265C31.7692 34.0305 31.6362 34.1065 31.0472 34.1065H30.3251L29.0141 37.9446C27.741 41.5738 27.209 42.6189 27.209 41.3838Z" fill="white"/>
<path d="M30.0596 41.0417C30.0596 40.1107 30.4966 39.8257 30.7056 40.6237C30.9336 41.4597 30.8386 41.8968 30.4396 41.8968C30.1166 41.8968 30.0596 41.7638 30.0596 41.0417Z" fill="white"/>
<path d="M24.1689 40.8517C24.1689 40.0917 24.625 39.9207 24.815 40.6237C25.005 41.3267 24.948 41.5168 24.549 41.5168C24.2449 41.5168 24.1689 41.3837 24.1689 40.8517Z" fill="white"/>
<path d="M20.749 40.3767C20.749 40.1297 20.882 39.9967 21.129 39.9967C21.3761 39.9967 21.5091 40.1297 21.5091 40.3767C21.5091 40.6237 21.3761 40.7567 21.129 40.7567C20.882 40.7567 20.749 40.6237 20.749 40.3767Z" fill="white"/>
<path d="M32.2634 40.1486C32.2064 39.9016 32.1494 39.3506 32.1494 38.9136C32.1494 38.2296 32.2064 38.0966 32.5294 38.0966C32.8714 38.0966 32.9094 38.2296 32.9094 39.3316C32.9094 40.2627 32.8524 40.5667 32.6434 40.5667C32.5104 40.5667 32.3394 40.3767 32.2634 40.1486Z" fill="white"/>
<path d="M32.0735 37.2986C32.0165 37.0515 31.9595 36.5005 31.9595 36.0635C31.9595 35.3795 32.0165 35.2465 32.3395 35.2465C32.6815 35.2465 32.7195 35.3795 32.7195 36.4815C32.7195 37.4126 32.6625 37.7166 32.4535 37.7166C32.3205 37.7166 32.1495 37.5266 32.0735 37.2986Z" fill="white"/>
<path d="M9.29183 54.8366C8.87381 54.1146 8.87381 54.0576 9.44384 54.0576C9.86186 54.0576 9.91886 54.1336 9.91886 54.7226C9.91886 55.5397 9.72885 55.5587 9.29183 54.8366Z" fill="white"/>
<path d="M6.80275 50.2955C6.76475 50.2195 6.53674 49.7064 6.32773 49.1554L5.92871 48.1674H6.40373C6.78375 48.1674 6.87875 48.2624 6.87875 48.6424C6.87875 48.9084 6.97376 49.1174 7.06876 49.1174C7.18277 49.1174 7.25877 49.4214 7.25877 49.7824C7.25877 50.3905 7.03076 50.6565 6.80275 50.2955Z" fill="white"/>
<path d="M5.60532 47.3122C5.39631 46.6852 5.41531 46.6472 5.85233 46.6472C6.25135 46.6472 6.30835 46.7422 6.30835 47.3122C6.30835 47.7303 6.21334 47.9773 6.06134 47.9773C5.90933 47.9773 5.71932 47.6733 5.60532 47.3122Z" fill="white"/>
<path d="M156.567 46.1342C156.377 46.0962 156.225 45.9252 156.225 45.7732C156.225 45.5642 156.529 45.5072 157.555 45.5072C158.752 45.5072 158.885 45.5452 158.885 45.8872C158.885 46.2292 158.771 46.2672 157.897 46.2482C157.346 46.2292 156.738 46.1912 156.567 46.1342Z" fill="white"/>
<path d="M133.994 45.5262C133.994 45.1272 134.108 44.9562 134.412 44.8802C134.64 44.8232 137.623 44.7661 141.062 44.7471L147.295 44.7281V45.4122V46.0772H140.644H133.994V45.5262Z" fill="white"/>
<path d="M4.71242 44.2341C4.50341 43.5691 3.83838 39.1229 3.83838 38.4388C3.83838 37.8498 3.91438 37.7168 4.2184 37.7168C4.54141 37.7168 4.59841 37.8498 4.59841 38.7238C4.59841 39.2749 4.76942 40.6619 4.97843 41.802C5.18744 42.942 5.35845 44.0251 5.35845 44.2151C5.35845 44.6521 4.84543 44.6711 4.71242 44.2341Z" fill="white"/>
<path d="M3.83838 34.6387C3.83838 33.5557 4.00939 32.9667 4.3324 32.9667C4.54141 32.9667 4.59841 33.2707 4.59841 34.2017C4.59841 35.3038 4.56041 35.4368 4.2184 35.4368C3.89538 35.4368 3.83838 35.3038 3.83838 34.6387Z" fill="white"/>
<path d="M4.02832 32.5866C4.02832 32.4916 4.19933 31.5226 4.40834 30.4585C4.94036 27.7414 5.54839 25.7463 5.8524 25.7463C6.23242 25.7463 6.17542 26.4684 5.6624 28.2545C5.43439 29.1285 5.11137 30.4966 4.97836 31.3136C4.76935 32.5296 4.67435 32.7767 4.38934 32.7767C4.18033 32.7767 4.02832 32.7007 4.02832 32.5866Z" fill="white"/>
<path d="M11.2107 57.4396C9.0256 54.7605 6.13747 49.4592 5.64345 47.2171C5.51044 46.6471 5.52944 46.6471 6.36548 46.6471H7.20152L7.22052 47.9392C7.22052 48.9652 7.33452 49.4592 7.71454 50.2193C7.98055 50.7513 8.20856 51.3213 8.20856 51.4923C8.20856 51.6443 8.28457 51.7773 8.39857 51.7773C8.49357 51.7773 8.62658 51.9863 8.70259 52.2523C8.75959 52.5184 8.89259 52.7274 8.9876 52.7274C9.0826 52.7274 9.15861 52.9364 9.15861 53.2024C9.15861 53.5064 9.27261 53.6774 9.44362 53.6774C9.61463 53.6774 9.72863 53.8484 9.72863 54.1524C9.72863 54.4564 9.84264 54.6275 10.0136 54.6275C10.1657 54.6275 10.2987 54.7985 10.2987 55.0075C10.2987 55.2165 10.4317 55.3875 10.5837 55.3875C10.7357 55.3875 10.8687 55.5015 10.8687 55.6535C10.8687 55.8055 11.0017 55.9575 11.1537 56.0335C11.3057 56.0905 11.4387 56.3185 11.4387 56.5275C11.4387 56.7366 11.5717 56.9076 11.7237 56.9076C11.9137 56.9076 12.0087 57.1166 12.0087 57.5726C12.0087 57.9336 11.9707 58.2376 11.9327 58.2376C11.8947 58.2376 11.5717 57.8766 11.2107 57.4396Z" fill="white"/>
<path d="M157.707 46.1151C157.517 46.0771 157.365 45.9251 157.365 45.7731C157.365 45.5641 157.764 45.5071 159.455 45.5071C161.431 45.5071 161.545 45.5261 161.545 45.8871C161.545 46.2671 161.45 46.2861 159.797 46.2481C158.828 46.2101 157.878 46.1721 157.707 46.1151Z" fill="white"/>
<path d="M146.725 45.4121V44.7471H149.746C152.957 44.7471 152.995 44.7661 152.995 45.7161C152.995 46.0581 152.824 46.0771 149.86 46.0771H146.725V45.4121Z" fill="white"/>
<path d="M4.71226 44.044C4.02823 40.6618 3.95222 39.9018 3.97122 36.4816C3.97122 33.3465 4.02823 32.5484 4.46525 30.4013C5.26328 26.4682 6.55534 22.896 7.18237 22.896C7.46739 22.896 7.48638 23.01 7.33438 23.884C7.23937 24.4351 7.16337 29.3183 7.16337 34.7335V44.557H5.98532C4.86427 44.557 4.80726 44.538 4.71226 44.044Z" fill="white"/>
<path d="M18.0889 63.748L17.4238 63.197L18.1459 63.178C18.8109 63.178 18.8489 63.216 18.8489 63.748C18.8489 64.071 18.8299 64.318 18.7919 64.318C18.7729 64.318 18.4499 64.071 18.0889 63.748Z" fill="white"/>
<path d="M16.1509 62.304C15.5429 61.829 15.0488 61.392 15.0488 61.354C15.0488 61.316 15.3528 61.278 15.7139 61.278C16.2459 61.278 16.3789 61.354 16.3789 61.658C16.3789 61.943 16.5119 62.038 16.8539 62.038C17.2529 62.038 17.3289 62.133 17.3289 62.608C17.3289 62.931 17.3099 63.178 17.2909 63.178C17.2529 63.178 16.7399 62.779 16.1509 62.304Z" fill="white"/>
<path d="M13.3577 59.7578C11.5336 57.8957 9.5385 55.2736 8.43645 53.2975C7.46741 51.6064 6.63137 49.7064 6.63137 49.2693C6.63137 48.9843 6.57437 48.7943 6.49836 48.8323C6.44136 48.8703 6.44136 48.4333 6.49836 47.8633C6.57437 47.2362 6.53637 46.8182 6.42236 46.7612C6.30836 46.7232 7.2584 46.6662 8.55046 46.6662L10.8686 46.6472V50.9034C10.8686 55.4446 10.9446 56.3377 11.3816 56.3377C11.5146 56.3377 11.7046 56.4897 11.7616 56.6797C11.8376 56.8507 12.0466 57.1167 12.2366 57.2497C12.4456 57.4017 12.5786 57.7437 12.5786 58.1617C12.5786 58.7508 12.6356 58.8078 13.1107 58.8078C13.8897 58.8078 14.9157 59.9098 14.8207 60.6318C14.7637 61.1829 14.7447 61.1639 13.3577 59.7578Z" fill="white"/>
<path d="M160.747 46.1342C160.557 46.0962 160.405 45.9252 160.405 45.7732C160.405 45.5642 160.937 45.5072 163.445 45.5072C166.353 45.5072 166.486 45.5262 166.486 45.8872C166.486 46.2482 166.372 46.2672 163.787 46.2482C162.286 46.2292 160.918 46.1912 160.747 46.1342Z" fill="white"/>
<path d="M152.273 45.4122L152.216 44.7472H154.895H157.555V45.4122V46.0773H154.933H152.311L152.273 45.4122Z" fill="white"/>
<path d="M13.5477 43.8541C13.5667 43.3411 13.6237 42.695 13.6997 42.372L13.8327 41.802L13.9467 42.372C14.0227 42.695 14.1367 43.3411 14.1937 43.8541C14.3077 44.6711 14.2697 44.7471 13.9277 44.7471C13.5857 44.7471 13.5287 44.6331 13.5477 43.8541Z" fill="white"/>
<path d="M6.59323 44.3291C6.42222 43.8731 6.40322 24.2642 6.57423 24.3592C6.65023 24.4162 6.66923 24.2832 6.59323 24.0552C6.51723 23.8082 6.55523 23.6562 6.68823 23.6562C6.80224 23.6562 6.84024 23.5612 6.78324 23.4662C6.61223 23.1811 8.81633 19.039 9.93738 17.5189C10.4694 16.7969 10.9064 16.2458 10.9254 16.2838C10.9444 16.3028 10.9444 22.6871 10.9064 30.4585L10.8494 44.5571H8.75933C7.25826 44.5571 6.65023 44.4811 6.59323 44.3291Z" fill="white"/>
<path d="M14.9724 37.4888C14.7824 36.7668 14.8394 36.5768 15.2384 36.5768C15.5424 36.5768 15.6184 36.7098 15.6184 37.2418C15.6184 38.0018 15.1624 38.1729 14.9724 37.4888Z" fill="white"/>
<path d="M18.716 64.1849C17.975 63.6718 16.7019 62.7218 15.8849 62.0378L14.3838 60.8027L15.0108 60.7457C15.7329 60.6697 16.1889 60.9737 16.1889 61.4867C16.1889 61.7527 16.3219 61.8478 16.6639 61.8478C17.0059 61.8478 17.1389 61.9428 17.1389 62.2278C17.1389 62.5128 17.2719 62.6078 17.6139 62.6078C17.8799 62.6078 18.089 62.7028 18.089 62.7978C18.089 62.9118 18.222 62.9878 18.374 62.9878C18.526 62.9878 18.659 63.1208 18.659 63.2728C18.659 63.4248 18.83 63.5578 19.039 63.5578C19.248 63.5578 19.419 63.6908 19.419 63.8428C19.419 64.0139 19.59 64.1279 19.894 64.1279C20.2741 64.1279 20.3691 64.2229 20.3691 64.6029C20.3691 64.8689 20.2931 65.0779 20.2171 65.0779C20.141 65.0779 19.457 64.6789 18.716 64.1849Z" fill="white"/>
<path d="M13.0346 59.3395C12.5025 58.7885 11.6665 57.8195 11.1725 57.1924C10.6974 56.5654 10.2034 55.9574 10.1084 55.8244C9.99442 55.6724 9.99442 55.5584 10.1084 55.4824C10.2224 55.4064 10.2794 53.7723 10.2604 51.1502L10.2224 46.932L10.1084 50.9222L9.99441 54.9123L9.95641 50.8842C9.91841 47.236 9.88041 46.856 9.5954 46.78C9.40539 46.723 10.0704 46.685 11.0775 46.666L12.8825 46.647L13.3196 44.3669C13.5666 43.0938 13.7946 42.1058 13.8516 42.1438C13.9086 42.2008 14.6686 47.54 14.6686 47.882C14.6686 47.92 14.5166 47.996 14.3456 48.034C14.0416 48.11 14.0416 48.129 14.3266 48.148C14.6496 48.167 14.7446 48.471 14.9536 50.2191C15.0676 51.1312 15.0486 51.2072 14.7066 51.2072C14.4026 51.2072 14.2886 51.0552 14.2316 50.5041C14.1746 50.1051 14.1556 52.1572 14.1746 55.0643C14.1936 57.9525 14.1556 60.3276 14.0986 60.3276C14.0416 60.3276 13.5666 59.8716 13.0346 59.3395Z" fill="white"/>
<path d="M16.1505 45.9819C16.0935 45.4309 16.1315 45.3169 16.4165 45.3169C16.7775 45.3169 16.8345 45.5259 16.6445 46.2289C16.4735 46.856 16.2455 46.742 16.1505 45.9819Z" fill="white"/>
<path d="M165.688 46.134C165.498 46.096 165.346 45.925 165.346 45.773C165.346 45.545 165.935 45.507 168.766 45.507C172.053 45.507 172.186 45.526 172.186 45.887C172.186 46.248 172.072 46.267 169.108 46.248C167.398 46.229 165.859 46.191 165.688 46.134Z" fill="white"/>
<path d="M156.985 45.64C156.985 45.393 156.89 45.108 156.757 44.975C156.586 44.804 157.251 44.7469 159.797 44.7469H163.065V45.412V46.077H160.025H156.985V45.64Z" fill="white"/>
<path d="M15.9227 44.2339C15.5617 42.3148 15.5617 42.0868 15.9797 42.0868C16.2267 42.0868 16.3787 42.2008 16.3787 42.4288C16.3787 42.5998 16.4357 43.2078 16.4927 43.7589C16.6068 44.5759 16.5687 44.7469 16.3217 44.7469C16.1507 44.7469 15.9797 44.5189 15.9227 44.2339Z" fill="white"/>
<path d="M10.0324 44.3859C9.97542 44.2909 9.91842 38.2106 9.91842 30.8763L9.89941 17.5377L10.9065 16.2836C11.9515 14.9155 13.8896 12.8254 14.0796 12.8254C14.1366 12.8254 14.1746 17.8607 14.1366 24.0359C14.0986 31.9213 14.1366 35.2465 14.2696 35.2465C14.3836 35.2465 14.4786 35.4175 14.4786 35.6265C14.4786 35.9305 14.3456 36.0065 13.7566 36.0065H13.0536L12.1225 40.2817L11.1915 44.5569H10.6594C10.3744 44.5569 10.0894 44.4809 10.0324 44.3859ZM10.2414 24.359C10.2224 20.6918 10.2034 23.6939 10.2034 31.0663C10.2034 38.4386 10.2224 41.4407 10.2414 37.7736C10.2794 34.0874 10.2794 28.0451 10.2414 24.359Z" fill="white"/>
<path d="M19.0391 42.6567C19.0391 42.2577 19.4761 42.1627 20.3311 42.3907C21.1102 42.5997 20.8251 43.0368 19.8941 43.0368C19.1721 43.0368 19.0391 42.9798 19.0391 42.6567Z" fill="white"/>
<path d="M15.3339 39.9586C15.1629 38.9136 14.8589 36.6905 14.8589 36.3485C14.8589 36.1395 14.9919 36.0065 15.2199 36.0065C15.5049 36.0065 15.5809 36.2155 15.6949 37.2985C15.7519 38.0016 15.8659 39.0276 15.9229 39.5786C16.0369 40.4147 15.9989 40.5667 15.7519 40.5667C15.5619 40.5667 15.4099 40.3387 15.3339 39.9586Z" fill="white"/>
<path d="M21.2809 65.6862C20.5779 65.2681 20.6159 65.0781 21.4139 65.0781C22.003 65.0781 22.079 65.1351 22.079 65.5531C22.079 66.1042 21.965 66.1232 21.2809 65.6862Z" fill="white"/>
<path d="M18.583 64.033C17.747 63.482 16.2839 62.3229 15.2959 61.4869L13.5288 59.9478L13.5478 51.3974C13.5668 43.7591 13.6808 41.555 13.9848 43.4741C14.1938 44.6521 14.6499 48.0913 14.9919 50.7894L15.3149 53.4875H16.1889H17.063L17.5 51.0744C18.203 47.1792 18.279 46.8372 18.583 46.8372C18.792 46.8372 18.849 47.1412 18.849 48.0723C18.849 48.7563 18.792 49.3073 18.716 49.3073C18.526 49.3073 18.507 49.8774 18.355 56.7937C18.298 59.7958 18.298 62.4559 18.355 62.6839C18.412 62.893 18.697 63.197 18.9821 63.33C19.9131 63.748 20.2171 64.071 20.1411 64.584C20.0841 65.0591 20.0841 65.059 18.583 64.033Z" fill="white"/>
<path d="M16.3217 46.8371C16.2267 46.5521 15.5997 42.0489 15.2387 38.9517C14.8777 35.8926 14.9537 36.0636 14.0796 35.9306C13.6616 35.8736 13.3576 35.7406 13.4146 35.6456C13.4716 35.5696 13.5286 30.4774 13.5286 24.3591L13.5476 13.2056L14.7827 12.1225C15.4667 11.5145 16.6257 10.5644 17.3858 9.99442L18.7538 8.96838L18.8108 9.57641C18.8488 9.93743 18.7538 10.2794 18.5828 10.4694C18.3168 10.7355 18.2788 12.3505 18.2788 25.1001C18.2788 37.2797 18.3168 39.5028 18.5448 39.7308C18.7348 39.9018 19.2479 39.9968 20.1789 39.9968C21.376 39.9968 21.528 40.0348 21.471 40.3388C21.414 40.6238 21.1479 40.6618 19.5139 40.7188L17.6138 40.7758L17.0248 43.949C16.7017 45.697 16.3787 46.9891 16.3217 46.8371Z" fill="white"/>
<path d="M171.388 46.1342C171.198 46.0962 171.046 45.9252 171.046 45.7732C171.046 45.5832 171.312 45.5072 172.091 45.5072C172.851 45.5072 173.136 45.5832 173.136 45.7732C173.136 46.1722 172.224 46.3622 171.388 46.1342Z" fill="white"/>
<path d="M162.495 45.4122V44.7472H165.934C169.582 44.7472 169.905 44.8232 169.905 45.6782C169.905 46.0773 169.829 46.0773 166.2 46.0773H162.495V45.4122Z" fill="white"/>
<path d="M21.8891 65.9522C20.9961 65.4962 19.685 64.7171 18.982 64.2231L17.6899 63.3111L17.7659 57.1168C17.8039 53.7156 17.899 50.7135 17.975 50.4475C18.07 50.0485 18.07 50.0295 17.918 50.3525C17.7849 50.6185 17.7659 50.4665 17.8419 49.7825C17.899 49.2694 18.013 48.7944 18.07 48.7374C18.127 48.6804 18.203 48.2814 18.203 47.8444C18.222 47.3884 18.431 46.0013 18.659 44.7472L19.096 42.4671H20.9201C21.9461 42.4671 22.8392 42.3911 22.9532 42.2771C23.0672 42.1631 23.1052 46.4383 23.0672 53.8677C23.0102 65.5722 23.0102 65.6102 23.3902 65.7432C23.6562 65.8192 23.7892 66.0282 23.7892 66.3322C23.7892 66.5792 23.7322 66.7882 23.6562 66.7882C23.5612 66.7882 22.7822 66.4082 21.8891 65.9522Z" fill="white"/>
<path d="M168.918 45.9824C168.88 45.9254 168.861 45.6404 168.918 45.3173L168.994 44.7473H172.585H176.176V45.4123V46.0774H172.604C170.628 46.0774 168.975 46.0394 168.918 45.9824Z" fill="white"/>
<path d="M23.0293 41.0041C23.0293 40.358 23.2573 39.807 23.5233 39.807C23.7133 39.807 23.7893 40.054 23.7893 40.567C23.7893 41.1941 23.7323 41.3271 23.4093 41.3271C23.1813 41.3271 23.0293 41.1941 23.0293 41.0041Z" fill="white"/>
<path d="M19.3238 40.5671C18.3737 40.5101 17.7467 40.4341 17.8987 40.4151C18.1267 40.3771 18.1267 40.3391 17.9367 40.2251C17.5757 39.9971 17.6897 9.67174 18.0507 9.74774C18.2027 9.76674 18.2597 9.70974 18.2027 9.61473C18.0697 9.40572 19.3048 8.60769 21.4139 7.52464L22.9339 6.74561L22.9909 13.2059C23.0289 19.0012 23.0669 19.6662 23.333 19.6662C23.58 19.6662 23.618 19.7992 23.523 20.2742C23.466 20.6162 23.314 20.9392 23.1999 21.0152C23.0479 21.0913 23.0669 21.1673 23.238 21.2243C23.466 21.3003 23.466 21.4713 23.276 22.1933C23.1429 22.6873 23.0289 23.5424 23.0289 24.0934C23.0289 25.1004 21.5469 40.0921 21.4139 40.5291C21.3569 40.6431 21.2619 40.7381 21.1859 40.7191C21.1099 40.7001 20.2738 40.6241 19.3238 40.5671Z" fill="white"/>
<path d="M23.2192 39.294C23.2192 38.6479 23.4472 38.0969 23.7133 38.0969C23.9033 38.0969 23.9793 38.3439 23.9793 38.857C23.9793 39.484 23.9223 39.617 23.5993 39.617C23.3712 39.617 23.2192 39.484 23.2192 39.294Z" fill="white"/>
<path d="M23.4092 37.394C23.4092 36.7479 23.6372 36.1969 23.9032 36.1969C24.0932 36.1969 24.1692 36.4439 24.1692 36.9569C24.1692 37.584 24.1122 37.717 23.7892 37.717C23.5612 37.717 23.4092 37.584 23.4092 37.394Z" fill="white"/>
<path d="M23.5991 35.5889C23.5991 35.0188 23.8461 34.4868 24.0931 34.4868C24.2642 34.4868 24.3592 34.7148 24.3592 35.1518C24.3592 35.6839 24.2832 35.8169 23.9791 35.8169C23.7701 35.8169 23.5991 35.7029 23.5991 35.5889Z" fill="white"/>
<path d="M27.4941 68.175C25.6511 67.6049 23.846 66.9019 23.0479 66.4649L22.4589 66.1229L22.4969 54.3993C22.5539 44.1009 22.5159 42.6568 22.2689 42.5808C22.1169 42.5428 22.1739 42.5048 22.4209 42.4858C22.6489 42.4858 22.8959 42.3528 22.9339 42.2388C23.0289 41.9538 24.169 30.7623 24.169 30.0972C24.169 29.8692 24.207 29.7172 24.264 29.7742C24.321 29.8122 24.53 33.9544 24.739 38.9706C24.948 43.9679 25.138 48.4141 25.176 48.8321C25.214 49.5541 25.252 49.5921 25.9361 49.7061C26.3541 49.7631 26.6961 49.7251 26.7911 49.6111C26.8861 49.4971 27.4181 48.0531 27.9882 46.419C28.9382 43.5878 29.2992 42.9988 29.5652 43.7209C29.7742 44.2909 29.6982 45.1269 29.4132 45.1269C28.9572 45.1269 28.8812 47.255 28.9572 58.2945C28.9952 64.0138 29.0142 68.688 29.0142 68.669C29.0142 68.669 28.3302 68.441 27.4941 68.175Z" fill="white"/>
<path d="M22.1738 54.2473C22.1738 47.92 22.1928 45.3359 22.2118 48.49C22.2498 51.6632 22.2498 56.8314 22.2118 59.9855C22.1928 63.1587 22.1738 60.5746 22.1738 54.2473Z" fill="white"/>
<path d="M175.605 45.4119V44.7469H180.641C185.98 44.7469 185.809 44.7089 185.562 45.659L185.448 46.077H180.527H175.605V45.4119Z" fill="white"/>
<path d="M26.6388 43.1318C26.6198 42.2957 26.3728 36.0064 26.1068 29.1661L25.5937 16.7206L24.7387 16.6636L23.8836 16.6066L23.5226 19.9887C23.3326 21.8508 23.0096 24.8339 22.8006 26.601C22.5726 28.3871 22.4016 30.0212 22.3826 30.2492C22.3636 30.4582 22.3066 30.6102 22.2306 30.5532C22.1356 30.5152 22.0976 25.29 22.1166 18.9437L22.1736 7.41015L22.2686 17.8606C22.3256 23.6179 22.4016 27.9311 22.4206 27.4561C22.5726 25.081 22.4206 7.41015 22.2496 7.31515C21.8886 7.06814 27.8168 4.65503 28.7479 4.65503C28.9759 4.65503 29.0139 7.41015 28.9569 21.3378L28.9189 38.0205L27.7978 41.3267L26.6768 44.6518L26.6388 43.1318Z" fill="white"/>
<path d="M21.9268 34.2965C21.9268 33.9355 21.9648 33.7835 22.0218 33.9735C22.0598 34.1445 22.0598 34.4485 22.0218 34.6385C21.9648 34.8096 21.9268 34.6575 21.9268 34.2965Z" fill="white"/>
<path d="M33.2893 69.3532C33.1373 69.3152 32.3583 69.2012 31.5793 69.0682C30.8002 68.9542 29.7552 68.7642 29.2422 68.6692L28.3491 68.4602L28.4061 56.6416L28.4631 44.8421L29.5082 41.802L30.5722 38.7618L30.7052 41.1369C30.7812 42.448 30.9142 44.7471 31.0282 46.2672C31.1422 47.7872 31.3323 50.6184 31.4653 52.5755C31.5983 54.5326 31.7313 56.1856 31.7883 56.2236C31.8263 56.2806 32.2063 56.3376 32.6053 56.3756L33.3653 56.4326L34.8664 51.4544L36.3865 46.4572H38.5526C40.5667 46.4572 40.6997 46.4762 40.6997 46.8372C40.6997 47.0462 40.5667 47.2172 40.4147 47.2172C40.1677 47.2172 40.1297 48.5283 40.1297 57.9527C40.1297 68.5552 40.1297 68.6882 40.5097 68.6882C41.0227 68.6882 40.9847 69.1822 40.4717 69.3342C40.0346 69.4482 33.8404 69.4672 33.2893 69.3532Z" fill="white"/>
<path d="M33.0423 49.6872C32.9093 48.9462 32.6623 45.564 32.2253 38.7617C32.0733 36.2536 31.9213 34.2015 31.9023 34.1635C31.8643 34.1445 31.5033 34.0685 31.0662 33.9925L30.3062 33.8785L29.4702 36.3866C28.7101 38.7047 28.6341 38.8377 28.5011 38.2487C28.4251 37.9067 28.3681 30.2494 28.3681 21.2239L28.3491 4.82621L28.8621 4.6362C30.2492 4.10418 33.8404 3.68616 36.9755 3.68616C38.7236 3.68616 40.1867 3.70516 40.2057 3.74316C40.2057 3.78116 40.2057 12.9776 40.1677 24.1881L40.1297 44.557H37.4885H34.8474L34.6384 45.469C34.5054 45.9631 34.1254 47.2551 33.7834 48.3572C33.1943 50.2003 33.1373 50.2953 33.0423 49.6872Z" fill="white"/>
<path d="M184.726 45.8872C184.916 45.7732 184.935 45.6972 184.783 45.6972C184.65 45.6972 184.536 45.4882 184.536 45.2222V44.7662L193.562 44.7472H202.587V45.4122V46.0773H193.524C187.595 46.0773 184.536 46.0012 184.726 45.8872Z" fill="white"/>
<path d="M39.5596 57.9719V46.6854L39.9966 46.5714C40.2246 46.5144 41.4597 46.4574 42.7517 46.4574C44.9368 46.4574 45.0698 46.4764 45.0698 46.8374C45.0698 47.0464 44.9368 47.2174 44.7848 47.2174C44.5378 47.2174 44.4998 48.4905 44.4998 57.4589V67.7194L44.9178 67.8524C45.1648 67.9284 45.3738 67.8904 45.4118 67.7574C45.4498 67.6434 45.7729 67.5484 46.1339 67.5484C46.4949 67.5484 46.7799 67.4723 46.7799 67.3583C46.7799 67.2633 47.0839 67.1683 47.4449 67.1683C47.8629 67.1683 48.11 67.2633 48.11 67.4153C48.11 67.9094 42.4667 69.2584 40.4716 69.2584H39.5596V57.9719Z" fill="white"/>
<path d="M48.8701 66.8832C48.8701 66.4652 48.9461 66.4082 49.5541 66.4082C50.3902 66.4082 50.3522 66.7502 49.4781 67.1112C48.8891 67.3582 48.8701 67.3392 48.8701 66.8832Z" fill="white"/>
<path d="M201.694 45.4123C201.694 44.9943 201.732 44.8423 201.77 45.0893C201.808 45.3173 201.808 45.6593 201.77 45.8493C201.713 46.0203 201.675 45.8303 201.694 45.4123Z" fill="white"/>
<path d="M202.017 45.4123V44.7473H206.007H209.997V45.4123V46.0774H206.007H202.017V45.4123Z" fill="white"/>
<path d="M39.5598 24.2261C39.6358 6.27031 39.6168 3.8952 39.3698 3.8192C38.6478 3.62919 39.9968 3.7242 41.6499 3.99021C44.12 4.38923 44.88 4.61724 44.88 4.94025C44.88 5.09226 44.804 5.22527 44.69 5.22527C44.557 5.22527 44.5 11.9136 44.5 24.8912V44.557H41.9919H39.4648L39.5598 24.2261Z" fill="white"/>
<path d="M44.0632 68.5553C43.9872 68.4983 43.9302 63.5391 43.9302 57.5538V46.6853L44.3672 46.5713C44.5952 46.5143 45.6213 46.4573 46.6473 46.4573C48.3574 46.4573 48.4904 46.4763 48.4904 46.8373C48.4904 47.0463 48.4144 47.2173 48.3004 47.2173C48.1674 47.2173 48.1104 50.6375 48.1104 57.1168C48.1104 66.1042 48.1294 66.9782 48.4144 66.7122C48.7754 66.3512 50.0105 66.2942 50.0105 66.6552C50.0105 66.9402 48.9274 67.3772 46.3053 68.1373C44.2152 68.7453 44.2342 68.7453 44.0632 68.5553Z" fill="white"/>
<path d="M54.0005 64.2231C54.0005 63.8241 54.0955 63.7481 54.5705 63.7481C55.0075 63.7481 55.1405 63.6721 55.1405 63.3681C55.1405 63.064 55.2735 62.988 55.8246 62.988C56.4136 62.988 56.4896 63.026 56.2806 63.2541C56.0336 63.5581 54.3235 64.6981 54.1335 64.6981C54.0575 64.6981 54.0005 64.4891 54.0005 64.2231Z" fill="white"/>
<path d="M241.311 46.1342C241.121 46.0962 240.969 45.9252 240.969 45.7732C240.969 45.5832 241.235 45.5072 242.014 45.5072C242.926 45.5072 243.059 45.5452 243.059 45.8872C243.059 46.2102 242.945 46.2672 242.356 46.2482C241.957 46.2292 241.482 46.1912 241.311 46.1342Z" fill="white"/>
<path d="M209.428 45.4122V44.7472H212.753H216.078V45.4122V46.0773H212.753H209.428V45.4122Z" fill="white"/>
<path d="M43.7021 44.424C43.8731 44.348 43.9301 40.1868 43.9301 24.5111C43.9301 8.8164 43.9871 4.67422 44.1771 4.59822C44.4241 4.50321 46.6662 5.09224 47.6733 5.51025C48.2243 5.73827 48.3193 5.87127 48.2243 6.21329C48.1673 6.4603 48.1103 15.1817 48.1103 25.6132V44.557L45.7922 44.538C44.5001 44.538 43.5691 44.481 43.7021 44.424Z" fill="white"/>
<path d="M47.5025 57.2498C47.5405 49.1934 47.5975 46.7233 47.7875 46.6093C47.9015 46.5333 48.8705 46.4573 49.9156 46.4573H51.8157L51.7587 55.9577C51.7207 62.456 51.7587 65.4581 51.9107 65.4581C52.0057 65.4581 52.1007 65.5531 52.1007 65.6481C52.1007 65.9142 49.1746 67.2632 47.8255 67.6242C47.4455 67.7382 47.4455 67.6622 47.5025 57.2498Z" fill="white"/>
<path d="M52.2905 65.211C52.2905 64.698 52.9366 64.318 53.8106 64.318C54.6276 64.318 54.5136 64.565 53.4496 65.135C52.3285 65.7621 52.2905 65.7621 52.2905 65.211Z" fill="white"/>
<path d="M241.881 46.1342C241.691 46.0772 241.539 45.9252 241.539 45.7732C241.539 45.5452 242.261 45.5072 246.004 45.5072C250.374 45.5072 250.469 45.5072 250.469 45.8872C250.469 46.2672 250.374 46.2862 246.346 46.2482C244.066 46.2292 242.052 46.1722 241.881 46.1342Z" fill="white"/>
<path d="M215.508 45.4122V44.7472H218.738H221.968V45.4122V46.0773H218.738H215.508V45.4122Z" fill="white"/>
<path d="M47.4264 44.386C47.4834 44.291 47.5404 35.4936 47.5404 24.8341V5.45325L48.6424 5.87127C49.2314 6.11828 50.1625 6.51729 50.6755 6.7643L51.6256 7.22032L51.6826 25.8982L51.7206 44.557H49.5165C48.2814 44.557 47.3694 44.481 47.4264 44.386Z" fill="white"/>
<path d="M50.9414 66.1613C51.0744 65.9713 51.1694 62.9881 51.1884 56.2238L51.2454 46.5524L53.2785 46.4954C55.2356 46.4384 55.3306 46.4574 55.3306 46.8374C55.3306 47.0464 55.2546 47.2174 55.1406 47.2174C55.0076 47.2174 54.9506 50.0295 54.9506 55.2928C54.9506 60.556 55.0076 63.3681 55.1406 63.3681C55.2546 63.3681 55.3306 63.2351 55.3306 63.0831C55.3306 62.8931 55.5396 62.7981 55.9956 62.7981C56.3566 62.7981 56.6606 62.8551 56.6606 62.9501C56.6416 63.2351 52.9935 65.4582 51.4544 66.1043C50.9034 66.3323 50.7704 66.3513 50.9414 66.1613Z" fill="white"/>
<path d="M248.531 46.1154C248.341 46.0774 248.189 45.9253 248.189 45.7733C248.189 45.5643 248.702 45.5073 251.04 45.5073C253.795 45.5073 253.89 45.5263 253.89 45.9063C253.89 46.2864 253.814 46.2864 251.382 46.2294C249.995 46.2104 248.702 46.1534 248.531 46.1154Z" fill="white"/>
<path d="M221.398 45.4123V44.7473H224.818H228.238V45.4123V46.0774H224.818H221.398V45.4123Z" fill="white"/>
<path d="M50.9221 44.4243C51.0931 44.3483 51.1501 40.4151 51.1501 25.6515V6.97363L52.8982 7.90467C53.8672 8.41769 54.7222 8.91172 54.7983 8.98772C54.8743 9.06372 54.9693 17.1011 55.0073 26.8485L55.0453 44.5573L52.8602 44.5383C51.6631 44.5383 50.7891 44.4813 50.9221 44.4243Z" fill="white"/>
<path d="M188.812 41.137C184.841 40.282 181.364 37.1468 180.148 33.3656C179.578 31.6176 179.445 28.5204 179.863 26.8864C181.326 21.0531 187.14 17.0819 192.612 18.203C194.626 18.621 196.184 19.419 197.685 20.8061C198.388 21.4331 198.996 21.9461 199.053 21.9461C199.11 21.9461 199.167 21.1861 199.167 20.236V18.526H200.783H202.398V29.5465V40.567H200.783H199.167V38.9519C199.167 38.0589 199.091 37.3368 199.015 37.3368C198.92 37.3368 198.483 37.6978 198.027 38.1349C196.849 39.2369 195.177 40.282 193.79 40.757C192.479 41.213 190.009 41.403 188.812 41.137ZM193.334 38.0969C195.557 37.4128 197.799 35.3227 198.616 33.1756C200.327 28.6724 198.54 23.8272 194.455 21.8131C193.049 21.1101 192.954 21.0911 190.902 21.0911C188.926 21.0911 188.736 21.1291 187.539 21.7181C186.171 22.3831 184.252 24.2452 183.606 25.5183C182.143 28.3874 182.333 31.9596 184.081 34.6007C186.209 37.8118 189.838 39.1799 193.334 38.0969Z" fill="white"/>
<path d="M223.488 40.947C221.778 40.719 220.923 40.149 220.353 38.7999C220.106 38.2109 220.068 36.8618 220.068 30.0215V21.9462H218.548H217.028V20.4261V18.925L218.51 18.868L219.973 18.811L220.03 15.9229L220.087 13.0157H221.873H223.678V15.8659V18.716H226.528H229.378V20.4261V22.1362H226.528H223.678V29.6225C223.678 36.1778 223.716 37.1658 223.982 37.4129C224.4 37.8309 224.799 37.9069 227.288 37.9639L229.473 38.0019V39.5219V41.042L227.003 41.061C225.654 41.08 224.058 41.023 223.488 40.947Z" fill="white"/>
<path d="M128.104 26.8863V12.8257H129.909H131.714V18.906V24.9862H139.22H146.725V18.906V12.8257H148.53H150.335V26.8863V40.947H148.53H146.725V34.4867V28.0264H139.22H131.714V34.4867V40.947H129.909H128.104V26.8863Z" fill="white"/>
<path d="M163.484 40.6811C159.379 39.902 156.263 36.9759 155.37 33.0617C154.971 31.3897 154.99 27.9315 155.37 26.4114C156.168 23.3523 157.954 21.0342 160.577 19.7041C162.439 18.7541 163.484 18.5071 165.726 18.5071C167.911 18.5071 168.994 18.7351 170.761 19.6281C174.105 21.3002 176.176 24.8344 176.176 28.9195V30.4966H167.512H158.828L158.961 31.5417C159.436 35.6649 162.705 38.401 166.676 38.021C169.013 37.8119 170.723 36.6339 171.787 34.5058L172.224 33.6888L173.668 33.8218C175.473 33.9738 175.986 34.0878 175.986 34.3348C175.986 34.4488 175.682 35.1138 175.302 35.8359C174.105 38.097 171.616 39.997 169.089 40.5671C167.55 40.9091 164.966 40.9661 163.484 40.6811ZM172.262 27.6655C172.452 27.3805 171.977 25.5374 171.502 24.5683C169.203 20.0271 162.116 20.1981 159.836 24.8534C159.531 25.4994 159.208 26.4304 159.151 26.9435L159.018 27.8365H165.593C169.374 27.8365 172.205 27.7605 172.262 27.6655Z" fill="white"/>
<path d="M209.238 25.7463V10.7356H210.948H212.658V25.7463V40.757H210.948H209.238V25.7463Z" fill="white"/>
<path d="M234.129 25.7463V10.7356H235.839H237.549V16.3408C237.549 21.0721 237.587 21.9461 237.815 21.9461C237.967 21.9461 238.157 21.7751 238.214 21.5661C238.499 20.654 240.361 19.305 242.109 18.735C244.066 18.1079 247.62 18.1649 249.368 18.849C251.287 19.59 252.294 20.635 253.035 22.6111C253.377 23.4852 253.415 24.3022 253.472 32.1686L253.529 40.757H251.762H249.995V32.6246C249.995 24.6632 249.995 24.4922 249.577 23.7512C248.57 21.8891 247.182 21.1291 244.769 21.1481C242.926 21.1481 241.672 21.5091 240.437 22.3641C239.563 22.9722 238.271 24.7772 237.891 25.9173C237.758 26.3733 237.644 29.0144 237.606 33.6886L237.511 40.757H235.82H234.129V25.7463Z" fill="white"/>
<path d="M54.4944 64.1851C54.4374 64.1281 54.3804 60.1569 54.3804 55.3687C54.3804 47.6353 54.4184 46.6663 54.6844 46.5713C54.8554 46.5143 55.9194 46.4573 57.0595 46.4573C58.9976 46.4573 59.1306 46.4763 59.1306 46.8373C59.1306 47.0843 58.9976 47.2173 58.7506 47.2173C58.3706 47.2173 58.3706 47.3503 58.3706 53.9436V60.6889L58.8836 60.7459C59.3396 60.8029 59.2826 60.8789 57.9715 61.943C55.7674 63.7291 54.7224 64.4131 54.4944 64.1851Z" fill="white"/>
<path d="M227.212 45.5642C227.25 44.6902 227.288 44.6332 227.478 44.9372C227.592 45.1272 227.668 45.1462 227.668 44.9942C227.668 44.8042 228.447 44.7472 230.898 44.7472H234.129V45.4122V46.0773H230.651H227.174L227.212 45.5642Z" fill="white"/>
<path d="M54.1905 44.4431C54.4375 44.3671 54.4755 42.277 54.4185 26.8293C54.3995 17.1958 54.4185 9.19647 54.4755 9.06346C54.5895 8.77845 55.5966 9.42448 57.3827 10.9065L58.4657 11.8186L58.4087 28.1783L58.3707 44.5571L56.1286 44.5381C54.9126 44.5191 54.0385 44.4811 54.1905 44.4431Z" fill="white"/>
<path d="M57.7626 54.4374L57.8006 46.685L58.3896 46.571C58.7316 46.514 60.7267 46.457 62.8548 46.457C66.598 46.457 66.731 46.476 66.731 46.837C66.731 47.0461 66.655 47.2171 66.541 47.2171C66.427 47.2171 66.351 48.0151 66.351 49.2312V51.2642L65.4769 52.9363C64.0329 55.6534 61.2777 59.0926 58.8266 61.2207L57.7056 62.1897L57.7626 54.4374Z" fill="white"/>
<path d="M232.893 45.507C232.931 44.804 233.14 44.5759 233.368 44.937C233.501 45.127 233.558 45.146 233.558 44.994C233.558 44.8039 235.06 44.7469 240.399 44.7469C247.011 44.7469 247.239 44.766 247.239 45.108C247.239 46.115 247.562 46.077 239.943 46.077H232.855L232.893 45.507Z" fill="white"/>
<path d="M57.5724 44.424C57.7434 44.348 57.8004 40.8708 57.8004 27.9122C57.8004 15.4477 57.8575 11.4955 58.0285 11.4955C58.3895 11.4955 61.9996 15.2767 63.3297 17.0627C64.0137 17.9748 64.9828 19.4948 65.4578 20.4069L66.3508 22.079V33.3275V44.557L61.8476 44.538C59.3585 44.538 57.4394 44.481 57.5724 44.424Z" fill="white"/>
<path d="M65.7812 49.2311C65.7812 47.084 65.8193 46.6659 66.0853 46.5709C66.5603 46.3809 68.2514 46.4379 68.2514 46.6469C68.2514 47.198 66.1803 51.7772 65.9333 51.7772C65.8573 51.7772 65.7812 50.6371 65.7812 49.2311Z" fill="white"/>
<path d="M246.517 45.412L246.555 44.7469H250.223H253.89V45.412V46.077H250.185H246.46L246.517 45.412Z" fill="white"/>
<path d="M65.5722 44.31C65.7242 44.101 65.7812 41.0989 65.7432 32.5105C65.7052 26.1832 65.7052 20.996 65.7432 20.996C65.9142 20.996 67.7383 25.1192 68.2323 26.6012C69.8664 31.5414 70.2654 37.8687 69.2393 42.847L68.9163 44.462L67.1302 44.519C65.6102 44.557 65.3822 44.538 65.5722 44.31Z" fill="white"/>
<path d="M85.675 40.8138C85.599 40.7568 85.542 34.3345 85.542 26.5632V12.4456H87.2521H88.9621V24.9861V37.5267H93.9024H98.8426V39.2368V40.9468H92.3253C88.7341 40.9468 85.732 40.8898 85.675 40.8138Z" fill="white"/>
<path d="M110.414 40.5666C106.101 39.8826 102.985 37.1465 101.958 33.1373C101.578 31.6552 101.521 28.2351 101.863 26.601C102.262 24.7579 103.27 22.8388 104.6 21.4898C106.652 19.3997 109.084 18.4686 112.523 18.4686C115.886 18.4686 117.995 19.2477 120.085 21.2618C122.042 23.1238 122.821 24.8529 123.182 27.9691C123.486 30.8002 124.569 30.4962 114.29 30.4962H105.455L105.588 31.3132C106.158 35.0184 108.457 37.3745 111.953 37.8115C113.15 37.9635 114.86 37.6975 115.905 37.2035C116.836 36.7665 118.28 35.3224 118.793 34.2963L119.192 33.4983L120.731 33.6313C121.567 33.7073 122.46 33.8213 122.707 33.8973L123.163 34.0113L122.593 35.2084C120.94 38.7045 117.976 40.4906 113.492 40.6616C112.39 40.6996 111.003 40.6616 110.414 40.5666ZM119.116 26.696C118.85 24.5109 117.292 22.5348 115.221 21.7368C113.72 21.1668 111.516 21.1857 109.977 21.7748C108.78 22.2118 107.298 23.4279 106.633 24.5109C106.215 25.1759 105.645 27.228 105.797 27.475C105.854 27.57 108.894 27.646 112.561 27.646H119.23L119.116 26.696Z" fill="white"/>
<path d="M124.683 72.1082C124.683 72.0132 124.759 71.9182 124.873 71.9182C124.968 71.9182 125.177 71.7092 125.348 71.4812C125.614 71.0632 125.595 70.9302 125.063 69.6381C124.74 68.8781 124.531 68.2131 124.588 68.1561C124.759 67.9851 124.892 68.2321 125.348 69.4861C125.842 70.8162 125.842 70.8162 126.412 68.9161C126.621 68.2131 126.963 67.8141 126.963 68.2891C126.963 68.6501 125.633 71.5952 125.329 71.9372C124.968 72.3363 124.683 72.4123 124.683 72.1082Z" fill="white"/>
<path d="M120.465 71.0442C120.37 70.9682 120.313 70.0752 120.313 69.0491C120.313 67.339 120.351 67.187 120.712 67.073C121.149 66.921 121.985 67.092 122.346 67.396C122.669 67.6431 122.669 68.2131 122.346 68.4601C122.175 68.6121 122.118 68.5171 122.118 68.0611C122.118 67.491 122.061 67.453 121.415 67.396C120.712 67.339 120.693 67.339 120.693 68.0041C120.693 68.6311 120.75 68.6881 121.225 68.6881C122.346 68.7071 123.087 69.9802 122.384 70.6832C122.08 70.9872 120.655 71.2532 120.465 71.0442ZM122.099 70.4742C122.707 69.8852 122.213 69.0681 121.244 69.0681C120.712 69.0681 120.693 69.1061 120.693 69.9232C120.693 70.7402 120.712 70.7782 121.244 70.7782C121.548 70.7782 121.947 70.6452 122.099 70.4742Z" fill="white"/>
<path d="M146.155 64.1657C146.155 63.8427 146.763 63.7097 148.815 63.6337C151.114 63.5577 151 63.6717 148.53 63.8997C147.599 63.9947 146.668 64.1277 146.497 64.2227C146.288 64.2987 146.155 64.2797 146.155 64.1657Z" fill="white"/>
<path d="M142.544 64.7739C142.544 64.6409 142.848 64.4699 143.209 64.3939C143.665 64.3179 143.874 64.1659 143.874 63.9379C143.874 63.3489 145.642 63.1208 145.851 63.6719C145.927 63.8619 146.117 63.9379 146.345 63.8809C146.858 63.7479 147.029 64.0709 146.516 64.2229C146.307 64.2989 146.174 64.4699 146.231 64.6029C146.383 65.0209 144.73 65.2869 144.35 64.9069C144.236 64.7929 143.817 64.7929 143.361 64.8689C142.734 64.9829 142.544 64.9639 142.544 64.7739Z" fill="white"/>
<path d="M148.112 63.8049C148.283 63.7669 148.587 63.7669 148.777 63.8049C148.948 63.8619 148.796 63.8999 148.435 63.8999C148.074 63.8999 147.922 63.8619 148.112 63.8049Z" fill="white"/>
<path d="M141.404 65.2678C141.404 65.0208 141.537 64.8878 141.765 64.8878C141.974 64.8878 142.183 64.8118 142.24 64.7168C142.316 64.6218 142.696 64.4888 143.095 64.4128C143.684 64.3178 143.874 64.1848 143.912 63.8808C143.95 63.5577 144.121 63.4437 144.691 63.4057C145.147 63.3677 145.508 63.4437 145.698 63.6338C145.964 63.9188 145.946 63.9378 145.546 63.9568C145.299 63.9568 144.634 64.1088 144.064 64.2988C143.19 64.6028 143.095 64.6598 143.494 64.7358C143.969 64.8308 143.969 64.8308 143.456 64.8688C143.171 64.8688 142.639 65.0588 142.259 65.2678C141.879 65.4768 141.537 65.6478 141.499 65.6478C141.442 65.6478 141.404 65.4768 141.404 65.2678Z" fill="white"/>
<path d="M144.349 64.8879C144.026 64.5269 144.026 64.5079 144.368 64.5079C144.558 64.5079 145.052 64.4509 145.451 64.3939C146.059 64.2799 146.154 64.3179 146.154 64.6409C146.154 64.9259 145.983 65.0589 145.565 65.1539C144.729 65.3059 144.729 65.3059 144.349 64.8879Z" fill="white"/>
<path d="M139.941 65.9139C139.808 65.5719 140.169 65.2679 140.758 65.2679C140.967 65.2679 141.233 65.1729 141.347 65.0589C141.442 64.9639 141.765 64.9259 142.05 65.0019C142.563 65.1159 142.563 65.1349 141.746 65.5339C141.29 65.7429 140.91 65.9899 140.872 66.0849C140.739 66.3319 140.055 66.2179 139.941 65.9139Z" fill="white"/>
<path d="M144.463 65.0018C144.292 64.7928 144.33 64.7168 144.672 64.6218C145.395 64.4318 145.585 64.4888 145.585 64.8878C145.585 65.3439 144.805 65.4199 144.463 65.0018Z" fill="white"/>
<path d="M137.851 67.7568C137.319 67.3198 137.243 66.2748 137.718 66.0848C137.889 66.0278 138.098 66.0848 138.174 66.2178C138.326 66.4648 138.82 66.2938 139.884 65.6098C140.283 65.3437 140.416 65.3247 140.701 65.5528C141.043 65.7998 141.043 65.8188 140.625 66.1608C140.397 66.3508 139.789 66.8638 139.314 67.3198C138.82 67.7568 138.383 68.1179 138.345 68.1179C138.307 68.0989 138.079 67.9469 137.851 67.7568Z" fill="white"/>
<path d="M136.597 69.4481C136.426 69.239 136.141 69.068 135.989 69.068C135.571 69.068 135.647 68.593 136.198 67.586C136.711 66.6739 137.528 65.8379 137.908 65.8379C138.193 65.8379 138.384 66.5599 138.155 66.7119C138.06 66.7689 138.174 66.9779 138.403 67.168C138.821 67.491 138.859 67.491 139.22 67.206C139.429 67.0349 139.22 67.32 138.783 67.833C137.756 69.011 137.718 69.087 137.547 69.5051C137.376 69.9421 136.996 69.9231 136.597 69.4481Z" fill="white"/>
<path d="M135.742 70.512C135.4 70.265 135.077 70.018 135.02 69.98C134.982 69.923 135.229 69.353 135.609 68.6879C135.97 68.0419 136.274 67.4529 136.274 67.3959C136.293 66.9779 137.072 66.4078 137.604 66.4078H138.193L137.186 67.3959C136.198 68.3649 136.198 68.3839 136.654 68.5359C137.414 68.7829 137.642 69.315 137.3 69.999C137.148 70.322 137.053 70.664 137.129 70.778C137.357 71.1391 136.369 70.949 135.742 70.512Z" fill="white"/>
<path d="M145.015 64.8118C145.015 64.5838 145.946 64.1848 146.041 64.3558C146.06 64.3938 146.193 64.5648 146.326 64.7548C146.554 65.0588 146.516 65.0778 145.794 65.0778C145.262 65.0778 145.015 65.0018 145.015 64.8118Z" fill="white"/>
<path d="M143.817 63.7478C143.741 63.4058 143.817 63.3678 144.464 63.3678C144.863 63.3678 145.205 63.4628 145.205 63.5578C145.205 63.6718 145.395 63.7478 145.623 63.7478C146.288 63.7478 145.927 63.8808 144.901 64.0138C144.026 64.1278 143.912 64.0898 143.817 63.7478Z" fill="white"/>
<path d="M134.659 70.7971C134.602 70.6831 134.716 70.3221 134.906 69.9801C135.096 69.638 135.59 68.726 135.989 67.985C136.654 66.7119 136.768 66.5979 137.3 66.5979H137.889L137.224 67.2249C136.407 67.966 135.514 69.03 135.514 69.258C135.514 69.429 136.863 70.3221 137.034 70.2651C137.091 70.2461 137.148 70.3981 137.148 70.6071C137.148 70.9301 136.996 70.9681 135.951 70.9681C135.305 70.9681 134.735 70.8921 134.659 70.7971Z" fill="white"/>
<path d="M144.539 65.0589C144.368 64.7929 144.463 64.7169 145.166 64.5839C145.698 64.4699 145.774 64.5079 145.774 64.8689C145.774 65.1919 145.66 65.2679 145.223 65.2679C144.9 65.2679 144.596 65.1729 144.539 65.0589Z" fill="white"/>
<path d="M134.374 70.7972C134.374 70.7022 134.507 70.5312 134.659 70.3982C134.811 70.2652 134.944 70.0562 134.944 69.9042C134.944 69.7711 135.02 69.6191 135.096 69.5621C135.191 69.5051 135.248 69.6571 135.248 69.8661C135.229 70.1702 135.381 70.3222 135.856 70.4552C136.787 70.7402 136.578 70.9682 135.419 70.9682C134.849 70.9682 134.374 70.8922 134.374 70.7972Z" fill="white"/>
<path d="M136.654 66.9779C136.654 66.6169 136.749 66.4079 136.92 66.4079C137.072 66.4079 137.224 66.2749 137.3 66.1229C137.357 65.9709 137.585 65.8379 137.794 65.8379C138.44 65.8379 138.231 66.5029 137.414 67.054L136.654 67.548V66.9779Z" fill="white"/>
<path d="M143.818 63.7668C143.742 63.4248 143.818 63.3678 144.274 63.3678C144.635 63.3678 144.825 63.4628 144.825 63.6528C144.825 63.8048 144.749 63.9378 144.654 63.9378C144.559 63.9378 144.35 63.9948 144.198 64.0518C144.027 64.1088 143.894 63.9948 143.818 63.7668Z" fill="white"/>
<path d="M134.564 70.7022C134.564 70.5502 134.659 70.3602 134.754 70.3031C134.868 70.2461 134.944 70.2842 134.944 70.3792C134.944 70.5122 135.381 70.5882 135.97 70.5882C136.54 70.5882 137.072 70.6832 137.129 70.7782C137.205 70.8922 136.749 70.9682 135.913 70.9682C134.868 70.9682 134.564 70.9112 134.564 70.7022Z" fill="white"/>
<path d="M135.742 68.403C135.856 68.137 136.027 67.928 136.122 67.928C136.217 67.928 136.141 68.137 135.97 68.403C135.799 68.669 135.628 68.878 135.59 68.878C135.552 68.878 135.628 68.669 135.742 68.403Z" fill="white"/>
<path d="M145.205 63.5578C145.205 63.3487 145.281 63.1777 145.395 63.1777C145.49 63.1777 145.661 63.3487 145.775 63.5578C145.946 63.8808 145.927 63.9378 145.585 63.9378C145.338 63.9378 145.205 63.8048 145.205 63.5578Z" fill="white"/>
<path d="M134.374 70.7971C134.374 70.7021 134.488 70.5311 134.64 70.4171C134.83 70.2461 134.925 70.2651 135.001 70.4931C135.077 70.6451 135.229 70.7211 135.381 70.6641C135.514 70.6261 135.837 70.6641 136.103 70.7591C136.483 70.9111 136.369 70.9491 135.476 70.9491C134.868 70.9681 134.374 70.8921 134.374 70.7971Z" fill="white"/>
<path d="M136.16 67.7189C136.426 67.2629 136.73 66.6929 136.844 66.4648C136.977 66.1418 137.186 66.0278 137.604 66.0278C137.908 66.0278 138.174 66.0848 138.174 66.1798C138.174 66.2558 137.604 66.8259 136.92 67.4339L135.647 68.574L136.16 67.7189Z" fill="white"/>
<path d="M144.635 65.0018C144.635 64.7548 145.167 64.5078 145.737 64.5078C145.851 64.5078 145.965 64.6788 145.965 64.8878C145.965 65.1918 145.832 65.2678 145.3 65.2678C144.863 65.2678 144.635 65.1728 144.635 65.0018Z" fill="white"/>
<path d="M143.818 63.7097C143.742 63.4817 143.913 63.3677 144.559 63.2727C145.452 63.1397 145.775 63.2347 145.775 63.6527C145.775 63.8237 145.471 63.9187 144.844 63.9757C144.084 64.0137 143.875 63.9757 143.818 63.7097Z" fill="white"/>
<path d="M136.274 67.5099C136.293 67.0729 136.768 66.5979 137.205 66.5979C137.699 66.5979 137.604 66.8259 136.844 67.3579C136.445 67.6429 136.274 67.6809 136.274 67.5099Z" fill="white"/>
<path d="M144.482 65.0778C144.273 64.7548 144.292 64.6978 144.615 64.6978C144.805 64.6978 145.242 64.6408 145.565 64.5838C146.059 64.4698 146.154 64.5078 146.154 64.8498C146.154 65.1158 145.983 65.2488 145.565 65.3438C144.748 65.4958 144.748 65.4958 144.482 65.0778Z" fill="white"/>
<path d="M144.254 63.5767C144.254 63.2537 144.368 63.1777 144.9 63.1777C145.508 63.1777 145.945 63.4437 145.717 63.6718C145.679 63.7288 145.318 63.8238 144.938 63.8808C144.33 63.9758 144.254 63.9378 144.254 63.5767Z" fill="white"/>
<path d="M136.502 67.0159C137.11 65.8378 137.3 65.6478 137.927 65.6478C138.592 65.6478 138.25 66.2179 136.996 67.2249L135.932 68.0989L136.502 67.0159Z" fill="white"/>
<path d="M144.577 65.1918C144.406 64.7358 145.908 64.3558 146.307 64.7738C146.706 65.1538 146.535 65.2868 145.528 65.4008C144.881 65.4768 144.672 65.4388 144.577 65.1918Z" fill="white"/>
<path d="M143.799 63.6338C143.628 63.1777 143.628 63.1777 144.54 63.1777C145.148 63.1777 145.395 63.2537 145.395 63.4438C145.395 63.9378 143.989 64.1088 143.799 63.6338Z" fill="white"/>
<path d="M168.291 71.481L167.531 71.234L167.398 70.018C167.322 69.3529 167.303 68.7639 167.341 68.7259C167.493 68.5549 167.816 68.9159 167.816 69.2769C167.816 69.4859 168.063 69.923 168.367 70.227C168.823 70.683 169.089 70.778 169.811 70.778C170.533 70.778 170.799 70.683 171.255 70.227C172.281 69.2009 171.863 68.3839 169.906 67.6429C167.835 66.8448 167.113 65.7048 167.74 64.1657C168.234 62.8927 169.678 62.2276 171.217 62.5886C171.654 62.6836 172.053 62.7977 172.091 62.8357C172.281 63.0257 172.395 65.0778 172.224 65.0778C172.11 65.0778 171.958 64.8877 171.901 64.6597C171.635 63.8237 171.027 63.3677 170.191 63.3677C169.07 63.3677 168.576 63.7857 168.576 64.7167C168.576 65.3628 168.671 65.5148 169.203 65.8378C169.526 66.0468 170.248 66.3508 170.799 66.5028C172.091 66.8828 172.756 67.6619 172.756 68.7639C172.756 70.797 170.495 72.1651 168.291 71.481Z" fill="white"/>
<path d="M182.579 71.4811C180.166 70.721 179.064 67.8709 180.242 65.3438C181.572 62.4747 185.506 62.2466 187.102 64.9638C188.565 67.4719 187.406 70.873 184.879 71.5001C183.814 71.7661 183.529 71.7661 182.579 71.4811ZM185.088 70.683C185.848 70.037 186.133 69.087 186.133 67.2629C186.095 64.8498 185.259 63.5577 183.719 63.5577C182.161 63.5577 181.116 65.5908 181.363 68.0799C181.496 69.315 182.123 70.645 182.693 70.93C183.453 71.3101 184.461 71.196 185.088 70.683Z" fill="white"/>
<path d="M144.615 71.3102C144.425 70.6832 144.501 70.5882 145.242 70.5882C146.534 70.5882 146.838 69.9041 146.173 68.5551C145.964 68.156 145.641 67.491 145.47 67.073C145.28 66.655 145.071 66.275 145.014 66.218C144.938 66.161 144.786 65.857 144.691 65.5339C144.482 64.9449 144.482 64.9259 145.166 64.8119C146.287 64.6409 146.306 64.6599 146.724 65.6099C146.952 66.104 147.332 66.902 147.579 67.396C147.845 67.909 148.054 68.3841 148.054 68.4981C148.054 68.8021 149.024 70.2651 149.461 70.6262C149.689 70.8162 150.05 70.9682 150.297 70.9682C150.544 70.9682 150.677 71.0442 150.62 71.1582C150.525 71.3102 144.672 71.4622 144.615 71.3102Z" fill="white"/>
<path d="M151.855 71.1201C151.855 71.0251 152.026 70.9681 152.254 70.9681C152.482 70.9681 152.691 70.8161 152.748 70.5881C152.805 70.3791 152.919 70.2081 153.014 70.2081C153.109 70.2081 153.185 68.783 153.185 67.035C153.204 63.9378 153.204 63.8238 153.66 63.2728L154.135 62.7028V63.3298C154.135 64.0518 154.287 64.0708 155.332 63.5008C156.757 62.7408 157.441 62.5698 158.049 62.8358C158.676 63.1208 159.265 63.6528 159.265 63.9568C159.265 64.2038 159.911 64.0138 160.785 63.4818C161.963 62.7598 162.761 62.5698 163.369 62.8358C164.225 63.2158 164.586 63.5958 164.586 64.1278C164.586 64.3938 164.662 64.6978 164.776 64.8118C164.871 64.9069 164.985 66.3129 165.004 67.928C165.061 70.8161 165.061 70.8731 165.498 70.9301C166.467 71.0821 165.802 71.2531 164.301 71.2531C163.408 71.2531 162.685 71.1961 162.685 71.1201C162.685 71.0251 162.875 70.9681 163.084 70.9681C163.883 70.9681 163.997 70.4931 164.016 67.51C164.016 65.7619 163.94 64.6978 163.826 64.6978C163.731 64.6978 163.636 64.5458 163.636 64.3558C163.636 63.9568 162.704 63.3678 162.077 63.3678C161.849 63.3868 161.165 63.6148 160.595 63.9188L159.55 64.4318L159.493 67.282C159.436 70.6451 159.493 70.9681 160.12 70.9681C160.386 70.9681 160.595 71.0251 160.595 71.1201C160.595 71.1961 159.873 71.2531 158.98 71.2531C158.087 71.2531 157.365 71.1961 157.365 71.1201C157.365 71.0251 157.517 70.9681 157.707 70.9681C158.429 70.9681 158.505 70.6071 158.505 67.491V64.4698L157.916 63.9188C157.175 63.2348 156.719 63.2348 155.275 63.8808L154.135 64.4128V67.453C154.135 70.6831 154.211 70.9681 155.028 70.9681C155.275 70.9681 155.465 71.0251 155.465 71.1201C155.465 71.1961 154.648 71.2531 153.66 71.2531C152.672 71.2531 151.855 71.1961 151.855 71.1201Z" fill="white"/>
<path d="M175.435 70.7971L174.846 70.2461V67.0919V63.9378L174.371 63.8238C173.744 63.6718 173.782 63.5768 174.656 62.8928C175.055 62.5887 175.492 62.1327 175.625 61.9047C175.967 61.2587 176.081 61.3727 176.081 62.3607V63.2728L177.088 63.3298C177.772 63.3678 178.076 63.4628 178.076 63.6528C178.076 63.8428 177.772 63.9378 176.993 63.9758L175.891 64.0328L175.834 66.4079C175.777 69.239 176.005 70.1131 176.917 70.6261C177.259 70.8161 177.639 70.9111 177.753 70.8351C177.886 70.7591 178.266 70.5881 178.608 70.4741C179.216 70.2461 179.235 70.2461 178.912 70.6071C178.741 70.7971 178.437 70.9681 178.247 70.9681C178.057 70.9681 177.848 71.0631 177.791 71.1581C177.734 71.2721 177.297 71.3481 176.841 71.3481C176.195 71.3481 175.891 71.2341 175.435 70.7971Z" fill="white"/>
<path d="M134.279 70.6261C134.716 70.3601 134.868 70.3221 134.906 70.5121C134.944 70.6641 135.381 70.7781 136.141 70.8351C137.034 70.8731 136.901 70.9111 135.514 70.9301L133.709 70.9681L134.279 70.6261Z" fill="white"/>
<path d="M188.716 70.7781C188.868 70.6831 189.153 70.5881 189.343 70.5881C189.666 70.5881 189.685 70.3601 189.628 66.978C189.59 64.1848 189.628 63.3678 189.818 63.3678C189.932 63.3678 190.046 63.2918 190.046 63.1778C190.046 63.0828 190.274 62.9878 190.54 62.9878C190.959 62.9878 191.016 63.0638 190.959 63.5578C190.921 63.9188 191.016 64.2038 191.187 64.3179C191.415 64.4509 191.415 64.5459 191.225 64.7359C190.902 65.0589 190.902 70.1321 191.244 70.3411C191.358 70.4171 191.776 70.5881 192.137 70.7021C192.726 70.8921 192.536 70.9302 190.617 70.9492C189.134 70.9492 188.526 70.9112 188.716 70.7781Z" fill="white"/>
<path d="M136.293 67.434C136.331 67.339 136.844 66.2749 137.452 65.0778C138.042 63.8808 138.84 62.2087 139.22 61.3727C139.619 60.5366 140.17 59.3396 140.474 58.7126L141.025 57.5725L142.013 57.5915C143.21 57.6295 142.849 57.0975 145.376 62.6457C145.585 63.1398 145.775 63.5768 145.775 63.6338C145.775 63.7098 145.357 63.7478 144.844 63.7478H143.894L142.925 61.7527C142.26 60.3656 141.861 59.7576 141.633 59.7576C141.405 59.7576 140.873 60.6696 139.752 62.9498C138.308 65.8759 138.118 66.1799 137.205 66.8639C136.673 67.263 136.255 67.51 136.293 67.434Z" fill="white"/>
<path d="M193.714 64.6979C193.486 64.6029 193.201 64.3559 193.087 64.1468C192.84 63.6718 192.289 63.6338 191.871 64.0518C191.7 64.2038 191.567 64.2609 191.567 64.1658C191.567 64.0708 191.814 63.7668 192.137 63.5008C192.555 63.1208 192.897 62.9878 193.524 62.9878C194.265 62.9878 194.36 63.0448 194.645 63.6528C194.911 64.2609 194.911 64.3369 194.607 64.6029C194.246 64.9259 194.284 64.9259 193.714 64.6979Z" fill="white"/>
<path d="M87.4988 54.4185C86.7008 54.1905 86.3018 53.5824 86.3018 52.5944C86.3018 51.2643 87.5368 50.2953 88.7719 50.6563C89.1709 50.7703 89.1139 50.7893 88.4679 50.8083C87.9928 50.8273 87.4988 50.9793 87.1758 51.2263C86.7578 51.5494 86.6818 51.7584 86.6818 52.5374C86.6818 53.3164 86.7578 53.5255 87.1758 53.8485C87.4988 54.0955 87.9548 54.2475 88.4489 54.2475C88.8669 54.2475 89.1709 54.2855 89.1329 54.3235C88.9049 54.5135 88.0308 54.5705 87.4988 54.4185Z" fill="white"/>
<path d="M93.7119 52.5374C93.7119 51.2643 93.7879 50.4473 93.9019 50.4473C94.0159 50.4473 94.0919 51.2073 94.0919 52.3474V54.2474H94.947C95.422 54.2474 95.802 54.3424 95.802 54.4374C95.802 54.5515 95.327 54.6275 94.757 54.6275H93.7119V52.5374Z" fill="white"/>
<path d="M100.362 52.5374C100.362 51.2643 100.438 50.4473 100.552 50.4473C100.666 50.4473 100.742 51.2643 100.742 52.5374C100.742 53.8104 100.666 54.6275 100.552 54.6275C100.438 54.6275 100.362 53.8104 100.362 52.5374Z" fill="white"/>
<path d="M105.493 52.5374C105.493 51.3783 105.569 50.4473 105.664 50.4473C105.759 50.4473 106.348 51.2263 106.956 52.1953L108.058 53.9434L108.115 52.1953C108.191 49.7062 108.533 49.9912 108.533 52.5374C108.533 54.0764 108.476 54.6275 108.305 54.6275C108.172 54.6275 107.564 53.8104 106.956 52.8224C106.348 51.8343 105.816 51.0173 105.797 51.0173C105.759 51.0173 105.778 51.8343 105.835 52.8224C105.892 54.0954 105.854 54.6275 105.702 54.6275C105.569 54.6275 105.493 53.9624 105.493 52.5374Z" fill="white"/>
<path d="M113.093 52.5374C113.093 51.2643 113.169 50.4473 113.283 50.4473C113.397 50.4473 113.473 51.2643 113.473 52.5374C113.473 53.8104 113.397 54.6275 113.283 54.6275C113.169 54.6275 113.093 53.8104 113.093 52.5374Z" fill="white"/>
<path d="M119.23 54.4185C118.432 54.1905 118.033 53.5824 118.033 52.5944C118.033 51.2643 119.268 50.2953 120.503 50.6563C120.902 50.7703 120.845 50.7893 120.199 50.8083C119.724 50.8273 119.23 50.9793 118.907 51.2263C118.489 51.5494 118.413 51.7584 118.413 52.5374C118.413 53.3164 118.489 53.5255 118.907 53.8485C119.23 54.0955 119.686 54.2475 120.18 54.2475C120.598 54.2475 120.902 54.2855 120.864 54.3235C120.636 54.5135 119.762 54.5705 119.23 54.4185Z" fill="white"/>
<path d="M130.612 52.8794C130.669 51.9103 130.745 50.9603 130.745 50.7893C130.764 50.5993 130.878 50.4473 131.03 50.4473C131.182 50.4473 131.486 51.0933 131.828 52.1573C132.132 53.0884 132.417 53.8674 132.474 53.8674C132.531 53.8674 132.835 53.1264 133.139 52.2143C133.5 51.1693 133.842 50.5233 134.032 50.4853C134.279 50.4473 134.336 50.7513 134.412 52.4804C134.469 53.6014 134.488 54.5705 134.45 54.6085C134.279 54.7985 134.184 54.3994 134.051 52.7084L133.899 50.9223L133.253 52.6894C132.892 53.6394 132.55 54.4374 132.455 54.4374C132.379 54.4374 132.075 53.7344 131.809 52.8794C131.524 52.0053 131.22 51.2263 131.125 51.1313C131.03 51.0173 130.954 51.5303 130.954 52.3663C130.954 53.7914 130.821 54.6275 130.593 54.6275C130.536 54.6275 130.536 53.8294 130.612 52.8794Z" fill="white"/>
<path d="M139.466 52.5943C139.903 51.2833 140.264 50.5422 140.435 50.5422C140.606 50.5422 140.929 51.2263 141.347 52.4423C142.031 54.4754 142.05 54.6274 141.803 54.6274C141.727 54.6274 141.575 54.3424 141.48 54.0194C141.309 53.4494 141.233 53.3924 140.435 53.3354C139.599 53.2784 139.561 53.2974 139.39 53.8864C139.295 54.2284 139.105 54.5324 138.991 54.5704C138.839 54.6274 139.048 53.8104 139.466 52.5943ZM141.024 52.8033C141.024 52.5563 140.568 51.1123 140.454 50.9603C140.378 50.8843 140.207 51.2833 140.036 51.8723L139.751 52.9173H140.378C140.739 52.9173 141.024 52.8603 141.024 52.8033Z" fill="white"/>
<path d="M146.534 52.5374C146.534 51.3783 146.61 50.4473 146.705 50.4473C146.8 50.4473 147.389 51.2263 147.997 52.1953L149.099 53.9434L149.156 52.1953C149.232 49.7062 149.574 49.9912 149.574 52.5374C149.574 54.0764 149.517 54.6275 149.346 54.6275C149.213 54.6275 148.605 53.8104 147.997 52.8224C147.389 51.8343 146.857 51.0173 146.838 51.0173C146.8 51.0173 146.819 51.8343 146.876 52.8224C146.933 54.0954 146.895 54.6275 146.743 54.6275C146.61 54.6275 146.534 53.9624 146.534 52.5374Z" fill="white"/>
<path d="M154.477 52.5943C154.914 51.2833 155.275 50.5422 155.446 50.5422C155.617 50.5422 155.94 51.2263 156.358 52.4423C157.042 54.4754 157.061 54.6274 156.814 54.6274C156.738 54.6274 156.586 54.3424 156.491 54.0194C156.32 53.4494 156.244 53.3924 155.446 53.3354C154.61 53.2784 154.572 53.2974 154.401 53.8864C154.306 54.2284 154.116 54.5324 154.002 54.5704C153.85 54.6274 154.059 53.8104 154.477 52.5943ZM156.035 52.8033C156.035 52.5563 155.579 51.1123 155.465 50.9603C155.389 50.8843 155.218 51.2833 155.047 51.8723L154.762 52.9173H155.389C155.75 52.9173 156.035 52.8603 156.035 52.8033Z" fill="white"/>
<path d="M162.552 54.4185C161.754 54.1905 161.355 53.5824 161.355 52.5944C161.355 51.2263 162.533 50.3333 163.92 50.6563C164.414 50.7703 164.357 50.7893 163.578 50.8083C162.343 50.8273 161.735 51.4163 161.735 52.5944C161.735 53.6964 162.286 54.2475 163.407 54.2475C164.186 54.2475 164.205 54.2285 164.205 53.5824C164.205 52.9934 164.148 52.9174 163.73 52.9174C163.464 52.9174 163.255 52.8414 163.255 52.7274C163.255 52.6324 163.559 52.5374 163.92 52.5374H164.585V53.4874C164.585 54.2665 164.528 54.4375 164.262 54.4375C164.072 54.4375 163.749 54.4755 163.54 54.5135C163.331 54.5705 162.894 54.5135 162.552 54.4185Z" fill="white"/>
<path d="M169.146 52.5374V50.4473H170.191C170.761 50.4473 171.236 50.5423 171.236 50.6373C171.236 50.7513 170.856 50.8273 170.381 50.8273H169.526V51.5873V52.3474H170.286C170.704 52.3474 171.046 52.4424 171.046 52.5374C171.046 52.6514 170.704 52.7274 170.286 52.7274H169.526V53.4874V54.2474H170.381C170.856 54.2474 171.236 54.3424 171.236 54.4374C171.236 54.5515 170.761 54.6275 170.191 54.6275H169.146V52.5374Z" fill="white"/>
<path d="M175.834 52.8794C175.891 51.9103 175.967 50.9603 175.967 50.7893C175.986 50.5993 176.1 50.4473 176.252 50.4473C176.404 50.4473 176.708 51.0933 177.05 52.1573C177.354 53.0884 177.639 53.8674 177.696 53.8674C177.753 53.8674 178.057 53.1264 178.361 52.2143C178.722 51.1693 179.064 50.5233 179.254 50.4853C179.501 50.4473 179.558 50.7513 179.634 52.4804C179.691 53.6014 179.71 54.5705 179.672 54.6085C179.501 54.7985 179.406 54.3994 179.273 52.7084L179.121 50.9223L178.475 52.6894C178.114 53.6394 177.772 54.4374 177.677 54.4374C177.601 54.4374 177.297 53.7344 177.031 52.8794C176.746 52.0053 176.442 51.2263 176.347 51.1313C176.252 51.0173 176.176 51.5303 176.176 52.3663C176.176 53.7914 176.043 54.6275 175.815 54.6275C175.758 54.6275 175.758 53.8294 175.834 52.8794Z" fill="white"/>
<path d="M184.536 52.5374V50.4473H185.581C186.151 50.4473 186.626 50.5423 186.626 50.6373C186.626 50.7513 186.246 50.8273 185.771 50.8273H184.916V51.5873V52.3474H185.676C186.094 52.3474 186.436 52.4424 186.436 52.5374C186.436 52.6514 186.094 52.7274 185.676 52.7274H184.916V53.4874V54.2474H185.771C186.246 54.2474 186.626 54.3424 186.626 54.4374C186.626 54.5515 186.151 54.6275 185.581 54.6275H184.536V52.5374Z" fill="white"/>
<path d="M191.187 52.5374C191.187 51.3783 191.263 50.4473 191.358 50.4473C191.453 50.4473 192.042 51.2263 192.65 52.1953L193.752 53.9434L193.809 52.1953C193.885 49.7062 194.227 49.9912 194.227 52.5374C194.227 54.0764 194.17 54.6275 193.999 54.6275C193.866 54.6275 193.258 53.8104 192.65 52.8224C192.042 51.8343 191.51 51.0173 191.491 51.0173C191.453 51.0173 191.472 51.8343 191.529 52.8224C191.586 54.0954 191.548 54.6275 191.396 54.6275C191.263 54.6275 191.187 53.9624 191.187 52.5374Z" fill="white"/>
<path d="M199.737 52.7274V50.8273H199.167C198.863 50.8273 198.597 50.7513 198.597 50.6373C198.597 50.5233 199.205 50.4473 200.022 50.4473C200.839 50.4473 201.447 50.5233 201.447 50.6373C201.447 50.7513 201.143 50.8273 200.782 50.8273H200.117V52.7274C200.117 53.8674 200.041 54.6275 199.927 54.6275C199.813 54.6275 199.737 53.8674 199.737 52.7274Z" fill="white"/>
<path d="M210.814 54.4945C210.073 54.3425 210.339 54.1525 211.27 54.1525C212.144 54.1525 212.182 54.1335 212.239 53.5825C212.296 53.0694 212.201 52.9554 211.46 52.5944C211.004 52.3664 210.567 52.0244 210.51 51.7964C210.301 50.9983 211.498 50.2003 212.239 50.6183C212.505 50.7703 212.429 50.8083 211.878 50.8273C211.137 50.8273 210.643 51.2264 210.814 51.6634C210.871 51.7964 211.289 52.1194 211.745 52.3664C212.391 52.7274 212.581 52.9364 212.619 53.4114C212.657 53.7345 212.562 54.0955 212.429 54.2095C212.106 54.4755 211.346 54.6085 210.814 54.4945Z" fill="white"/>
<path d="M218.358 53.7534C218.358 53.1074 218.187 52.5754 217.674 51.6633C217.294 50.9983 217.085 50.4473 217.199 50.4473C217.313 50.4473 217.655 50.9413 217.959 51.5303L218.51 52.6324L219.042 51.5303C219.327 50.9413 219.65 50.4473 219.726 50.4473C219.973 50.4473 219.897 50.6943 219.308 51.6823C218.871 52.4044 218.738 52.8604 218.738 53.6394C218.738 54.1714 218.662 54.6275 218.548 54.6275C218.453 54.6275 218.358 54.2284 218.358 53.7534Z" fill="white"/>
<path d="M224.495 54.4945C223.754 54.3425 224.02 54.1525 224.951 54.1525C225.825 54.1525 225.863 54.1335 225.92 53.5825C225.977 53.0694 225.882 52.9554 225.141 52.5944C224.685 52.3664 224.248 52.0244 224.191 51.7964C223.982 50.9983 225.179 50.2003 225.92 50.6183C226.186 50.7703 226.11 50.8083 225.559 50.8273C224.818 50.8273 224.324 51.2264 224.495 51.6634C224.552 51.7964 224.97 52.1194 225.426 52.3664C226.072 52.7274 226.262 52.9364 226.3 53.4114C226.338 53.7345 226.243 54.0955 226.11 54.2095C225.787 54.4755 225.027 54.6085 224.495 54.4945Z" fill="white"/>
<path d="M231.658 52.7274V50.8273H231.088C230.784 50.8273 230.518 50.7513 230.518 50.6373C230.518 50.5233 231.126 50.4473 231.943 50.4473C232.76 50.4473 233.368 50.5233 233.368 50.6373C233.368 50.7513 233.064 50.8273 232.703 50.8273H232.038V52.7274C232.038 53.8674 231.962 54.6275 231.848 54.6275C231.734 54.6275 231.658 53.8674 231.658 52.7274Z" fill="white"/>
<path d="M237.738 52.5374V50.4473H238.783C239.353 50.4473 239.828 50.5423 239.828 50.6373C239.828 50.7513 239.448 50.8273 238.973 50.8273H238.118V51.5873V52.3474H238.878C239.296 52.3474 239.638 52.4424 239.638 52.5374C239.638 52.6514 239.296 52.7274 238.878 52.7274H238.118V53.4874V54.2474H238.973C239.448 54.2474 239.828 54.3424 239.828 54.4374C239.828 54.5515 239.353 54.6275 238.783 54.6275H237.738V52.5374Z" fill="white"/>
<path d="M244.427 52.8794C244.484 51.9103 244.56 50.9603 244.56 50.7893C244.579 50.5993 244.693 50.4473 244.845 50.4473C244.997 50.4473 245.301 51.0933 245.643 52.1573C245.947 53.0884 246.232 53.8674 246.289 53.8674C246.346 53.8674 246.65 53.1264 246.954 52.2143C247.315 51.1693 247.657 50.5233 247.847 50.4853C248.094 50.4473 248.151 50.7513 248.227 52.4804C248.284 53.6014 248.303 54.5705 248.265 54.6085C248.094 54.7985 247.999 54.3994 247.866 52.7084L247.714 50.9223L247.068 52.6894C246.707 53.6394 246.365 54.4374 246.27 54.4374C246.194 54.4374 245.89 53.7344 245.624 52.8794C245.339 52.0053 245.035 51.2263 244.94 51.1313C244.845 51.0173 244.769 51.5303 244.769 52.3663C244.769 53.7914 244.636 54.6275 244.408 54.6275C244.351 54.6275 244.351 53.8294 244.427 52.8794Z" fill="white"/>
<path d="M253.186 54.4945C252.445 54.3425 252.711 54.1525 253.642 54.1525C254.516 54.1525 254.554 54.1335 254.611 53.5825C254.668 53.0694 254.573 52.9554 253.832 52.5944C253.376 52.3664 252.939 52.0244 252.882 51.7964C252.673 50.9983 253.87 50.2003 254.611 50.6183C254.877 50.7703 254.801 50.8083 254.25 50.8273C253.509 50.8273 253.015 51.2264 253.186 51.6634C253.243 51.7964 253.661 52.1194 254.117 52.3664C254.763 52.7274 254.953 52.9364 254.991 53.4114C255.029 53.7345 254.934 54.0955 254.801 54.2095C254.478 54.4755 253.718 54.6085 253.186 54.4945Z" fill="white"/>
</svg>
