<svg width="24" height="24" viewBox="0 0 24 24" fill="none" xmlns="http://www.w3.org/2000/svg">
<g id="facebook-icon-circle-seeklogo.com 1" clip-path="url(#clip0_2025_1070)">
<path id="Vector" d="M20.4856 20.4853C25.1719 15.799 25.1719 8.20101 20.4856 3.51472C15.7993 -1.17157 8.20136 -1.17157 3.51507 3.51472C-1.17123 8.20101 -1.17123 15.799 3.51507 20.4853C8.20136 25.1716 15.7993 25.1716 20.4856 20.4853Z" fill="white"/>
<path id="Vector_2" fill-rule="evenodd" clip-rule="evenodd" d="M10.1193 15.6211C10.1193 14.4978 10.1148 13.3751 10.1231 12.2524C10.1243 12.0634 10.0711 12.0038 9.88204 12.0114C9.53191 12.0254 9.18115 12.0102 8.83103 12.0178C8.68895 12.0216 8.63694 11.9822 8.63821 11.8319C8.64518 11.131 8.64455 10.4302 8.63884 9.72927C8.63757 9.59417 8.67817 9.5504 8.81454 9.55294C9.17291 9.56118 9.53191 9.54279 9.88965 9.56055C10.0971 9.5707 10.1396 9.49712 10.1357 9.30493C10.1231 8.7715 10.1231 8.23744 10.1351 7.704C10.1491 7.0526 10.3241 6.44432 10.7123 5.91469C11.2032 5.24426 11.9016 4.93726 12.7065 4.90174C13.5336 4.86495 14.3626 4.88525 15.191 4.87637C15.3064 4.8751 15.3407 4.91633 15.3407 5.0286C15.3369 5.73709 15.3362 6.44622 15.3407 7.15472C15.3419 7.28094 15.3007 7.31963 15.177 7.31709C14.7787 7.31075 14.3804 7.31392 13.9827 7.31519C13.4524 7.31709 13.1353 7.58983 13.1023 8.11439C13.0757 8.53492 13.0953 8.95798 13.0852 9.37978C13.0814 9.53011 13.1708 9.51996 13.2704 9.51996C13.8755 9.51932 14.4812 9.52567 15.0863 9.51552C15.2639 9.51235 15.3223 9.55357 15.302 9.74005C15.2259 10.4441 15.1605 11.1494 15.1003 11.8554C15.0863 12.0146 15.014 12.045 14.8707 12.0425C14.3931 12.0349 13.9154 12.0374 13.4372 12.0406C13.094 12.0425 13.1277 11.9905 13.1277 12.3406C13.1258 14.5384 13.1232 16.7368 13.1327 18.9346C13.134 19.1668 13.0744 19.2245 12.8448 19.22C12.0246 19.2048 11.2039 19.2042 10.3838 19.22C10.1529 19.2245 10.1148 19.1465 10.1167 18.9403C10.1256 17.8335 10.1212 16.7267 10.1212 15.6192L10.1193 15.6211Z" fill="#102057"/>
</g>
<defs>
<clipPath id="clip0_2025_1070">
<rect width="24" height="23.9994" fill="white"/>
</clipPath>
</defs>
</svg>
