<svg width="16" height="16" viewBox="0 0 16 16" fill="none" xmlns="http://www.w3.org/2000/svg">
<g clip-path="url(#clip0_1359_478)">
<path d="M13.658 13.6572C16.7823 10.533 16.7823 5.46752 13.658 2.34324C10.5337 -0.781037 5.46829 -0.781037 2.34402 2.34324C-0.780261 5.46752 -0.780261 10.533 2.34402 13.6572C5.46829 16.7815 10.5337 16.7815 13.658 13.6572Z" fill="#C81719"/>
<path fill-rule="evenodd" clip-rule="evenodd" d="M6.74669 10.4144C6.74669 9.66546 6.74373 8.91698 6.74922 8.16851C6.75007 8.0425 6.71455 8.00275 6.58853 8.00782C6.35511 8.01712 6.12127 8.00697 5.88784 8.01205C5.79312 8.01459 5.75845 7.98837 5.75929 7.88815C5.76394 7.42088 5.76352 6.95361 5.75972 6.48635C5.75887 6.39628 5.78593 6.3671 5.87685 6.36879C6.11577 6.37429 6.35511 6.36202 6.59361 6.37386C6.73189 6.38063 6.76022 6.33158 6.75768 6.20345C6.74922 5.84782 6.74922 5.49177 6.75726 5.13613C6.76656 4.70185 6.88327 4.29632 7.14207 3.94323C7.46936 3.49626 7.93494 3.29159 8.47156 3.26791C9.02298 3.24338 9.57566 3.25692 10.1279 3.251C10.2049 3.25015 10.2277 3.27764 10.2277 3.35248C10.2252 3.82483 10.2248 4.29759 10.2277 4.76993C10.2286 4.85408 10.2011 4.87988 10.1186 4.87819C9.85306 4.87396 9.5875 4.87607 9.32237 4.87692C8.96885 4.87819 8.75742 5.06002 8.73543 5.40973C8.71767 5.69009 8.73078 5.97214 8.72401 6.25335C8.72147 6.35357 8.7811 6.3468 8.84749 6.3468C9.2509 6.34638 9.65474 6.35061 10.0582 6.34384C10.1766 6.34173 10.2155 6.36921 10.2019 6.49354C10.1512 6.96292 10.1076 7.43315 10.0675 7.9038C10.0582 8.00993 10.0099 8.03023 9.91438 8.02854C9.59596 8.02347 9.27754 8.02516 8.9587 8.02727C8.72993 8.02854 8.75234 7.99387 8.75234 8.22729C8.75107 9.69252 8.74938 11.1582 8.75572 12.6234C8.75657 12.7782 8.71682 12.8167 8.56374 12.8137C8.01698 12.8035 7.46979 12.8031 6.92302 12.8137C6.7691 12.8167 6.74373 12.7646 6.74499 12.6272C6.75091 11.8893 6.74795 11.1514 6.74795 10.4131L6.74669 10.4144Z" fill="#F2F0F0"/>
</g>
<defs>
<clipPath id="clip0_1359_478">
<rect width="16.0004" height="16" fill="white" transform="translate(0.000488281)"/>
</clipPath>
</defs>
</svg>
