<svg width="352" height="322" viewBox="0 0 352 322" fill="none" xmlns="http://www.w3.org/2000/svg">
<g clip-path="url(#clip0_1133_6666)">
<path d="M33.9847 636C-141.349 636 -284 493.349 -284 317.985C-284 142.62 -141.349 0 33.9847 0C209.319 0 352 142.651 352 317.985C352 493.319 209.349 636 33.9847 636ZM33.9847 6.14344C-137.97 6.14344 -277.857 146.03 -277.857 317.985C-277.857 489.94 -137.97 629.857 33.9847 629.857C205.94 629.857 345.857 489.97 345.857 317.985C345.857 146.03 205.94 6.14344 33.9847 6.14344Z" fill="#0B315E" fill-opacity="0.16"/>
<path d="M33.9843 583.996C-112.69 583.996 -231.996 464.659 -231.996 318.015C-231.996 171.341 -112.66 52.0349 33.9843 52.0349C180.659 52.0349 299.965 171.371 299.965 318.015C299.995 464.659 180.659 583.996 33.9843 583.996ZM33.9843 73.0455C-101.079 73.0455 -210.955 182.921 -210.955 317.985C-210.955 453.048 -101.079 562.924 33.9843 562.924C169.048 562.924 278.923 453.048 278.923 317.985C278.923 182.921 169.048 73.0455 33.9843 73.0455Z" fill="#6404F8"/>
<path d="M33.985 531.961C-83.9998 531.961 -179.991 435.97 -179.991 317.985C-179.991 200 -83.9998 104.009 33.985 104.009C151.97 104.009 247.961 200 247.961 317.985C247.961 435.97 151.97 531.961 33.985 531.961ZM33.985 110.152C-80.621 110.152 -173.848 203.379 -173.848 317.985C-173.848 432.591 -80.621 525.817 33.985 525.817C148.591 525.817 241.818 432.591 241.818 317.985C241.818 203.379 148.591 110.152 33.985 110.152Z" fill="#0B315E" fill-opacity="0.16"/>
<path d="M33.9846 479.956C-55.3103 479.956 -127.987 407.31 -127.987 317.985C-127.987 228.659 -55.3411 156.013 33.9846 156.013C123.31 156.013 195.956 228.659 195.956 317.985C195.956 407.31 123.31 479.956 33.9846 479.956ZM33.9846 162.187C-51.9314 162.187 -121.844 232.099 -121.844 318.015C-121.844 403.931 -51.9314 473.844 33.9846 473.844C119.901 473.844 189.813 403.931 189.813 318.015C189.813 232.099 119.931 162.187 33.9846 162.187Z" fill="#0B315E" fill-opacity="0.16"/>
<path d="M33.9848 427.952C-26.651 427.952 -75.9521 378.62 -75.9521 317.985C-75.9521 257.349 -26.6203 208.048 33.9848 208.048C94.6206 208.048 143.952 257.379 143.952 317.985C143.952 378.62 94.6206 427.952 33.9848 427.952ZM33.9848 214.191C-23.2414 214.191 -69.8087 260.758 -69.8087 317.985C-69.8087 375.211 -23.2414 421.809 33.9848 421.809C91.211 421.809 137.809 375.241 137.809 317.985C137.809 260.728 91.2417 214.191 33.9848 214.191Z" fill="#0B315E" fill-opacity="0.16"/>
<path d="M33.9845 375.948C2.03857 375.948 -23.9482 349.961 -23.9482 318.015C-23.9482 286.069 2.03857 260.083 33.9845 260.083C65.9304 260.083 91.9171 286.069 91.9171 318.015C91.9478 349.93 65.9304 375.948 33.9845 375.948ZM33.9845 266.195C5.41746 266.195 -17.8048 289.417 -17.8048 317.984C-17.8048 346.551 5.41746 369.774 33.9845 369.774C62.5515 369.774 85.7737 346.551 85.7737 317.984C85.8044 289.448 62.5515 266.195 33.9845 266.195Z" fill="#0B315E" fill-opacity="0.16"/>
</g>
<defs>
<clipPath id="clip0_1133_6666">
<rect width="636" height="322" fill="white" transform="translate(-284)"/>
</clipPath>
</defs>
</svg>
