<svg width="225" height="225" viewBox="0 0 225 225" fill="none" xmlns="http://www.w3.org/2000/svg">
<path d="M70.5128 9.27116L57.9586 15.2471L51.9827 2.69288C51.2307 1.11303 49.3152 0.433023 47.7354 1.18505C46.1555 1.93707 45.4755 3.8525 46.2275 5.43235L52.2035 17.9866L39.6492 23.9625C38.0694 24.7145 37.3894 26.6299 38.1414 28.2098C38.8935 29.7897 40.8089 30.4697 42.3888 29.7176L54.943 23.7417L60.9189 36.2959C61.6709 37.8758 63.5864 38.5558 65.1662 37.8038C66.7461 37.0517 67.4261 35.1363 66.6741 33.5565L60.6981 21.0022L73.2524 15.0263C74.8322 14.2743 75.5122 12.3589 74.7602 10.779C74.0082 9.19915 72.1135 8.52653 70.5128 9.27116Z" fill="#CF4E7F"/>
<path d="M60.7595 129.266C66.9431 131.462 70.1661 138.232 67.9708 144.416C65.7756 150.6 59.0048 153.823 52.8212 151.627C46.6376 149.432 43.4145 142.661 45.6098 136.478C47.805 130.294 54.5758 127.071 60.7595 129.266Z" fill="#FE7343"/>
<path d="M196.779 69.7102C202.963 71.9054 206.186 78.6763 203.991 84.8599C201.796 91.0435 195.025 94.2665 188.841 92.0712C182.657 89.876 179.435 83.1052 181.63 76.9216C183.818 70.7588 190.596 67.515 196.779 69.7102Z" fill="#8D14DA"/>
</svg>
