<svg width="137" height="63" viewBox="0 0 137 63" fill="none" xmlns="http://www.w3.org/2000/svg">
<path d="M119.87 37.1243L103.43 57.7348L86.98 37.1243L70.54 57.7348L54.1 37.1243L39.6 55.3034L25.09 37.1243L8.65 57.7348L-7.8 37.1243L-24.24 57.7348L-40.68 37.1243L-57 57.5836L-55.18 59.8765L-40.68 41.6974L-24.24 62.3079L-7.8 41.6974L8.65 62.3079L25.09 41.6974L39.6 59.8891L54.1 41.6974L70.54 62.3079L86.98 41.6974L103.43 62.3079L119.87 41.6974L134.38 59.8765L136.19 57.5836L119.87 37.1243Z" fill="#8714E1"/>
<path d="M119.87 0.27478L103.43 20.8853L86.9798 0.27478L70.5398 20.8853L54.0998 0.27478L41.0598 16.6272L41.0498 21.2129L54.0998 4.8479L70.5398 25.4584L86.9798 4.8479L103.43 25.4584L119.87 4.8479L134.38 23.027L136.19 20.7215L119.87 0.27478Z" fill="#FF9D00"/>
</svg>
