<svg width="307" height="225" viewBox="0 0 307 225" fill="none" xmlns="http://www.w3.org/2000/svg">
<path d="M71.5113 9.29217L58.9571 15.2804L52.9813 2.70036C52.2292 1.11726 50.3138 0.435848 48.7339 1.18942C47.154 1.94299 46.4741 3.86236 47.2261 5.44546L53.202 18.0255L40.6478 24.0137C39.0679 24.7673 38.3879 26.6867 39.14 28.2698C39.892 29.8529 41.8075 30.5343 43.3873 29.7807L55.9415 23.7925L61.9174 36.3725C62.6694 37.9556 64.5849 38.637 66.1648 37.8835C67.7446 37.1299 68.4246 35.2105 67.6726 33.6274L61.6967 21.0474L74.2509 15.0592C75.8308 14.3056 76.5107 12.3862 75.7587 10.8031C75.0067 9.22001 73.112 8.54601 71.5113 9.29217Z" fill="#CF4E7F"/>
<path d="M271.711 172.13L259.156 178.119L253.18 165.539C252.428 163.956 250.513 163.274 248.933 164.028C247.353 164.781 246.673 166.701 247.425 168.284L253.401 180.864L240.847 186.852C239.267 187.606 238.587 189.525 239.339 191.108C240.091 192.691 242.007 193.373 243.587 192.619L256.141 186.631L262.117 199.211C262.869 200.794 264.784 201.475 266.364 200.722C267.944 199.968 268.624 198.049 267.872 196.466L261.896 183.886L274.45 177.897C276.03 177.144 276.71 175.224 275.958 173.641C275.206 172.058 273.29 171.377 271.711 172.13Z" fill="#EB635A"/>
<path d="M61.7595 129.534C67.9431 131.734 71.1661 138.519 68.9709 144.715C66.7756 150.911 60.0048 154.141 53.8212 151.941C47.6376 149.741 44.4145 142.957 46.6098 136.76C48.805 130.564 55.5758 127.334 61.7595 129.534Z" fill="#FE7343"/>
<path d="M197.779 69.8555C203.963 72.0553 207.186 78.84 204.99 85.0364C202.795 91.2328 196.024 94.4623 189.841 92.2626C183.657 90.0628 180.434 83.2781 182.629 77.0818C184.817 70.9063 191.595 67.6558 197.779 69.8555Z" fill="#8D14DA"/>
</svg>
