<svg width="279" height="303" viewBox="0 0 279 303" fill="none" xmlns="http://www.w3.org/2000/svg">
<path d="M152.386 282.307L166.175 284.094L164.388 297.883C164.163 299.618 165.404 301.228 167.139 301.453C168.874 301.678 170.484 300.437 170.709 298.702L172.496 284.914L186.285 286.701C188.02 286.926 189.63 285.685 189.855 283.95C190.08 282.215 188.839 280.604 187.104 280.38L173.315 278.593L175.102 264.804C175.327 263.069 174.087 261.459 172.351 261.234C170.616 261.009 169.006 262.249 168.781 263.985L166.994 277.773L153.206 275.986C151.47 275.761 149.86 277.002 149.636 278.737C149.411 280.472 150.638 282.065 152.386 282.307Z" fill="#CF4E7F"/>
<path d="M72.3064 37.2083L86.095 38.9953L84.308 52.7839C84.0831 54.5191 85.3237 56.1291 87.0589 56.354C88.7941 56.5789 90.4041 55.3383 90.629 53.6031L92.416 39.8145L106.205 41.6015C107.94 41.8264 109.55 40.5858 109.775 38.8506C110 37.1154 108.759 35.5054 107.024 35.2805L93.2353 33.4934L95.0223 19.7049C95.2472 17.9697 94.0065 16.3596 92.2714 16.1347C90.5362 15.9098 88.9261 17.1504 88.7012 18.8856L86.9142 32.6742L73.1256 30.8872C71.3904 30.6623 69.7803 31.9029 69.5555 33.6381C69.3306 35.3733 70.5712 36.9834 72.3064 37.2083Z" fill="#EB635A"/>
<path d="M225.652 186.777C221.647 181.58 222.611 174.143 227.809 170.138C233.006 166.133 240.443 167.097 244.448 172.294C248.453 177.492 247.489 184.929 242.292 188.934C237.094 192.939 229.657 191.975 225.652 186.777Z" fill="#FE7343"/>
<path d="M79.0742 163.055C75.0692 157.857 76.0329 150.42 81.2306 146.415C86.4284 142.41 93.8649 143.374 97.87 148.572C101.875 153.77 100.911 161.206 95.7135 165.211C90.5332 169.203 83.0792 168.252 79.0742 163.055Z" fill="#8D14DA"/>
</svg>
