<svg width="151" height="151" viewBox="0 0 151 151" fill="none" xmlns="http://www.w3.org/2000/svg">
<path d="M157 314C70.4281 314 0 243.572 0 157C0 70.4281 70.4281 0 157 0C243.572 0 314 70.4281 314 157C313.98 243.572 243.552 314 157 314ZM157 1.98363C71.5083 1.98363 1.96397 71.5279 1.96397 157.02C1.96397 242.511 71.5083 312.056 157 312.056C242.492 312.056 312.036 242.511 312.036 157.02C312.036 71.5279 242.472 1.98363 157 1.98363Z" fill="#6F12E2"/>
<path d="M157 298.839C78.7944 298.839 15.1616 235.206 15.1616 157.001C15.1616 78.7953 78.7944 15.1626 157 15.1626C235.205 15.1626 298.838 78.7953 298.838 157.001C298.838 235.226 235.205 298.839 157 298.839ZM157 19.1102C80.9548 19.1102 19.0896 80.9753 19.0896 157.02C19.0896 233.065 80.9548 294.931 157 294.931C233.045 294.931 294.91 233.065 294.91 157.02C294.91 80.9753 233.045 19.1102 157 19.1102Z" fill="#6F12E2"/>
<path d="M157 259.46C100.516 259.46 54.5591 213.504 54.5591 157.02C54.5591 100.536 100.516 54.5789 157 54.5789C213.484 54.5789 259.441 100.536 259.441 157.02C259.441 213.504 213.484 259.46 157 259.46ZM157 58.4872C102.676 58.4872 58.487 102.677 58.487 157C58.487 211.324 102.676 255.513 157 255.513C211.323 255.513 255.513 211.324 255.513 157C255.513 102.696 211.323 58.4872 157 58.4872Z" fill="#6F12E2"/>
<path d="M157 241.844C110.218 241.844 72.1562 203.782 72.1562 157C72.1562 110.218 110.218 72.1565 157 72.1565C203.782 72.1565 241.843 110.218 241.843 157C241.843 203.802 203.782 241.844 157 241.844ZM157 74.1205C111.298 74.1205 74.1202 111.298 74.1202 157C74.1202 202.702 111.298 239.88 157 239.88C202.702 239.88 239.879 202.702 239.879 157C239.879 111.318 202.702 74.1205 157 74.1205Z" fill="#6F12E2"/>
<path d="M157 209.792C127.894 209.792 104.228 186.126 104.228 157.02C104.228 127.914 127.894 104.248 157 104.248C186.106 104.248 209.772 127.914 209.772 157.02C209.772 186.106 186.086 209.792 157 209.792ZM157 108.156C130.074 108.156 108.156 130.074 108.156 157C108.156 183.926 130.074 205.844 157 205.844C183.926 205.844 205.844 183.926 205.844 157C205.844 130.074 183.926 108.156 157 108.156Z" fill="#6F12E2"/>
<path d="M157 183.239C142.545 183.239 130.781 171.475 130.781 157.02C130.781 142.565 142.545 130.781 157 130.781C171.455 130.781 183.239 142.545 183.239 157.02C183.219 171.475 171.455 183.239 157 183.239ZM157 132.745C143.625 132.745 132.745 143.625 132.745 157.02C132.745 170.414 143.625 181.275 157 181.275C170.375 181.275 181.275 170.394 181.275 157.02C181.275 143.645 170.375 132.745 157 132.745Z" fill="#6F12E2"/>
</svg>
