<svg width="279" height="304" viewBox="0 0 279 304" fill="none" xmlns="http://www.w3.org/2000/svg">
<path d="M152.541 283.128L166.33 284.915L164.543 298.703C164.318 300.439 165.559 302.049 167.294 302.273C169.029 302.498 170.639 301.258 170.864 299.523L172.651 285.734L186.44 287.521C188.175 287.746 189.785 286.505 190.01 284.77C190.235 283.035 188.994 281.425 187.259 281.2L173.47 279.413L175.257 265.624C175.482 263.889 174.241 262.279 172.506 262.054C170.771 261.829 169.161 263.07 168.936 264.805L167.149 278.594L153.36 276.807C151.625 276.582 150.015 277.822 149.79 279.558C149.565 281.293 150.793 282.885 152.541 283.128Z" fill="#CF4E7F"/>
<path d="M72.4597 38.0287L86.2483 39.8157L84.4613 53.6043C84.2364 55.3395 85.477 56.9496 87.2122 57.1744C88.9474 57.3993 90.5574 56.1587 90.7823 54.4235L92.5694 40.6349L106.358 42.4219C108.093 42.6468 109.703 41.4062 109.928 39.671C110.153 37.9358 108.912 36.3258 107.177 36.1009L93.3886 34.3139L95.1756 20.5253C95.4005 18.7901 94.1599 17.18 92.4247 16.9551C90.6895 16.7302 89.0795 17.9708 88.8546 19.706L87.0675 33.4946L73.2789 31.7076C71.5437 31.4827 69.9337 32.7233 69.7088 34.4585C69.4839 36.1937 70.7245 37.8038 72.4597 38.0287Z" fill="#EB635A"/>
<path d="M225.808 187.598C221.803 182.4 222.766 174.963 227.964 170.958C233.162 166.953 240.598 167.917 244.603 173.115C248.608 178.313 247.645 185.749 242.447 189.754C237.249 193.759 229.813 192.795 225.808 187.598Z" fill="#FE7343"/>
<path d="M79.228 163.875C75.223 158.677 76.1867 151.24 81.3844 147.235C86.5822 143.23 94.0187 144.194 98.0238 149.392C102.029 154.59 101.065 162.026 95.8673 166.031C90.687 170.023 83.233 169.073 79.228 163.875Z" fill="#8D14DA"/>
</svg>
