<svg width="24" height="24" viewBox="0 0 24 24" fill="none" xmlns="http://www.w3.org/2000/svg">
<g id="instagram-seeklogo.com 1" clip-path="url(#clip0_2025_1066)">
<path id="Vector" d="M15.5769 6.38574H8.42351C7.28102 6.38574 6.35303 7.31398 6.35303 8.45622V15.6086C6.35303 16.7511 7.28127 17.6806 8.42351 17.6806H15.5769C16.7184 17.6806 17.6479 16.7511 17.6479 15.6086V8.45622C17.6479 7.31373 16.7184 6.38574 15.5769 6.38574ZM11.9995 15.7511C9.94999 15.7511 8.28101 14.0824 8.28101 12.0327C8.28101 9.98296 9.94974 8.31422 11.9995 8.31422C14.0492 8.31422 15.7179 9.98271 15.7179 12.0327C15.7179 14.0827 14.0494 15.7511 11.9995 15.7511ZM15.8382 9.08321C15.3524 9.08321 14.9582 8.68922 14.9582 8.20347C14.9582 7.71773 15.3527 7.32348 15.8382 7.32348C16.3237 7.32348 16.7182 7.71898 16.7182 8.20347C16.7182 8.68797 16.3224 9.08321 15.8382 9.08321Z" fill="white"/>
<path id="Vector_2" d="M12 9.88611C10.817 9.88611 9.85352 10.8483 9.85352 12.0326C9.85352 13.2168 10.817 14.1801 12 14.1801C13.183 14.1801 14.1477 13.2168 14.1477 12.0326C14.1477 10.8483 13.184 9.88611 12 9.88611Z" fill="white"/>
<path id="Vector_3" d="M11.9999 0C5.37244 0 0 5.37244 0 11.9999C0 18.6273 5.37244 23.9997 11.9999 23.9997C18.6273 23.9997 24 18.6273 24 11.9999C24 5.37244 18.6271 0 11.9999 0ZM19.2188 15.6086C19.2188 17.6181 17.5853 19.251 15.5773 19.251H8.42391C6.41593 19.251 4.78145 17.6181 4.78145 15.6086V8.45616C4.78145 6.44843 6.41593 4.8137 8.42391 4.8137H15.5773C17.5853 4.8137 19.2188 6.44843 19.2188 8.45616V15.6086Z" fill="white"/>
</g>
<defs>
<clipPath id="clip0_2025_1066">
<rect width="24" height="23.9995" fill="white"/>
</clipPath>
</defs>
</svg>
