<svg width="16" height="16" viewBox="0 0 16 16" fill="none" xmlns="http://www.w3.org/2000/svg">
<g clip-path="url(#clip0_1359_474)">
<path d="M10.3847 4.25732H5.6157C4.85402 4.25732 4.23535 4.87616 4.23535 5.63767V10.4061C4.23535 11.1677 4.85419 11.7874 5.6157 11.7874H10.3847C11.1458 11.7874 11.7654 11.1677 11.7654 10.4061V5.63767C11.7654 4.876 11.1458 4.25732 10.3847 4.25732ZM7.99972 10.5011C6.63338 10.5011 5.5207 9.38854 5.5207 8.02203C5.5207 6.65552 6.63321 5.543 7.99972 5.543C9.36624 5.543 10.4787 6.65535 10.4787 8.02203C10.4787 9.38871 9.36641 10.5011 7.99972 10.5011ZM10.5589 6.05568C10.2351 6.05568 9.97225 5.79301 9.97225 5.46917C9.97225 5.14533 10.2352 4.8825 10.5589 4.8825C10.8826 4.8825 11.1456 5.14617 11.1456 5.46917C11.1456 5.79217 10.8818 6.05568 10.5589 6.05568Z" fill="#C81719"/>
<path d="M7.99986 6.59082C7.21119 6.59082 6.56885 7.23233 6.56885 8.02183C6.56885 8.81134 7.21119 9.45352 7.99986 9.45352C8.78854 9.45352 9.43171 8.81134 9.43171 8.02183C9.43171 7.23233 8.7892 6.59082 7.99986 6.59082Z" fill="#C81719"/>
<path d="M8.00008 0C3.5817 0 0 3.5817 0 8.00008C0 12.4185 3.5817 16.0002 8.00008 16.0002C12.4185 16.0002 16.0003 12.4185 16.0003 8.00008C16.0003 3.5817 12.4183 0 8.00008 0ZM12.8128 10.4059C12.8128 11.7456 11.7238 12.8343 10.3851 12.8343H5.61606C4.27738 12.8343 3.1877 11.7456 3.1877 10.4059V5.63756C3.1877 4.29904 4.27738 3.2092 5.61606 3.2092H10.3851C11.7238 3.2092 12.8128 4.29904 12.8128 5.63756V10.4059Z" fill="#C81719"/>
</g>
<defs>
<clipPath id="clip0_1359_474">
<rect width="16.0003" height="16" fill="white"/>
</clipPath>
</defs>
</svg>
