<svg width="558" height="493" viewBox="0 0 558 493" fill="none" xmlns="http://www.w3.org/2000/svg">
<g clip-path="url(#clip0_1044_15129)">
<path d="M385.272 81.0672C393.861 89.6328 393.861 103.52 385.272 112.085C376.681 120.651 362.754 120.65 354.166 112.085C345.576 103.52 345.576 89.6339 354.166 81.0672C362.756 72.5028 376.681 72.5017 385.272 81.0672ZM339.254 76.6748C336.708 80.5408 334.996 84.7863 334.084 89.1653L327.089 89.8219V103.33L334.084 103.987C334.995 108.365 336.708 112.612 339.254 116.478L334.786 121.858L344.365 131.41L349.761 126.955C353.638 129.494 357.895 131.201 362.287 132.11L362.945 139.085L376.491 139.084L377.15 132.11C381.542 131.201 385.8 129.494 389.677 126.955L395.073 131.41L404.651 121.858L400.184 116.478C402.73 112.612 404.442 108.366 405.353 103.987L412.347 103.33L412.348 89.8219L405.353 89.1653C404.442 84.7863 402.729 80.5408 400.183 76.6759L404.651 71.2942L395.073 61.7427L389.676 66.1974C385.799 63.6601 381.541 61.9519 377.151 61.0427L376.491 54.0675L362.945 54.0686L362.287 61.0427C357.895 61.9519 353.638 63.659 349.761 66.1974L344.365 61.7416L334.786 71.2942L339.254 76.6748Z" fill="#EDEDEB"/>
<path d="M301.187 83.9751H205.536C202.493 83.9751 200.026 81.5157 200.026 78.4821V5.49525C200.026 2.46165 202.493 0.00228119 205.536 0.00228119H301.187C304.23 0.00228119 306.696 2.46165 306.696 5.49525V78.4821C306.696 81.5157 304.23 83.9751 301.187 83.9751Z" fill="#E2E2E0"/>
<path d="M306.696 14.645H200.026V5.15136C200.026 2.30805 202.339 0.00224018 205.19 0.00224018H301.623C304.425 0.00224018 306.696 2.26689 306.696 5.06013V14.645Z" fill="#DADBD8"/>
<path d="M297.835 11.5879C296.065 11.5879 294.629 10.1557 294.629 8.3907C294.629 6.62573 296.065 5.19465 297.835 5.19465C299.605 5.19465 301.04 6.62573 301.04 8.3907C301.04 10.1557 299.605 11.5879 297.835 11.5879Z" fill="#EAEAE7"/>
<path d="M288.725 11.5879C286.954 11.5879 285.519 10.1557 285.519 8.3907C285.519 6.62573 286.954 5.19465 288.725 5.19465C290.495 5.19465 291.93 6.62573 291.93 8.3907C291.93 10.1557 290.495 11.5879 288.725 11.5879Z" fill="#EAEAE7"/>
<path d="M279.614 11.5879C277.844 11.5879 276.409 10.1557 276.409 8.3907C276.409 6.62573 277.844 5.19465 279.614 5.19465C281.385 5.19465 282.82 6.62573 282.82 8.3907C282.82 10.1557 281.385 11.5879 279.614 11.5879Z" fill="#EAEAE7"/>
<path d="M224.512 29.8665H281.584V26.8857H224.512V29.8665Z" fill="#F3F2F1"/>
<path d="M266.237 36.3154H225.402V33.3341H266.237V36.3154Z" fill="#DADBD8"/>
<path d="M297.065 29.8665H286.636V26.8863H297.065V29.8665Z" fill="#EDEDEB"/>
<path d="M220.55 29.8665H209.323V26.8863H220.55V29.8665Z" fill="#EDEDEB"/>
<path d="M281.584 43.4788H224.512V40.4986H281.584V43.4788Z" fill="#EDEDEB"/>
<path d="M286.636 43.4788H297.065V40.4984H286.636V43.4788Z" fill="#F3F2F1"/>
<path d="M220.55 43.4788H209.323V40.4986H220.55V43.4788Z" fill="#EDEDEB"/>
<path d="M281.584 71.8574H269.352V68.8772H281.584V71.8574ZM269.073 71.8574H224.512V68.8772H269.073V71.8574Z" fill="#F3F2F1"/>
<path d="M297.065 71.8574H287.439V68.8772H297.065V71.8574ZM287.16 71.8574H286.636V68.8772H287.16V71.8574Z" fill="#F3F2F1"/>
<path d="M281.584 50.6555H224.512V47.6753H281.584V50.6555Z" fill="#EDEDEB"/>
<path d="M297.065 50.6555H286.636V47.6753H297.065V50.6555Z" fill="#DADBD8"/>
<path d="M220.55 50.6555H209.323V47.6753H220.55V50.6555Z" fill="#DADBD8"/>
<path d="M297.835 36.4321H270.708V33.452H297.835V36.4321Z" fill="#EDEDEB"/>
<path d="M224.512 56.9141H265.349V53.9333H224.512V56.9141Z" fill="#F3F2F1"/>
<path d="M296.945 57.0308H269.82V54.0506H296.945V57.0308Z" fill="#EDEDEB"/>
<path d="M244.931 63.3931H224.512V60.4129H244.931V63.3931Z" fill="#DADBD8"/>
<path d="M446.737 59.0195L434.648 64.6494L446.737 70.2792V74.8174L430.584 67.0064V62.2923L446.737 54.4802V59.0195Z" fill="#DADBD8"/>
<path d="M483.526 62.2923V67.0064L467.373 74.8174V70.2792L479.46 64.6494L467.373 59.0195V54.4802L483.526 62.2923Z" fill="#DADBD8"/>
<path d="M459.88 51.3199L452.003 78.4666H455.942L463.819 51.3199H459.88Z" fill="#DADBD8"/>
<path d="M68.5667 206.9C73.583 211.902 73.5834 220.013 68.5667 225.017C63.5495 230.019 55.4153 230.019 50.399 225.017C45.3818 220.013 45.3818 211.903 50.399 206.9C55.4157 201.897 63.5495 201.897 68.5667 206.9ZM41.6894 204.335C40.2028 206.592 39.2027 209.072 38.67 211.63L34.5848 212.013L34.5845 219.903L38.6705 220.287C39.2023 222.843 40.2028 225.324 41.6894 227.582L39.0798 230.724L44.6747 236.303L47.826 233.701C50.0903 235.184 52.5773 236.181 55.142 236.712L55.5269 240.786H63.4382L63.8232 236.712C66.3882 236.181 68.8748 235.184 71.1391 233.701L74.291 236.303L79.8853 230.724L77.2763 227.582C78.7628 225.324 79.7628 222.844 80.295 220.286L84.3798 219.902L84.3807 212.013L80.295 211.629C79.7628 209.072 78.7623 206.592 77.2758 204.335L79.8853 201.192L74.2905 195.613L71.1391 198.215C68.8744 196.733 66.3873 195.736 63.8232 195.205L63.4382 191.131H55.5269L55.142 195.205C52.5773 195.736 50.0903 196.733 47.8265 198.215L44.6747 195.613L39.0798 201.192L41.6894 204.335Z" fill="#DADBD8"/>
<path d="M512.361 114.626C516.526 118.779 516.527 125.514 512.361 129.667C508.196 133.821 501.442 133.82 497.278 129.667C493.112 125.514 493.112 118.78 497.278 114.626C501.443 110.473 508.196 110.473 512.361 114.626ZM490.047 112.496C488.812 114.371 487.982 116.43 487.54 118.553L484.149 118.872L484.147 125.422L487.54 125.741C487.982 127.863 488.812 129.922 490.047 131.797L487.88 134.407L492.525 139.038L495.142 136.878C497.022 138.108 499.086 138.937 501.216 139.378L501.535 142.76H508.103L508.424 139.378C510.553 138.936 512.618 138.108 514.497 136.878L517.114 139.038L521.759 134.407L519.593 131.797C520.827 129.922 521.657 127.863 522.099 125.74L525.491 125.422V118.872L522.099 118.553C521.657 116.43 520.827 114.371 519.593 112.497L521.759 109.888L517.114 105.256L514.497 107.416C512.618 106.185 510.552 105.357 508.424 104.916L508.103 101.533L501.535 101.535L501.216 104.916C499.086 105.357 497.022 106.185 495.142 107.416L492.525 105.256L487.88 109.888L490.047 112.496Z" fill="#DADBD8"/>
<path d="M486.306 436.504H525.196V436.797H486.306V436.504Z" fill="#E7E8E5"/>
<path d="M375.641 439.681H385.848V439.974H375.641V439.681Z" fill="#E7E8E5"/>
<path d="M462.597 425.632H485.131V425.925H462.597V425.632Z" fill="#E7E8E5"/>
<path d="M58.5444 427.892H109.259V427.599H58.5444V427.892Z" fill="#E7E8E5"/>
<path d="M119.713 427.892H127.149V427.599H119.713V427.892Z" fill="#E7E8E5"/>
<path d="M151.315 432.835H261.303V432.543H151.315V432.835Z" fill="#E7E8E5"/>
<path d="M293.702 44.7017C290.249 44.7017 287.439 47.5038 287.439 50.947V343.928C287.439 347.372 290.249 350.173 293.702 350.173H495.415C498.869 350.173 501.679 347.372 501.679 343.928V50.947C501.679 47.5038 498.869 44.7017 495.415 44.7017H293.702ZM495.415 350.452H293.702C290.095 350.452 287.16 347.526 287.16 343.928V50.947C287.16 47.3492 290.095 44.4235 293.702 44.4235H495.415C499.023 44.4235 501.958 47.3492 501.958 50.947V343.928C501.958 347.526 499.023 350.452 495.415 350.452Z" fill="#DADBD8"/>
<path d="M61.0968 44.7017C57.6438 44.7017 54.8342 47.5038 54.8342 50.947V343.928C54.8342 347.372 57.6438 350.173 61.0968 350.173H262.81C266.263 350.173 269.073 347.372 269.073 343.928V50.947C269.073 47.5038 266.263 44.7017 262.81 44.7017H61.0968ZM262.81 350.452H61.0968C57.4895 350.452 54.5552 347.526 54.5552 343.928V50.947C54.5552 47.3492 57.4895 44.4235 61.0968 44.4235H262.81C266.417 44.4235 269.352 47.3492 269.352 50.947V343.928C269.352 347.526 266.417 350.452 262.81 350.452Z" fill="#DADBD8"/>
<path d="M0 418.691H558V418.413H0V418.691Z" fill="#DADBD8"/>
<path d="M507.845 459.89C507.845 463.659 403.48 466.715 274.74 466.715C146 466.715 41.6353 463.659 41.6353 459.89C41.6353 456.121 146 453.066 274.74 453.066C403.48 453.066 507.845 456.121 507.845 459.89Z" fill="#F3F2F1"/>
<path d="M131.85 355.344H103.479C98.9708 355.344 95.3154 351.699 95.3154 347.202V106.709C95.3154 101.113 99.8654 96.5758 105.478 96.5758H131.85V355.344Z" fill="#17282F"/>
<path d="M240.629 350.877L229.021 410.18H245.865L259.299 351.374L240.629 350.877Z" fill="#17282F"/>
<path d="M214.86 417.981H223.389V409.478H214.86V417.981Z" fill="#17282F"/>
<mask id="mask0_1044_15129" style="mask-type:luminance" maskUnits="userSpaceOnUse" x="95" y="154" width="9" height="178">
<path d="M95.3154 331.973V154.497H103.999V314.613C103.351 319.101 102.423 323.949 101.745 327.557L101.268 327.112L96.315 331.521L96.2885 331.532C96.0251 331.616 95.5011 331.878 95.3154 331.973Z" fill="white"/>
</mask>
<g mask="url(#mask0_1044_15129)">
<path d="M95.3154 331.973H103.999V154.497H95.3154V331.973Z" fill="#849193"/>
</g>
<path d="M239.671 409.478H229.159L239.753 355.344H248.893L245.865 373.049L245.901 373.046L239.671 409.478Z" fill="#849193"/>
<path d="M221.005 417.981H214.86V409.478H223.389H221.005V417.981Z" fill="#849193"/>
<path d="M346.382 417.981H238.217L253.586 328.116H325.566L346.382 417.981Z" fill="#17282F"/>
<path d="M344.412 409.478H239.671L245.902 373.046L334.252 365.769L331.837 355.344H331.873L344.412 409.478Z" fill="#B1BABA"/>
<path d="M245.865 373.049L248.894 355.344H248.929L245.902 373.046L245.865 373.049Z" fill="#737F83"/>
<path d="M245.902 373.046L248.93 355.344H331.837L334.252 365.769L245.902 373.046Z" fill="#9DA5A6"/>
<path d="M221.005 417.981H361.208V409.478H221.005V417.981Z" fill="#17282F"/>
<path d="M221.005 417.981H361.208V409.478H221.005V417.981Z" fill="#B1BABA"/>
<path d="M112.974 96.5758H463.663C468.62 96.5758 472.637 100.648 472.637 105.67V346.25C472.637 351.272 468.62 355.344 463.663 355.344H456.23H120.406H112.974C108.017 355.344 103.999 351.272 103.999 346.25V105.67C103.999 100.648 108.017 96.5758 112.974 96.5758Z" fill="#17282F"/>
<path d="M401.752 355.344H152.298C150.215 348.754 147.202 341.08 143.634 337.469H401.752V355.344ZM103.999 314.613V154.497H112.213V311.175L106.307 303.766L106.299 303.824C106.296 305.392 106.246 307.184 106.116 309.096L104.691 308.432C104.57 310.277 104.319 312.4 103.999 314.613ZM472.637 301.756H462.834V260.891H472.637V301.756ZM472.637 156.946H462.834V124.103H462.839V105.482H462.834H182.773V96.5758H456.23H463.663C468.62 96.5758 472.637 100.648 472.637 105.67V156.946Z" fill="#B1BABA"/>
<path d="M112.213 337.469H462.834V105.482H112.213V337.469Z" fill="#6F12E2"/>
<path d="M401.752 337.469H143.634C142.532 336.355 141.378 335.627 140.182 335.437L140.178 335.2L122.615 331.592L121.797 331.418C121.819 331.279 121.842 331.203 121.865 331.203C121.866 331.203 121.866 331.203 121.867 331.203L117.213 328.028C117.246 327.273 117.37 326.6 117.552 325.952L117.5 325.912C117.901 324.059 118.658 322.178 119.531 320.356L112.213 311.175V154.497H177.263C180.307 154.497 182.773 152.038 182.773 149.004V124.103H462.839L462.834 156.946H400.582H400.237C397.385 156.946 395.073 159.252 395.073 162.095V162.439V255.398C395.073 258.432 397.539 260.891 400.582 260.891H462.834V301.756H401.752V337.469ZM200.366 309.932C201.409 310.615 202.554 311.075 203.736 311.319L203.913 313.196H207.559L207.737 311.32C208.919 311.074 210.065 310.615 211.107 309.932L212.56 311.13L215.138 308.56L213.936 307.112C214.62 306.072 215.081 304.929 215.327 303.75L217.21 303.573V299.939L215.327 299.762C215.081 298.583 214.62 297.44 213.935 296.4L215.138 294.952L212.56 292.381L211.107 293.58C210.064 292.897 208.919 292.437 207.737 292.193L207.559 290.316H203.913L203.736 292.193C202.554 292.438 201.409 292.897 200.366 293.58L198.913 292.381L196.335 294.952L197.538 296.4C196.853 297.44 196.392 298.583 196.146 299.762L194.263 299.939V303.573L196.146 303.75C196.392 304.929 196.853 306.072 197.538 307.112L196.335 308.56L198.913 311.13L200.366 309.932ZM181.948 282.559C183.692 283.7 185.607 284.468 187.581 284.876L187.877 288.013H193.968L194.265 284.877C196.239 284.468 198.154 283.7 199.897 282.559L202.323 284.563L206.63 280.267L204.622 277.848C205.766 276.109 206.536 274.201 206.946 272.231L210.091 271.936V265.862L206.946 265.566C206.536 263.598 205.766 261.689 204.621 259.951L206.63 257.53L202.323 253.236L199.897 255.239C198.154 254.098 196.239 253.331 194.265 252.921L193.968 249.785H187.877L187.581 252.921C185.607 253.331 183.692 254.097 181.948 255.239L179.522 253.236L175.216 257.53L177.224 259.951C176.079 261.689 175.309 263.598 174.9 265.567L171.754 265.862V271.936L174.9 272.232C175.309 274.2 176.079 276.109 177.224 277.848L175.216 280.268L179.522 284.563L181.948 282.559ZM361.407 206.566C363.022 207.623 364.795 208.334 366.624 208.712L366.897 211.618H372.539L372.814 208.713C374.644 208.334 376.416 207.623 378.031 206.566L380.278 208.422L384.268 204.443L382.407 202.202C383.467 200.592 384.18 198.824 384.559 197.001L387.473 196.727V191.102L384.559 190.828C384.18 189.004 383.467 187.236 382.407 185.625L384.268 183.384L380.278 179.407L378.031 181.262C376.416 180.205 374.642 179.494 372.814 179.115L372.54 176.21L366.897 176.211L366.624 179.115C364.795 179.494 363.022 180.205 361.407 181.262L359.159 179.407L355.171 183.384L357.031 185.625C355.971 187.236 355.258 189.004 354.878 190.828L351.964 191.102V196.727L354.878 197.001C355.258 198.824 355.971 200.592 357.031 202.202L355.171 204.443L359.159 208.422L361.407 206.566ZM352.875 168.024C353.918 168.706 355.064 169.165 356.246 169.41L356.423 171.287H360.069L360.246 169.41C361.428 169.165 362.574 168.706 363.618 168.024L365.069 169.222L367.647 166.651L366.445 165.204C367.131 164.163 367.59 163.02 367.836 161.842L369.719 161.665V158.029L367.836 157.852C367.59 156.675 367.13 155.532 366.445 154.491L367.647 153.044L365.069 150.473L363.618 151.671C362.574 150.988 361.428 150.529 360.246 150.284L360.069 148.406L356.423 148.407L356.246 150.284C355.064 150.529 353.918 150.988 352.875 151.671L351.423 150.473L348.845 153.044L350.047 154.491C349.362 155.532 348.901 156.674 348.655 157.853L346.774 158.029V161.665L348.656 161.842C348.901 163.02 349.362 164.163 350.047 165.204L348.845 166.651L351.423 169.222L352.875 168.024ZM205.737 306.487C204.522 306.487 203.309 306.025 202.382 305.101C201.455 304.177 200.992 302.967 200.992 301.756C200.992 300.545 201.456 299.334 202.382 298.411C203.309 297.487 204.523 297.025 205.737 297.025C206.951 297.025 208.164 297.487 209.092 298.411C210.018 299.334 210.481 300.545 210.481 301.756C210.481 302.967 210.018 304.177 209.092 305.101C208.165 306.025 206.95 306.487 205.737 306.487ZM190.922 276.803C188.893 276.803 186.865 276.031 185.318 274.488C183.77 272.944 182.996 270.922 182.996 268.899C182.996 266.876 183.77 264.854 185.318 263.311C186.865 261.767 188.894 260.995 190.923 260.995C192.951 260.995 194.98 261.767 196.528 263.311C198.076 264.853 198.849 266.876 198.849 268.899C198.849 270.922 198.076 272.944 196.528 274.488C194.98 276.031 192.951 276.803 190.922 276.803ZM369.719 201.235C367.839 201.235 365.961 200.521 364.527 199.091C363.094 197.661 362.378 195.788 362.378 193.914C362.378 192.041 363.094 190.167 364.528 188.738C365.961 187.308 367.84 186.593 369.719 186.593C371.598 186.593 373.476 187.308 374.91 188.738C376.343 190.167 377.061 192.041 377.061 193.914C377.061 195.788 376.343 197.661 374.91 199.091C373.476 200.52 371.598 201.235 369.719 201.235ZM358.246 164.578C357.032 164.578 355.818 164.116 354.892 163.193C353.965 162.269 353.502 161.058 353.502 159.847C353.502 158.637 353.965 157.426 354.892 156.502C355.818 155.579 357.032 155.117 358.246 155.117C359.46 155.117 360.675 155.579 361.601 156.502C362.527 157.426 362.99 158.637 362.99 159.847C362.99 161.058 362.527 162.269 361.601 163.193C360.675 164.116 359.46 164.578 358.246 164.578Z" fill="#E6EFFA"/>
<path d="M112.213 124.103H462.839V105.482H112.213V124.103Z" fill="#6F12E2"/>
<path d="M454.203 118.749C452.011 118.749 450.236 116.977 450.236 114.792C450.236 112.607 452.011 110.836 454.203 110.836C456.395 110.836 458.171 112.607 458.171 114.792C458.171 116.977 456.395 118.749 454.203 118.749Z" fill="#90B4E3"/>
<path d="M442.926 118.749C440.735 118.749 438.958 116.977 438.958 114.792C438.958 112.607 440.735 110.836 442.926 110.836C445.118 110.836 446.894 112.607 446.894 114.792C446.894 116.977 445.118 118.749 442.926 118.749Z" fill="#90B4E3"/>
<path d="M431.649 118.749C429.458 118.749 427.681 116.977 427.681 114.792C427.681 112.607 429.458 110.836 431.649 110.836C433.84 110.836 435.617 112.607 435.617 114.792C435.617 116.977 433.84 118.749 431.649 118.749Z" fill="#90B4E3"/>
<path d="M196.527 263.311C199.622 266.396 199.622 271.402 196.527 274.488C193.432 277.575 188.413 277.575 185.317 274.488C182.222 271.402 182.223 266.398 185.317 263.311C188.413 260.224 193.432 260.224 196.527 263.311ZM177.224 259.951C176.079 261.689 175.309 263.598 174.899 265.567L171.753 265.862V271.936L174.899 272.232C175.309 274.2 176.079 276.109 177.224 277.848L175.215 280.268L179.522 284.563L181.948 282.559C183.691 283.7 185.606 284.468 187.581 284.876L187.876 288.013H193.967L194.264 284.877C196.238 284.468 198.154 283.7 199.897 282.559L202.323 284.563L206.63 280.267L204.622 277.848C205.766 276.109 206.536 274.201 206.945 272.231L210.09 271.936V265.862L206.945 265.566C206.536 263.598 205.766 261.689 204.621 259.951L206.63 257.53L202.323 253.236L199.897 255.239C198.154 254.098 196.238 253.331 194.264 252.921L193.967 249.785H187.876L187.581 252.921C185.606 253.331 183.691 254.097 181.948 255.239L179.522 253.236L175.215 257.53L177.224 259.951Z" fill="#6F12E2"/>
<path d="M187.876 288.013L187.581 284.876C185.606 284.468 183.691 283.7 181.948 282.559L179.522 284.563L175.215 280.268L177.224 277.848C176.079 276.109 175.309 274.2 174.899 272.232L171.753 271.936V265.862L174.899 265.567C175.309 263.598 176.079 261.689 177.224 259.951L175.215 257.53L179.522 253.236L181.948 255.239C183.691 254.097 185.606 253.331 187.581 252.921L187.876 249.785H193.967L194.264 252.921C196.238 253.331 198.154 254.098 199.897 255.239L202.323 253.236L206.63 257.53L204.621 259.951C205.766 261.689 206.536 263.598 206.945 265.566L210.09 265.862V271.936L206.945 272.231C206.536 274.201 205.766 276.109 204.622 277.848L206.63 280.267L202.323 284.563L199.897 282.559C198.154 283.7 196.238 284.468 194.264 284.877L193.967 288.013H187.876ZM182.996 268.899C182.996 270.922 183.769 272.944 185.317 274.488C186.865 276.031 188.893 276.803 190.922 276.803C192.951 276.803 194.98 276.031 196.527 274.488C198.075 272.944 198.849 270.922 198.849 268.899C198.849 266.876 198.075 264.853 196.527 263.311C194.98 261.767 192.951 260.995 190.923 260.995C188.894 260.995 186.865 261.767 185.317 263.311C183.769 264.854 182.996 266.876 182.996 268.899Z" fill="#7DA6DD"/>
<path d="M374.91 188.738C377.777 191.596 377.777 196.232 374.91 199.091C372.043 201.95 367.394 201.95 364.527 199.091C361.66 196.232 361.66 191.597 364.528 188.738C367.395 185.878 372.043 185.878 374.91 188.738ZM357.03 185.625C355.97 187.236 355.257 189.004 354.878 190.828L351.964 191.102V196.727L354.878 197.001C355.257 198.824 355.97 200.592 357.03 202.202L355.17 204.443L359.159 208.422L361.406 206.566C363.021 207.623 364.795 208.334 366.624 208.712L366.897 211.618H372.538L372.814 208.713C374.643 208.334 376.415 207.623 378.03 206.566L380.278 208.422L384.268 204.443L382.406 202.202C383.466 200.592 384.179 198.824 384.559 197.001L387.473 196.727V191.102L384.559 190.828C384.179 189.004 383.466 187.236 382.406 185.625L384.268 183.384L380.278 179.407L378.03 181.262C376.415 180.205 374.642 179.494 372.814 179.115L372.54 176.21L366.897 176.211L366.624 179.115C364.795 179.494 363.021 180.205 361.406 181.262L359.159 179.407L355.17 183.384L357.03 185.625Z" fill="#6F12E2"/>
<path d="M366.897 211.618L366.624 208.712C364.795 208.334 363.021 207.623 361.406 206.566L359.159 208.422L355.17 204.443L357.03 202.202C355.97 200.592 355.257 198.824 354.878 197.001L351.964 196.727V191.102L354.878 190.828C355.257 189.004 355.97 187.236 357.03 185.625L355.17 183.384L359.159 179.407L361.406 181.262C363.021 180.205 364.795 179.494 366.624 179.115L366.897 176.211L372.54 176.21L372.814 179.115C374.642 179.494 376.415 180.205 378.03 181.262L380.278 179.407L384.268 183.384L382.406 185.625C383.466 187.236 384.179 189.004 384.559 190.828L387.473 191.102V196.727L384.559 197.001C384.179 198.824 383.466 200.592 382.406 202.202L384.268 204.443L380.278 208.422L378.03 206.566C376.415 207.623 374.643 208.334 372.814 208.713L372.538 211.618H366.897ZM362.377 193.914C362.377 195.788 363.094 197.661 364.527 199.091C365.961 200.521 367.839 201.235 369.718 201.235C371.598 201.235 373.476 200.52 374.91 199.091C376.343 197.661 377.06 195.788 377.06 193.914C377.06 192.041 376.343 190.167 374.91 188.738C373.476 187.308 371.598 186.593 369.718 186.593C367.84 186.593 365.961 187.308 364.528 188.738C363.094 190.167 362.377 192.041 362.377 193.914Z" fill="#7DA6DD"/>
<path d="M361.601 156.502C363.453 158.35 363.453 161.345 361.601 163.193C359.748 165.04 356.744 165.04 354.891 163.193C353.039 161.345 353.039 158.35 354.891 156.502C356.744 154.655 359.748 154.655 361.601 156.502ZM350.047 154.491C349.361 155.532 348.901 156.674 348.655 157.853L346.773 158.029V161.665L348.656 161.842C348.901 163.02 349.361 164.163 350.047 165.204L348.845 166.651L351.423 169.222L352.875 168.024C353.918 168.706 355.064 169.165 356.246 169.41L356.422 171.288H360.068L360.246 169.41C361.428 169.165 362.574 168.706 363.617 168.024L365.069 169.222L367.647 166.651L366.445 165.204C367.13 164.163 367.59 163.02 367.836 161.842L369.718 161.665V158.029L367.836 157.852C367.59 156.675 367.129 155.532 366.445 154.491L367.647 153.044L365.069 150.473L363.617 151.672C362.574 150.988 361.428 150.529 360.246 150.284L360.068 148.406L356.422 148.408L356.246 150.284C355.064 150.529 353.918 150.988 352.875 151.672L351.423 150.473L348.845 153.044L350.047 154.491Z" fill="#6F12E2"/>
<path d="M356.422 171.288L356.246 169.41C355.064 169.165 353.918 168.706 352.875 168.024L351.423 169.222L348.845 166.651L350.047 165.204C349.361 164.163 348.901 163.02 348.656 161.842L346.773 161.665V158.029L348.655 157.853C348.901 156.674 349.361 155.532 350.047 154.491L348.845 153.044L351.423 150.473L352.875 151.672C353.918 150.988 355.064 150.529 356.246 150.284L356.422 148.408L360.068 148.406L360.246 150.284C361.428 150.529 362.574 150.988 363.617 151.672L365.069 150.473L367.647 153.044L366.445 154.491C367.129 155.532 367.59 156.675 367.836 157.852L369.718 158.029V161.665L367.836 161.842C367.59 163.02 367.13 164.163 366.445 165.204L367.647 166.651L365.069 169.222L363.617 168.024C362.574 168.706 361.428 169.165 360.246 169.41L360.068 171.288H356.422ZM353.502 159.848C353.502 161.058 353.965 162.269 354.891 163.193C355.818 164.116 357.032 164.578 358.246 164.578C359.46 164.578 360.674 164.116 361.601 163.193C362.527 162.269 362.99 161.058 362.99 159.848C362.99 158.637 362.527 157.426 361.601 156.502C360.674 155.579 359.46 155.117 358.246 155.117C357.032 155.117 355.818 155.579 354.891 156.502C353.965 157.426 353.502 158.637 353.502 159.848Z" fill="#B8D2EF"/>
<path d="M209.091 298.411C210.943 300.258 210.944 303.254 209.091 305.101C207.238 306.949 204.235 306.949 202.382 305.101C200.528 303.254 200.528 300.258 202.382 298.411C204.235 296.564 207.238 296.564 209.091 298.411ZM197.538 296.4C196.852 297.44 196.391 298.583 196.146 299.762L194.263 299.939V303.573L196.146 303.75C196.391 304.929 196.852 306.072 197.538 307.112L196.334 308.56L198.912 311.131L200.365 309.932C201.409 310.615 202.554 311.075 203.736 311.319L203.913 313.196H207.559L207.737 311.32C208.918 311.074 210.065 310.615 211.107 309.932L212.56 311.131L215.138 308.56L213.936 307.112C214.62 306.072 215.081 304.929 215.327 303.75L217.209 303.573V299.939L215.327 299.762C215.081 298.583 214.62 297.44 213.935 296.4L215.138 294.952L212.56 292.381L211.107 293.58C210.064 292.897 208.918 292.437 207.737 292.193L207.559 290.316H203.913L203.736 292.193C202.554 292.438 201.409 292.897 200.365 293.58L198.912 292.381L196.334 294.952L197.538 296.4Z" fill="#6F12E2"/>
<path d="M203.913 313.196L203.736 311.319C202.554 311.075 201.409 310.615 200.365 309.932L198.912 311.131L196.334 308.56L197.538 307.112C196.852 306.072 196.391 304.929 196.146 303.75L194.263 303.573V299.939L196.146 299.762C196.391 298.583 196.852 297.44 197.538 296.4L196.334 294.952L198.912 292.381L200.365 293.58C201.409 292.897 202.554 292.438 203.736 292.193L203.913 290.316H207.559L207.737 292.193C208.918 292.437 210.064 292.897 211.107 293.58L212.56 292.381L215.138 294.952L213.935 296.4C214.62 297.44 215.081 298.583 215.327 299.762L217.209 299.939V303.573L215.327 303.75C215.081 304.929 214.62 306.072 213.936 307.112L215.138 308.56L212.56 311.131L211.107 309.932C210.065 310.615 208.918 311.074 207.737 311.32L207.559 313.196H203.913ZM200.992 301.756C200.992 302.967 201.455 304.178 202.382 305.101C203.308 306.025 204.521 306.487 205.737 306.487C206.95 306.487 208.165 306.025 209.091 305.101C210.018 304.178 210.481 302.967 210.481 301.756C210.481 300.545 210.018 299.334 209.091 298.411C208.164 297.487 206.951 297.025 205.737 297.025C204.523 297.025 203.308 297.487 202.382 298.411C201.456 299.334 200.992 300.545 200.992 301.756Z" fill="#B8D2EF"/>
<path d="M312.051 200.007C328.739 216.647 328.74 243.63 312.051 260.271C295.362 276.914 268.302 276.912 251.616 260.273C234.926 243.63 234.926 216.649 251.616 200.007C268.305 183.365 295.362 183.364 312.051 200.007ZM222.642 191.473C217.697 198.983 214.371 207.232 212.599 215.741L199.008 217.016L199.007 243.262L212.6 244.538C214.369 253.045 217.697 261.294 222.642 268.806L213.962 279.261L232.573 297.819L243.057 289.163C250.59 294.094 258.862 297.411 267.394 299.178L268.674 312.73L294.992 312.729L296.272 299.179C304.805 297.41 313.077 294.094 320.61 289.163L331.095 297.819L349.705 279.26L341.025 268.805C345.97 261.294 349.297 253.046 351.068 244.538L364.656 243.261L364.659 217.016L351.068 215.74C349.297 207.233 345.969 198.984 341.024 191.473L349.704 181.018L331.094 162.461L320.609 171.116C313.076 166.184 304.803 162.866 296.273 161.1L294.992 147.548L268.674 147.55L267.394 161.101C258.862 162.868 250.59 166.183 243.058 171.115L232.573 162.459L213.962 181.018L222.642 191.473Z" fill="#6F12E2"/>
<path d="M267.758 230.306L264.516 222.502L261.276 230.306H267.758ZM269.248 233.888H259.757L257.945 238.256H253.099L262.21 217.871H266.882L276.024 238.256H271.058L269.248 233.888Z" fill="#6F12E2"/>
<path d="M289.984 227.874C290.724 227.262 291.093 226.394 291.093 225.268C291.093 224.123 290.724 223.244 289.984 222.633C289.244 222.021 288.162 221.715 286.743 221.715H282.886V228.791H286.743C288.162 228.791 289.244 228.485 289.984 227.874ZM291.72 218.774C293.055 219.376 294.082 220.229 294.803 221.336C295.522 222.443 295.883 223.754 295.883 225.268C295.883 226.764 295.522 228.068 294.803 229.184C294.082 230.302 293.055 231.155 291.72 231.748C290.388 232.34 288.815 232.635 287.005 232.635H282.886V238.256H278.155V217.871H287.005C288.815 217.871 290.388 218.172 291.72 218.774Z" fill="#6F12E2"/>
<path d="M299.242 217.871H303.973V238.256H299.242V217.871Z" fill="#6F12E2"/>
<path d="M243.051 235.539C242.768 235.539 242.526 235.325 242.497 235.039C241.308 223.406 244.706 212.271 252.065 203.683C252.265 203.45 252.618 203.422 252.851 203.622C253.085 203.821 253.113 204.173 252.913 204.407C245.754 212.761 242.449 223.599 243.607 234.927C243.637 235.231 243.414 235.505 243.108 235.536L243.051 235.539Z" fill="#6F12E2"/>
<path d="M244.935 244.33C244.693 244.33 244.471 244.172 244.4 243.929C243.943 242.378 243.568 240.79 243.285 239.208C243.23 238.905 243.432 238.616 243.736 238.562C244.041 238.51 244.328 238.709 244.383 239.012C244.66 240.554 245.026 242.104 245.471 243.617C245.557 243.912 245.387 244.221 245.092 244.307L244.935 244.33Z" fill="#6F12E2"/>
<path d="M142.655 172.01V227.721C142.655 227.868 142.715 228.011 142.819 228.115C142.923 228.218 143.067 228.277 143.213 228.277H190.922C191.231 228.277 191.48 228.028 191.48 227.721C191.48 227.414 191.231 227.164 190.922 227.164H143.771V172.01C143.771 171.702 143.522 171.453 143.213 171.453C142.905 171.453 142.655 171.702 142.655 172.01Z" fill="#6F12E2"/>
<path d="M146.073 172.01C146.073 173.584 144.793 174.861 143.213 174.861C141.634 174.861 140.354 173.584 140.354 172.01C140.354 170.435 141.634 169.158 143.213 169.158C144.793 169.158 146.073 170.435 146.073 172.01Z" fill="#6F12E2"/>
<path d="M437.203 271.75C437.203 273.325 435.923 274.602 434.344 274.602C432.764 274.602 431.484 273.325 431.484 271.75C431.484 270.176 432.764 268.899 434.344 268.899C435.923 268.899 437.203 270.176 437.203 271.75Z" fill="#6F12E2"/>
<path d="M433.786 271.331V292.865H365.027V262.367H353.993V263.48H363.911V293.978H434.902V271.331H433.786Z" fill="#6F12E2"/>
<path d="M401.752 417.981H523.273V301.756H401.752V417.981Z" fill="#6F12E2"/>
<path d="M523.273 417.981H523.262V301.756H401.752H523.273V417.981Z" fill="#7DA6DD"/>
<path d="M523.262 417.981H440.433V301.756H523.262V417.981ZM444.573 397.661V412.049H519.122V397.661H444.573ZM444.573 379.666V394.055H519.122V379.666H444.573ZM444.573 361.671V376.06H519.122V361.671H444.573ZM444.573 343.677V358.066H519.122V343.677H444.573ZM444.573 325.693V340.082H519.122V325.693H444.573ZM444.573 307.698V322.088H519.122V307.698H444.573Z" fill="#ABCAEC"/>
<path d="M444.573 322.088H519.122V307.698H444.573V322.088Z" fill="#6F12E2"/>
<path d="M444.573 340.082H519.122V325.693H444.573V340.082Z" fill="#6F12E2"/>
<path d="M444.573 358.066H519.122V343.677H444.573V358.066Z" fill="#6F12E2"/>
<path d="M444.573 376.06H519.122V361.671H444.573V376.06Z" fill="#6F12E2"/>
<path d="M444.573 394.055H519.122V379.666H444.573V394.055Z" fill="#6F12E2"/>
<path d="M444.573 412.05H519.122V397.661H444.573V412.05Z" fill="#6F12E2"/>
<path d="M406.093 322.088H436.102V307.698H406.093V322.088Z" fill="#6F12E2"/>
<path d="M406.093 340.082H436.102V325.693H406.093V340.082Z" fill="#6F12E2"/>
<path d="M406.093 358.066H436.102V343.677H406.093V358.066Z" fill="#6F12E2"/>
<path d="M406.093 376.06H436.102V361.671H406.093V376.06Z" fill="#6F12E2"/>
<path d="M406.093 394.055H436.102V379.666H406.093V394.055Z" fill="#6F12E2"/>
<path d="M406.093 412.05H436.102V397.661H406.093V412.05Z" fill="#6F12E2"/>
<path d="M513.731 320.218H515.472V309.568H513.731V320.218Z" fill="#6D97D6"/>
<path d="M510.384 320.218H512.124V309.568H510.384V320.218Z" fill="#6D97D6"/>
<path d="M507.036 320.218H508.776V309.568H507.036V320.218Z" fill="#6D97D6"/>
<path d="M503.688 320.218H505.428V309.568H503.688V320.218Z" fill="#6D97D6"/>
<path d="M500.34 320.218H502.081V309.568H500.34V320.218Z" fill="#6D97D6"/>
<path d="M513.731 338.201H515.472V327.562H513.731V338.201Z" fill="#6D97D6"/>
<path d="M510.384 338.201H512.124V327.562H510.384V338.201Z" fill="#6D97D6"/>
<path d="M507.036 338.201H508.776V327.562H507.036V338.201Z" fill="#6D97D6"/>
<path d="M503.688 338.201H505.428V327.562H503.688V338.201Z" fill="#6D97D6"/>
<path d="M500.34 338.201H502.081V327.562H500.34V338.201Z" fill="#6D97D6"/>
<path d="M513.731 356.196H515.472V345.557H513.731V356.196Z" fill="#6D97D6"/>
<path d="M510.384 356.196H512.124V345.557H510.384V356.196Z" fill="#6D97D6"/>
<path d="M507.036 356.196H508.776V345.557H507.036V356.196Z" fill="#6D97D6"/>
<path d="M503.688 356.196H505.428V345.557H503.688V356.196Z" fill="#6D97D6"/>
<path d="M500.34 356.196H502.081V345.557H500.34V356.196Z" fill="#6D97D6"/>
<path d="M513.731 374.202H515.472V363.552H513.731V374.202Z" fill="#6D97D6"/>
<path d="M510.384 374.202H512.124V363.552H510.384V374.202Z" fill="#6D97D6"/>
<path d="M507.036 374.202H508.776V363.552H507.036V374.202Z" fill="#6D97D6"/>
<path d="M503.688 374.202H505.428V363.552H503.688V374.202Z" fill="#6D97D6"/>
<path d="M500.34 374.202H502.081V363.552H500.34V374.202Z" fill="#6D97D6"/>
<path d="M513.731 392.185H515.472V381.547H513.731V392.185Z" fill="#6D97D6"/>
<path d="M510.384 392.185H512.124V381.547H510.384V392.185Z" fill="#6D97D6"/>
<path d="M507.036 392.185H508.776V381.547H507.036V392.185Z" fill="#6D97D6"/>
<path d="M503.688 392.185H505.428V381.547H503.688V392.185Z" fill="#6D97D6"/>
<path d="M500.34 392.185H502.081V381.547H500.34V392.185Z" fill="#6D97D6"/>
<path d="M513.731 410.18H515.472V399.53H513.731V410.18Z" fill="#6D97D6"/>
<path d="M510.384 410.18H512.124V399.53H510.384V410.18Z" fill="#6D97D6"/>
<path d="M507.036 410.18H508.776V399.53H507.036V410.18Z" fill="#6D97D6"/>
<path d="M503.688 410.18H505.428V399.53H503.688V410.18Z" fill="#6D97D6"/>
<path d="M500.34 410.18H502.081V399.53H500.34V410.18Z" fill="#6D97D6"/>
<path d="M451.47 316.657C450.489 316.657 449.695 315.865 449.695 314.888C449.695 313.91 450.489 313.118 451.47 313.118C452.45 313.118 453.244 313.91 453.244 314.888C453.244 315.865 452.45 316.657 451.47 316.657Z" fill="#5D87CD"/>
<path d="M462.63 316.657C461.649 316.657 460.855 315.865 460.855 314.888C460.855 313.91 461.649 313.118 462.63 313.118C463.61 313.118 464.404 313.91 464.404 314.888C464.404 315.865 463.61 316.657 462.63 316.657Z" fill="#5D87CD"/>
<path d="M473.79 316.657C472.809 316.657 472.016 315.865 472.016 314.888C472.016 313.91 472.809 313.118 473.79 313.118C474.77 313.118 475.565 313.91 475.565 314.888C475.565 315.865 474.77 316.657 473.79 316.657Z" fill="#7DA6DD"/>
<path d="M451.47 334.652C450.489 334.652 449.695 333.859 449.695 332.882C449.695 331.905 450.489 331.113 451.47 331.113C452.45 331.113 453.244 331.905 453.244 332.882C453.244 333.859 452.45 334.652 451.47 334.652Z" fill="#7DA6DD"/>
<path d="M462.63 334.652C461.649 334.652 460.855 333.859 460.855 332.882C460.855 331.905 461.649 331.113 462.63 331.113C463.61 331.113 464.404 331.905 464.404 332.882C464.404 333.859 463.61 334.652 462.63 334.652Z" fill="#5D87CD"/>
<path d="M473.79 334.652C472.809 334.652 472.016 333.859 472.016 332.882C472.016 331.905 472.809 331.113 473.79 331.113C474.77 331.113 475.565 331.905 475.565 332.882C475.565 333.859 474.77 334.652 473.79 334.652Z" fill="#7DA6DD"/>
<path d="M451.47 352.646C450.489 352.646 449.695 351.854 449.695 350.877C449.695 349.9 450.489 349.107 451.47 349.107C452.45 349.107 453.244 349.9 453.244 350.877C453.244 351.854 452.45 352.646 451.47 352.646Z" fill="#5D87CD"/>
<path d="M462.63 352.646C461.649 352.646 460.855 351.854 460.855 350.877C460.855 349.9 461.649 349.107 462.63 349.107C463.61 349.107 464.404 349.9 464.404 350.877C464.404 351.854 463.61 352.646 462.63 352.646Z" fill="#7DA6DD"/>
<path d="M473.79 352.646C472.809 352.646 472.016 351.854 472.016 350.877C472.016 349.9 472.809 349.107 473.79 349.107C474.77 349.107 475.565 349.9 475.565 350.877C475.565 351.854 474.77 352.646 473.79 352.646Z" fill="#5D87CD"/>
<path d="M451.47 370.641C450.489 370.641 449.695 369.849 449.695 368.871C449.695 367.894 450.489 367.102 451.47 367.102C452.45 367.102 453.244 367.894 453.244 368.871C453.244 369.849 452.45 370.641 451.47 370.641Z" fill="#7DA6DD"/>
<path d="M462.63 370.641C461.649 370.641 460.855 369.849 460.855 368.871C460.855 367.894 461.649 367.102 462.63 367.102C463.61 367.102 464.404 367.894 464.404 368.871C464.404 369.849 463.61 370.641 462.63 370.641Z" fill="#5D87CD"/>
<path d="M473.79 370.641C472.809 370.641 472.016 369.849 472.016 368.871C472.016 367.894 472.809 367.102 473.79 367.102C474.77 367.102 475.565 367.894 475.565 368.871C475.565 369.849 474.77 370.641 473.79 370.641Z" fill="#5D87CD"/>
<path d="M451.47 388.635C450.489 388.635 449.695 387.843 449.695 386.866C449.695 385.889 450.489 385.097 451.47 385.097C452.45 385.097 453.244 385.889 453.244 386.866C453.244 387.843 452.45 388.635 451.47 388.635Z" fill="#5D87CD"/>
<path d="M462.63 388.635C461.649 388.635 460.855 387.843 460.855 386.866C460.855 385.889 461.649 385.097 462.63 385.097C463.61 385.097 464.404 385.889 464.404 386.866C464.404 387.843 463.61 388.635 462.63 388.635Z" fill="#7DA6DD"/>
<path d="M473.79 388.635C472.809 388.635 472.016 387.843 472.016 386.866C472.016 385.889 472.809 385.097 473.79 385.097C474.77 385.097 475.565 385.889 475.565 386.866C475.565 387.843 474.77 388.635 473.79 388.635Z" fill="#7DA6DD"/>
<path d="M451.47 406.63C450.489 406.63 449.695 405.838 449.695 404.861C449.695 403.884 450.489 403.091 451.47 403.091C452.45 403.091 453.244 403.884 453.244 404.861C453.244 405.838 452.45 406.63 451.47 406.63Z" fill="#7DA6DD"/>
<path d="M462.63 406.63C461.649 406.63 460.855 405.838 460.855 404.861C460.855 403.884 461.649 403.091 462.63 403.091C463.61 403.091 464.404 403.884 464.404 404.861C464.404 405.838 463.61 406.63 462.63 406.63Z" fill="#5D87CD"/>
<path d="M473.79 406.63C472.809 406.63 472.016 405.838 472.016 404.861C472.016 403.884 472.809 403.091 473.79 403.091C474.77 403.091 475.565 403.884 475.565 404.861C475.565 405.838 474.77 406.63 473.79 406.63Z" fill="#7DA6DD"/>
<path d="M440.433 417.981H401.752V301.756H440.433V417.981ZM406.093 397.661V412.049H436.102V397.661H406.093ZM406.093 379.666V394.055H436.102V379.666H406.093ZM406.093 361.671V376.06H436.102V361.671H406.093ZM406.093 343.677V358.066H436.102V343.677H406.093ZM406.093 325.693V340.082H436.102V325.693H406.093ZM406.093 307.698V322.088H436.102V307.698H406.093Z" fill="#5578BB"/>
<path d="M406.093 322.088H436.102V307.698H406.093V322.088Z" fill="#2D5BB2"/>
<path d="M406.093 340.082H436.102V325.693H406.093V340.082Z" fill="#2D5BB2"/>
<path d="M406.093 358.066H436.102V343.677H406.093V358.066Z" fill="#2D5BB2"/>
<path d="M406.093 376.06H436.102V361.671H406.093V376.06Z" fill="#2D5BB2"/>
<path d="M406.093 394.055H436.102V379.666H406.093V394.055Z" fill="#2D5BB2"/>
<path d="M406.093 412.05H436.102V397.661H406.093V412.05Z" fill="#2D5BB2"/>
<path d="M513.527 260.891H400.581C397.539 260.891 395.073 258.432 395.073 255.398V162.439C395.073 159.406 397.539 156.946 400.581 156.946H513.527C516.569 156.946 519.036 159.406 519.036 162.439V255.398C519.036 258.432 516.569 260.891 513.527 260.891Z" fill="#6F12E2"/>
<path d="M513.527 260.891H400.581C397.539 260.891 395.073 258.432 395.073 255.398V162.439V175.072H519.036V255.398C519.036 258.432 516.569 260.891 513.527 260.891ZM491.226 242.202V245.892H503.734V242.202H491.226ZM422.971 231.726V235.415H445.718V231.726H422.971ZM422.971 223.705V227.394H468.465V223.705H422.971ZM491.226 215.958V219.647H503.734V215.958H491.226ZM406.047 215.958V219.647H418.554V215.958H406.047ZM491.226 207.074V210.763H503.734V207.074H491.226ZM423.96 198.207V201.896H469.456V198.207H423.96ZM422.971 190.225V193.914H486.553V190.225H422.971Z" fill="#90B4E3"/>
<path d="M519.036 175.072H395.073V162.095C395.073 159.252 397.385 156.946 400.236 156.946H513.964C516.765 156.946 519.036 159.212 519.036 162.005V175.072Z" fill="#6F12E2"/>
<path d="M508.068 171.288C505.877 171.288 504.101 169.516 504.101 167.331C504.101 165.146 505.877 163.374 508.068 163.374C510.26 163.374 512.037 165.146 512.037 167.331C512.037 169.516 510.26 171.288 508.068 171.288Z" fill="#90B4E3"/>
<path d="M496.792 171.288C494.6 171.288 492.823 169.516 492.823 167.331C492.823 165.146 494.6 163.374 496.792 163.374C498.982 163.374 500.759 165.146 500.759 167.331C500.759 169.516 498.982 171.288 496.792 171.288Z" fill="#90B4E3"/>
<path d="M485.515 171.288C483.323 171.288 481.546 169.516 481.546 167.331C481.546 165.146 483.323 163.374 485.515 163.374C487.706 163.374 489.482 165.146 489.482 167.331C489.482 169.516 487.706 171.288 485.515 171.288Z" fill="#90B4E3"/>
<path d="M422.971 193.914H486.554V190.225H422.971V193.914Z" fill="#CFE0F5"/>
<path d="M423.96 201.896H469.457V198.207H423.96V201.896Z" fill="#48668A"/>
<path d="M503.735 193.914H491.227V190.225H503.735V193.914Z" fill="#6F12E2"/>
<path d="M418.555 193.914H406.048V190.225H418.555V193.914Z" fill="#6F12E2"/>
<path d="M486.554 210.763H422.971V207.074H486.554V210.763Z" fill="#6F12E2"/>
<path d="M491.227 210.763H503.734V207.074H491.227V210.763Z" fill="#CFE0F5"/>
<path d="M418.555 210.763H406.048V207.074H418.555V210.763Z" fill="#6F12E2"/>
<path d="M486.554 245.892H422.971V242.202H486.554V245.892Z" fill="#6F12E2"/>
<path d="M491.227 245.892H503.734V242.202H491.227V245.892Z" fill="#CFE0F5"/>
<path d="M486.554 219.647H422.971V215.958H486.554V219.647Z" fill="#6F12E2"/>
<path d="M491.227 219.647H503.734V215.958H491.227V219.647Z" fill="#48668A"/>
<path d="M406.048 219.647H418.555V215.958H406.048V219.647Z" fill="#48668A"/>
<path d="M504.659 202.041H474.438V198.352H504.659V202.041Z" fill="#6F12E2"/>
<path d="M422.971 227.394H468.466V223.705H422.971V227.394Z" fill="#CFE0F5"/>
<path d="M503.668 227.54H473.446V223.849H503.668V227.54Z" fill="#6F12E2"/>
<path d="M422.971 235.415H445.718V231.726H422.971V235.415Z" fill="#48668A"/>
<path d="M177.263 154.497H64.3175C61.2752 154.497 58.8091 152.038 58.8091 149.004V56.0451C58.8091 53.0126 61.2752 50.5521 64.3175 50.5521H177.263C180.306 50.5521 182.773 53.0126 182.773 56.0451V149.004C182.773 152.038 180.306 154.497 177.263 154.497Z" fill="#6F12E2"/>
<path d="M177.263 154.497H64.3175C61.2752 154.497 58.8091 152.038 58.8091 149.004V56.0451V68.6781H182.773V105.482V124.103V149.004C182.773 152.038 180.306 154.497 177.263 154.497Z" fill="#90B4E3"/>
<path d="M182.773 68.678H58.8091V55.7011C58.8091 52.8578 61.1209 50.552 63.9723 50.552H177.699C180.5 50.552 182.773 52.8178 182.773 55.611V68.678Z" fill="#6F12E2"/>
<path d="M171.804 64.8931C169.613 64.8931 167.836 63.1214 167.836 60.9369C167.836 58.7513 169.613 56.9796 171.804 56.9796C173.996 56.9796 175.772 58.7513 175.772 60.9369C175.772 63.1214 173.996 64.8931 171.804 64.8931Z" fill="#90B4E3"/>
<path d="M160.528 64.8931C158.336 64.8931 156.559 63.1214 156.559 60.9369C156.559 58.7513 158.336 56.9796 160.528 56.9796C162.718 56.9796 164.495 58.7513 164.495 60.9369C164.495 63.1214 162.718 64.8931 160.528 64.8931Z" fill="#90B4E3"/>
<path d="M149.251 64.8931C147.059 64.8931 145.283 63.1214 145.283 60.9369C145.283 58.7513 147.059 56.9796 149.251 56.9796C151.442 56.9796 153.218 58.7513 153.218 60.9369C153.218 63.1214 151.442 64.8931 149.251 64.8931Z" fill="#90B4E3"/>
<path d="M159.861 108.496C155.744 102.999 147.323 100.315 141.71 104.282C140.327 96.4087 134.608 89.4335 127.146 86.5178C119.682 83.6011 110.734 84.8463 104.356 89.6872C97.9778 94.5292 94.3917 102.798 95.223 110.748C89.8091 109.518 83.8472 110.818 80.3249 116.402C75.7575 123.643 81.6776 130.82 81.6776 130.82L113.486 131.001V119.377H109.421C108.7 119.377 108.33 118.514 108.83 117.995L113.512 113.121L118.929 107.482C119.251 107.147 119.789 107.147 120.112 107.482L125.53 113.121L130.211 117.995C130.71 118.514 130.341 119.377 129.62 119.377H125.554V131.07L159.406 131.263C164.23 125.734 163.977 113.993 159.861 108.496Z" fill="white"/>
<path d="M112.178 421.078C112.178 421.078 209.405 398.364 214.03 418.558C220.631 447.384 150.481 466.775 113.117 465.587C75.7519 464.4 112.178 421.078 112.178 421.078Z" fill="#17282F"/>
<path d="M116.456 465.64C115.315 465.64 114.205 465.622 113.117 465.587C113.938 465.601 114.758 465.606 115.58 465.606C116.914 465.606 118.248 465.59 119.582 465.556L119.594 465.597C118.529 465.625 117.481 465.64 116.456 465.64ZM140.034 463.708C140.934 463.568 141.834 463.419 142.732 463.262L142.33 462.613C142.483 462.474 142.561 462.359 142.561 462.359L139.407 457.89L138.799 456.907L158.61 460.022C152.418 461.55 146.139 462.787 140.034 463.708ZM189.661 449.15C188.403 448.556 177.261 443.325 162.564 437.185L182.128 424.789C182.584 424.624 182.822 424.121 182.657 423.664C182.527 423.307 182.189 423.084 181.829 423.084C181.729 423.084 181.629 423.102 181.53 423.137C172.671 425.078 153.246 429.385 152.871 431.648C152.649 433.027 161.491 433.912 161.491 433.912L158.855 435.649C150.313 432.138 140.815 428.436 131.479 425.205C136.52 424.31 139.99 423.393 140.993 422.773H144.316H156.188L156.242 422.774L156.246 422.773H189.286C189.983 422.768 190.635 422.629 191.194 422.386C191.994 422.096 192.632 421.548 192.923 420.854C192.923 420.852 192.923 420.852 192.923 420.851C192.924 420.849 192.925 420.847 192.926 420.844C192.927 420.841 192.929 420.839 192.93 420.836C192.931 420.835 192.931 420.832 192.932 420.831C192.933 420.829 192.934 420.826 192.934 420.823C192.935 420.822 192.935 420.821 192.936 420.82C192.937 420.817 192.939 420.812 192.941 420.809L194.951 416.214L199.92 412.333L197.803 410.57C206.701 411.42 212.94 413.796 214.03 418.558C214.325 419.842 214.466 421.108 214.465 422.353C214.462 425.919 213.29 429.323 211.177 432.543C211.113 432.642 211.049 432.738 210.983 432.835C206.803 439.015 199.152 444.51 189.661 449.15ZM152.564 419.992H148.588L146.878 418.857L150.769 419.898C150.936 419.942 151.106 419.964 151.275 419.964C151.727 419.964 152.172 419.809 152.518 419.517L152.919 419.18L152.564 419.992ZM152.962 419.081L151.485 417.636L152.837 418.307C152.968 418.372 153.107 418.411 153.249 418.425L152.962 419.081ZM153.998 416.715L150.197 413.821C151.984 413.545 153.79 413.277 155.614 413.019L153.998 416.715Z" fill="#111D23"/>
<path d="M142.33 462.613L139.407 457.89L142.561 462.359C142.561 462.359 142.483 462.474 142.33 462.613ZM162.564 437.185C161.35 436.678 160.115 436.166 158.855 435.649L161.491 433.911C161.491 433.911 152.649 433.026 152.871 431.648C153.246 429.385 172.671 425.077 181.53 423.137C181.629 423.101 181.729 423.084 181.829 423.084C182.189 423.084 182.527 423.307 182.657 423.664C182.822 424.121 182.584 424.624 182.128 424.788L162.564 437.185Z" fill="#070809"/>
<path d="M113.117 465.587C111.97 465.581 110.827 465.504 109.696 465.359C109.78 465.362 109.862 465.366 109.944 465.368C110.936 465.478 111.994 465.552 113.117 465.587Z" fill="#3E3F42"/>
<path d="M138.377 463.958C138.375 463.956 138.373 463.953 138.371 463.951C138.924 463.873 139.477 463.792 140.033 463.708C139.482 463.794 138.93 463.877 138.377 463.958Z" fill="#3B3D3F"/>
<path d="M115.58 465.606C114.758 465.606 113.938 465.601 113.117 465.587C111.994 465.551 110.936 465.478 109.944 465.368C110.106 465.374 110.265 465.376 110.419 465.376C116.586 465.376 116.208 461.307 114.716 457.773C115.352 457.985 115.932 458.147 116.44 458.247L113.502 453.059L112.684 452.802L131.947 455.83C130.374 456.497 126.522 458.198 123.364 459.491C122.679 459.772 122.025 460.04 121.428 460.283C121.301 460.335 121.162 460.391 121.041 460.442V460.444C119.499 461.073 118.441 461.51 118.441 461.51L119.582 465.556C118.248 465.59 116.914 465.606 115.58 465.606ZM138.371 463.951C137.901 463.527 137.261 463.328 136.519 463.328C136.341 463.328 136.155 463.34 135.966 463.363L134.025 463.599C132.639 462.568 132.213 460.827 133.091 459.148C133.091 459.148 133.658 457.053 133.375 456.054L134.966 456.305C137.771 461.878 139.824 463.097 141.083 463.097C141.676 463.097 142.094 462.826 142.33 462.613L142.732 463.261C141.834 463.418 140.934 463.567 140.033 463.708C139.477 463.792 138.924 463.873 138.371 463.951ZM139.407 457.89L138.703 456.893L138.799 456.907L139.407 457.89Z" fill="#070809"/>
<path d="M141.083 463.097C139.824 463.097 137.771 461.878 134.966 456.305L138.703 456.893L139.408 457.89L142.33 462.613C142.094 462.826 141.676 463.097 141.083 463.097Z" fill="#050606"/>
<path d="M149.928 445.375L129.62 458.218L133.259 468.047L157.104 457.361L149.928 445.375Z" fill="#C8685A"/>
<path d="M118.441 461.51L120.434 468.579C120.434 468.579 121.931 468.893 122.397 470.38C122.659 471.216 122.042 473.52 122.042 473.52L127.38 493C127.408 492.992 128.719 492.639 129.239 492.264C129.873 491.808 130.388 491.341 130.801 490.866C132.242 489.205 132.401 486.797 132.456 485.013C132.545 482.024 134.268 473.293 134.268 473.293C134.268 473.293 134.925 471.018 137.334 469.015C138.677 467.896 139.298 466.487 139.173 465.613C138.92 463.831 137.636 463.162 135.965 463.363L134.025 463.599C132.639 462.568 132.212 460.828 133.091 459.148C133.091 459.148 134.239 454.905 132.455 455.619C131.436 456.027 126.953 458.021 123.364 459.491C122.528 459.834 121.735 460.158 121.041 460.442V460.444C119.499 461.074 118.441 461.51 118.441 461.51Z" fill="#17282F"/>
<path d="M133.518 477.95C133.574 477.84 133.545 477.704 133.453 477.619C133.034 477.235 132.516 476.959 131.931 476.837C131.622 476.773 131.482 477.268 131.793 477.332C132.313 477.44 132.77 477.681 133.137 478.017C133.259 478.128 133.442 478.101 133.516 477.955L133.518 477.95Z" fill="#6F12E2"/>
<path d="M133.918 476.225C133.972 476.116 133.943 475.979 133.852 475.896C133.432 475.512 132.916 475.234 132.331 475.113C132.022 475.049 131.881 475.543 132.192 475.607C132.713 475.717 133.169 475.957 133.536 476.292C133.659 476.404 133.842 476.376 133.916 476.23L133.918 476.225Z" fill="#6F12E2"/>
<path d="M134.249 474.469C134.304 474.36 134.275 474.223 134.184 474.14C133.764 473.756 133.247 473.48 132.661 473.357C132.353 473.293 132.213 473.787 132.524 473.853C133.044 473.96 133.501 474.201 133.868 474.535C133.99 474.648 134.174 474.62 134.247 474.475L134.249 474.469Z" fill="#6F12E2"/>
<path d="M121.041 460.442C121.162 460.392 121.301 460.335 121.427 460.283C121.296 460.337 121.167 460.39 121.041 460.442Z" fill="#2B3032"/>
<path d="M127.38 493L122.042 473.52C122.042 473.52 122.042 473.52 122.043 473.519C122.057 473.466 122.39 472.203 122.453 471.224C122.473 470.89 122.463 470.59 122.397 470.38C121.985 469.067 120.771 468.668 120.492 468.593C120.455 468.583 120.434 468.579 120.434 468.579L119.581 465.556L118.441 461.51C118.441 461.51 119.499 461.074 121.041 460.444V460.442C121.167 460.39 121.296 460.337 121.427 460.283L130.033 491.629C129.791 491.842 129.531 492.055 129.239 492.264C128.736 492.627 127.489 492.97 127.387 492.998C127.383 492.999 127.381 493 127.38 493Z" fill="#405158"/>
<path d="M134.023 474.481C134.683 474.237 135.342 473.996 136.019 473.875C136.302 473.824 136.589 473.794 136.875 473.794C137.274 473.794 137.666 473.851 138.035 473.985C138.326 474.089 138.596 474.276 138.64 474.515L138.65 474.607C138.653 474.829 138.47 475.079 138.243 475.238C137.88 475.497 137.424 475.618 136.962 475.618C136.79 475.618 136.617 475.601 136.449 475.568C135.86 475.464 134.583 474.618 134.055 474.237L133.892 474.463C134.443 474.852 135.684 475.701 136.398 475.842C136.583 475.877 136.772 475.896 136.962 475.896C137.471 475.896 137.984 475.764 138.405 475.464C138.674 475.27 138.924 474.972 138.929 474.607L138.913 474.459C138.824 474.058 138.454 473.843 138.13 473.723C137.726 473.577 137.299 473.516 136.875 473.516C136.57 473.516 136.267 473.547 135.97 473.601C135.26 473.728 134.587 473.977 133.926 474.219L134.023 474.481Z" fill="#6F12E2"/>
<path d="M134.038 474.376C134.591 473.94 135.153 473.496 135.631 472.958C136.11 472.418 136.504 471.776 136.649 471.054C136.671 470.94 136.686 470.82 136.686 470.698C136.686 470.453 136.625 470.191 136.426 470.004C136.263 469.853 136.052 469.795 135.849 469.796C135.658 469.796 135.469 469.843 135.301 469.914C134.648 470.193 134.177 470.782 133.934 471.429C133.795 471.8 133.763 472.396 133.762 472.982C133.762 473.483 133.79 473.971 133.812 474.279L134.091 474.257C134.068 473.956 134.041 473.473 134.041 472.982C134.04 472.411 134.081 471.82 134.195 471.527C134.416 470.936 134.845 470.409 135.411 470.17C135.548 470.111 135.705 470.074 135.849 470.074C136.004 470.074 136.137 470.116 136.235 470.207C136.356 470.319 136.407 470.494 136.407 470.698L136.375 470.999C136.244 471.656 135.879 472.259 135.422 472.773C134.966 473.287 134.417 473.722 133.864 474.16L134.038 474.376Z" fill="#6F12E2"/>
<path d="M152.348 359.391C152.348 359.391 155.899 390.912 156.847 392.604C160.057 398.323 181.314 408.128 181.314 408.128L192.153 405.865L199.92 412.332L194.799 416.332L188.791 414.068C185.512 414.652 182.187 414.942 178.856 414.936C173.258 414.936 146.259 408.114 141.752 400.608C137.246 393.101 135.177 358.342 135.177 358.342L152.348 359.391Z" fill="#C8685A"/>
<path d="M134.716 371.781C134.716 371.781 126.387 344.098 136.765 336.413C147.142 328.728 155.396 366.789 155.396 366.789L134.716 371.781Z" fill="#6F12E2"/>
<path d="M140.894 370.29L140.886 369.926L140.903 370.287L142.419 369.921L140.894 370.29ZM145.098 369.274L140.47 349.524L140.182 335.437C148.898 336.817 155.396 366.789 155.396 366.789L145.098 369.274Z" fill="#6D97D6"/>
<path d="M141.289 422.416L141.209 385.724L140.178 335.2L118.677 330.783L99.7561 329.951L78.2274 339.774L77.7247 352.102C77.7247 352.102 80.1869 408.707 80.0487 410.414C79.8791 412.506 73.7729 425.635 73.7729 425.635C100.973 431.816 141.718 424.286 141.289 422.416Z" fill="#6F12E2"/>
<path d="M74.3362 425.761C74.1469 425.72 73.9604 425.679 73.7729 425.635C73.7729 425.635 79.8791 412.506 80.0487 410.414C80.0522 410.367 80.0544 410.279 80.0544 410.152C80.0539 408.241 79.6333 397.459 79.1489 385.699C81.1324 393.083 83.4586 400.09 85.7569 403.235C90.0426 409.101 107.921 416.527 119.951 419.992H119.718V420.005C119.722 420.594 119.977 421.139 120.41 421.588C109.414 418.235 99.3206 415.967 92.1351 415.967C90.5478 415.967 89.1018 416.078 87.8202 416.312C79.7361 417.79 75.8057 421.37 74.3362 425.761ZM131.479 425.205C129.035 424.359 126.601 423.544 124.2 422.773H140.993C139.99 423.393 136.52 424.31 131.479 425.205ZM130.934 414.859C130.934 414.859 105.432 400.191 100.284 394.664C98.9213 393.199 97.1113 385.378 95.5279 377.187L101.748 374.718L91.4014 351.59L98.9374 372.496C98.9374 372.496 98.6689 372.584 98.2674 372.713C98.2015 372.456 89.6712 339.297 80.3224 339.297C79.6263 339.297 78.9249 339.481 78.223 339.876L78.2274 339.774L95.2481 332.008L106.021 345.236L109.704 342.439L110.56 341.717C111.342 342.454 112.238 343.08 113.222 343.57L113.015 344.283C113.371 344.597 114.55 346.625 114.704 346.625C114.705 346.625 114.706 346.625 114.707 346.625C114.716 346.622 114.738 346.619 114.773 346.615C116.167 372.782 119.718 402.363 119.718 402.363L127.5 408.488L130.429 401.052C128.749 384.981 120.314 355.054 117.833 346.207L118.865 343.203L118.464 342.576C118.928 341.9 119.24 341.108 119.449 340.367L121.867 342.242L122.615 331.592L140.178 335.2L140.47 349.524L139.79 346.625L140.886 369.926L141.209 385.724L141.265 411.248L130.934 414.859ZM137.083 359.151L123.775 360.087L126.184 371.892L133.203 374.427L137.951 370.299L137.083 359.151ZM95.5262 377.178C95.3047 376.032 95.0881 374.88 94.8771 373.735L95.5262 377.178ZM94.8771 373.735L98.1894 372.739C97.1509 373.072 95.347 373.643 94.8771 373.735ZM114.876 339.799L115.622 339.055C115.609 339.28 115.599 339.486 115.592 339.666C115.354 339.737 115.114 339.78 114.876 339.799ZM117.061 338.801L117.383 338.414L117.356 338.495C117.259 338.606 117.16 338.708 117.061 338.801ZM96.2887 331.532L96.3153 331.521L96.3083 331.527C96.3022 331.529 96.2956 331.531 96.2887 331.532Z" fill="#6D97D6"/>
<path d="M110.483 338.082C110.483 338.082 115.761 342.769 118.463 336.71L119.871 337.804C119.871 337.804 119.734 342.31 117.174 343.818C117.795 346.318 128.511 382.71 130.429 401.051L127.5 408.488L119.718 402.363C119.718 402.363 115.94 370.896 114.648 344.162C111.532 343.109 109.066 340.779 107.922 337.804L110.483 338.082Z" fill="#6F12E2"/>
<path d="M122.615 331.592L121.796 331.423C121.797 331.422 121.797 331.42 121.797 331.418L122.615 331.592Z" fill="#B1BBC6"/>
<path d="M121.867 342.242L119.449 340.367C119.517 340.124 119.575 339.889 119.623 339.663C120.406 340.485 121.177 341.271 121.255 341.271C121.404 341.271 121.565 332.899 121.796 331.423L122.615 331.592L121.867 342.242ZM117.356 338.495L117.383 338.414L117.829 337.879C117.676 338.108 117.518 338.313 117.356 338.495Z" fill="#557EC8"/>
<path d="M119.449 340.367L117.292 338.693L117.356 338.495C117.518 338.313 117.675 338.108 117.828 337.879L117.883 337.813C117.883 337.813 118.761 338.76 119.623 339.663C119.575 339.889 119.517 340.125 119.449 340.367Z" fill="#3563B7"/>
<path d="M95.248 332.007C95.2493 332.007 95.2747 331.994 95.3171 331.972V331.977L95.248 332.007Z" fill="#C3C5C2"/>
<path d="M95.3154 331.977V331.973C95.5011 331.878 96.0251 331.616 96.2885 331.532L95.3154 331.977Z" fill="#656F74"/>
<path d="M106.021 345.236L95.248 332.007L96.2886 331.532C96.2955 331.531 96.3021 331.529 96.3082 331.527L96.0201 331.784L106.402 343.386L109.726 340.839C109.987 341.146 110.265 341.439 110.559 341.717L109.704 342.439L106.021 345.236Z" fill="#557EC8"/>
<path d="M110.56 341.717C110.265 341.439 109.987 341.146 109.726 340.839L111.874 339.193L112.857 339.54L112.236 340.3L110.56 341.717Z" fill="#3563B7"/>
<path d="M96.02 331.784L101.268 327.112L115.63 340.518L111.873 339.193L106.402 343.386L96.02 331.784Z" fill="#6F12E2"/>
<path d="M115.63 340.518C115.312 339.913 116.78 327.733 116.78 327.733L121.867 331.203C121.597 331.148 121.42 341.271 121.255 341.271C121.091 341.271 117.883 337.813 117.883 337.813L115.63 340.518Z" fill="#6F12E2"/>
<path d="M140.903 370.287L140.886 369.926L140.47 349.523L145.098 369.274L142.419 369.921L140.903 370.287Z" fill="#557EC8"/>
<path d="M140.886 369.927L139.79 346.625L140.47 349.524L140.886 369.927Z" fill="#557EC8"/>
<path d="M95.5279 377.187C95.5271 377.183 95.5267 377.181 95.5262 377.178L94.877 373.734C95.347 373.643 97.1509 373.072 98.1893 372.738L98.2678 372.715C98.2678 372.715 98.2678 372.714 98.2673 372.713C98.6689 372.584 98.9374 372.496 98.9374 372.496L91.4014 351.59L101.747 374.718L95.5279 377.187Z" fill="#557EC8"/>
<path d="M106.402 343.386L96.02 331.784L101.268 327.112L101.745 327.557C101.196 330.476 100.81 332.583 100.865 333.03L114.759 339.914L114.26 340.035L112.857 339.54L111.873 339.193L109.726 340.839L106.402 343.386ZM114.759 339.914L114.868 339.807L114.937 339.871L114.759 339.914Z" fill="#6D97D6"/>
<path d="M121.255 341.271C121.176 341.271 120.406 340.485 119.623 339.663C118.761 338.76 117.883 337.813 117.883 337.813L117.828 337.879L117.383 338.414L116.484 339.495L115.591 339.712C115.596 339.52 115.608 339.3 115.622 339.055L117.292 337.391L117.779 331.783C117.641 331.435 117.529 331.083 117.442 330.725C117.443 330.725 117.443 330.725 117.444 330.727C117.241 329.695 117.177 328.817 117.212 328.028L121.867 331.203C121.866 331.203 121.866 331.203 121.865 331.203C121.596 331.203 121.419 341.271 121.255 341.271Z" fill="#6D97D6"/>
<path d="M133.202 374.427L126.184 371.892L123.774 360.087L137.083 359.151L137.951 370.299L133.202 374.427Z" fill="#91B7E5"/>
<path d="M116.484 339.495L114.261 340.035L114.23 340.087L113.015 344.283C113.374 344.599 114.569 346.658 114.707 346.625C114.845 346.591 117.795 346.319 117.795 346.319L118.865 343.203L116.484 339.495Z" fill="#6F12E2"/>
<path d="M114.704 346.625C114.55 346.625 113.371 344.597 113.015 344.283L114.23 340.087L114.261 340.035L114.759 339.914L116.484 339.495L118.865 343.203L117.833 346.207L117.795 346.318C117.795 346.318 115.233 346.554 114.773 346.614C114.738 346.619 114.716 346.622 114.707 346.625C114.706 346.625 114.705 346.625 114.704 346.625Z" fill="#3563B7"/>
<path d="M91.9642 356.396C91.9642 356.396 97.2386 391.392 100.284 394.664C105.432 400.191 130.934 414.859 130.934 414.859L143.661 410.409C144.553 410.117 145.539 410.277 146.269 410.832L154.97 417.454L154.139 418.153C153.78 418.455 153.26 418.516 152.837 418.307L151.485 417.636L152.997 419.114L152.518 419.517C152.043 419.917 151.381 420.061 150.769 419.898L146.878 418.857L150.469 421.24C149.668 421.915 148.552 422.148 147.527 421.857L141.835 420.239C137.952 421.125 133.997 421.69 130.014 421.927C123.311 422.339 91.6568 411.31 85.7569 403.235C79.8565 395.16 73.7729 361.631 73.7729 361.631L91.9642 356.396Z" fill="#C8685A"/>
<path d="M75.1204 379.677C75.1204 379.677 67.2325 347.961 77.6106 340.275C87.9885 332.589 98.2678 372.715 98.2678 372.715L75.1204 379.677Z" fill="#6F12E2"/>
<path d="M75.1202 379.677C75.1202 379.677 72.2518 368.144 72.25 357.301C72.2492 350.164 73.4903 343.326 77.6104 340.275C78.5167 339.604 79.4243 339.296 80.3223 339.296C89.7071 339.296 98.2676 372.715 98.2676 372.715L98.1892 372.738L94.8769 373.734L77.4494 378.977L75.1202 379.677Z" fill="#6D97D6"/>
<path d="M143.044 297.64C144.361 297.514 145.493 296.326 145.551 295.008C145.61 293.69 144.588 292.407 143.286 292.167L137.133 291.551C137.426 295.49 137.719 299.429 138.012 303.367C139.203 303.673 140.485 303.736 141.648 303.337C142.811 302.94 143.834 302.036 144.185 300.861C144.535 299.686 144.099 298.27 143.044 297.64Z" fill="#17282F"/>
<path d="M119.53 320.356L106.307 303.766L106.299 303.824C106.296 305.391 106.246 307.184 106.116 309.096L104.691 308.432C104.125 317.053 100.707 331.757 100.865 333.03L114.759 339.914L117.292 337.391L117.779 331.783C116.382 328.272 117.699 324.177 119.53 320.356Z" fill="#C8685A"/>
<path d="M117.212 328.028L117.209 328.026C117.245 327.329 117.346 326.622 117.5 325.912L117.552 325.952C117.37 326.6 117.246 327.273 117.212 328.028Z" fill="#B1BBC6"/>
<path d="M117.444 330.727C117.443 330.725 117.443 330.725 117.442 330.725C117.229 329.851 117.161 328.946 117.209 328.026L117.212 328.028C117.177 328.817 117.241 329.695 117.444 330.727Z" fill="#557EC8"/>
<path d="M117.442 330.725C110.738 327.984 108.98 322.715 109.188 319.361L117.5 325.912C117.346 326.622 117.245 327.329 117.209 328.026C117.161 328.946 117.229 329.851 117.442 330.725Z" fill="#995147"/>
<path d="M109.131 295.541C106.394 306.706 105.363 312.068 109.188 319.361C114.941 330.333 128.993 330.426 135.036 320.272C140.475 311.132 144.038 294.41 134.587 286.816C125.277 279.335 111.868 284.377 109.131 295.541Z" fill="#C8685A"/>
<path d="M111.494 280.387C114.882 274.816 123.751 273.913 127.029 278.311C127.519 278.967 122.22 279.126 122.827 279.096L119.721 287.892C119.114 287.546 117.598 287.909 116.305 289.723C116.305 289.723 114.308 301.823 108.021 305.207C101.847 296.712 102.552 280.404 111.494 280.387Z" fill="#17282F"/>
<path d="M101.948 303.331C101.948 306.423 103.389 309.216 105.233 310.97C108.006 313.61 111.224 311.569 111.988 308.021C112.677 304.827 112.063 299.607 108.541 298.312C105.072 297.036 101.948 299.794 101.948 303.331Z" fill="#C8685A"/>
<path d="M124.291 304.896C123.942 306.018 124.258 307.105 124.995 307.326C125.734 307.547 126.616 306.817 126.965 305.695C127.315 304.575 126.999 303.486 126.26 303.266C125.522 303.046 124.641 303.776 124.291 304.896Z" fill="#17282F"/>
<path d="M135.318 308.47C134.969 309.59 135.285 310.679 136.022 310.899C136.761 311.119 137.643 310.389 137.992 309.269C138.341 308.148 138.026 307.06 137.288 306.839C136.549 306.619 135.667 307.348 135.318 308.47Z" fill="#17282F"/>
<path d="M131.436 305.474C131.436 305.474 132.833 310.583 133.474 313.616C133.627 314.342 133.082 315.05 132.339 315.07C130.718 315.113 129.198 314.209 129.198 314.209L131.436 305.474Z" fill="#B5413C"/>
<path d="M123.116 298.17C123.264 298.293 123.473 298.334 123.667 298.261C125.976 297.393 127.636 298.558 127.652 298.57C127.899 298.747 128.246 298.694 128.426 298.45C128.605 298.205 128.551 297.863 128.306 297.686C128.219 297.623 126.14 296.162 123.275 297.24C122.99 297.347 122.846 297.663 122.953 297.946L123.116 298.17Z" fill="#17282F"/>
<path d="M141.171 303.369C141.274 303.353 141.375 303.308 141.458 303.234C141.686 303.03 141.708 302.682 141.508 302.456C139.492 300.188 136.988 300.567 136.873 300.571C136.573 300.618 136.365 300.899 136.409 301.2C136.453 301.499 136.73 301.704 137.028 301.659C137.132 301.639 139.065 301.371 140.683 303.192C140.809 303.334 140.994 303.394 141.171 303.369Z" fill="#17282F"/>
<path d="M123.365 316.493C123.749 316.806 124.161 317.084 124.595 317.324C124.735 317.399 124.91 317.361 125.007 317.234C125.07 317.084 125.011 316.91 124.869 316.828C122.622 315.624 121.086 313.423 120.737 310.904C120.719 310.747 120.583 310.63 120.424 310.635C120.28 310.628 120.159 310.738 120.151 310.881L120.155 310.947C120.421 313.155 121.579 315.159 123.365 316.493Z" fill="#17282F"/>
<path d="M148.594 289.312C147.841 287.082 145.178 286.146 142.825 285.978C144.301 285.949 145.462 284.456 145.465 282.982C145.468 281.51 144.554 280.159 143.393 279.25C141.318 277.625 138.359 277.203 135.911 278.184C136.374 277.96 136.54 277.345 136.391 276.853C136.242 276.361 135.854 275.979 135.446 275.668C132.954 273.769 129.093 273.959 126.801 276.093C126.001 273.391 122.863 271.623 120.129 272.333C117.462 273.027 112.438 273.56 111.661 280.365C109.401 278.762 105.893 279.103 104.105 281.256C102.172 283.584 102.673 287.508 105.129 289.279C103.91 288.767 102.395 289.556 101.893 290.775C101.392 291.996 101.781 293.456 102.631 294.467C103.482 295.476 104.724 296.087 105.996 296.449C107.194 296.789 108.489 296.928 109.678 296.56C110.868 296.193 111.927 295.241 112.164 294.023C112.365 295.3 113.712 296.248 115.003 296.114C116.293 295.978 117.381 294.863 117.592 293.585C117.804 292.309 117.192 290.961 116.16 290.178C117.629 291.597 120.469 291.038 121.288 289.17C122.376 291.254 123.927 293.219 126.091 294.15C128.254 295.08 131.103 294.688 132.488 292.786C133.191 293.603 133.908 294.432 134.817 295.011C135.726 295.591 136.873 295.895 137.901 295.567C138.929 295.239 139.737 294.155 139.519 293.101C141.219 294.515 143.611 295.248 145.704 294.532C147.798 293.816 149.301 291.403 148.594 289.312Z" fill="#17282F"/>
<path d="M160.067 419.992H119.718V420.005C119.728 421.541 121.449 422.78 123.56 422.773H144.316H156.188L156.242 422.774L156.246 422.773H189.286C191.382 422.758 193.067 421.516 193.057 419.992H160.067Z" fill="#17282F"/>
<path d="M189.891 422.616H153.031C152.393 422.613 151.882 422.197 151.888 421.687L151.946 421.405L168.343 383.918C168.758 382.847 169.993 382.115 171.393 382.111H208.277C208.901 382.111 209.405 382.516 209.405 383.014C209.405 383.119 209.383 383.223 209.338 383.322L192.941 420.809C192.52 421.876 191.289 422.606 189.891 422.616Z" fill="#17282F"/>
<path d="M156.242 422.774L156.188 422.773H124.199C122.926 422.366 121.662 421.969 120.41 421.588C119.977 421.139 119.722 420.594 119.718 420.005V419.992H140.491H152.564L151.946 421.405L151.888 421.687C151.882 422.197 152.393 422.613 153.03 422.616H189.891C190.277 422.614 190.65 422.556 190.997 422.451C190.482 422.647 189.906 422.77 189.286 422.773H156.246L156.242 422.774Z" fill="#B1BABA"/>
<path d="M162.333 397.659L168.343 383.918C168.428 383.701 168.545 383.499 168.691 383.313C168.661 383.351 168.632 383.389 168.605 383.427C168.604 383.429 168.604 383.429 168.603 383.431C168.603 383.432 168.602 383.433 168.602 383.433C168.497 383.586 168.41 383.747 168.343 383.918L164.945 391.687L162.333 397.659Z" fill="white"/>
<path d="M189.891 422.616H153.031C152.393 422.613 151.882 422.197 151.888 421.687L151.946 421.405L152.564 419.992L161.63 399.265L162.333 397.659L164.945 391.687L152.564 419.992H154.273L171.393 382.111C170.218 382.114 169.16 382.63 168.605 383.427C168.632 383.389 168.661 383.351 168.691 383.313C168.691 383.312 168.691 383.312 168.692 383.31C168.692 383.309 168.694 383.309 168.694 383.308C169.268 382.579 170.278 382.114 171.393 382.111H208.277C208.901 382.111 209.405 382.516 209.405 383.014C209.405 383.119 209.383 383.223 209.338 383.322L194.951 416.214L192.941 420.809C192.939 420.812 192.938 420.817 192.936 420.82C192.935 420.821 192.935 420.822 192.934 420.823C192.934 420.826 192.933 420.829 192.932 420.831C192.931 420.832 192.931 420.834 192.93 420.836C192.929 420.839 192.928 420.841 192.926 420.844C192.925 420.847 192.924 420.849 192.923 420.851C192.923 420.852 192.923 420.852 192.923 420.853C192.622 421.572 191.945 422.126 191.105 422.408C191.069 422.424 191.034 422.437 190.997 422.452C190.65 422.556 190.277 422.614 189.891 422.616ZM168.602 383.433C168.602 383.433 168.603 383.432 168.603 383.431C168.603 383.432 168.602 383.432 168.602 383.433Z" fill="#B1BABA"/>
<path d="M186.125 402.069C185.329 403.867 183.714 405.102 182.511 404.851C181.306 404.599 180.985 402.96 181.758 401.156C182.532 399.352 184.165 398.146 185.369 398.396C186.573 398.648 186.932 400.221 186.125 402.069Z" fill="white"/>
<path d="M154.273 419.992H152.564L164.945 391.687L168.343 383.918C168.41 383.747 168.497 383.586 168.602 383.433C168.602 383.432 168.603 383.432 168.603 383.431C168.604 383.429 168.604 383.429 168.605 383.427C169.16 382.631 170.218 382.114 171.393 382.111L154.273 419.992Z" fill="#747C7E"/>
<path d="M170.248 461.571L193.991 465.382L197.801 455.617L172.845 447.853L170.248 461.571Z" fill="#C8685A"/>
<path d="M204.548 470.307L207.756 463.697C207.756 463.697 206.844 462.471 207.483 461.05C207.843 460.251 209.837 458.934 209.837 458.934L218.792 440.822C218.765 440.809 217.549 440.207 216.91 440.143C216.132 440.065 215.437 440.075 214.813 440.158C212.628 440.448 210.908 442.147 209.683 443.445C207.627 445.624 200.533 451.022 200.533 451.022C200.533 451.022 198.529 452.291 195.394 452.199C193.645 452.147 192.242 452.793 191.756 453.528C190.76 455.03 191.276 456.38 192.661 457.333L194.27 458.44C194.623 460.129 193.785 461.713 192.011 462.39C192.011 462.39 188.331 464.808 190.141 465.453C191.174 465.821 195.857 467.291 199.521 468.563C200.376 468.859 201.182 469.14 201.891 469.388L201.893 469.386C203.467 469.933 204.548 470.307 204.548 470.307Z" fill="#17282F"/>
<path d="M204.19 448.031C204.076 448.077 204.007 448.198 204.02 448.322C204.078 448.887 204.282 449.436 204.638 449.913C204.827 450.166 205.261 449.889 205.071 449.633C204.753 449.21 204.573 448.728 204.52 448.234C204.502 448.069 204.347 447.968 204.194 448.029L204.19 448.031Z" fill="#6F12E2"/>
<path d="M202.745 449.058C202.631 449.104 202.562 449.225 202.575 449.349C202.633 449.914 202.838 450.462 203.194 450.94C203.382 451.193 203.816 450.915 203.627 450.661C203.309 450.237 203.128 449.755 203.075 449.261C203.058 449.096 202.902 448.995 202.751 449.056L202.745 449.058Z" fill="#6F12E2"/>
<path d="M201.33 450.153C201.216 450.199 201.147 450.321 201.159 450.444C201.218 451.009 201.421 451.558 201.779 452.036C201.967 452.288 202.401 452.012 202.21 451.757C201.893 451.332 201.712 450.85 201.66 450.356C201.642 450.191 201.487 450.091 201.334 450.152L201.33 450.153Z" fill="#6F12E2"/>
<path d="M207.756 463.697C207.749 463.689 206.999 462.674 207.349 461.422C206.998 462.68 207.756 463.697 207.756 463.697Z" fill="#F6F6F4"/>
<path d="M204.548 470.307C204.548 470.307 203.467 469.933 201.893 469.386L201.891 469.388C201.768 469.344 201.627 469.295 201.497 469.249L215.895 440.094C216.218 440.094 216.553 440.108 216.91 440.143C217.548 440.207 218.765 440.809 218.792 440.822L209.837 458.934C209.837 458.934 209.834 458.936 209.829 458.939C209.699 459.026 207.83 460.279 207.483 461.05C207.427 461.176 207.383 461.3 207.348 461.422C206.999 462.674 207.749 463.689 207.756 463.697L204.548 470.307Z" fill="#405158"/>
<path d="M201.507 450.295C200.85 450.041 200.197 449.786 199.609 449.429C199.021 449.073 198.494 448.603 198.174 448.015C198.079 447.841 198.009 447.642 198.009 447.471L198.073 447.217C198.179 447.024 198.44 446.931 198.717 446.932L198.85 446.938C199.46 447 200.027 447.378 200.413 447.876C200.785 448.345 201.179 449.822 201.321 450.456L201.593 450.394C201.439 449.74 201.074 448.284 200.634 447.706C200.209 447.16 199.586 446.736 198.879 446.661L198.717 446.654C198.388 446.654 198.02 446.757 197.831 447.079C197.759 447.203 197.73 447.339 197.73 447.471C197.732 447.714 197.821 447.948 197.928 448.147C198.281 448.793 198.846 449.292 199.464 449.667C200.08 450.041 200.749 450.299 201.405 450.554L201.507 450.295Z" fill="#6F12E2"/>
<path d="M201.427 450.363C201.035 450.341 200.639 450.32 200.242 450.32C199.925 450.32 199.607 450.334 199.29 450.373C198.573 450.46 197.851 450.681 197.262 451.125C197.003 451.324 196.733 451.611 196.729 451.99L196.732 452.059C196.779 452.489 197.16 452.75 197.513 452.869C197.744 452.946 197.984 452.98 198.223 452.98C198.683 452.98 199.141 452.852 199.544 452.64C200.184 452.294 201.119 451.119 201.53 450.586L201.307 450.417C200.917 450.937 199.946 452.12 199.414 452.394C199.048 452.587 198.63 452.702 198.223 452.702C198.011 452.702 197.802 452.671 197.601 452.605C197.3 452.507 197.026 452.286 197.01 452.032L197.008 451.99C197.003 451.763 197.197 451.521 197.43 451.348C197.966 450.942 198.64 450.731 199.323 450.649C199.627 450.612 199.933 450.599 200.242 450.599C200.629 450.599 201.02 450.62 201.411 450.641L201.427 450.363Z" fill="#6F12E2"/>
<path d="M81.0273 450.775C75.9067 442.644 64.3326 420.605 87.82 416.312C111.307 412.019 189.78 449.205 189.78 449.205L184.807 464.14L111.769 452.658C111.769 452.658 121.762 465.962 109.641 465.356C92.0085 463.617 87.7752 459.41 81.0273 450.775Z" fill="#17282F"/>
<path d="M116.44 458.247C115.932 458.147 115.352 457.985 114.716 457.773C113.571 455.059 111.769 452.658 111.769 452.658L112.684 452.802L113.502 453.059L116.44 458.247Z" fill="#050606"/>
<path d="M114.716 457.773C107.621 455.409 93.4639 446.773 93.4639 446.773L112.684 452.802L111.769 452.658C111.769 452.658 113.571 455.059 114.716 457.773Z" fill="#080A0B"/>
<path d="M39.0616 263.314H79.9029C83.5948 263.314 86.588 266.298 86.588 269.98V291.967C86.588 295.649 83.5948 298.633 79.9029 298.633H70.1322L70.0593 305.285L62.7029 298.633H39.0612C35.3692 298.633 32.3765 295.649 32.3765 291.967V269.98C32.3765 266.298 35.3697 263.314 39.0616 263.314Z" fill="#6F12E2"/>
<path d="M54.4537 277.499L48.0143 280.498L54.4537 283.498V285.916L45.8486 281.754V279.243L54.4537 275.081V277.499Z" fill="white"/>
<path d="M74.0512 279.243V281.754L65.4463 285.916V283.498L71.8859 280.498L65.4463 277.499V275.081L74.0512 279.243Z" fill="white"/>
<path d="M61.4547 273.398L57.2583 287.859H59.3565L63.5524 273.398H61.4547Z" fill="white"/>
<path d="M70.4771 261.812H49.5007C49.3463 261.812 49.2217 261.688 49.2217 261.533C49.2217 261.38 49.3463 261.255 49.5007 261.255H70.4771C70.6314 261.255 70.7561 261.38 70.7561 261.533C70.7561 261.688 70.6314 261.812 70.4771 261.812Z" fill="#6F12E2"/>
<path d="M76.2644 261.821H72.9548C72.8004 261.821 72.6758 261.696 72.6758 261.542C72.6758 261.389 72.8004 261.264 72.9548 261.264H76.2644C76.4187 261.264 76.5434 261.389 76.5434 261.542C76.5434 261.696 76.4187 261.821 76.2644 261.821Z" fill="#6F12E2"/>
</g>
<defs>
<clipPath id="clip0_1044_15129">
<rect width="558" height="493" fill="white"/>
</clipPath>
</defs>
</svg>
