<svg width="16" height="16" viewBox="0 0 16 16" fill="none" xmlns="http://www.w3.org/2000/svg">
<g clip-path="url(#clip0_1359_471)">
<path d="M8 16C12.4183 16 16 12.4183 16 8C16 3.58172 12.4183 0 8 0C3.58172 0 0 3.58172 0 8C0 12.4183 3.58172 16 8 16Z" fill="#C81719"/>
<path d="M6.25629 11.8196C9.80349 11.8196 11.7435 8.88082 11.7435 6.33242C11.7435 6.24882 11.7419 6.16562 11.7379 6.08322C12.1143 5.81082 12.4419 5.47122 12.6999 5.08482C12.3543 5.23842 11.9823 5.34162 11.5923 5.38842C11.9903 5.14962 12.2963 4.77202 12.4403 4.32162C12.0675 4.54242 11.6551 4.70322 11.2159 4.78962C10.8639 4.41482 10.3627 4.18042 9.80829 4.18042C8.74309 4.18042 7.87949 5.04402 7.87949 6.10882C7.87949 6.26002 7.89629 6.40722 7.92949 6.54842C6.32669 6.46802 4.90549 5.70042 3.95429 4.53362C3.78869 4.81842 3.69309 5.14962 3.69309 5.50282C3.69309 6.17202 4.03349 6.76242 4.55149 7.10802C4.23509 7.09842 3.93789 7.01122 3.67789 6.86682C3.67749 6.87482 3.67749 6.88282 3.67749 6.89122C3.67749 7.82522 4.34229 8.60522 5.22469 8.78202C5.06269 8.82602 4.89229 8.85002 4.71629 8.85002C4.59189 8.85002 4.47109 8.83762 4.35389 8.81522C4.59949 9.58122 5.31149 10.1388 6.15549 10.1548C5.49549 10.672 4.66389 10.9804 3.76029 10.9804C3.60469 10.9804 3.45109 10.9716 3.30029 10.9536C4.15389 11.5004 5.16709 11.82 6.25669 11.82" fill="#F2F0F0"/>
</g>
<defs>
<clipPath id="clip0_1359_471">
<rect width="16" height="16" fill="white"/>
</clipPath>
</defs>
</svg>
