<svg width="24" height="24" viewBox="0 0 24 24" fill="none" xmlns="http://www.w3.org/2000/svg">
<g id="twitter-icon-circle-blue-seeklogo.com 1" clip-path="url(#clip0_2025_1063)">
<path id="Vector" d="M12 24C18.6274 24 24 18.6274 24 12C24 5.37258 18.6274 0 12 0C5.37258 0 0 5.37258 0 12C0 18.6274 5.37258 24 12 24Z" fill="white"/>
<path id="Vector_2" d="M9.38468 17.7294C14.7055 17.7294 17.6155 13.3212 17.6155 9.49863C17.6155 9.37323 17.6131 9.24843 17.6071 9.12483C18.1717 8.71623 18.6631 8.20683 19.0501 7.62723C18.5317 7.85763 17.9737 8.01243 17.3887 8.08263C17.9857 7.72443 18.4447 7.15803 18.6607 6.48243C18.1015 6.81363 17.4829 7.05483 16.8241 7.18443C16.2961 6.62223 15.5443 6.27063 14.7127 6.27063C13.1149 6.27063 11.8195 7.56603 11.8195 9.16323C11.8195 9.39003 11.8447 9.61083 11.8945 9.82263C9.49028 9.70203 7.35848 8.55063 5.93168 6.80043C5.68328 7.22763 5.53988 7.72443 5.53988 8.25423C5.53988 9.25803 6.05048 10.1436 6.82748 10.662C6.35288 10.6476 5.90708 10.5168 5.51708 10.3002C5.51648 10.3122 5.51648 10.3242 5.51648 10.3368C5.51648 11.7378 6.51368 12.9078 7.83728 13.173C7.59428 13.239 7.33868 13.275 7.07468 13.275C6.88808 13.275 6.70688 13.2564 6.53108 13.2228C6.89948 14.3718 7.96748 15.2082 9.23348 15.2322C8.24348 16.008 6.99608 16.4706 5.64068 16.4706C5.40728 16.4706 5.17688 16.4574 4.95068 16.4304C6.23108 17.2506 7.75088 17.73 9.38528 17.73" fill="#102057"/>
</g>
<defs>
<clipPath id="clip0_2025_1063">
<rect width="24" height="24" fill="white"/>
</clipPath>
</defs>
</svg>
