<svg width="459" height="346" viewBox="0 0 459 346" fill="none" xmlns="http://www.w3.org/2000/svg">
<g clip-path="url(#clip0_199_39200)">
<path d="M264.508 16.8399C268.446 25.2066 260.103 27.5764 250.546 32.0609C240.99 36.5453 233.838 41.4461 229.901 33.0795C225.964 24.7128 222.769 8.10648 236.289 1.76247C250.274 -4.80008 260.571 8.47323 264.508 16.8399Z" fill="#2F2E41"/>
<path d="M245.01 33.2938C252.115 33.2938 257.875 27.5419 257.875 20.4465C257.875 13.3512 252.115 7.59924 245.01 7.59924C237.905 7.59924 232.145 13.3512 232.145 20.4465C232.145 27.5419 237.905 33.2938 245.01 33.2938Z" fill="#FFB8B8"/>
<path d="M308.746 77.4216C308.301 76.841 307.856 76.2708 307.405 75.7164C306.824 74.9945 306.239 74.2954 305.651 73.6188C298.983 65.9349 291.89 61.0964 284.08 60.5786H284.07L283.955 60.5681L268.392 75.7164L263.102 80.8634L263.217 81.1459L266.072 88.244H316.09C313.836 84.5089 311.385 80.8963 308.746 77.4216Z" fill="#2F2E41"/>
<path d="M231.02 25.6189L235.625 23.4578L234.983 16.8235L238.063 22.3138L240.264 21.2809L239.89 17.4109L241.686 20.6135L258.042 12.9387C256.506 9.67421 253.734 7.15282 250.336 5.92919C246.938 4.70556 243.193 4.87992 239.924 6.41391L237.554 7.52622C234.284 9.06022 231.76 11.8282 230.534 15.2212C229.309 18.6143 229.483 22.3544 231.02 25.6189Z" fill="#2F2E41"/>
<path d="M337.609 258.818H68.9788C66.6874 258.815 64.4905 257.905 62.8702 256.287C61.2499 254.669 60.3385 252.475 60.3359 250.187V88.9993C60.3378 87.3229 61.0055 85.7157 62.1925 84.5303C63.3795 83.3449 64.989 82.6781 66.6677 82.6761H339.81C341.518 82.6781 343.155 83.3564 344.363 84.5623C345.571 85.7682 346.25 87.4032 346.252 89.1086V250.187C346.249 252.475 345.338 254.669 343.717 256.287C342.097 257.905 339.9 258.815 337.609 258.818Z" fill="#F2F2F2"/>
<path d="M77.3595 250.187H329.228C331.45 250.187 333.582 249.305 335.154 247.736C336.726 246.166 337.609 244.037 337.609 241.818V105.009C337.609 102.789 336.726 100.66 335.154 99.0907C333.582 97.5212 331.45 96.6394 329.228 96.6394H77.3595C75.1367 96.6394 73.005 97.5212 71.4332 99.0907C69.8615 100.66 68.9785 102.789 68.9785 105.009V241.818C68.9785 244.037 69.8615 246.166 71.4332 247.736C73.005 249.305 75.1367 250.187 77.3595 250.187Z" fill="white"/>
<path d="M346.132 88.5057H60.2148V84.1116C60.2182 81.8158 61.1333 79.615 62.7595 77.9921C64.3857 76.3692 66.5901 75.4567 68.8892 75.4548H337.457C339.756 75.4567 341.961 76.3692 343.587 77.9921C345.213 79.615 346.128 81.8158 346.132 84.1116V88.5057Z" fill="#6C63FF"/>
<path d="M75.98 84.2338C77.2192 84.2338 78.2237 83.2307 78.2237 81.9932C78.2237 80.7558 77.2192 79.7527 75.98 79.7527C74.7409 79.7527 73.7363 80.7558 73.7363 81.9932C73.7363 83.2307 74.7409 84.2338 75.98 84.2338Z" fill="white"/>
<path d="M84.4957 84.2338C85.7348 84.2338 86.7393 83.2307 86.7393 81.9932C86.7393 80.7558 85.7348 79.7527 84.4957 79.7527C83.2565 79.7527 82.252 80.7558 82.252 81.9932C82.252 83.2307 83.2565 84.2338 84.4957 84.2338Z" fill="white"/>
<path d="M93.0132 84.2338C94.2524 84.2338 95.2569 83.2307 95.2569 81.9932C95.2569 80.7558 94.2524 79.7527 93.0132 79.7527C91.7741 79.7527 90.7695 80.7558 90.7695 81.9932C90.7695 83.2307 91.7741 84.2338 93.0132 84.2338Z" fill="white"/>
<path d="M211.152 220.518H188.629C187.309 220.516 186.044 219.992 185.111 219.06C184.179 218.129 183.654 216.866 183.652 215.548V193.056C183.654 191.739 184.179 190.476 185.111 189.544C186.044 188.612 187.309 188.088 188.629 188.087H211.152C212.472 188.088 213.737 188.612 214.669 189.544C215.602 190.476 216.127 191.739 216.129 193.056V215.548C216.127 216.866 215.602 218.129 214.669 219.06C213.737 219.992 212.472 220.516 211.152 220.518ZM188.629 189.133C187.587 189.134 186.588 189.548 185.852 190.283C185.115 191.019 184.701 192.016 184.7 193.056V215.548C184.701 216.588 185.115 217.586 185.852 218.321C186.588 219.057 187.587 219.47 188.629 219.471H211.152C212.194 219.47 213.193 219.057 213.929 218.321C214.666 217.586 215.08 216.588 215.081 215.548V193.056C215.08 192.016 214.666 191.019 213.929 190.283C213.193 189.548 212.194 189.134 211.152 189.133H188.629Z" fill="#CCCCCC"/>
<path d="M206.7 214.241H193.081C192.665 214.24 192.265 214.075 191.971 213.781C191.676 213.486 191.51 213.087 191.51 212.671V195.933C191.51 195.517 191.676 195.118 191.971 194.824C192.265 194.53 192.665 194.364 193.081 194.364H202.949C203.307 194.364 203.655 194.486 203.934 194.71L207.684 197.72C207.868 197.866 208.016 198.052 208.118 198.264C208.22 198.476 208.272 198.708 208.272 198.943V212.671C208.271 213.087 208.106 213.486 207.811 213.781C207.516 214.075 207.117 214.24 206.7 214.241ZM193.081 195.41C192.942 195.41 192.809 195.465 192.711 195.563C192.613 195.661 192.558 195.794 192.557 195.933V212.671C192.558 212.81 192.613 212.943 192.711 213.041C192.809 213.139 192.942 213.194 193.081 213.194H206.7C206.839 213.194 206.972 213.139 207.07 213.041C207.169 212.943 207.224 212.81 207.224 212.671V198.943C207.224 198.864 207.207 198.787 207.173 198.717C207.139 198.646 207.09 198.584 207.028 198.535L203.277 195.525C203.184 195.451 203.069 195.41 202.949 195.41H193.081Z" fill="#CCCCCC"/>
<path d="M204.083 201.687H195.702C195.563 201.687 195.429 201.632 195.331 201.534C195.233 201.436 195.178 201.303 195.178 201.164C195.178 201.025 195.233 200.892 195.331 200.794C195.429 200.696 195.563 200.641 195.702 200.641H204.083C204.221 200.641 204.355 200.696 204.453 200.794C204.551 200.892 204.606 201.025 204.606 201.164C204.606 201.303 204.551 201.436 204.453 201.534C204.355 201.632 204.221 201.687 204.083 201.687Z" fill="#CCCCCC"/>
<path d="M204.083 204.825H195.702C195.563 204.825 195.429 204.77 195.331 204.672C195.233 204.574 195.178 204.441 195.178 204.302C195.178 204.164 195.233 204.03 195.331 203.932C195.429 203.834 195.563 203.779 195.702 203.779H204.083C204.221 203.779 204.355 203.834 204.453 203.932C204.551 204.03 204.606 204.164 204.606 204.302C204.606 204.441 204.551 204.574 204.453 204.672C204.355 204.77 204.221 204.825 204.083 204.825Z" fill="#CCCCCC"/>
<path d="M204.083 207.964H195.702C195.563 207.964 195.429 207.909 195.331 207.811C195.233 207.712 195.178 207.579 195.178 207.441C195.178 207.302 195.233 207.169 195.331 207.071C195.429 206.973 195.563 206.918 195.702 206.918H204.083C204.221 206.918 204.355 206.973 204.453 207.071C204.551 207.169 204.606 207.302 204.606 207.441C204.606 207.579 204.551 207.712 204.453 207.811C204.355 207.909 204.221 207.964 204.083 207.964Z" fill="#CCCCCC"/>
<path d="M264.582 220.518H242.058C240.739 220.516 239.474 219.992 238.541 219.06C237.608 218.129 237.084 216.866 237.082 215.548V193.056C237.084 191.739 237.608 190.476 238.541 189.544C239.474 188.612 240.739 188.088 242.058 188.087H264.582C265.901 188.088 267.166 188.612 268.099 189.544C269.032 190.476 269.557 191.739 269.558 193.056V215.548C269.557 216.866 269.032 218.129 268.099 219.06C267.166 219.992 265.901 220.516 264.582 220.518ZM242.058 189.133C241.017 189.134 240.018 189.548 239.282 190.283C238.545 191.019 238.131 192.016 238.13 193.056V215.548C238.131 216.588 238.545 217.586 239.282 218.321C240.018 219.057 241.017 219.47 242.058 219.471H264.582C265.624 219.47 266.622 219.057 267.359 218.321C268.095 217.586 268.509 216.588 268.511 215.548V193.056C268.509 192.016 268.095 191.019 267.359 190.283C266.622 189.548 265.624 189.134 264.582 189.133H242.058Z" fill="#CCCCCC"/>
<path d="M260.654 210.056H245.987C245.571 210.056 245.171 209.89 244.877 209.596C244.582 209.302 244.416 208.903 244.416 208.487V200.118C244.416 199.702 244.582 199.303 244.877 199.009C245.171 198.714 245.571 198.549 245.987 198.548H260.654C261.071 198.549 261.47 198.714 261.765 199.009C262.059 199.303 262.225 199.702 262.226 200.118V208.487C262.225 208.903 262.059 209.302 261.765 209.596C261.47 209.89 261.071 210.056 260.654 210.056ZM245.987 199.595C245.849 199.595 245.715 199.65 245.617 199.748C245.519 199.846 245.464 199.979 245.464 200.118V208.487C245.464 208.626 245.519 208.759 245.617 208.857C245.715 208.955 245.849 209.01 245.987 209.01H260.654C260.793 209.01 260.926 208.955 261.024 208.857C261.123 208.759 261.178 208.626 261.178 208.487V200.118C261.178 199.979 261.123 199.846 261.024 199.748C260.926 199.65 260.793 199.595 260.654 199.595H245.987Z" fill="#CCCCCC"/>
<path d="M253.32 205.682C253.026 205.683 252.737 205.601 252.487 205.445L244.661 200.561C244.544 200.488 244.46 200.37 244.429 200.235C244.398 200.1 244.422 199.958 244.496 199.841C244.569 199.723 244.687 199.64 244.822 199.608C244.957 199.577 245.099 199.601 245.217 199.674L253.043 204.558C253.126 204.61 253.222 204.637 253.32 204.637C253.418 204.637 253.514 204.61 253.598 204.558L261.423 199.674C261.541 199.601 261.683 199.577 261.818 199.608C261.954 199.64 262.071 199.723 262.144 199.841C262.218 199.958 262.242 200.1 262.211 200.235C262.18 200.37 262.096 200.488 261.979 200.561L254.153 205.445C253.903 205.601 253.615 205.683 253.32 205.682Z" fill="#CCCCCC"/>
<path d="M157.725 220.518H135.201C133.881 220.516 132.617 219.992 131.684 219.06C130.751 218.129 130.226 216.866 130.225 215.548V193.056C130.226 191.739 130.751 190.476 131.684 189.544C132.617 188.612 133.881 188.088 135.201 188.087H157.725C159.044 188.088 160.309 188.612 161.242 189.544C162.175 190.476 162.699 191.739 162.701 193.056V215.548C162.699 216.866 162.175 218.129 161.242 219.06C160.309 219.992 159.044 220.516 157.725 220.518ZM135.201 189.133C134.159 189.134 133.161 189.548 132.424 190.283C131.688 191.019 131.273 192.016 131.272 193.056V215.548C131.273 216.588 131.688 217.586 132.424 218.321C133.161 219.057 134.159 219.47 135.201 219.471H157.725C158.766 219.47 159.765 219.057 160.501 218.321C161.238 217.586 161.652 216.588 161.653 215.548V193.056C161.652 192.016 161.238 191.019 160.501 190.283C159.765 189.548 158.766 189.134 157.725 189.133H135.201Z" fill="#CCCCCC"/>
<path d="M153.797 210.056H139.13C138.713 210.056 138.314 209.89 138.019 209.596C137.725 209.302 137.559 208.903 137.559 208.487V200.118C137.559 199.702 137.725 199.303 138.019 199.009C138.314 198.714 138.713 198.549 139.13 198.548H153.797C154.213 198.549 154.613 198.714 154.907 199.009C155.202 199.303 155.368 199.702 155.368 200.118V208.487C155.368 208.903 155.202 209.302 154.907 209.596C154.613 209.89 154.213 210.056 153.797 210.056ZM139.13 199.595C138.991 199.595 138.858 199.65 138.76 199.748C138.662 199.846 138.606 199.979 138.606 200.118V208.487C138.606 208.626 138.662 208.759 138.76 208.857C138.858 208.955 138.991 209.01 139.13 209.01H153.797C153.936 209.01 154.069 208.955 154.167 208.857C154.265 208.759 154.32 208.626 154.321 208.487V200.118C154.32 199.979 154.265 199.846 154.167 199.748C154.069 199.65 153.936 199.595 153.797 199.595H139.13Z" fill="#CCCCCC"/>
<path d="M151.472 210.056H140.931C140.747 210.056 140.566 210.008 140.407 209.916C140.247 209.824 140.115 209.692 140.023 209.533C139.931 209.374 139.883 209.194 139.883 209.01C139.883 208.826 139.931 208.646 140.023 208.487L143.198 202.995C143.29 202.835 143.423 202.703 143.582 202.612C143.741 202.52 143.922 202.471 144.106 202.471C144.29 202.471 144.47 202.52 144.63 202.612C144.789 202.703 144.921 202.835 145.013 202.995L147.064 206.542L148.252 204.487C148.344 204.328 148.476 204.196 148.635 204.104C148.795 204.012 148.975 203.964 149.159 203.964C149.343 203.964 149.524 204.012 149.683 204.104C149.842 204.196 149.975 204.328 150.066 204.487L152.379 208.487C152.471 208.646 152.519 208.826 152.519 209.01C152.519 209.194 152.471 209.374 152.379 209.533C152.287 209.692 152.155 209.824 151.996 209.916C151.836 210.008 151.656 210.056 151.472 210.056ZM151.472 209.01L149.159 205.01L147.518 207.849C147.472 207.929 147.405 207.995 147.326 208.041C147.246 208.087 147.156 208.111 147.064 208.111C146.972 208.111 146.882 208.087 146.802 208.041C146.722 207.995 146.656 207.929 146.61 207.849L144.106 203.518L140.931 209.01H151.472Z" fill="#CCCCCC"/>
<path d="M152.225 202.733C152.804 202.733 153.273 202.265 153.273 201.687C153.273 201.109 152.804 200.641 152.225 200.641C151.647 200.641 151.178 201.109 151.178 201.687C151.178 202.265 151.647 202.733 152.225 202.733Z" fill="#CCCCCC"/>
<path d="M402.719 339.031L396.297 339.031L393.242 314.296L402.72 314.296L402.719 339.031Z" fill="#FFB8B8"/>
<path d="M404.357 345.247L383.65 345.247V344.985C383.65 343.928 383.859 342.882 384.264 341.905C384.669 340.929 385.263 340.041 386.011 339.294C386.759 338.547 387.648 337.954 388.626 337.549C389.604 337.145 390.652 336.937 391.71 336.937H391.71L404.357 336.937L404.357 345.247Z" fill="#2F2E41"/>
<path d="M428.908 339.031L422.487 339.031L419.432 314.296L428.909 314.296L428.908 339.031Z" fill="#FFB8B8"/>
<path d="M430.546 345.247L409.84 345.247V344.985C409.84 343.928 410.048 342.882 410.453 341.905C410.858 340.929 411.452 340.041 412.2 339.294C412.949 338.547 413.837 337.954 414.815 337.549C415.793 337.145 416.841 336.937 417.899 336.937H417.9L430.547 336.937L430.546 345.247Z" fill="#2F2E41"/>
<path d="M426.983 328.308L421.036 326.502C420.592 326.367 420.199 326.106 419.904 325.749C419.609 325.392 419.426 324.957 419.377 324.497L413.832 272.019C413.828 271.955 413.8 271.896 413.753 271.852C413.707 271.809 413.645 271.785 413.582 271.785C413.518 271.778 413.455 271.797 413.405 271.837C413.355 271.877 413.322 271.935 413.314 271.999L404.027 322.841C403.97 323.15 403.853 323.444 403.681 323.706C403.509 323.969 403.287 324.194 403.026 324.37C402.766 324.545 402.473 324.667 402.165 324.728C401.857 324.788 401.54 324.787 401.232 324.724L393.631 323.16C393.074 323.044 392.577 322.73 392.232 322.278C391.888 321.825 391.718 321.263 391.755 320.696L397.404 237.363L435.715 233.235L430.022 326.2C429.985 326.797 429.722 327.359 429.286 327.769C428.849 328.18 428.273 328.409 427.673 328.411C427.439 328.411 427.207 328.376 426.983 328.308Z" fill="#2F2E41"/>
<path d="M426.947 164.794C434.053 164.794 439.813 159.042 439.813 151.947C439.813 144.851 434.053 139.099 426.947 139.099C419.842 139.099 414.082 144.851 414.082 151.947C414.082 159.042 419.842 164.794 426.947 164.794Z" fill="#FFB8B8"/>
<path d="M397.346 237.853L405.652 185.623C406.094 182.846 407.123 180.195 408.671 177.846C410.218 175.497 412.249 173.504 414.628 171.999C417.007 170.495 419.679 169.514 422.467 169.121C425.255 168.729 428.095 168.933 430.798 169.722C435.524 171.087 439.57 174.162 442.146 178.346C444.723 182.531 445.645 187.524 444.732 192.351L436.041 238.995L397.346 237.853Z" fill="#6C63FF"/>
<path d="M430.498 247.198C431.141 246.774 431.683 246.215 432.085 245.559C432.488 244.904 432.742 244.168 432.829 243.404C432.917 242.64 432.835 241.867 432.59 241.137C432.346 240.408 431.944 239.742 431.413 239.184L440.002 222.576L430.33 223.607L423.657 239.22C422.778 240.172 422.28 241.413 422.257 242.708C422.233 244.002 422.686 245.26 423.529 246.244C424.373 247.227 425.548 247.867 426.832 248.043C428.117 248.219 429.421 247.918 430.498 247.198Z" fill="#FFB8B8"/>
<path d="M432.338 236.255C431.863 236.188 431.42 235.978 431.067 235.653L427.781 232.621C427.426 232.292 427.181 231.862 427.079 231.389C426.976 230.916 427.022 230.423 427.209 229.977L433.777 214.432L432.845 183.717C432.979 182.73 433.306 181.779 433.809 180.918C434.311 180.057 434.978 179.303 435.772 178.7C436.567 178.097 437.472 177.656 438.437 177.402C439.402 177.149 440.407 177.087 441.396 177.222C442.385 177.357 443.337 177.685 444.199 178.187C445.06 178.689 445.814 179.357 446.418 180.15C447.021 180.944 447.462 181.848 447.715 182.812C447.968 183.776 448.028 184.78 447.892 185.767L449.485 205.075C449.97 210.935 448.306 216.771 444.804 221.498L434.562 235.324C434.365 235.59 434.114 235.811 433.826 235.974C433.537 236.136 433.218 236.236 432.888 236.268C432.705 236.285 432.521 236.281 432.338 236.255Z" fill="#6C63FF"/>
<path d="M352.86 144.947C353.001 145.703 353.305 146.419 353.753 147.045C354.2 147.671 354.779 148.191 355.45 148.569C356.12 148.947 356.866 149.174 357.633 149.234C358.401 149.293 359.173 149.183 359.893 148.913L371.86 163.286L374.681 153.99L362.885 141.766C362.349 140.587 361.399 139.645 360.215 139.119C359.03 138.592 357.693 138.518 356.458 138.91C355.222 139.302 354.173 140.133 353.51 141.246C352.847 142.359 352.616 143.675 352.86 144.947Z" fill="#FFB8B8"/>
<path d="M362.234 150.905C362.481 150.494 362.848 150.168 363.285 149.97L367.362 148.131C367.804 147.933 368.296 147.875 368.772 147.965C369.248 148.056 369.685 148.29 370.023 148.636L381.797 160.736L410.484 171.854C411.343 172.362 412.093 173.035 412.691 173.832C413.289 174.63 413.724 175.537 413.971 176.503C414.218 177.468 414.272 178.473 414.129 179.459C413.987 180.446 413.651 181.394 413.142 182.251C412.632 183.108 411.958 183.856 411.159 184.452C410.359 185.049 409.45 185.482 408.483 185.727C407.515 185.973 406.509 186.025 405.522 185.882C404.534 185.739 403.585 185.403 402.727 184.893L384.301 178.829C378.709 176.99 373.976 173.184 370.982 168.121L362.226 153.313C362.057 153.028 361.951 152.711 361.914 152.382C361.876 152.054 361.908 151.721 362.008 151.406C362.063 151.23 362.139 151.062 362.234 150.905Z" fill="#6C63FF"/>
<path opacity="0.1" d="M437.382 196.494L436.859 213.233L427.209 229.977L435.266 211.317L437.382 196.494Z" fill="black"/>
<path d="M425.474 154.361C424.666 154.466 423.847 154.274 423.17 153.822C422.493 153.37 422.003 152.687 421.792 151.901C421.588 150.997 421.141 150.165 420.5 149.495C419.858 148.824 419.046 148.341 418.151 148.097C415.791 147.558 412.906 148.667 411.177 146.882C410.807 146.474 410.539 145.985 410.395 145.453C410.252 144.922 410.237 144.364 410.352 143.826C410.67 142.091 411.913 140.78 413.266 139.732C416.112 137.536 419.557 136.25 423.148 136.044C425.007 135.99 426.867 136.082 428.711 136.32C430.642 136.442 432.552 136.79 434.402 137.358C436.509 138.152 438.381 139.464 439.846 141.172C441.311 142.88 442.322 144.929 442.784 147.13C443.206 149.337 443.141 151.61 442.593 153.791C442.045 155.971 441.028 158.005 439.611 159.752C437.915 161.86 435.728 163.523 433.241 164.595C432.649 164.874 431.97 164.908 431.352 164.69C429.803 164.075 430.056 162.159 430.762 160.881C431.518 159.513 432.681 158.189 432.074 156.524C431.769 155.753 431.184 155.124 430.435 154.764C428.896 153.979 427.173 154.165 425.518 154.356L425.474 154.361Z" fill="#2F2E41"/>
<path d="M348.561 161.616H189.323C187.031 161.613 184.834 160.703 183.214 159.085C181.594 157.467 180.682 155.273 180.68 152.985V118.985C180.682 116.697 181.594 114.503 183.214 112.885C184.834 111.267 187.031 110.357 189.323 110.354H348.561C350.852 110.357 353.049 111.267 354.669 112.885C356.29 114.503 357.201 116.697 357.204 118.985V152.985C357.201 155.273 356.29 157.467 354.669 159.085C353.049 160.703 350.852 161.613 348.561 161.616Z" fill="white"/>
<path d="M348.561 161.877H189.323C186.962 161.875 184.698 160.937 183.029 159.27C181.36 157.603 180.421 155.343 180.418 152.985V118.985C180.421 116.628 181.36 114.367 183.029 112.7C184.698 111.033 186.962 110.096 189.323 110.093H348.561C350.922 110.096 353.185 111.033 354.855 112.7C356.524 114.367 357.463 116.628 357.466 118.985V152.985C357.463 155.343 356.524 157.603 354.855 159.27C353.185 160.937 350.922 161.875 348.561 161.877ZM189.323 111.139C187.24 111.142 185.242 111.969 183.77 113.44C182.297 114.911 181.468 116.905 181.466 118.985V152.985C181.468 155.065 182.297 157.06 183.77 158.531C185.242 160.002 187.24 160.829 189.323 160.831H348.561C350.644 160.829 352.641 160.002 354.114 158.531C355.587 157.06 356.416 155.065 356.418 152.985V118.985C356.416 116.905 355.587 114.911 354.114 113.44C352.641 111.969 350.644 111.142 348.561 111.139H189.323Z" fill="#3F3D56"/>
<path d="M329.18 153.247H208.703C206.412 153.244 204.215 152.334 202.595 150.716C200.975 149.098 200.063 146.904 200.061 144.616V126.831C200.063 124.543 200.975 122.349 202.595 120.731C204.215 119.113 206.412 118.203 208.703 118.201H329.18C331.471 118.203 333.668 119.113 335.288 120.731C336.909 122.349 337.82 124.543 337.823 126.831V144.616C337.82 146.904 336.909 149.098 335.288 150.716C333.668 152.334 331.471 153.244 329.18 153.247Z" fill="#F2F2F2"/>
<path d="M234.629 143.661C240.337 143.661 244.965 139.04 244.965 133.34C244.965 127.639 240.337 123.018 234.629 123.018C228.921 123.018 224.293 127.639 224.293 133.34C224.293 139.04 228.921 143.661 234.629 143.661Z" fill="#FF6584"/>
<path d="M321.692 152.205L307.103 139.986L292.765 127.978C292.387 127.661 291.908 127.488 291.414 127.489C290.921 127.49 290.443 127.665 290.066 127.984L275.775 140.047L272.284 142.993L267.021 138.585L251.025 125.189C250.647 124.872 250.168 124.699 249.675 124.699C249.181 124.7 248.703 124.875 248.326 125.194L232.382 138.652L216.188 152.321C216.106 152.391 216.047 152.483 216.019 152.587C215.992 152.691 215.997 152.801 216.034 152.901C216.071 153.002 216.138 153.089 216.226 153.15C216.315 153.211 216.419 153.244 216.527 153.244L249.729 153.18L260.239 153.16L260.136 153.247L291.464 153.186L321.356 153.129C321.464 153.129 321.569 153.096 321.657 153.034C321.744 152.972 321.811 152.885 321.848 152.784C321.885 152.683 321.889 152.574 321.861 152.47C321.833 152.367 321.774 152.274 321.692 152.205Z" fill="#3F3D56"/>
<path d="M458.476 346H357.905C357.766 346 357.633 345.945 357.534 345.847C357.436 345.749 357.381 345.616 357.381 345.477C357.381 345.338 357.436 345.205 357.534 345.107C357.633 345.009 357.766 344.954 357.905 344.954H458.476C458.615 344.954 458.748 345.009 458.847 345.107C458.945 345.205 459 345.338 459 345.477C459 345.616 458.945 345.749 458.847 345.847C458.748 345.945 458.615 346 458.476 346Z" fill="#CCCCCC"/>
<path d="M316.412 69.0001C315.993 68.3212 315.441 67.7345 314.788 67.2759C314.135 66.8172 313.395 66.4962 312.614 66.3324C312.328 66.2723 312.037 66.2356 311.745 66.2225L271.835 30.5906C271.051 29.786 270.006 29.2871 268.886 29.1836C268.666 29.1582 268.443 29.1512 268.221 29.1627C267.3 29.2044 266.412 29.5132 265.664 30.0513C264.916 30.5894 264.341 31.3334 264.01 32.1924C263.679 33.0514 263.606 33.9881 263.799 34.8881C263.992 35.788 264.444 36.6122 265.099 37.2599L280.379 50.5617L305.469 72.4001C305.49 72.8114 305.551 73.2196 305.653 73.6188C305.953 74.7753 306.598 75.8133 307.503 76.5952C308.407 77.3771 309.529 77.8659 310.718 77.997C311.802 78.1235 312.901 77.9422 313.887 77.4739C314.669 77.1087 315.362 76.5787 315.919 75.9203C315.977 75.8523 316.029 75.7896 316.082 75.7163C316.814 74.7632 317.238 73.6097 317.297 72.4097C317.356 71.2097 317.047 70.0202 316.412 69.0001Z" fill="#FFB8B8"/>
<path d="M248.148 103.34L247.776 88.244L247.461 75.7164L247.247 66.9496L246.822 49.8608C246.738 48.9458 246.389 48.0751 245.818 47.3548C245.247 46.6346 244.478 46.0959 243.606 45.8047C242.733 45.5135 241.794 45.4823 240.904 45.7149C240.014 45.9475 239.211 46.4339 238.593 47.1146C238.448 47.2702 238.316 47.4382 238.2 47.6168C237.555 48.5391 237.265 49.6627 237.383 50.7814L238.316 75.7164L238.782 88.244L239.379 104.224C239.207 104.459 239.051 104.705 238.913 104.962C238.54 105.667 238.315 106.44 238.251 107.235C238.187 108.03 238.286 108.83 238.541 109.586C238.807 110.378 239.238 111.105 239.806 111.719C240.374 112.333 241.066 112.82 241.836 113.148C242.606 113.475 243.437 113.636 244.274 113.62C245.111 113.604 245.935 113.411 246.691 113.053C247.57 112.639 248.333 112.014 248.913 111.234C249.493 110.455 249.871 109.545 250.015 108.585C250.159 107.625 250.064 106.644 249.738 105.729C249.413 104.814 248.866 103.994 248.148 103.34Z" fill="#FFB8B8"/>
<path d="M284.081 60.5785L280.378 50.5616L274.385 34.3359C273.953 33.1553 273.26 32.0871 272.358 31.2105C271.455 30.334 270.367 29.6716 269.173 29.2725C269.079 29.2411 268.98 29.2097 268.885 29.1835C267.729 28.8331 266.51 28.7367 265.313 28.901C264.116 29.0653 262.969 29.4865 261.95 30.1355L241.768 42.9195C239.919 44.0876 238.598 45.9274 238.083 48.0503C237.568 50.1732 237.899 52.413 239.007 54.2964C241.531 58.6545 244.281 62.878 247.247 66.9496C249.599 70.1456 253.978 70.4855 254.737 75.7163H269.618L284.683 62.2105L284.081 60.5785Z" fill="#CCCCCC"/>
<path d="M52.9911 183C59.6945 183 65.1286 177.573 65.1286 170.879C65.1286 164.185 59.6945 158.759 52.9911 158.759C46.2877 158.759 40.8535 164.185 40.8535 170.879C40.8535 177.573 46.2877 183 52.9911 183Z" fill="#A0616A"/>
<path d="M82.7896 162.536C82.9092 162.631 83.0251 162.732 83.1373 162.839C83.6949 163.363 84.1352 163.999 84.4294 164.706C84.7236 165.412 84.865 166.172 84.8444 166.937C84.8237 167.702 84.6415 168.453 84.3097 169.143C83.9779 169.832 83.5039 170.444 82.9189 170.938C82.7825 171.052 82.6402 171.159 82.4926 171.259L83.314 198.953C83.3374 199.859 83.0675 200.749 82.5443 201.491C82.021 202.232 81.2724 202.785 80.4095 203.068L80.3595 203.078L57.8416 205.473C57.2294 205.538 56.6103 205.481 56.0202 205.306C55.4301 205.131 54.8806 204.841 54.4034 204.452C53.9262 204.064 53.5309 203.585 53.2401 203.043C52.9493 202.501 52.769 201.907 52.7094 201.295C52.6498 200.683 52.7122 200.066 52.893 199.478C53.0738 198.89 53.3693 198.344 53.7626 197.871C54.1559 197.398 54.6392 197.008 55.1844 196.722C55.7297 196.437 56.3262 196.262 56.9395 196.208L72.9912 194.796L75.7672 170.813C75.5857 170.652 75.4156 170.479 75.2583 170.295C74.388 169.266 73.9315 167.951 73.9775 166.605C74.0235 165.259 74.5688 163.979 75.5074 163.012C76.4461 162.045 77.7111 161.461 79.0568 161.373C80.4025 161.285 81.7328 161.7 82.7896 162.536Z" fill="#A0616A"/>
<path d="M72.9815 339.567H79.0404L81.9224 316.231H72.9805L72.9815 339.567Z" fill="#A0616A"/>
<path d="M71.4355 337.592L83.3669 337.591C84.3654 337.591 85.3547 337.787 86.2772 338.169C87.1997 338.551 88.0379 339.11 88.744 339.815C89.4501 340.52 90.0102 341.357 90.3923 342.278C90.7744 343.199 90.9711 344.187 90.9711 345.184V345.431L71.4359 345.431L71.4355 337.592Z" fill="#2F2E41"/>
<path d="M12.7637 331.202L17.9693 334.297L32.4018 315.719L24.7186 311.151L12.7637 331.202Z" fill="#A0616A"/>
<path d="M12.448 328.715L22.6998 334.811C23.5578 335.321 24.3071 335.995 24.9043 336.794C25.5014 337.593 25.9351 338.502 26.1805 339.468C26.426 340.435 26.4784 341.44 26.3347 342.427C26.191 343.414 25.8542 344.363 25.3433 345.219L25.2169 345.431L8.43164 335.452L12.448 328.715Z" fill="#2F2E41"/>
<path d="M80.4707 331.324H73.6865C73.1371 331.325 72.607 331.123 72.1985 330.756C71.7901 330.389 71.5324 329.884 71.4752 329.338L64.6357 265.138C64.6185 264.976 64.5484 264.825 64.4365 264.707C64.3245 264.589 64.1767 264.511 64.016 264.485C63.8553 264.459 63.6906 264.487 63.5473 264.564C63.4039 264.641 63.29 264.763 63.2229 264.911L50.8844 292.194L29.0396 327.765C28.7569 328.221 28.3191 328.56 27.8065 328.72C27.2939 328.88 26.7407 328.85 26.2483 328.636L17.5215 324.802C17.2329 324.675 16.9747 324.488 16.7639 324.254C16.553 324.02 16.3944 323.744 16.2986 323.444C16.2028 323.144 16.1719 322.827 16.208 322.514C16.2441 322.202 16.3464 321.9 16.508 321.63L36.5894 288.052L42.7481 259.762C40.8111 247.493 49.1151 229.253 49.1993 229.07L49.2404 228.981L72.1139 220.053L72.2286 220.193C81.2492 249.754 86.746 281.567 82.6874 329.29C82.6373 329.843 82.3825 330.359 81.9727 330.735C81.5628 331.111 81.0274 331.321 80.4707 331.324Z" fill="#2F2E41"/>
<path d="M48.3176 231.97L48.2111 231.746C48.1602 231.639 43.0741 220.927 39.1534 209.478C38.3999 207.264 38.115 204.918 38.3169 202.588C38.5187 200.259 39.2028 197.996 40.3259 195.945C41.4637 193.871 43.0201 192.057 44.8968 190.616C46.7734 189.175 48.9293 188.139 51.2278 187.573C55.2182 186.618 59.4194 187.126 63.066 189.005C66.7125 190.884 69.5618 194.009 71.0948 197.81C74.2047 205.576 73.2136 213.865 72.2808 220.384L72.2622 220.515L72.1433 220.571L48.3176 231.97Z" fill="#3F3D56"/>
<path d="M67.7066 164.033H48.4336V155.643C52.6638 153.965 56.8033 152.538 59.3055 155.643C61.5336 155.643 63.6705 156.527 65.246 158.101C66.8215 159.674 67.7066 161.808 67.7066 164.033Z" fill="#2F2E41"/>
<path d="M47.3678 154.163C35.846 154.163 32.6211 168.585 32.6211 176.721C32.6211 181.258 34.676 182.881 37.905 183.43L39.0454 177.357L41.7163 183.692C42.6234 183.696 43.5763 183.679 44.5642 183.66L45.4698 181.798L47.4892 183.627C55.5773 183.639 62.1143 184.816 62.1143 176.721C62.1143 168.585 59.286 154.163 47.3678 154.163Z" fill="#2F2E41"/>
<path d="M101.095 346H0.52381C0.384887 346 0.251653 345.945 0.15342 345.847C0.0551866 345.749 0 345.616 0 345.477C0 345.338 0.0551866 345.205 0.15342 345.107C0.251653 345.009 0.384887 344.954 0.52381 344.954H101.095C101.234 344.954 101.368 345.009 101.466 345.107C101.564 345.205 101.619 345.338 101.619 345.477C101.619 345.616 101.564 345.749 101.466 345.847C101.368 345.945 101.234 346 101.095 346Z" fill="#CCCCCC"/>
<path d="M102.986 173.908H80.4625C79.1432 173.907 77.8784 173.383 76.9455 172.451C76.0126 171.52 75.4878 170.256 75.4863 168.939V146.447C75.4878 145.129 76.0126 143.866 76.9455 142.935C77.8784 142.003 79.1432 141.479 80.4625 141.478H102.986C104.306 141.479 105.571 142.003 106.503 142.935C107.436 143.866 107.961 145.129 107.963 146.447V168.939C107.961 170.256 107.436 171.52 106.503 172.451C105.571 173.383 104.306 173.907 102.986 173.908Z" fill="white"/>
<path d="M102.986 173.908H80.4625C79.1432 173.907 77.8784 173.383 76.9455 172.451C76.0126 171.52 75.4878 170.256 75.4863 168.939V146.447C75.4878 145.129 76.0126 143.866 76.9455 142.935C77.8784 142.003 79.1432 141.479 80.4625 141.478H102.986C104.306 141.479 105.571 142.003 106.503 142.935C107.436 143.866 107.961 145.129 107.963 146.447V168.939C107.961 170.256 107.436 171.52 106.503 172.451C105.571 173.383 104.306 173.907 102.986 173.908ZM80.4625 142.524C79.421 142.525 78.4224 142.939 77.6859 143.674C76.9494 144.409 76.5351 145.407 76.5339 146.447V168.939C76.5351 169.979 76.9494 170.976 77.6859 171.712C78.4224 172.447 79.421 172.861 80.4625 172.862H102.986C104.028 172.861 105.027 172.447 105.763 171.712C106.5 170.976 106.914 169.979 106.915 168.939V146.447C106.914 145.407 106.5 144.409 105.763 143.674C105.027 142.939 104.028 142.525 102.986 142.524H80.4625Z" fill="#3F3D56"/>
<path d="M99.0584 164.754H84.3917C83.9751 164.754 83.5757 164.588 83.2811 164.294C82.9865 164 82.8208 163.601 82.8203 163.185V152.201C82.8208 151.785 82.9865 151.386 83.2811 151.091C83.5757 150.797 83.9751 150.632 84.3917 150.631H88.5206C88.7891 150.63 89.0534 150.699 89.2879 150.829C89.5223 150.96 89.719 151.149 89.859 151.378L91.0105 153.247H99.0584C99.4751 153.247 99.8745 153.413 100.169 153.707C100.464 154.001 100.629 154.4 100.63 154.816V163.185C100.629 163.601 100.464 164 100.169 164.294C99.8745 164.588 99.4751 164.754 99.0584 164.754Z" fill="#6C63FF"/>
<path d="M98.5811 170.304C98.6544 170.438 98.7221 170.576 98.7841 170.717C99.0942 171.417 99.2528 172.174 99.2495 172.939C99.2461 173.704 99.081 174.459 98.7648 175.156C98.4487 175.853 97.9887 176.475 97.4149 176.982C96.8412 177.489 96.1667 177.869 95.4356 178.097C95.2655 178.15 95.0927 178.193 94.918 178.228L84.9136 204.07C84.5828 204.915 83.9882 205.63 83.2179 206.111C82.4476 206.591 81.5427 206.811 80.6376 206.737L80.5873 206.728L58.9033 200.209C58.3137 200.032 57.7652 199.74 57.2893 199.349C56.8135 198.959 56.4197 198.479 56.1309 197.936C55.842 197.393 55.6637 196.798 55.6063 196.186C55.5488 195.574 55.6134 194.957 55.7963 194.369C55.9792 193.782 56.2767 193.237 56.6717 192.766C57.0668 192.294 57.5514 191.905 58.0978 191.622C58.6441 191.338 59.2413 191.166 59.8548 191.114C60.4683 191.062 61.086 191.132 61.6722 191.32L77.0148 196.239L88.8929 175.211C88.7879 174.992 88.6984 174.767 88.6251 174.536C88.2227 173.251 88.313 171.862 88.8784 170.64C89.4439 169.417 90.4441 168.448 91.6849 167.92C92.9257 167.393 94.3185 167.345 95.5929 167.785C96.8673 168.226 97.9323 169.123 98.5811 170.304Z" fill="#A0616A"/>
</g>
<defs>
<clipPath id="clip0_199_39200">
<rect width="459" height="346" fill="white"/>
</clipPath>
</defs>
</svg>
