<svg width="453" height="352" viewBox="0 0 453 352" fill="none" xmlns="http://www.w3.org/2000/svg">
<g clip-path="url(#clip0_199_39153)">
<path d="M238.128 12.5522H122.785V139.005H238.128V12.5522Z" fill="#F2F2F2"/>
<path d="M249.755 0.464844H134.412V126.918H249.755V0.464844Z" stroke="#3F3D56" stroke-width="0.679671" stroke-miterlimit="10"/>
<path d="M146.676 112.652H140.457V118.868H146.676V112.652Z" fill="#6C63FF"/>
<path d="M155.66 112.652H149.441V118.868H155.66V112.652Z" fill="#3F3D56"/>
<path d="M164.643 112.652H158.424V118.868H164.643V112.652Z" fill="#575A89"/>
<path d="M234.407 115.352H210.223V116.332H234.407V115.352Z" fill="#3F3D56"/>
<path d="M234.407 118.292H210.223V119.272H234.407V118.292Z" fill="#3F3D56"/>
<path d="M234.407 121.232H210.223V122.212H234.407V121.232Z" fill="#3F3D56"/>
<path d="M192.084 22.78V33.0079C198.155 33.0079 204.09 34.8074 209.138 38.1789C214.186 41.5505 218.12 46.3426 220.443 51.9493C222.767 57.5559 223.375 63.7254 222.19 69.6774C221.006 75.6294 218.082 81.0967 213.789 85.3878L221.025 92.62C226.748 86.8984 230.646 79.6087 232.226 71.6727C233.805 63.7367 232.994 55.5108 229.897 48.0352C226.799 40.5597 221.553 34.1702 214.822 29.6748C208.092 25.1794 200.179 22.78 192.084 22.78Z" fill="#3F3D56"/>
<path d="M221.024 92.6201L213.788 85.3879C208.54 90.6349 201.568 93.8027 194.162 94.3046C186.757 94.8065 179.42 92.6085 173.511 88.1177L167.318 96.2631C175.198 102.249 184.98 105.179 194.854 104.509C204.729 103.839 214.025 99.6154 221.024 92.6201Z" fill="#575A89"/>
<path d="M161.386 63.6913C161.386 55.5536 164.62 47.7491 170.377 41.9948C176.134 36.2406 183.941 33.0079 192.082 33.0079V22.78C183.515 22.7799 175.163 25.4676 168.204 30.4641C161.246 35.4607 156.031 42.5141 153.296 50.6303C150.561 58.7465 150.443 67.516 152.958 75.7029C155.474 83.8897 160.496 91.081 167.318 96.263L173.511 88.1176C169.74 85.2586 166.683 81.5654 164.579 77.3275C162.476 73.0896 161.383 68.4222 161.386 63.6913Z" fill="#6C63FF"/>
<path d="M268.88 268.201C265.818 268.201 262.787 267.599 259.959 266.428C257.131 265.257 254.561 263.54 252.396 261.376C250.231 259.213 248.514 256.644 247.343 253.817C246.171 250.99 245.568 247.96 245.568 244.9V217.76C245.568 163.455 289.609 119.433 343.935 119.433C398.262 119.433 442.302 163.455 442.302 217.76V239.096C442.302 242.918 441.549 246.703 440.086 250.234C438.623 253.765 436.478 256.974 433.774 259.677C431.07 262.379 427.86 264.523 424.328 265.986C420.795 267.449 417.009 268.201 413.185 268.201" fill="#F2F2F2"/>
<path d="M422.952 297.491V296.561C430.549 296.552 437.832 293.532 443.203 288.162C448.575 282.793 451.597 275.513 451.605 267.92V212.181C451.605 158.22 407.687 114.319 353.703 114.319C299.72 114.319 255.801 158.22 255.801 212.181V273.724C255.808 279.778 258.217 285.583 262.5 289.864C266.783 294.146 272.59 296.554 278.648 296.561V297.491C272.344 297.483 266.3 294.977 261.843 290.521C257.386 286.066 254.878 280.025 254.871 273.724V212.181C254.871 157.707 299.207 113.39 353.703 113.39C408.199 113.39 452.535 157.707 452.535 212.181V267.92C452.526 275.76 449.407 283.276 443.861 288.82C438.315 294.363 430.796 297.482 422.952 297.491Z" fill="#3F3D56"/>
<path d="M453.001 261.693H254.406V343.515H453.001V261.693Z" fill="#3F3D56"/>
<path d="M384.051 177.59L365.098 191.058L378.572 210.004L397.525 196.535L384.051 177.59Z" fill="#6C63FF"/>
<path d="M385.576 172.513L366.623 185.981L380.097 204.927L399.05 191.458L385.576 172.513Z" stroke="#3F3D56" stroke-width="0.679671" stroke-miterlimit="10"/>
<path d="M348.82 168.713C354.214 168.713 358.587 164.342 358.587 158.95C358.587 153.558 354.214 149.187 348.82 149.187C343.426 149.187 339.053 153.558 339.053 158.95C339.053 164.342 343.426 168.713 348.82 168.713Z" fill="#6C63FF"/>
<path d="M346.029 167.318C351.423 167.318 355.796 162.947 355.796 157.555C355.796 152.163 351.423 147.792 346.029 147.792C340.635 147.792 336.262 152.163 336.262 157.555C336.262 162.947 340.635 167.318 346.029 167.318Z" stroke="#3F3D56" stroke-width="0.679671" stroke-miterlimit="10"/>
<path d="M319.953 197.964L331.643 204.69L343.332 211.416L331.66 218.172L319.988 224.928L319.971 211.446L319.953 197.964Z" fill="#6C63FF"/>
<path d="M318.074 203.07L329.763 209.796L341.453 216.522L329.781 223.278L318.109 230.034L318.091 216.552L318.074 203.07Z" stroke="#3F3D56" stroke-width="0.679671" stroke-miterlimit="10"/>
<path d="M272.281 176.069C274.053 169.74 277.328 163.932 281.826 159.138C286.325 154.344 291.915 150.707 298.12 148.535C299.809 147.954 299.083 145.259 297.379 145.845C290.712 148.155 284.703 152.043 279.864 157.177C275.025 162.311 271.501 168.538 269.59 175.328C269.111 177.06 271.803 177.8 272.281 176.069Z" fill="white"/>
<path d="M266.988 191.303C268.784 191.303 268.787 188.513 266.988 188.513C265.193 188.513 265.19 191.303 266.988 191.303Z" fill="white"/>
<path d="M151.087 162.497L107.643 148.717L90.7626 201.893L134.207 215.672L151.087 162.497Z" fill="#F2F2F2"/>
<path d="M131.07 166.34L114.012 160.929L113.712 161.872L130.771 167.283L131.07 166.34Z" fill="#3F3D56"/>
<path d="M138.284 170.545L113.459 162.671L113.16 163.614L137.985 171.488L138.284 170.545Z" fill="#3F3D56"/>
<path d="M129.181 172.289L112.123 166.879L111.824 167.822L128.882 173.233L129.181 172.289Z" fill="#3F3D56"/>
<path d="M126.97 179.255L109.912 173.845L109.613 174.788L126.671 180.199L126.97 179.255Z" fill="#3F3D56"/>
<path d="M136.396 176.494L111.57 168.62L111.271 169.564L136.096 177.438L136.396 176.494Z" fill="#3F3D56"/>
<path d="M135.843 178.236L111.018 170.362L110.718 171.305L135.544 179.179L135.843 178.236Z" fill="#3F3D56"/>
<path d="M135.29 179.977L110.465 172.103L110.165 173.047L134.991 180.921L135.29 179.977Z" fill="#3F3D56"/>
<path d="M117.505 180.885L108.576 178.053L107.793 180.52L116.721 183.352L117.505 180.885Z" fill="#6C63FF"/>
<path d="M60.9271 352C94.5762 352 121.854 348.462 121.854 344.097C121.854 339.732 94.5762 336.193 60.9271 336.193C27.278 336.193 0 339.732 0 344.097C0 348.462 27.278 352 60.9271 352Z" fill="#3F3D56"/>
<path d="M32.1489 125.303L30.125 130.108L32.4018 161.212C32.4018 161.212 31.1369 162.982 32.4018 164.246C33.6668 165.511 33.4138 166.016 33.4138 166.016C33.4138 166.016 31.3899 166.016 32.4018 167.534C33.4138 169.051 33.4138 169.81 33.4138 169.81L32.9078 171.327C32.9078 171.327 33.9197 172.591 33.9197 173.603C33.9197 174.614 40.4973 205.718 40.4973 205.718L46.8218 193.327L43.2801 144.016L32.1489 125.303Z" fill="#6C63FF"/>
<path d="M97.0908 204.399C97.0908 204.399 110.904 203.842 115.308 208.712C119.711 213.583 98.0052 210.059 96.7775 208.687C95.5498 207.314 97.0908 204.399 97.0908 204.399Z" fill="#FFB9B9"/>
<path d="M28.8605 327.1L26.0777 336.204C26.0777 336.204 22.03 345.054 27.5956 346.319C33.1612 347.583 38.4738 342.778 38.4738 342.778V336.709L40.4977 327.1H28.8605Z" fill="#2F2E41"/>
<path d="M74.3962 327.1C74.3962 327.1 73.1313 344.296 75.9141 345.307C78.6969 346.319 88.5632 346.572 88.8162 345.307C89.0692 344.043 92.105 342.778 89.8281 341.008C87.5513 339.238 86.0334 328.87 86.0334 328.87L74.3962 327.1Z" fill="#2F2E41"/>
<path d="M48.8456 164.246V171.833C48.8456 171.833 40.4972 189.281 37.4614 216.845C34.4256 244.409 24.0533 328.364 26.5832 329.882C29.113 331.399 56.4351 332.41 57.194 330.387C57.953 328.364 58.7119 269.191 58.7119 269.191L68.0723 227.466C68.0723 227.466 69.8432 242.386 71.3611 244.914C72.879 247.443 68.8312 329.629 71.3611 330.893C73.8909 332.158 108.044 334.433 107.538 330.387C107.032 326.341 95.6474 216.592 95.6474 216.592C95.6474 216.592 89.8288 164.752 88.0579 164.246C86.2871 163.74 70.0962 163.235 67.5664 163.74C65.0365 164.246 48.8456 164.246 48.8456 164.246Z" fill="#2F2E41"/>
<path d="M68.0723 101.532C76.0363 101.532 82.4923 95.0788 82.4923 87.1182C82.4923 79.1575 76.0363 72.7041 68.0723 72.7041C60.1084 72.7041 53.6523 79.1575 53.6523 87.1182C53.6523 95.0788 60.1084 101.532 68.0723 101.532Z" fill="#FFB9B9"/>
<path d="M71.1086 99.2565C71.1086 99.2565 63.7721 110.636 65.543 113.671C67.3139 116.705 46.8223 110.636 46.8223 110.636C46.8223 110.636 59.2184 95.4633 58.9654 93.6932C58.7124 91.923 71.1086 99.2565 71.1086 99.2565Z" fill="#FFB9B9"/>
<path d="M86.2871 116.199C86.2871 116.199 72.879 111.9 71.1081 110.13C69.9721 108.97 68.9551 107.699 68.0723 106.337C68.0723 106.337 51.8815 104.061 51.3755 104.061C50.8696 104.061 47.0748 108.613 46.0629 109.624C45.051 110.636 32.1489 117.464 32.1489 119.234C32.1489 121.004 30.125 130.107 30.125 130.107C30.125 130.107 34.6787 139.464 37.4615 141.487C40.2443 143.51 41.0033 143.004 41.2562 146.292C41.5092 149.579 45.051 154.89 45.051 154.89C45.051 154.89 47.3278 160.706 46.8218 162.476C46.3159 164.246 44.039 165.763 49.3517 165.258C54.6643 164.752 80.9745 166.269 80.9745 163.487C80.9745 160.706 75.9148 134.154 75.9148 134.154L86.2871 116.199Z" fill="#6C63FF"/>
<path d="M81.48 116.705L86.2867 116.199C86.2867 116.199 88.0575 117.211 88.3105 127.073C88.5635 136.935 88.5635 160.706 90.3344 162.729C92.1053 164.752 99.4417 196.109 99.4417 196.109C99.4417 196.109 101.466 196.615 101.466 198.385C101.466 200.155 103.742 201.672 102.731 203.695C101.719 205.718 103.742 205.212 102.478 206.477C101.213 207.741 95.1411 210.27 94.8881 208.753C94.6351 207.235 95.647 206.983 94.6351 206.477C93.6232 205.971 93.6232 205.718 93.3702 203.948C93.1172 202.178 90.8403 200.408 91.0933 199.649C91.3463 198.89 79.9621 176.89 79.9621 176.131C79.9621 175.373 79.2031 172.591 78.1912 172.085C77.1793 171.58 75.6614 171.074 76.4203 169.809C77.1793 168.545 74.3965 130.613 74.3965 130.613L81.48 116.705Z" fill="#6C63FF"/>
<path d="M80.2665 77.9771C75.8446 73.179 68.9003 70.6324 62.5321 72.0596C56.1639 73.4867 50.8014 79.1383 50.3035 85.643C50.2016 86.9735 50.2864 88.3326 49.942 89.6219C49.3627 91.7904 47.6389 93.5091 47.0312 95.6698C46.6241 97.1169 46.7448 98.6752 46.3134 100.115C45.5162 102.776 43.0489 104.511 41.1684 106.557C40.4069 107.306 39.8413 108.231 39.5215 109.251C39.3561 110.154 39.3142 111.077 39.3969 111.992C39.4761 116.925 37.6414 121.697 34.2773 125.308C36.2553 123.839 38.3924 122.597 40.6481 121.605C39.53 125.164 40.5522 129.375 43.3655 131.827C46.1787 134.278 50.6846 134.658 53.7264 132.497C55.5334 131.213 56.7071 129.243 57.8281 127.331L62.0725 120.092C62.8402 118.783 63.6417 117.435 64.8684 116.541C65.8432 115.83 67.0276 115.452 68.0089 114.75C70.4842 112.98 71.1489 109.515 70.688 106.507C70.2271 103.5 68.8741 100.708 68.0981 97.7658C67.4844 95.439 67.2918 92.7724 68.6725 90.8012C70.5052 88.1846 74.2716 87.8508 76.762 85.8493C77.6996 85.0958 78.1185 84.1789 78.79 83.2357C79.4099 82.3649 79.5678 82.677 80.5284 82.6372C83.166 82.5279 81.2439 79.0376 80.2665 77.9771Z" fill="#2F2E41"/>
<path d="M67.6705 94.9096C68.3127 94.9096 68.8333 93.6608 68.8333 92.1202C68.8333 90.5797 68.3127 89.3308 67.6705 89.3308C67.0284 89.3308 66.5078 90.5797 66.5078 92.1202C66.5078 93.6608 67.0284 94.9096 67.6705 94.9096Z" fill="#FFB9B9"/>
<path d="M195.805 293.306C204.024 293.306 210.688 286.646 210.688 278.429C210.688 270.213 204.024 263.552 195.805 263.552C187.585 263.552 180.922 270.213 180.922 278.429C180.922 286.646 187.585 293.306 195.805 293.306Z" fill="#F2F2F2"/>
<path d="M46.9748 37.6106C55.1944 37.6106 61.8577 30.95 61.8577 22.7338C61.8577 14.5175 55.1944 7.85693 46.9748 7.85693C38.7551 7.85693 32.0918 14.5175 32.0918 22.7338C32.0918 30.95 38.7551 37.6106 46.9748 37.6106Z" fill="#F2F2F2"/>
<path d="M358.586 72.4783C366.806 72.4783 373.469 65.8177 373.469 57.6014C373.469 49.3852 366.806 42.7246 358.586 42.7246C350.366 42.7246 343.703 49.3852 343.703 57.6014C343.703 65.8177 350.366 72.4783 358.586 72.4783Z" fill="#F2F2F2"/>
</g>
<defs>
<clipPath id="clip0_199_39153">
<rect width="453" height="352" fill="white"/>
</clipPath>
</defs>
</svg>
