<svg width="444" height="365" viewBox="0 0 444 365" fill="none" xmlns="http://www.w3.org/2000/svg">
<g clip-path="url(#clip0_199_39299)">
<path d="M336.626 355.616L329.124 355.615L325.555 326.678L336.627 326.679L336.626 355.616Z" fill="#FFB6B6"/>
<path d="M338.54 362.888L314.35 362.887V362.581C314.35 360.084 315.342 357.689 317.108 355.923C318.873 354.158 321.268 353.166 323.765 353.166H323.766L338.54 353.166L338.54 362.888Z" fill="#2F2E41"/>
<path d="M393.37 349.134L386.229 351.435L373.957 324.988L384.496 321.592L393.37 349.134Z" fill="#FFB6B6"/>
<path d="M397.422 355.469L374.397 362.888L374.303 362.597C373.538 360.22 373.747 357.636 374.886 355.414C376.025 353.192 378 351.513 380.377 350.747L380.378 350.747L394.44 346.216L397.422 355.469Z" fill="#2F2E41"/>
<path d="M397.122 256.817C402.295 256.817 406.489 252.623 406.489 247.449C406.489 242.276 402.295 238.082 397.122 238.082C391.948 238.082 387.754 242.276 387.754 247.449C387.754 252.623 391.948 256.817 397.122 256.817Z" fill="#6C63FF"/>
<path d="M409.389 264.541C409.22 264.632 409.053 264.717 408.886 264.802L389.107 228.078C389.27 227.985 389.433 227.893 389.602 227.802C394.474 225.179 400.188 224.599 405.487 226.189C410.787 227.779 415.238 231.409 417.861 236.28C420.485 241.152 421.066 246.865 419.477 252.165C417.889 257.465 414.26 261.917 409.389 264.541Z" fill="#3F3D56"/>
<path d="M391.125 245.884L388.361 207.529L388.886 194.727L378.111 197.125L382.08 247.382C381.631 248.309 381.445 249.341 381.542 250.366C381.64 251.392 382.017 252.37 382.634 253.195C383.25 254.02 384.081 254.66 385.037 255.044C385.992 255.429 387.035 255.543 388.051 255.375C389.067 255.206 390.017 254.762 390.797 254.09C391.578 253.418 392.158 252.544 392.476 251.565C392.793 250.585 392.835 249.537 392.597 248.535C392.358 247.533 391.849 246.616 391.125 245.884Z" fill="#FFB7B7"/>
<path d="M342.365 212.076L341.68 199.225L334.765 193.606L333.81 205.958L308.352 235.39C307.293 235.56 306.304 236.03 305.504 236.744C304.703 237.457 304.123 238.386 303.834 239.419C303.544 240.452 303.556 241.546 303.869 242.572C304.182 243.599 304.782 244.514 305.599 245.21C306.415 245.906 307.414 246.353 308.477 246.499C309.54 246.645 310.622 246.483 311.596 246.033C312.57 245.583 313.395 244.864 313.972 243.96C314.55 243.056 314.857 242.005 314.856 240.932C314.856 240.857 314.848 240.783 314.845 240.708L342.365 212.076Z" fill="#FFB7B7"/>
<path d="M343.607 207.962L321.88 235.521L314.52 227.671L329.73 205.59L339.261 163.726C339.514 163.188 339.873 162.708 340.317 162.312C340.76 161.917 341.279 161.615 341.841 161.425C342.395 161.235 342.981 161.159 343.564 161.201C344.147 161.243 344.716 161.402 345.237 161.669L345.36 161.731L343.607 207.962Z" fill="#6C63FF"/>
<path d="M380.951 234.049L374.049 186.074L374.06 186.03L381.148 158.166L381.812 158.089C383.727 157.878 385.652 158.389 387.211 159.522C388.769 160.655 389.849 162.328 390.239 164.215L390.764 235.521L380.951 234.049Z" fill="#6C63FF"/>
<path d="M383.127 150.643H347.254V134.435C347.253 132.079 347.716 129.746 348.617 127.569C349.517 125.391 350.838 123.413 352.504 121.746C354.17 120.08 356.147 118.758 358.324 117.856C360.501 116.954 362.834 116.49 365.19 116.49C367.547 116.49 369.88 116.954 372.056 117.856C374.233 118.758 376.211 120.08 377.877 121.746C379.542 123.413 380.863 125.391 381.764 127.569C382.665 129.746 383.128 132.079 383.127 134.435V150.643Z" fill="#2F2E41"/>
<path d="M377.641 143.501C381.525 136.397 378.914 127.489 371.809 123.605C364.705 119.721 355.797 122.332 351.913 129.437C348.029 136.542 350.64 145.449 357.745 149.333C364.849 153.217 373.757 150.606 377.641 143.501Z" fill="#FFB7B7"/>
<path d="M371.855 124.031C377.245 124.031 381.614 119.662 381.614 114.272C381.614 108.882 377.245 104.513 371.855 104.513C366.465 104.513 362.096 108.882 362.096 114.272C362.096 119.662 366.465 124.031 371.855 124.031Z" fill="#2F2E41"/>
<path d="M387.137 137.245H348.982V137.029C348.982 127.138 357.54 119.092 368.06 119.092C378.579 119.092 387.137 127.138 387.137 137.029V137.245Z" fill="#2F2E41"/>
<path d="M338.438 341.153L324.263 340.141L324.244 339.933C318.032 272.116 321.557 227.325 334.167 213.8L337.726 207.143L335.777 195.941C330.574 182.237 339.313 172.212 339.974 171.484L342.79 163.033C342.985 162.451 343.343 161.938 343.822 161.554C344.301 161.17 344.881 160.932 345.492 160.869L383.771 156.954C384.195 156.911 384.623 156.953 385.03 157.078C385.437 157.202 385.816 157.407 386.142 157.681C386.469 157.954 386.738 158.29 386.932 158.669C387.127 159.048 387.244 159.462 387.276 159.886L387.279 159.932L387.267 159.975L373.313 206.965L374.536 222.867L391.004 336.668L376.821 339.707L376.755 339.491L350.584 253.707L338.438 341.153Z" fill="#2F2E41"/>
<path d="M302.742 273.548H3.43349C2.58792 273.547 1.77726 273.211 1.17935 272.613C0.581442 272.015 0.245108 271.204 0.244141 270.359V3.43459C0.245108 2.58902 0.581442 1.77836 1.17935 1.18045C1.77726 0.582537 2.58792 0.246207 3.43349 0.245239H302.742C303.588 0.246217 304.398 0.582551 304.996 1.18046C305.594 1.77837 305.93 2.58902 305.931 3.43459V270.359C305.93 271.204 305.594 272.015 304.996 272.613C304.398 273.211 303.588 273.547 302.742 273.548Z" fill="white"/>
<path d="M102.398 11.9874V80.9681H102.258C93.1105 80.9681 84.3378 77.3343 77.8696 70.8661C71.4014 64.3979 67.7676 55.6252 67.7676 46.4778C67.7676 37.3304 71.4014 28.5576 77.8696 22.0894C84.3378 15.6212 93.1105 11.9874 102.258 11.9874H102.398Z" fill="#6C63FF"/>
<path d="M94.593 27.5343V65.4214H94.5158C89.4917 65.4214 84.6733 63.4256 81.1207 59.873C77.5681 56.3204 75.5723 51.502 75.5723 46.4779C75.5723 41.4537 77.5681 36.6353 81.1207 33.0827C84.6733 29.5301 89.4917 27.5343 94.5158 27.5343H94.593Z" fill="white"/>
<path d="M153.355 137.878H49.1387V45.9871H67.7684V46.9684H50.12V136.897H153.355V137.878Z" fill="#3F3D56"/>
<path d="M167.407 161.02C172.58 161.02 176.775 156.826 176.775 151.652C176.775 146.478 172.58 142.284 167.407 142.284C162.233 142.284 158.039 146.478 158.039 151.652C158.039 156.826 162.233 161.02 167.407 161.02Z" fill="#6C63FF"/>
<path d="M254.698 251.717C259.871 251.717 264.066 247.522 264.066 242.349C264.066 237.175 259.871 232.981 254.698 232.981C249.524 232.981 245.33 237.175 245.33 242.349C245.33 247.522 249.524 251.717 254.698 251.717Z" fill="#3F3D56"/>
<path d="M49.4576 146.117C54.6313 146.117 58.8253 141.923 58.8253 136.749C58.8253 131.575 54.6313 127.381 49.4576 127.381C44.2839 127.381 40.0898 131.575 40.0898 136.749C40.0898 141.923 44.2839 146.117 49.4576 146.117Z" fill="#6C63FF"/>
<path d="M153.355 137.6H176.774V114.181H129.936V161.02H153.355V137.6Z" fill="#3F3D56"/>
<path d="M306.219 19.652H203.6V32.4262H306.219V19.652Z" fill="#E4E4E4"/>
<path d="M306.219 47.3293H203.6V60.1035H306.219V47.3293Z" fill="#E4E4E4"/>
<path d="M275.561 91.1874C275.561 91.379 275.557 91.5664 275.553 91.7537H233.841C233.836 91.5664 233.832 91.379 233.832 91.1874C233.832 85.6538 236.03 80.3468 239.943 76.4339C243.856 72.5211 249.163 70.3229 254.697 70.3229C260.23 70.3229 265.537 72.5211 269.45 76.4339C273.363 80.3468 275.561 85.6538 275.561 91.1874Z" fill="#E4E4E4"/>
<path d="M275.561 239.653C275.561 239.845 275.557 240.032 275.553 240.22H233.841C233.836 240.032 233.832 239.845 233.832 239.653C233.832 234.12 236.03 228.813 239.943 224.9C243.856 220.987 249.163 218.789 254.697 218.789C260.23 218.789 265.537 220.987 269.45 224.9C273.363 228.813 275.561 234.12 275.561 239.653Z" fill="#E4E4E4"/>
<path d="M255.188 112.052H254.207V218.735H255.188V112.052Z" fill="#3F3D56"/>
<path d="M134.193 229.575C134.193 238.02 130.848 246.122 124.889 252.107C118.93 258.092 110.844 261.473 102.398 261.51V197.639C110.844 197.677 118.93 201.058 124.889 207.043C130.848 213.028 134.193 221.129 134.193 229.575Z" fill="#6C63FF"/>
<path d="M303.665 274.775H3.04548C2.23804 274.774 1.46395 274.453 0.893015 273.882C0.32208 273.311 0.000923286 272.537 0 271.729V3.04559C0.000923286 2.23815 0.32208 1.46405 0.893015 0.89309C1.46395 0.322135 2.23804 0.000951905 3.04548 0H303.665C304.472 0.000951903 305.247 0.322135 305.817 0.89309C306.388 1.46404 306.71 2.23815 306.71 3.04559V271.729C306.71 272.537 306.388 273.311 305.817 273.882C305.247 274.453 304.472 274.774 303.665 274.775ZM3.04548 0.981339C2.49821 0.981964 1.97354 1.19965 1.58657 1.58664C1.1996 1.97363 0.981935 2.49832 0.981339 3.04559V271.729C0.981935 272.277 1.1996 272.801 1.58657 273.188C1.97354 273.575 2.49821 273.793 3.04548 273.794H303.665C304.212 273.793 304.737 273.575 305.124 273.188C305.511 272.801 305.729 272.277 305.729 271.729V3.04559C305.729 2.49832 305.511 1.97364 305.124 1.58665C304.737 1.19966 304.212 0.981973 303.665 0.981339H3.04548Z" fill="#3F3D56"/>
<path d="M101.908 81.4608V11.4949L102.401 11.4968C111.654 11.5338 120.516 15.2356 127.046 21.7918C133.576 28.348 137.242 37.2245 137.242 46.4779C137.242 55.7313 133.576 64.6077 127.046 71.1639C120.516 77.7201 111.654 81.4219 102.401 81.4589L101.908 81.4608ZM102.89 12.4836V80.4721C111.796 80.3066 120.282 76.6523 126.522 70.2952C132.762 63.938 136.258 55.3858 136.258 46.4778C136.258 37.5699 132.762 29.0177 126.522 22.6605C120.282 16.3034 111.796 12.6491 102.89 12.4836Z" fill="#3F3D56"/>
<path d="M102.889 262.001H102.258C93.6582 262.001 85.4105 258.584 79.3294 252.503C73.2483 246.422 69.832 238.175 69.832 229.575C69.832 220.975 73.2483 212.727 79.3294 206.646C85.4105 200.565 93.6582 197.148 102.258 197.148H102.889L102.889 262.001ZM101.908 198.132C93.6295 198.224 85.7213 201.577 79.8998 207.464C74.0783 213.351 70.8132 221.296 70.8132 229.575C70.8132 237.854 74.0783 245.799 79.8998 251.685C85.7213 257.572 93.6295 260.925 101.908 261.017V198.132Z" fill="#3F3D56"/>
<path d="M254.698 112.542C249.126 112.572 243.765 110.411 239.772 106.524C235.778 102.638 233.472 97.3378 233.351 91.7668L233.338 91.263H276.058L276.044 91.7668C275.923 97.3379 273.617 102.638 269.624 106.525C265.631 110.411 260.27 112.572 254.698 112.542ZM234.352 92.2443C234.623 97.4578 236.884 102.368 240.67 105.963C244.456 109.557 249.477 111.561 254.698 111.561C259.918 111.561 264.94 109.557 268.725 105.963C272.511 102.368 274.773 97.4578 275.044 92.2443H234.352Z" fill="#3F3D56"/>
<path d="M306.219 182.529H0.490234V183.511H306.219V182.529Z" fill="#3F3D56"/>
<path d="M306.219 91.263H0.490234V92.2443H306.219V91.263Z" fill="#3F3D56"/>
<path d="M204.8 0.490723H203.818V274.284H204.8V0.490723Z" fill="#3F3D56"/>
<path d="M102.89 0.490723H101.908V274.284H102.89V0.490723Z" fill="#3F3D56"/>
<path d="M71.6002 238.091C76.7738 238.091 80.9679 233.897 80.9679 228.723C80.9679 223.549 76.7738 219.355 71.6002 219.355C66.4265 219.355 62.2324 223.549 62.2324 228.723C62.2324 233.897 66.4265 238.091 71.6002 238.091Z" fill="#6C63FF"/>
<path d="M443.51 364.077H256.565C256.435 364.077 256.31 364.025 256.218 363.933C256.126 363.841 256.074 363.716 256.074 363.586C256.074 363.456 256.126 363.331 256.218 363.239C256.31 363.147 256.435 363.095 256.565 363.095H443.51C443.64 363.095 443.765 363.147 443.857 363.239C443.949 363.331 444.001 363.456 444.001 363.586C444.001 363.716 443.949 363.841 443.857 363.933C443.765 364.025 443.64 364.077 443.51 364.077Z" fill="#CACACA"/>
<path d="M281.851 363.088C284.613 354.188 281.93 344.067 275.631 337.304C273.854 335.393 271.784 333.777 269.499 332.518C269.345 332.434 269.165 332.407 268.993 332.444C268.821 332.48 268.668 332.576 268.56 332.715C268.453 332.855 268.399 333.028 268.407 333.203C268.416 333.379 268.487 333.546 268.607 333.674L269.869 335.039V333.998C267.427 336.276 262.977 334.538 262.533 331.3C262.443 330.456 262.548 329.604 262.839 328.807C263.13 328.011 263.6 327.292 264.212 326.705C264.87 326.086 265.676 325.647 266.553 325.43C267.429 325.212 268.347 325.224 269.218 325.463C270.136 325.686 270.996 326.105 271.737 326.692C272.478 327.279 273.083 328.019 273.511 328.862C274.298 330.595 274.371 332.568 273.715 334.354C272.369 338.289 268.074 340.139 264.154 339.212C260.154 338.266 257.287 334.495 257.157 330.422C257.136 328.449 257.718 326.518 258.824 324.885C259.931 323.252 261.509 321.995 263.349 321.283C267.548 319.731 272.107 321.282 275.653 323.681C279.271 326.219 282.228 329.587 284.279 333.502C286.364 337.3 287.551 341.525 287.748 345.854C287.863 349.414 287.107 353.458 284.481 356.058C283.852 356.675 283.126 357.185 282.332 357.567L283.075 358.839C287.722 356.149 291.491 352.172 293.927 347.388C296.364 342.603 297.363 337.216 296.804 331.876C296.447 328.661 295.539 325.532 294.12 322.625C293.704 321.774 292.434 322.519 292.849 323.368C295.245 328.298 296.049 333.851 295.15 339.258C294.489 343.064 292.998 346.677 290.783 349.842C288.567 353.007 285.682 355.644 282.332 357.567C281.502 358.044 282.232 359.252 283.075 358.839C287.038 356.894 288.767 352.494 289.148 348.327C289.583 343.568 288.346 338.626 286.342 334.335C284.252 329.797 281.058 325.856 277.053 322.87C273.106 319.992 267.76 318.089 262.957 319.863C258.662 321.45 255.54 325.8 255.685 330.422C255.83 335.06 259.033 339.424 263.585 340.588C268.125 341.749 273.091 339.747 274.921 335.308C275.795 333.252 275.858 330.941 275.096 328.841C274.692 327.823 274.082 326.899 273.305 326.128C272.527 325.356 271.599 324.754 270.577 324.358C269.573 323.937 268.484 323.754 267.397 323.825C266.31 323.896 265.254 324.218 264.313 324.766C263.451 325.316 262.718 326.046 262.163 326.905C261.608 327.764 261.245 328.732 261.098 329.744C260.936 330.723 261.033 331.728 261.379 332.658C261.724 333.588 262.307 334.411 263.069 335.047C263.815 335.647 264.685 336.074 265.615 336.298C266.546 336.522 267.514 336.538 268.452 336.344C269.374 336.139 270.223 335.688 270.91 335.039C271.045 334.899 271.12 334.712 271.12 334.518C271.12 334.324 271.045 334.137 270.91 333.998L269.648 332.633L268.756 333.789C276.472 338.025 281.302 346.64 281.465 355.376C281.514 357.856 281.165 360.327 280.432 362.697C280.15 363.603 281.571 363.991 281.851 363.088Z" fill="#F0F0F0"/>
</g>
<defs>
<clipPath id="clip0_199_39299">
<rect width="444" height="364.077" fill="white"/>
</clipPath>
</defs>
</svg>
