<svg width="451" height="272" viewBox="0 0 451 272" fill="none" xmlns="http://www.w3.org/2000/svg">
<g clip-path="url(#clip0_199_39260)">
<path d="M260.313 218.523C259.261 218.523 258.231 218.836 257.356 219.421C256.481 220.006 255.798 220.837 255.395 221.81C254.993 222.783 254.887 223.853 255.093 224.886C255.298 225.919 255.805 226.867 256.549 227.612C257.294 228.357 258.242 228.864 259.275 229.069C260.308 229.274 261.378 229.169 262.351 228.766C263.323 228.363 264.155 227.681 264.74 226.805C265.325 225.93 265.637 224.9 265.637 223.847C265.637 222.435 265.076 221.081 264.078 220.083C263.079 219.084 261.725 218.523 260.313 218.523ZM260.313 227.124C259.666 227.124 259.032 226.932 258.493 226.572C257.955 226.212 257.535 225.7 257.287 225.101C257.039 224.502 256.974 223.844 257.1 223.208C257.227 222.573 257.539 221.989 257.997 221.531C258.455 221.072 259.039 220.76 259.674 220.634C260.31 220.508 260.969 220.572 261.567 220.82C262.166 221.068 262.677 221.488 263.037 222.027C263.397 222.566 263.589 223.199 263.589 223.847C263.589 224.716 263.244 225.55 262.63 226.164C262.016 226.779 261.182 227.124 260.313 227.124Z" fill="#E4E4E4"/>
<path d="M239.84 214.428H260.314V234.694C260.314 235.402 260.033 236.08 259.533 236.581C259.033 237.081 258.354 237.362 257.647 237.362H242.507C241.8 237.362 241.121 237.081 240.621 236.581C240.121 236.08 239.84 235.402 239.84 234.694V214.428Z" fill="#E4E4E4"/>
<path d="M308.153 237.826H0.415245C0.30112 237.813 0.195634 237.759 0.119005 237.674C0.0423764 237.588 0 237.477 0 237.362C0 237.248 0.0423764 237.137 0.119005 237.051C0.195634 236.966 0.30112 236.912 0.415245 236.899H308.153C308.267 236.912 308.373 236.966 308.449 237.051C308.526 237.137 308.568 237.248 308.568 237.362C308.568 237.477 308.526 237.588 308.449 237.674C308.373 237.759 308.267 237.813 308.153 237.826Z" fill="#CACACA"/>
<path d="M41.4227 229.073L39.5195 238.485L74.912 250.307L77.7215 236.416L41.4227 229.073Z" fill="#FFB6B6"/>
<path d="M44.9809 227.294L41.2323 245.829L41.2321 245.83C40.5983 248.963 38.7462 251.715 36.0832 253.482C33.4203 255.25 30.1646 255.886 27.0322 255.253L26.6484 255.175L32.7861 224.827L44.9809 227.294Z" fill="#2F2E41"/>
<path d="M81.5296 99.4282C94.8019 99.4282 105.561 88.6675 105.561 75.3936C105.561 62.1197 94.8019 51.359 81.5296 51.359C68.2574 51.359 57.498 62.1197 57.498 75.3936C57.498 88.6675 68.2574 99.4282 81.5296 99.4282Z" fill="#FEB8B8"/>
<path d="M103.976 54.6586C100.383 48.8235 94.7587 44.5239 88.1861 42.5873L85.2359 44.7405V41.9446C83.6574 41.703 82.0598 41.6099 80.4639 41.6666L77.9186 43.9699V41.858C74.15 42.3264 70.5193 43.5706 67.2554 45.5122C63.9915 47.4539 61.1653 50.0508 58.955 53.1392C53.4274 61.1089 52.4943 72.1965 57.9311 80.2301C59.4234 75.6429 61.2349 71.3388 62.7276 66.7521C63.9006 66.912 65.0895 66.9178 66.2639 66.7692L68.0796 62.5319L68.5869 66.5899C74.215 66.0997 82.5627 65.0229 87.898 64.0364L87.3791 60.9231L90.4832 63.51C92.1177 63.1338 93.0883 62.7923 93.0081 62.5314C96.9762 68.9294 101.832 73.0157 105.8 79.4137C107.307 70.3922 109.042 62.891 103.976 54.6586Z" fill="#2F2E41"/>
<path d="M89.3504 232.671C123.524 232.671 151.228 224.921 151.228 215.361C151.228 205.8 123.524 198.05 89.3504 198.05C55.1762 198.05 27.4727 205.8 27.4727 215.361C27.4727 224.921 55.1762 232.671 89.3504 232.671Z" fill="#2F2E41"/>
<path d="M133.215 137.199C132.389 132.227 131.536 127.16 129.226 122.68C127.707 119.746 125.297 116.95 122.047 116.37C121.407 116.313 120.778 116.168 120.178 115.938C119.226 115.479 106.43 108.174 104.396 106.901C102.65 105.809 99.8938 103.786 98.504 103.786C97.1057 103.756 91.7441 105.004 70.8173 103.368C67.2973 104.781 63.8885 106.457 60.6201 108.382C60.5527 108.338 38.8999 119.966 38.0865 119.936C36.5459 119.871 35.114 120.857 34.2308 122.1C33.3479 123.342 32.9337 124.88 32.5 126.367C37.2293 136.9 41.5564 147.447 46.2862 157.98C46.5077 158.377 46.6253 158.823 46.6282 159.278C46.5332 159.749 46.332 160.193 46.0399 160.575C43.7204 164.301 43.7942 168.988 44.0475 173.368C44.3011 177.747 44.6147 182.374 42.6577 186.299C42.1254 187.377 41.4331 188.363 40.9269 189.441C39.7413 191.882 39.3128 199.689 40.0053 202.312L126.765 204.797C124.9 199.669 133.215 137.199 133.215 137.199Z" fill="#6C63FF"/>
<path d="M25.0017 158.447C24.8286 159.7 24.8112 160.969 24.9498 162.225L26.1933 180.086C26.3101 181.769 26.425 183.448 26.583 185.128C26.8813 188.386 27.327 191.619 27.8802 194.847C27.8927 195.306 28.0865 195.74 28.4191 196.056C28.7516 196.372 29.1958 196.542 29.6541 196.531C35.128 197.689 40.7834 197.643 46.3698 197.327C54.8945 196.851 76.7036 195.951 78.0361 194.22C79.3685 192.489 78.592 189.689 76.8547 188.289C75.1173 186.889 46.3369 183.477 46.3369 183.477C46.6182 181.248 47.4664 179.149 48.2712 177.033C49.7167 173.28 51.0667 169.403 51.0927 165.383C51.1186 161.362 49.6041 157.135 46.311 154.832C43.6021 152.941 40.1144 152.59 36.8134 152.668C34.4117 152.737 30.262 152.161 28.0683 153.101C26.3323 153.865 25.326 156.747 25.0017 158.447Z" fill="#FBBEBE"/>
<path d="M133.37 198.821C134.811 198.271 136.399 198.47 137.944 198.678C142.916 199.357 147.961 200.054 152.569 202.041C154.733 202.967 156.793 204.204 158.255 206.025C159.553 207.666 160.311 209.674 161.029 211.651L162.691 216.204C163.398 217.915 163.885 219.708 164.141 221.54C164.66 226.989 160.934 232.126 156.248 234.956C151.562 237.787 146.045 238.795 140.67 239.851C135.295 240.907 129.9 242.075 124.547 243.313C122.051 243.961 119.518 244.459 116.962 244.806C111.233 245.454 105.244 244.499 99.8006 246.394C97.637 247.152 95.5123 248.277 93.2681 248.8C91.7763 249.114 90.2681 249.344 88.7505 249.488L78.4478 250.665C76.3527 250.945 74.2435 251.107 72.1303 251.15C67.6303 251.15 63.2035 250.084 58.8337 249.019C58.3694 248.937 57.9274 248.758 57.5365 248.495C56.8443 247.95 56.6928 246.984 56.5932 246.111C56.1518 242.242 55.7658 238.368 55.435 234.491C55.3312 233.232 55.2533 231.868 55.9413 230.808C56.8068 229.511 58.4946 229.103 60.035 228.852C66.5671 227.783 73.1844 227.324 79.8015 227.48C82.3153 224.966 86.4609 224.953 89.754 223.585C90.9655 223.029 92.138 222.391 93.2635 221.676C99.1538 218.239 105.736 216.159 112.532 215.588C113.863 215.547 115.185 215.358 116.474 215.025C119.022 214.233 121.347 212.078 123.964 212.606C124.289 211.71 124.514 210.511 125.261 209.897C125.632 209.581 126.092 209.369 126.434 209.031C127.157 208.3 127.222 207.149 127.113 206.127C127.005 205.106 126.763 204.059 127.027 203.063C127.136 202.686 127.298 202.327 127.507 201.994C128.801 199.755 130.761 198.604 133.37 198.821Z" fill="#2F2E41"/>
<path d="M32.2507 126.687C31.8293 127.129 31.5024 127.652 31.2903 128.224C27.7926 136.108 25.7266 144.551 25.1892 153.16C25.1986 153.579 25.1019 153.995 24.908 154.367C24.7167 154.615 24.5038 154.845 24.2718 155.055C24.0696 155.295 23.9165 155.572 23.8214 155.871C23.7263 156.17 23.691 156.485 23.7175 156.798C23.7441 157.11 23.8319 157.415 23.976 157.693C24.1201 157.972 24.3177 158.219 24.5575 158.422C24.5969 158.455 24.6372 158.487 24.6786 158.517C25.3926 157.174 27.1017 156.734 28.6208 156.618C35.8945 156.042 42.9996 159.426 50.2951 159.171C49.7804 157.392 49.0401 155.683 48.6203 153.883C46.7639 145.89 51.3941 137.187 48.5555 129.488C47.9884 127.947 47.041 126.432 45.5482 125.757C44.9301 125.508 44.2833 125.337 43.6228 125.248C41.7793 124.915 38.1095 123.491 36.3272 124.062C35.6694 124.274 35.4099 124.893 34.8646 125.267C34.0363 125.796 32.9373 125.99 32.2507 126.687Z" fill="#6C63FF"/>
<path d="M133.268 153.101C131.074 152.161 126.925 152.737 124.523 152.668C121.222 152.59 117.734 152.941 115.025 154.832C111.732 157.135 110.218 161.362 110.244 165.383C110.27 169.403 111.62 173.28 113.065 177.033C113.87 179.149 114.718 181.248 114.999 183.477C114.999 183.477 86.219 186.889 84.4816 188.289C82.7443 189.689 81.9678 192.489 83.3002 194.22C84.6326 195.951 126.208 197.689 131.682 196.531C132.14 196.542 132.585 196.372 132.917 196.056C133.25 195.74 133.444 195.306 133.456 194.847C134.009 191.619 134.455 188.386 134.753 185.128C134.911 183.448 135.026 181.769 135.143 180.086L136.386 162.225C136.525 160.969 136.508 159.7 136.335 158.447C136.01 156.747 135.004 153.865 133.268 153.101Z" fill="#FBBEBE"/>
<path d="M126.472 125.267C125.926 124.893 125.667 124.274 125.009 124.062C123.227 123.491 119.557 124.915 117.713 125.248C117.053 125.337 116.406 125.508 115.788 125.757C114.295 126.432 113.348 127.947 112.781 129.488C109.942 137.187 114.572 145.89 112.716 153.883C112.296 155.683 111.556 157.392 111.041 159.171C118.337 159.426 125.442 156.042 132.715 156.618C134.234 156.734 135.944 157.174 136.658 158.517C136.699 158.487 136.739 158.455 136.779 158.422C137.018 158.219 137.216 157.972 137.36 157.693C137.504 157.415 137.592 157.11 137.619 156.798C137.645 156.485 137.61 156.17 137.515 155.871C137.42 155.572 137.267 155.295 137.064 155.055C136.832 154.845 136.619 154.615 136.428 154.367C136.234 153.995 136.138 153.579 136.147 153.16C135.61 144.551 133.544 136.108 130.046 128.224C129.834 127.652 129.507 127.129 129.085 126.687C128.399 125.99 127.3 125.796 126.472 125.267Z" fill="#6C63FF"/>
<path d="M138.638 242.509L137.373 252.028L100.061 251.678L101.928 237.629L138.638 242.509Z" fill="#FFB6B6"/>
<path d="M148.185 241.307L144.107 272L143.718 271.948C140.551 271.527 137.68 269.865 135.737 267.327C133.795 264.789 132.94 261.583 133.361 258.415L133.361 258.414L135.852 239.668L148.185 241.307Z" fill="#2F2E41"/>
<path d="M50.8548 203.638C50.8548 204.07 50.1756 203.638 50.1135 203.174C49.6377 199.673 46.8593 196.787 43.6228 195.384C40.3862 193.982 36.6993 193.909 33.1945 194.242C27.8939 194.744 21.9438 196.774 20.0054 201.729C19.5467 202.887 15.2501 213.201 15.6694 215.521C16.7989 221.709 21.0306 227.002 26.1584 230.668C31.2861 234.333 37.2775 236.523 43.254 238.499C59.0552 243.711 75.2671 247.583 91.7179 250.075C94.3832 250.478 97.075 250.85 99.6277 251.706C101.912 252.472 104.05 253.619 106.283 254.519C111.476 256.605 117.062 257.35 122.596 258.081C123.539 258.203 124.621 258.289 125.318 257.648C126.218 256.814 125.92 255.359 125.664 254.16C124.725 249.602 125.513 244.858 127.875 240.849C128.802 239.291 130.006 237.694 129.831 235.891C129.624 233.788 127.529 232.299 125.443 231.961C123.358 231.623 121.238 232.121 119.143 232.394C118.425 232.559 117.672 232.484 117.001 232.182C116.69 231.972 116.407 231.721 116.161 231.438C114.719 230.046 112.872 229.146 110.887 228.869C108.901 228.591 106.879 228.95 105.11 229.893C104.335 230.325 103.164 229.36 102.358 228.997L93.2579 224.877C82.8036 220.147 72.2975 215.395 61.2372 212.4C60.3547 212.227 59.516 211.878 58.7707 211.374C58.2212 210.942 57.8274 210.355 57.321 209.873C56.2174 208.83 54.6802 208.414 53.3575 207.674C52.0348 206.934 50.5518 205.122 50.8548 203.638Z" fill="#2F2E41"/>
<path d="M74.4139 197.384C77.9961 197.384 80.9 194.479 80.9 190.897C80.9 187.314 77.9961 184.41 74.4139 184.41C70.8317 184.41 67.9277 187.314 67.9277 190.897C67.9277 194.479 70.8317 197.384 74.4139 197.384Z" fill="#FBBEBE"/>
<path d="M88.7752 197.384C92.3574 197.384 95.2613 194.479 95.2613 190.897C95.2613 187.314 92.3574 184.41 88.7752 184.41C85.193 184.41 82.2891 187.314 82.2891 190.897C82.2891 194.479 85.193 197.384 88.7752 197.384Z" fill="#FBBEBE"/>
<path d="M128.813 205.514H39.7035C38.6631 205.513 37.6657 205.099 36.93 204.364C36.1944 203.628 35.7805 202.63 35.7793 201.59V147.523C35.7805 146.482 36.1944 145.485 36.93 144.749C37.6657 144.013 38.6631 143.599 39.7035 143.598H128.813C129.854 143.599 130.851 144.013 131.587 144.749C132.322 145.485 132.736 146.482 132.737 147.523V201.59C132.736 202.63 132.322 203.628 131.587 204.364C130.851 205.099 129.854 205.513 128.813 205.514Z" fill="#3F3D56"/>
<path d="M84.0416 177.153C85.4755 177.153 86.6379 175.99 86.6379 174.556C86.6379 173.122 85.4755 171.96 84.0416 171.96C82.6077 171.96 81.4453 173.122 81.4453 174.556C81.4453 175.99 82.6077 177.153 84.0416 177.153Z" fill="white"/>
<path d="M402.153 97.5137H286.379C285.765 97.513 285.176 97.2687 284.742 96.8344C284.308 96.4 284.063 95.8112 284.062 95.1969V73.3729H284.989V95.1969C284.989 95.5655 285.136 95.9188 285.397 96.1794C285.657 96.44 286.01 96.5866 286.379 96.587H402.153C402.522 96.5866 402.875 96.44 403.135 96.1794C403.396 95.9188 403.543 95.5655 403.543 95.1969V73.2205H404.47V95.1969C404.469 95.8112 404.225 96.4 403.79 96.8344C403.356 97.2687 402.767 97.513 402.153 97.5137Z" fill="#3F3D56"/>
<path d="M444.123 72.9097H172.066V73.8364H444.123V72.9097Z" fill="#3F3D56"/>
<path d="M172.087 81.2713C176.488 81.2713 180.056 77.7027 180.056 73.3007C180.056 68.8986 176.488 65.3301 172.087 65.3301C167.685 65.3301 164.117 68.8986 164.117 73.3007C164.117 77.7027 167.685 81.2713 172.087 81.2713Z" fill="#6C63FF"/>
<path d="M253.073 81.2713C257.475 81.2713 261.043 77.7027 261.043 73.3007C261.043 68.8986 257.475 65.3301 253.073 65.3301C248.672 65.3301 245.104 68.8986 245.104 73.3007C245.104 77.7027 248.672 81.2713 253.073 81.2713Z" fill="#6C63FF"/>
<path d="M308.034 104.699C312.436 104.699 316.004 101.13 316.004 96.7283C316.004 92.3262 312.436 88.7577 308.034 88.7577C303.633 88.7577 300.064 92.3262 300.064 96.7283C300.064 101.13 303.633 104.699 308.034 104.699Z" fill="#3F3D56"/>
<path d="M349.817 104.699C354.219 104.699 357.787 101.13 357.787 96.7283C357.787 92.3262 354.219 88.7577 349.817 88.7577C345.416 88.7577 341.848 92.3262 341.848 96.7283C341.848 101.13 345.416 104.699 349.817 104.699Z" fill="#CCCCCC"/>
<path d="M329.569 81.2713C333.971 81.2713 337.539 77.7027 337.539 73.3007C337.539 68.8986 333.971 65.3301 329.569 65.3301C325.168 65.3301 321.6 68.8986 321.6 73.3007C321.6 77.7027 325.168 81.2713 329.569 81.2713Z" fill="#6C63FF"/>
<path d="M443.03 81.2713C447.432 81.2713 451 77.7027 451 73.3007C451 68.8986 447.432 65.3301 443.03 65.3301C438.629 65.3301 435.061 68.8986 435.061 73.3007C435.061 77.7027 438.629 81.2713 443.03 81.2713Z" fill="#6C63FF"/>
<path d="M404.007 81.2713C408.408 81.2713 411.976 77.7027 411.976 73.3007C411.976 68.8986 408.408 65.3301 404.007 65.3301C399.605 65.3301 396.037 68.8986 396.037 73.3007C396.037 77.7027 399.605 81.2713 404.007 81.2713Z" fill="#6C63FF"/>
<path d="M315.247 0H300.465V10.1891H315.247V0Z" fill="#3F3D56"/>
<path d="M179.536 0H164.754V10.1891H179.536V0Z" fill="#6C63FF"/>
<path d="M229.604 0H214.822V10.1891H229.604V0Z" fill="#CCCCCC"/>
<path d="M196.799 73.8364C196.676 73.8364 196.559 73.7876 196.472 73.7007C196.385 73.6138 196.336 73.4959 196.336 73.373V50.5008C196.337 49.8866 196.581 49.2978 197.015 48.8634C197.449 48.4291 198.038 48.1848 198.652 48.1841H221.203C221.326 48.1841 221.444 48.2329 221.531 48.3198C221.618 48.4067 221.667 48.5245 221.667 48.6474C221.667 48.7703 221.618 48.8882 221.531 48.9751C221.444 49.062 221.326 49.1108 221.203 49.1108H198.652C198.284 49.1112 197.931 49.2578 197.67 49.5184C197.409 49.779 197.263 50.1323 197.263 50.5008V73.373C197.263 73.4959 197.214 73.6138 197.127 73.7007C197.04 73.7876 196.922 73.8364 196.799 73.8364Z" fill="#3F3D56"/>
<path d="M222.263 56.4447C226.664 56.4447 230.232 52.8762 230.232 48.4741C230.232 44.0721 226.664 40.5035 222.263 40.5035C217.861 40.5035 214.293 44.0721 214.293 48.4741C214.293 52.8762 217.861 56.4447 222.263 56.4447Z" fill="#E6E6E6"/>
<path d="M375.169 73.373H374.242V50.5008C374.243 49.8866 374.487 49.2978 374.921 48.8634C375.356 48.4291 375.945 48.1848 376.559 48.1841H399.109V49.1108H376.559C376.19 49.1112 375.837 49.2578 375.576 49.5184C375.316 49.779 375.169 50.1323 375.169 50.5008V73.373Z" fill="#3F3D56"/>
<path d="M400.169 56.4447C404.57 56.4447 408.138 52.8762 408.138 48.4741C408.138 44.0721 404.57 40.5035 400.169 40.5035C395.767 40.5035 392.199 44.0721 392.199 48.4741C392.199 52.8762 395.767 56.4447 400.169 56.4447Z" fill="#E6E6E6"/>
</g>
<defs>
<clipPath id="clip0_199_39260">
<rect width="451" height="272" fill="white"/>
</clipPath>
</defs>
</svg>
